<?xml version="1.0" encoding="UTF-8" standalone="no"?><!DOCTYPE svg PUBLIC "-//W3C//DTD SVG 1.1//EN" "http://www.w3.org/Graphics/SVG/1.1/DTD/svg11.dtd"><svg width="100%" height="100%" viewBox="0 0 841 709" version="1.1" xmlns="http://www.w3.org/2000/svg" xmlns:xlink="http://www.w3.org/1999/xlink" xml:space="preserve" style="fill-rule:evenodd;clip-rule:evenodd;stroke-linejoin:round;stroke-miterlimit:1.41421;"><g><path d="M833.466,3.821c-2.749,-3.276 -7.641,-3.704 -10.918,-0.955l-819.195,687.386c-3.276,2.75 -3.704,7.641 -0.955,10.918c2.749,3.276 7.641,3.704 10.918,0.955l819.195,-687.386c3.276,-2.749 3.704,-7.641 0.955,-10.918Z" style="fill:#dfad4d;"/><clipPath id="_clip1"><path d="M835.274,5.977l-831.067,697.348l4.981,5.936l831.067,-697.348l-4.981,-5.936Z"/></clipPath><g clip-path="url(#_clip1)"><path d="M835.274,5.977c-2.749,-3.277 -7.641,-3.705 -10.917,-0.955l-819.195,687.386c-3.276,2.749 -3.704,7.641 -0.955,10.917c2.749,3.276 7.641,3.704 10.917,0.955l819.195,-687.386c3.276,-2.749 3.704,-7.641 0.955,-10.917Z" style="fill:#ce7a14;"/></g></g></svg>