<?xml version="1.0" encoding="UTF-8" standalone="no"?><!DOCTYPE svg PUBLIC "-//W3C//DTD SVG 1.1//EN" "http://www.w3.org/Graphics/SVG/1.1/DTD/svg11.dtd"><svg width="100%" height="100%" viewBox="0 0 100 100" version="1.1" xmlns="http://www.w3.org/2000/svg" xmlns:xlink="http://www.w3.org/1999/xlink" xml:space="preserve" style="fill-rule:evenodd;clip-rule:evenodd;stroke-linejoin:round;stroke-miterlimit:1.41421;"><g><rect x="0" y="0" width="100" height="100" style="fill:#f5f0ed;"/><path d="M8.2,61.538l1.886,-1.886c2.058,-2.074 2.058,-5.468 0,-7.542l-10.086,-10.08l0,3.77l8.2,8.2c0.505,0.497 0.79,1.177 0.79,1.886c0,0.709 -0.285,1.389 -0.79,1.886l-7.548,7.538c-0.191,0.195 -0.411,0.36 -0.652,0.49l0,2.8c0.96,-0.221 1.839,-0.706 2.538,-1.4l1.886,-1.886l3.776,3.766c0.5,0.5 1.179,0.781 1.886,0.781c1.463,0 2.667,-1.204 2.667,-2.667c0,-0.707 -0.281,-1.386 -0.781,-1.886l-3.772,-3.77Z" style="fill:#eae8e8;fill-rule:nonzero;"/><path d="M4.424,55.908c0.524,-0.51 0.536,-1.361 0.026,-1.886l-0.026,-0.026l-4.424,-4.424l0,3.772l2.538,2.538c0.51,0.524 1.361,0.536 1.886,0.026Z" style="fill:#eae8e8;fill-rule:nonzero;"/><path d="M7.018,6.4c-1.834,1.842 -4.457,2.677 -7.018,2.232l0,2.676c2.347,0.298 4.729,-0.19 6.77,-1.386l3.078,3.078c0.5,0.5 1.178,0.78 1.885,0.78c1.463,0 2.666,-1.203 2.666,-2.666c0,-0.707 -0.281,-1.386 -0.781,-1.886l-3.076,-3.076c1.089,-1.859 1.592,-4.003 1.444,-6.152l-2.65,0c0.222,2.371 -0.629,4.721 -2.318,6.4l0,0Z" style="fill:#eae8e8;fill-rule:nonzero;"/><path d="M88.836,25.484c0.146,0.219 0.224,0.477 0.224,0.74c0,0.446 -0.223,0.863 -0.594,1.11l-4.33,2.886c1.357,1.574 1.277,3.955 -0.182,5.434c-0.249,0.254 -0.59,0.398 -0.946,0.4c-1.214,0.684 -2.66,0.836 -3.852,0.22l-14.084,11.118c-1.054,0.836 -2.583,0.749 -3.536,-0.2l-7.96,-7.96c-0.95,-0.953 -1.036,-2.484 -0.2,-3.538l11.11,-14.094c-0.614,-1.2 -0.464,-2.638 0.22,-3.852c0.002,-0.356 0.146,-0.697 0.4,-0.946c1.556,-1.54 4.1,-1.54 5.656,0c2.074,-2.058 5.468,-2.058 7.542,0l4.714,4.714c1.572,1.572 5.31,3.52 5.31,3.52c0.207,0.104 0.383,0.259 0.512,0.452l-0.004,-0.004Zm-7.71,-2.084l-4.714,-4.718c-0.497,-0.505 -1.177,-0.79 -1.886,-0.79c-0.709,0 -1.389,0.285 -1.886,0.79l1.912,1.912c0.22,0.245 0.343,0.563 0.343,0.893c0,0.731 -0.603,1.334 -1.334,1.334c-0.343,0 -0.673,-0.132 -0.921,-0.369l-2.68,-2.68c-0.119,-0.085 -0.223,-0.189 -0.308,-0.308l-0.784,-0.784c-0.252,-0.264 -0.601,-0.414 -0.966,-0.414c-0.732,0 -1.334,0.602 -1.334,1.334c0,0.365 0.15,0.714 0.414,0.966l7.542,7.542c0.517,0.517 0.517,1.369 0,1.886l-0.942,0.942c-0.264,0.252 -0.414,0.601 -0.414,0.966c0,0.732 0.602,1.334 1.334,1.334c0.365,0 0.714,-0.15 0.966,-0.414l0.942,-0.942c0.517,-0.517 1.369,-0.517 1.886,0l1.886,1.886c0.252,0.264 0.601,0.414 0.966,0.414c0.732,0 1.334,-0.602 1.334,-1.334c0,-0.365 -0.15,-0.714 -0.414,-0.966l-0.734,-0.734c-0.173,-0.108 -0.318,-0.253 -0.426,-0.426l-4.496,-4.496l-0.026,-0.026c-0.22,-0.245 -0.343,-0.563 -0.343,-0.893c0,-0.731 0.603,-1.334 1.334,-1.334c0.343,0 0.673,0.132 0.921,0.369l3.94,3.94l2.912,-1.94c-1.278,-0.74 -2.824,-1.74 -4.024,-2.94Zm-16.028,2.828l0,1.886l1.886,0l0,-1.886l-1.886,0Zm0,3.772l0,1.886l1.886,0l0,-1.886l-1.886,0Zm-3.772,0l0,1.886l1.886,0l0,-1.886l-1.886,0Zm3.772,3.772l0,1.886l1.886,0l0,-1.886l-1.886,0Zm-3.772,0l0,1.886l1.886,0l0,-1.886l-1.886,0Zm-3.772,0l0,1.886l1.886,0l0,-1.886l-1.886,0Zm3.772,3.772l0,1.886l1.886,0l0,-1.886l-1.886,0Zm-3.772,0l0,1.886l1.886,0l0,-1.886l-1.886,0Z" style="fill:#eae8e8;fill-rule:nonzero;"/><path d="M60.892,3.508c-0.325,0.319 -0.701,0.58 -1.114,0.772l-4.278,-4.28l-9.428,0l10.106,10.106c0.407,0.406 1.032,0.505 1.544,0.246l3.822,-1.912c0.422,-0.233 0.684,-0.678 0.684,-1.159c0,-0.354 -0.142,-0.694 -0.394,-0.943l-0.096,-0.096c0.374,-0.245 0.723,-0.527 1.04,-0.842c1.415,-1.416 2.09,-3.416 1.822,-5.4l-2.59,0c0.223,1.281 -0.195,2.592 -1.118,3.508l0,0Z" style="fill:#eae8e8;fill-rule:nonzero;"/><path d="M39.054,13.726c1.214,1.214 3.08,1.517 4.616,0.75l8.73,-4.37l-3.764,-3.77l-1.886,0l0,-1.886l-1.886,-1.886l-1.886,0l0,-1.886l-0.678,-0.678l-1.81,0l-3.766,7.528c-0.767,1.536 -0.464,3.402 0.75,4.616l1.58,1.582Zm3.924,-9.276l1.886,0l0,1.886l-1.886,0l0,-1.886Zm0,3.772l1.886,0l0,1.886l-1.886,0l0,-1.886Zm-3.778,-3.772l1.886,0l0,1.886l-1.886,0l0,-1.886Zm0,3.772l1.886,0l0,1.886l-1.886,0l0,-1.886Z" style="fill:#eae8e8;fill-rule:nonzero;"/><path d="M4.2,88.486c-0.176,-0.176 -0.318,-0.29 -0.4,-0.364c-0.399,-0.36 -0.978,-0.446 -1.464,-0.216c-0.735,0.346 -1.526,0.555 -2.336,0.618l0,2.576c0.862,-0.05 1.712,-0.218 2.528,-0.5l4.492,4.492c1.322,1.315 2.141,3.052 2.316,4.908l2.65,0c-0.169,-2.565 -1.265,-4.983 -3.082,-6.8l-4.704,-4.714Z" style="fill:#eae8e8;fill-rule:nonzero;"/><path d="M100,49.572l-3.12,-3.12c-0.51,-0.524 -1.361,-0.536 -1.886,-0.026l-0.028,0.028c-0.508,0.525 -0.496,1.375 0.028,1.884l5,5l0.006,-3.766Z" style="fill:#eae8e8;fill-rule:nonzero;"/><path d="M100,65.8c-1.029,0.544 -2.303,0.348 -3.12,-0.482l-11.312,-11.318c-0.505,-0.497 -0.79,-1.177 -0.79,-1.886c0,-0.709 0.285,-1.389 0.79,-1.886l7.542,-7.542c0.497,-0.505 1.177,-0.79 1.886,-0.79c0.709,0 1.389,0.285 1.886,0.79l3.118,3.114l0,-3.77l-1.234,-1.23c-2.074,-2.058 -5.468,-2.058 -7.542,0l-7.542,7.542c-2.058,2.074 -2.058,5.468 0,7.542l11.318,11.316c1.311,1.298 3.205,1.828 5,1.4l0,-2.8Z" style="fill:#eae8e8;fill-rule:nonzero;"/><path d="M91.224,52.11c-0.51,-0.524 -1.361,-0.536 -1.886,-0.026l-0.028,0.028c-0.508,0.525 -0.496,1.375 0.028,1.884l7.542,7.542c0.252,0.26 0.598,0.407 0.96,0.407c0.733,0 1.336,-0.603 1.336,-1.336c0,-0.347 -0.135,-0.68 -0.376,-0.929l-0.026,-0.026l-7.55,-7.544Z" style="fill:#eae8e8;fill-rule:nonzero;"/><path d="M100,8.632c-1.628,-0.281 -3.128,-1.062 -4.294,-2.232l-4.706,-4.714c-0.506,-0.502 -0.943,-1.069 -1.3,-1.686l-2.95,0c0.534,1.338 1.335,2.554 2.354,3.572l4.716,4.714c1.665,1.667 3.841,2.731 6.18,3.022l0,-2.676Z" style="fill:#eae8e8;fill-rule:nonzero;"/><path d="M91,90.372c0.702,-0.702 1.548,-1.126 2.4,-1.51c1.818,1.586 4.192,2.391 6.6,2.238l0,-2.576c-1.943,0.162 -3.862,-0.543 -5.238,-1.924c-0.04,-0.04 -0.108,-0.12 -0.224,-0.25c-0.359,-0.404 -0.93,-0.552 -1.44,-0.372c-4.255,1.493 -7.119,5.535 -7.119,10.044c0,1.363 0.261,2.714 0.771,3.978l2.95,0c-1.79,-3.124 -1.255,-7.091 1.3,-9.628Z" style="fill:#eae8e8;fill-rule:nonzero;"/><path d="M62.778,88.422c-2.314,-2.314 -5.888,-2.444 -8.486,-0.626c-2.6,-1.818 -6.17,-1.688 -8.486,0.626c-0.317,0.316 -0.601,0.664 -0.848,1.038l-0.096,-0.096c-0.25,-0.25 -0.589,-0.39 -0.942,-0.39c-0.481,0 -0.927,0.26 -1.162,0.68c-0.021,0.037 -0.041,0.076 -0.058,0.116l-1.854,3.706c-0.259,0.512 -0.16,1.135 0.244,1.542l4.982,4.982l9.428,0l-8.578,-8.578c0.649,-1.399 2.057,-2.299 3.6,-2.299c1.063,0 2.082,0.427 2.828,1.185c0.557,0.553 0.937,1.259 1.092,2.028c0.098,0.649 0.662,1.134 1.319,1.134c0.732,0 1.334,-0.602 1.334,-1.334c0,-0.067 -0.005,-0.134 -0.015,-0.2c0,-0.043 -0.009,-0.085 -0.026,-0.128c-0.162,-0.773 -0.461,-1.51 -0.882,-2.178c0.573,-0.3 1.21,-0.457 1.857,-0.457c2.194,0 4,1.806 4,4c0,1.042 -0.408,2.044 -1.135,2.791c-0.517,0.517 -0.517,1.369 0,1.886c0.585,0.584 0.975,1.335 1.116,2.15l2.59,0c-0.143,-1.113 -0.555,-2.174 -1.2,-3.092c1.822,-2.598 1.692,-6.172 -0.622,-8.486Z" style="fill:#eae8e8;fill-rule:nonzero;"/><path d="M41.092,98.792l-0.602,1.208l1.81,0l-1.208,-1.208Z" style="fill:#eae8e8;fill-rule:nonzero;"/><path d="M42.328,74.744l0.226,0.226c0.264,0.252 0.413,0.601 0.413,0.965c0,0.732 -0.602,1.334 -1.334,1.334c-0.378,0 -0.738,-0.16 -0.991,-0.441l-0.942,-0.942c-0.517,-0.517 -0.517,-1.369 0,-1.886c1.25,-1.25 1.953,-2.947 1.953,-4.714c0,-3.657 -3.01,-6.667 -6.667,-6.667c-1.767,0 -3.464,0.703 -4.714,1.953c-0.517,0.517 -1.369,0.517 -1.886,0l-0.942,-0.942l-0.044,-0.03c-0.264,-0.252 -0.413,-0.601 -0.413,-0.965c0,-0.732 0.602,-1.334 1.334,-1.334c0.378,0 0.738,0.16 0.991,0.441l0.2,0.2c3.648,-2.694 8.766,-2.548 12.066,0.752c3.3,3.3 3.444,8.4 0.75,12.05Zm-10.18,-2.636c0.517,0.517 0.517,1.369 0,1.886l-0.948,0.94c-0.236,0.248 -0.368,0.578 -0.368,0.92c0,0.732 0.602,1.334 1.334,1.334c0.342,0 0.672,-0.132 0.92,-0.368l0.942,-0.942c0.517,-0.517 1.369,-0.517 1.886,0l3.286,3.284c0.25,0.25 0.39,0.59 0.39,0.943c0,0.546 -0.334,1.039 -0.84,1.241l-17.28,6.854c-1.818,0.721 -3.91,0.072 -5,-1.552c-0.8,-1.182 -0.862,-2.72 -0.336,-4.048l6.774,-17.094c0.201,-0.507 0.694,-0.842 1.24,-0.842c0.353,0 0.692,0.141 0.942,0.39l7.058,7.054Z" style="fill:#eae8e8;fill-rule:nonzero;"/><path d="M30.754,22.358l9.428,9.428c1.025,1.039 1.025,2.733 0,3.772l-3.772,3.772l3.772,3.772c0.5,0.5 0.781,1.179 0.781,1.886c0,1.463 -1.204,2.667 -2.667,2.667c-0.707,0 -1.386,-0.281 -1.886,-0.781l-3.77,-3.774l-3.772,3.772c-1.039,1.025 -2.733,1.025 -3.772,0l-9.426,-9.428c-4.034,-4.044 -4.07,-10.502 -0.27,-14.68c0.065,-0.149 0.156,-0.284 0.27,-0.4c4.141,-4.127 10.94,-4.13 15.084,-0.006l0,0Zm-13.2,13.2l9.428,9.428l11.314,-11.314l-9.428,-9.428c-1.5,-1.5 -3.536,-2.343 -5.657,-2.343c-4.389,0 -8,3.611 -8,8c0,2.121 0.843,4.157 2.343,5.657l0,0Zm1.912,-9.454c0.245,-0.22 0.563,-0.343 0.893,-0.343c0.731,0 1.334,0.603 1.334,1.334c0,0.343 -0.132,0.673 -0.369,0.921c-0.505,0.497 -0.79,1.177 -0.79,1.886c0,0.709 0.285,1.389 0.79,1.886l0.026,0.026c0.22,0.245 0.343,0.563 0.343,0.893c0,0.731 -0.603,1.334 -1.334,1.334c-0.343,0 -0.673,-0.132 -0.921,-0.369c-2.058,-2.074 -2.058,-5.468 0,-7.542l0.028,-0.026Z" style="fill:#eae8e8;fill-rule:nonzero;"/><path d="M74.554,58.148l9.428,9.428c1.025,1.039 1.025,2.733 0,3.772l-3.772,3.772l3.772,3.772c0.5,0.5 0.781,1.179 0.781,1.886c0,1.463 -1.204,2.667 -2.667,2.667c-0.707,0 -1.386,-0.281 -1.886,-0.781l-3.77,-3.774l-3.77,3.77c-1.039,1.025 -2.733,1.025 -3.772,0l-9.428,-9.428c-4.034,-4.032 -4.07,-10.5 -0.27,-14.678c0.065,-0.149 0.156,-0.284 0.27,-0.4c4.141,-4.127 10.94,-4.13 15.084,-0.006Zm-13.2,13.2l9.428,9.428l11.314,-11.314l-9.428,-9.428c-1.5,-1.5 -3.536,-2.343 -5.657,-2.343c-4.389,0 -8,3.611 -8,8c0,2.121 0.843,4.157 2.343,5.657Zm1.912,-9.454c0.245,-0.22 0.563,-0.343 0.893,-0.343c0.731,0 1.334,0.603 1.334,1.334c0,0.343 -0.132,0.673 -0.369,0.921c-0.505,0.497 -0.79,1.177 -0.79,1.886c0,0.709 0.285,1.389 0.79,1.886l0.026,0.026c0.22,0.245 0.343,0.563 0.343,0.893c0,0.731 -0.603,1.334 -1.334,1.334c-0.343,0 -0.673,-0.132 -0.921,-0.369c-2.058,-2.074 -2.058,-5.468 0,-7.542l0.028,-0.026Z" style="fill:#eae8e8;fill-rule:nonzero;"/></g></svg>