<?xml version="1.0" encoding="UTF-8" standalone="no"?><!DOCTYPE svg PUBLIC "-//W3C//DTD SVG 1.1//EN" "http://www.w3.org/Graphics/SVG/1.1/DTD/svg11.dtd"><svg width="100%" height="100%" viewBox="0 0 217 183" version="1.1" xmlns="http://www.w3.org/2000/svg" xmlns:xlink="http://www.w3.org/1999/xlink" xml:space="preserve" style="fill-rule:evenodd;clip-rule:evenodd;stroke-linejoin:round;stroke-miterlimit:1.41421;"><g id="left.-line"><path d="M215.714,1.691c-0.824,-0.983 -2.292,-1.111 -3.275,-0.286l-210.141,176.329c-0.983,0.825 -1.111,2.293 -0.287,3.276c0.825,0.982 2.293,1.111 3.275,0.286l210.142,-176.329c0.983,-0.825 1.111,-2.293 0.286,-3.276Z" style="fill:#dfad4d;"/><clipPath id="_clip1"><path d="M215.714,1.691l-213.703,179.319l1.495,1.78l213.703,-179.318l-1.495,-1.781Z"/></clipPath><g clip-path="url(#_clip1)"><path d="M215.714,1.691c-0.824,-0.983 -2.292,-1.111 -3.275,-0.286l-210.141,176.329c-0.983,0.825 -1.111,2.293 -0.287,3.276c0.825,0.982 2.293,1.111 3.275,0.286l210.142,-176.329c0.983,-0.825 1.111,-2.293 0.286,-3.276Z" style="fill:#dfad4d;"/></g></g></svg>