<?xml version="1.0" encoding="UTF-8" standalone="no"?><!DOCTYPE svg PUBLIC "-//W3C//DTD SVG 1.1//EN" "http://www.w3.org/Graphics/SVG/1.1/DTD/svg11.dtd"><svg width="100%" height="100%" viewBox="0 0 653 853" version="1.1" xmlns="http://www.w3.org/2000/svg" xmlns:xlink="http://www.w3.org/1999/xlink" xml:space="preserve" style="fill-rule:evenodd;clip-rule:evenodd;stroke-linecap:round;stroke-linejoin:round;stroke-miterlimit:1.5;"><g id="prijedlog3"><g><path d="M57.087,173.333c-2.024,-9.173 0.222,-18.769 6.105,-26.092c5.883,-7.322 14.77,-11.582 24.164,-11.582c97.623,0 354.463,0 464.093,0c12.57,0 24.492,5.575 32.552,15.221c8.059,9.647 11.424,22.371 9.189,34.741c-5.508,30.472 -12.176,67.363 -15.859,87.737c-1.611,8.916 -9.373,15.4 -18.433,15.4c-74.958,0 -396.427,0 -463.895,0c-7.273,0 -13.568,-5.057 -15.134,-12.159c-4.868,-22.063 -15.338,-69.524 -22.782,-103.266Z" style="fill:#f5cd79;stroke:#dfad4d;stroke-width:4.65px;"/><path d="M488.615,479.859l-5.061,26.618c0,0 -16.121,84.774 -27.118,142.611c-5.811,30.555 -32.521,52.665 -63.624,52.665c-30.156,0 -61.812,0 -61.812,0l-15.733,0l15.733,0l152.554,-195.276c0,0 5.061,-26.618 5.061,-26.618Zm34.43,-181.062l-34.43,181.062l-173.348,221.894c0,0 -24.002,0 -48.836,0c-31.438,0 -58.437,-22.348 -64.31,-53.233c0,-0.001 0,-0.002 0,-0.002l273.209,-349.721l47.715,0Zm-63.448,0l-260.556,333.525l-30.29,-159.294l136.112,-174.231l154.734,0Zm-170.467,0l-123.459,158.034l-30.051,-158.034l153.51,0Z" style="fill:#f5cd79;stroke:#dfad4d;stroke-width:4.65px;"/><path d="M336.56,701.753l-16.347,0l-141.483,-181.106l-5.259,-27.657l163.089,208.763Z" style="fill:#fdcb6e;stroke:#dfad4d;stroke-width:3.1px;"/><path d="M191.949,298.797l265.686,340.091l-3.025,15.907l-278.113,-355.998l15.452,0Z" style="fill:#fdcb6e;stroke:#dfad4d;stroke-width:3.1px;"/><g transform="matrix(1.96607,6.82173e-18,-6.82117e-18,1.96623,-515.82,-400.038)"><text x="309.874px" y="333.366px" style="font-family:'AgencyFB-Reg', 'Agency FB', sans-serif;font-stretch:condensed;font-size:57.54px;fill:none;">EUROKORNET</text><text x="309.874px" y="333.366px" style="font-family:'AgencyFB-Reg', 'Agency FB', sans-serif;font-stretch:condensed;font-size:57.54px;fill:#dfad4d;stroke:#da831a;stroke-width:1.18px;stroke-linecap:butt;stroke-miterlimit:1.41421;">EUROKORNET</text></g><path d="M325.498,20.551l12.513,37.866l40.766,-0.087l-33.033,23.316l12.682,37.813l-32.928,-23.456l-32.929,23.456l12.683,-37.813l-33.033,-23.316l40.766,0.087l12.513,-37.866Z" style="fill:#f5cd79;"/><path d="M326.068,12.823l0.567,0.063l0.561,0.104l0.551,0.145l0.54,0.186l0.524,0.225l0.506,0.262l0.486,0.3l0.462,0.334l0.437,0.367l0.408,0.398l0.378,0.427l0.345,0.454l0.311,0.479l0.275,0.499l0.238,0.519l0.199,0.534l10.751,32.537l35.154,-0.075l0.559,0.019l0.557,0.06l0.551,0.099l0.542,0.139l0.531,0.178l0.517,0.215l0.499,0.253l0.481,0.287l0.458,0.322l0.434,0.354l0.407,0.384l0.378,0.413l0.347,0.439l0.315,0.463l0.281,0.484l0.245,0.504l0.208,0.519l0.17,0.534l0.131,0.544l0.091,0.552l0.051,0.558l0.011,0.56l-0.029,0.559l-0.07,0.555l-0.11,0.549l-0.149,0.54l-0.188,0.527l-0.225,0.512l-0.262,0.495l-0.297,0.475l-0.33,0.452l-0.362,0.427l-0.392,0.4l-0.42,0.37l-0.445,0.339l-28.321,19.99l10.848,32.344l0.162,0.549l0.121,0.56l0.079,0.567l0.037,0.572l-0.005,0.573l-0.047,0.57l-0.09,0.566l-0.131,0.557l-0.172,0.547l-0.211,0.532l-0.251,0.515l-0.287,0.495l-0.324,0.473l-0.358,0.447l-0.389,0.42l-0.42,0.39l-0.447,0.357l-0.473,0.324l-0.495,0.288l-0.515,0.251l-0.532,0.211l-0.546,0.172l-0.557,0.132l-0.566,0.089l-0.571,0.048l-0.572,0.005l-0.572,-0.037l-0.567,-0.079l-0.56,-0.12l-0.549,-0.162l-0.536,-0.202l-0.52,-0.241l-0.5,-0.279l-0.479,-0.314l-28.432,-20.254l-28.433,20.254l-0.478,0.314l-0.5,0.279l-0.52,0.241l-0.536,0.202l-0.549,0.162l-0.56,0.12l-0.567,0.079l-0.572,0.037l-0.572,-0.005l-0.571,-0.048l-0.566,-0.089l-0.557,-0.132l-0.547,-0.172l-0.532,-0.211l-0.515,-0.251l-0.495,-0.288l-0.472,-0.324l-0.447,-0.357l-0.42,-0.39l-0.39,-0.42l-0.357,-0.447l-0.324,-0.473l-0.288,-0.495l-0.25,-0.515l-0.212,-0.532l-0.172,-0.547l-0.131,-0.557l-0.089,-0.566l-0.047,-0.57l-0.006,-0.573l0.037,-0.572l0.08,-0.567l0.121,-0.56l0.162,-0.549l10.848,-32.344l-28.321,-19.99l-0.445,-0.339l-0.42,-0.37l-0.392,-0.4l-0.362,-0.427l-0.33,-0.452l-0.297,-0.475l-0.262,-0.495l-0.225,-0.512l-0.188,-0.527l-0.149,-0.54l-0.11,-0.549l-0.07,-0.555l-0.029,-0.559l0.01,-0.56l0.052,-0.558l0.091,-0.552l0.131,-0.544l0.17,-0.534l0.208,-0.519l0.245,-0.504l0.28,-0.484l0.315,-0.463l0.348,-0.439l0.378,-0.413l0.407,-0.384l0.434,-0.354l0.458,-0.322l0.48,-0.287l0.5,-0.253l0.517,-0.215l0.531,-0.178l0.542,-0.139l0.551,-0.099l0.557,-0.06l0.559,-0.019l35.153,0.075l10.752,-32.537l0.199,-0.534l0.237,-0.519l0.275,-0.499l0.312,-0.479l0.345,-0.454l0.378,-0.427l0.408,-0.398l0.437,-0.367l0.462,-0.334l0.486,-0.3l0.506,-0.262l0.524,-0.225l0.54,-0.186l0.551,-0.145l0.561,-0.104l0.567,-0.063l0.57,-0.021l0.57,0.021Zm-13.083,45.594l-40.766,-0.087l33.033,23.316l-12.683,37.813l32.929,-23.456l32.928,23.456l-12.682,-37.813l33.033,-23.316l-40.766,0.087l-12.513,-37.866l-12.513,37.866Z" style="fill:#dfad4d;"/></g><g><clipPath id="_clip1"><rect x="325.498" y="-35.497" width="276.722" height="781.031"/></clipPath><g clip-path="url(#_clip1)"><path d="M51.685,148.845c-0.709,-3.211 0.077,-6.569 2.136,-9.132c2.06,-2.563 5.17,-4.054 8.458,-4.054c69.997,0 392.544,0 502.84,0c9.185,0 17.898,4.074 23.787,11.123c5.889,7.049 8.349,16.348 6.715,25.387c-6.058,33.515 -14.691,81.281 -18.77,103.847c-1.333,7.377 -7.755,12.742 -15.251,12.742c-77.728,0 -479.049,0 -479.049,0c0,0 -22.674,-102.777 -30.866,-139.913Z" style="fill:#dfad4d;stroke:#e6a62c;stroke-width:4.65px;"/><path d="M488.615,479.859l-5.061,26.618c0,0 -16.024,84.268 -27.02,142.091c-5.867,30.857 -32.842,53.185 -64.251,53.185c-29.996,0 -61.283,0 -61.283,0l-15.733,0l15.733,0l152.554,-195.276c0,0 5.061,-26.618 5.061,-26.618Zm34.43,-181.062l-34.43,181.062l-173.348,221.894l-103.023,0l-10.123,-53.235l273.209,-349.721l47.715,0Zm-63.448,0l-260.556,333.525l-30.29,-159.294l136.112,-174.231l154.734,0Zm-170.467,0l-123.459,158.034l-30.051,-158.034l153.51,0Z" style="fill:#dfad4d;stroke:#e6a834;stroke-width:4.65px;"/><path d="M336.56,701.753l-15.732,0l-136.168,-174.301l-5.062,-26.618l156.962,200.919Z" style="fill:#fdcb6e;stroke:#e6a834;stroke-width:3.1px;"/><path d="M191.949,298.797l265.686,340.091l-3.025,15.907l-278.113,-355.998l15.452,0Z" style="fill:#fdcb6e;stroke:#e6a834;stroke-width:3.1px;"/><path d="M362.213,298.797l129.326,165.544l-2.985,15.698l-141.59,-181.242l15.249,0Z" style="fill:#fdcb6e;stroke:#e6a834;stroke-width:3.1px;"/><g transform="matrix(1.96607,6.82173e-18,-6.82117e-18,1.96623,-515.82,-400.038)"><text x="309.874px" y="333.366px" style="font-family:'AgencyFB-Reg', 'Agency FB', sans-serif;font-stretch:condensed;font-size:57.54px;fill:none;">EUROKORNET</text><text x="309.874px" y="333.366px" style="font-family:'AgencyFB-Reg', 'Agency FB', sans-serif;font-stretch:condensed;font-size:57.54px;fill:#dfad4d;stroke:#ce7a14;stroke-width:1.18px;stroke-linecap:butt;stroke-miterlimit:1.41421;">EUROKORNET</text></g><path d="M325.498,20.551l12.513,37.866l40.766,-0.087l-33.033,23.316l12.682,37.813l-32.928,-23.456l-32.929,23.456l12.683,-37.813l-33.033,-23.316l40.766,0.087l12.513,-37.866Z" style="fill:#dfad4d;"/><path d="M326.068,12.823l0.567,0.063l0.561,0.104l0.551,0.145l0.54,0.186l0.524,0.225l0.506,0.262l0.486,0.3l0.462,0.334l0.437,0.367l0.408,0.398l0.378,0.427l0.345,0.454l0.311,0.479l0.275,0.499l0.238,0.519l0.199,0.534l10.751,32.537l35.154,-0.075l0.559,0.019l0.557,0.06l0.551,0.099l0.542,0.139l0.531,0.178l0.517,0.215l0.499,0.253l0.481,0.287l0.458,0.322l0.434,0.354l0.407,0.384l0.378,0.413l0.347,0.439l0.315,0.463l0.281,0.484l0.245,0.504l0.208,0.519l0.17,0.534l0.131,0.544l0.091,0.552l0.051,0.558l0.011,0.56l-0.029,0.559l-0.07,0.555l-0.11,0.549l-0.149,0.54l-0.188,0.527l-0.225,0.512l-0.262,0.495l-0.297,0.475l-0.33,0.452l-0.362,0.427l-0.392,0.4l-0.42,0.37l-0.445,0.339l-28.321,19.99l10.848,32.344l0.162,0.549l0.121,0.56l0.079,0.567l0.037,0.572l-0.005,0.573l-0.047,0.57l-0.09,0.566l-0.131,0.557l-0.172,0.547l-0.211,0.532l-0.251,0.515l-0.287,0.495l-0.324,0.473l-0.358,0.447l-0.389,0.42l-0.42,0.39l-0.447,0.357l-0.473,0.324l-0.495,0.288l-0.515,0.251l-0.532,0.211l-0.546,0.172l-0.557,0.132l-0.566,0.089l-0.571,0.048l-0.572,0.005l-0.572,-0.037l-0.567,-0.079l-0.56,-0.12l-0.549,-0.162l-0.536,-0.202l-0.52,-0.241l-0.5,-0.279l-0.479,-0.314l-28.432,-20.254l-28.433,20.254l-0.478,0.314l-0.5,0.279l-0.52,0.241l-0.536,0.202l-0.549,0.162l-0.56,0.12l-0.567,0.079l-0.572,0.037l-0.572,-0.005l-0.571,-0.048l-0.566,-0.089l-0.557,-0.132l-0.547,-0.172l-0.532,-0.211l-0.515,-0.251l-0.495,-0.288l-0.472,-0.324l-0.447,-0.357l-0.42,-0.39l-0.39,-0.42l-0.357,-0.447l-0.324,-0.473l-0.288,-0.495l-0.25,-0.515l-0.212,-0.532l-0.172,-0.547l-0.131,-0.557l-0.089,-0.566l-0.047,-0.57l-0.006,-0.573l0.037,-0.572l0.08,-0.567l0.121,-0.56l0.162,-0.549l10.848,-32.344l-28.321,-19.99l-0.445,-0.339l-0.42,-0.37l-0.392,-0.4l-0.362,-0.427l-0.33,-0.452l-0.297,-0.475l-0.262,-0.495l-0.225,-0.512l-0.188,-0.527l-0.149,-0.54l-0.11,-0.549l-0.07,-0.555l-0.029,-0.559l0.01,-0.56l0.052,-0.558l0.091,-0.552l0.131,-0.544l0.17,-0.534l0.208,-0.519l0.245,-0.504l0.28,-0.484l0.315,-0.463l0.348,-0.439l0.378,-0.413l0.407,-0.384l0.434,-0.354l0.458,-0.322l0.48,-0.287l0.5,-0.253l0.517,-0.215l0.531,-0.178l0.542,-0.139l0.551,-0.099l0.557,-0.06l0.559,-0.019l35.153,0.075l10.752,-32.537l0.199,-0.534l0.237,-0.519l0.275,-0.499l0.312,-0.479l0.345,-0.454l0.378,-0.427l0.408,-0.398l0.437,-0.367l0.462,-0.334l0.486,-0.3l0.506,-0.262l0.524,-0.225l0.54,-0.186l0.551,-0.145l0.561,-0.104l0.567,-0.063l0.57,-0.021l0.57,0.021Zm-13.083,45.594l-40.766,-0.087l33.033,23.316l-12.683,37.813l32.929,-23.456l32.928,23.456l-12.682,-37.813l33.033,-23.316l-40.766,0.087l-12.513,-37.866l-12.513,37.866Z" style="fill:#e6a62c;"/></g></g><g transform="matrix(1.5497,0,0,1.54983,-1998.31,-902.22)"><text x="1405.01px" y="1106.69px" style="font-family:'AgencyFB-Reg', 'Agency FB', sans-serif;font-stretch:condensed;font-size:73px;fill:none;">Prijedor</text><text x="1405.01px" y="1106.69px" style="font-family:'AgencyFB-Reg', 'Agency FB', sans-serif;font-stretch:condensed;font-size:73px;fill:#dfad4d;stroke:#dfad4d;stroke-width:1.5px;stroke-linecap:butt;stroke-miterlimit:1.41421;">Prijedor</text></g></g></svg>