<?xml version="1.0" encoding="UTF-8" standalone="no"?><!DOCTYPE svg PUBLIC "-//W3C//DTD SVG 1.1//EN" "http://www.w3.org/Graphics/SVG/1.1/DTD/svg11.dtd"><svg width="100%" height="100%" viewBox="0 0 1975 851" version="1.1" xmlns="http://www.w3.org/2000/svg" xmlns:xlink="http://www.w3.org/1999/xlink" xml:space="preserve" style="fill-rule:evenodd;clip-rule:evenodd;stroke-linecap:round;stroke-linejoin:round;stroke-miterlimit:1.5;"><g id="prijedlog3-.-wide"><g><path d="M10.713,188.259c-2.024,-9.173 0.221,-18.769 6.105,-26.092c5.883,-7.323 14.77,-11.583 24.164,-11.583c97.622,0 354.462,0 464.093,0c12.57,0 24.492,5.575 32.551,15.222c8.06,9.646 11.425,22.37 9.19,34.74c-5.508,30.473 -12.176,67.364 -15.859,87.737c-1.611,8.916 -9.373,15.4 -18.433,15.4c-74.958,0 -396.427,0 -463.895,0c-7.273,0.001 -13.568,-5.057 -15.135,-12.159c-4.867,-22.062 -15.337,-69.523 -22.781,-103.265Z" style="fill:#f5cd79;stroke:#dfad4d;stroke-width:4.65px;"/><path d="M442.241,494.785l-5.062,26.617c0,0 -16.12,84.775 -27.118,142.611c-5.81,30.555 -32.521,52.665 -63.623,52.665c-30.156,0 -61.812,0 -61.812,0l-15.733,0l15.733,0l152.553,-195.276c0,0 5.062,-26.617 5.062,-26.617Zm34.43,-181.063l-34.43,181.063l-173.348,221.893c0,0 -24.003,0 -48.836,0c-31.438,0 -58.437,-22.348 -64.31,-53.233c0,-0.001 0,-0.001 0,-0.001l273.209,-349.722l47.715,0Zm-63.448,0l-260.556,333.525l-30.291,-159.294l136.113,-174.231l154.734,0Zm-170.467,0l-123.459,158.035l-30.051,-158.035l153.51,0Z" style="fill:#f5cd79;stroke:#dfad4d;stroke-width:4.65px;"/><path d="M290.186,716.678l-16.347,0l-141.484,-181.106l-5.259,-27.656l163.09,208.762Z" style="fill:#fdcb6e;stroke:#dfad4d;stroke-width:3.1px;"/><path d="M145.574,313.722l265.687,340.092l-3.025,15.906l-278.113,-355.998l15.451,0Z" style="fill:#fdcb6e;stroke:#dfad4d;stroke-width:3.1px;"/><g transform="matrix(5.50392,1.90971e-17,-1.90955e-17,5.50437,-1012.9,-1253.79)"><text x="309.874px" y="333.366px" style="font-family:'AgencyFB-Reg', 'Agency FB', sans-serif;font-stretch:condensed;font-size:57.54px;fill:none;">EUROKORNET</text><text x="309.874px" y="333.366px" style="font-family:'AgencyFB-Reg', 'Agency FB', sans-serif;font-stretch:condensed;font-size:57.54px;fill:#dfad4d;stroke:#da831a;stroke-width:0.42px;stroke-linecap:butt;stroke-miterlimit:1.41421;">EUROKORNET</text></g><path d="M279.124,8.907l12.512,37.866l40.767,-0.087l-33.033,23.316l12.682,37.813l-32.928,-23.457l-32.929,23.457l12.683,-37.813l-33.034,-23.316l40.767,0.087l12.513,-37.866Z" style="fill:#f5cd79;"/><path d="M279.694,1.179l0.567,0.062l0.56,0.105l0.552,0.145l0.539,0.186l0.525,0.224l0.506,0.263l0.486,0.299l0.462,0.334l0.436,0.368l0.409,0.398l0.378,0.427l0.345,0.454l0.311,0.478l0.275,0.5l0.238,0.519l0.199,0.534l10.751,32.537l35.153,-0.075l0.56,0.019l0.557,0.059l0.551,0.1l0.542,0.139l0.531,0.178l0.516,0.215l0.5,0.252l0.48,0.288l0.459,0.322l0.433,0.354l0.407,0.384l0.379,0.413l0.347,0.439l0.315,0.462l0.281,0.485l0.245,0.503l0.208,0.52l0.17,0.533l0.131,0.545l0.091,0.552l0.051,0.558l0.011,0.559l-0.03,0.559l-0.069,0.556l-0.11,0.549l-0.149,0.539l-0.188,0.528l-0.225,0.512l-0.262,0.495l-0.297,0.475l-0.33,0.452l-0.362,0.427l-0.392,0.4l-0.42,0.37l-0.445,0.339l-28.321,19.99l10.848,32.344l0.162,0.549l0.121,0.56l0.079,0.567l0.037,0.572l-0.005,0.572l-0.047,0.571l-0.09,0.566l-0.131,0.557l-0.172,0.547l-0.211,0.532l-0.251,0.515l-0.288,0.495l-0.323,0.472l-0.358,0.448l-0.389,0.419l-0.42,0.39l-0.447,0.358l-0.473,0.324l-0.495,0.288l-0.515,0.25l-0.532,0.212l-0.546,0.172l-0.558,0.131l-0.565,0.09l-0.571,0.048l-0.573,0.005l-0.571,-0.037l-0.567,-0.079l-0.56,-0.121l-0.55,-0.161l-0.536,-0.202l-0.519,-0.241l-0.5,-0.279l-0.479,-0.315l-28.432,-20.253l-28.433,20.253l-0.478,0.315l-0.5,0.279l-0.52,0.241l-0.536,0.202l-0.549,0.161l-0.56,0.121l-0.567,0.079l-0.572,0.037l-0.573,-0.005l-0.57,-0.048l-0.566,-0.09l-0.558,-0.131l-0.546,-0.172l-0.532,-0.212l-0.515,-0.25l-0.495,-0.288l-0.472,-0.324l-0.448,-0.358l-0.419,-0.39l-0.39,-0.419l-0.357,-0.448l-0.324,-0.472l-0.288,-0.495l-0.25,-0.515l-0.212,-0.532l-0.172,-0.547l-0.131,-0.557l-0.089,-0.566l-0.048,-0.571l-0.005,-0.572l0.037,-0.572l0.08,-0.567l0.12,-0.56l0.162,-0.549l10.848,-32.344l-28.32,-19.99l-0.446,-0.339l-0.419,-0.37l-0.392,-0.4l-0.362,-0.427l-0.331,-0.452l-0.296,-0.475l-0.262,-0.495l-0.225,-0.512l-0.188,-0.528l-0.149,-0.539l-0.11,-0.549l-0.07,-0.556l-0.03,-0.559l0.011,-0.559l0.051,-0.558l0.092,-0.552l0.131,-0.545l0.17,-0.533l0.208,-0.52l0.245,-0.503l0.28,-0.485l0.315,-0.462l0.348,-0.439l0.378,-0.413l0.407,-0.384l0.434,-0.354l0.458,-0.322l0.48,-0.288l0.5,-0.252l0.517,-0.215l0.53,-0.178l0.543,-0.139l0.551,-0.1l0.556,-0.059l0.56,-0.019l35.153,0.075l10.752,-32.537l0.199,-0.534l0.237,-0.519l0.275,-0.5l0.311,-0.478l0.346,-0.454l0.378,-0.427l0.408,-0.398l0.436,-0.368l0.463,-0.334l0.485,-0.299l0.507,-0.263l0.524,-0.224l0.539,-0.186l0.552,-0.145l0.561,-0.105l0.567,-0.062l0.57,-0.021l0.57,0.021Zm-13.083,45.594l-40.767,-0.087l33.034,23.316l-12.683,37.813l32.929,-23.457l32.928,23.457l-12.682,-37.813l33.033,-23.316l-40.767,0.087l-12.512,-37.866l-12.513,37.866Z" style="fill:#dfad4d;"/></g><g><clipPath id="_clip1"><rect x="279.124" y="-20.572" width="276.722" height="781.031"/></clipPath><g clip-path="url(#_clip1)"><path d="M5.31,163.77c-0.708,-3.21 0.078,-6.569 2.137,-9.132c2.059,-2.563 5.17,-4.054 8.458,-4.054c69.996,0 392.544,0 502.84,0c9.185,0 17.898,4.074 23.787,11.124c5.889,7.049 8.349,16.347 6.715,25.386c-6.058,33.515 -14.692,81.282 -18.77,103.848c-1.334,7.376 -7.755,12.742 -15.251,12.741c-77.728,0 -479.049,0 -479.049,0c0,0 -22.674,-102.776 -30.867,-139.913Z" style="fill:#dfad4d;stroke:#e6a62c;stroke-width:4.65px;"/><path d="M442.241,494.785l-5.062,26.617c0,0 -16.024,84.268 -27.019,142.091c-5.867,30.857 -32.842,53.185 -64.251,53.185c-29.996,0 -61.283,0 -61.283,0l-15.733,0l15.733,0l152.553,-195.276c0,0 5.062,-26.617 5.062,-26.617Zm34.43,-181.063l-34.43,181.063l-173.348,221.893l-103.023,0l-10.123,-53.234l273.209,-349.722l47.715,0Zm-63.448,0l-260.556,333.525l-30.291,-159.294l136.113,-174.231l154.734,0Zm-170.467,0l-123.459,158.035l-30.051,-158.035l153.51,0Z" style="fill:#dfad4d;stroke:#e6a834;stroke-width:4.65px;"/><path d="M290.186,716.678l-15.733,0l-136.167,-174.301l-5.062,-26.617l156.962,200.918Z" style="fill:#fdcb6e;stroke:#e6a834;stroke-width:3.1px;"/><path d="M145.574,313.722l265.687,340.092l-3.025,15.906l-278.113,-355.998l15.451,0Z" style="fill:#fdcb6e;stroke:#e6a834;stroke-width:3.1px;"/><path d="M315.839,313.722l129.326,165.544l-2.985,15.698l-141.59,-181.242l15.249,0Z" style="fill:#fdcb6e;stroke:#e6a834;stroke-width:3.1px;"/><path d="M279.124,8.907l12.512,37.866l40.767,-0.087l-33.033,23.316l12.682,37.813l-32.928,-23.457l-32.929,23.457l12.683,-37.813l-33.034,-23.316l40.767,0.087l12.513,-37.866Z" style="fill:#dfad4d;"/><path d="M279.694,1.179l0.567,0.062l0.56,0.105l0.552,0.145l0.539,0.186l0.525,0.224l0.506,0.263l0.486,0.299l0.462,0.334l0.436,0.368l0.409,0.398l0.378,0.427l0.345,0.454l0.311,0.478l0.275,0.5l0.238,0.519l0.199,0.534l10.751,32.537l35.153,-0.075l0.56,0.019l0.557,0.059l0.551,0.1l0.542,0.139l0.531,0.178l0.516,0.215l0.5,0.252l0.48,0.288l0.459,0.322l0.433,0.354l0.407,0.384l0.379,0.413l0.347,0.439l0.315,0.462l0.281,0.485l0.245,0.503l0.208,0.52l0.17,0.533l0.131,0.545l0.091,0.552l0.051,0.558l0.011,0.559l-0.03,0.559l-0.069,0.556l-0.11,0.549l-0.149,0.539l-0.188,0.528l-0.225,0.512l-0.262,0.495l-0.297,0.475l-0.33,0.452l-0.362,0.427l-0.392,0.4l-0.42,0.37l-0.445,0.339l-28.321,19.99l10.848,32.344l0.162,0.549l0.121,0.56l0.079,0.567l0.037,0.572l-0.005,0.572l-0.047,0.571l-0.09,0.566l-0.131,0.557l-0.172,0.547l-0.211,0.532l-0.251,0.515l-0.288,0.495l-0.323,0.472l-0.358,0.448l-0.389,0.419l-0.42,0.39l-0.447,0.358l-0.473,0.324l-0.495,0.288l-0.515,0.25l-0.532,0.212l-0.546,0.172l-0.558,0.131l-0.565,0.09l-0.571,0.048l-0.573,0.005l-0.571,-0.037l-0.567,-0.079l-0.56,-0.121l-0.55,-0.161l-0.536,-0.202l-0.519,-0.241l-0.5,-0.279l-0.479,-0.315l-28.432,-20.253l-28.433,20.253l-0.478,0.315l-0.5,0.279l-0.52,0.241l-0.536,0.202l-0.549,0.161l-0.56,0.121l-0.567,0.079l-0.572,0.037l-0.573,-0.005l-0.57,-0.048l-0.566,-0.09l-0.558,-0.131l-0.546,-0.172l-0.532,-0.212l-0.515,-0.25l-0.495,-0.288l-0.472,-0.324l-0.448,-0.358l-0.419,-0.39l-0.39,-0.419l-0.357,-0.448l-0.324,-0.472l-0.288,-0.495l-0.25,-0.515l-0.212,-0.532l-0.172,-0.547l-0.131,-0.557l-0.089,-0.566l-0.048,-0.571l-0.005,-0.572l0.037,-0.572l0.08,-0.567l0.12,-0.56l0.162,-0.549l10.848,-32.344l-28.32,-19.99l-0.446,-0.339l-0.419,-0.37l-0.392,-0.4l-0.362,-0.427l-0.331,-0.452l-0.296,-0.475l-0.262,-0.495l-0.225,-0.512l-0.188,-0.528l-0.149,-0.539l-0.11,-0.549l-0.07,-0.556l-0.03,-0.559l0.011,-0.559l0.051,-0.558l0.092,-0.552l0.131,-0.545l0.17,-0.533l0.208,-0.52l0.245,-0.503l0.28,-0.485l0.315,-0.462l0.348,-0.439l0.378,-0.413l0.407,-0.384l0.434,-0.354l0.458,-0.322l0.48,-0.288l0.5,-0.252l0.517,-0.215l0.53,-0.178l0.543,-0.139l0.551,-0.1l0.556,-0.059l0.56,-0.019l35.153,0.075l10.752,-32.537l0.199,-0.534l0.237,-0.519l0.275,-0.5l0.311,-0.478l0.346,-0.454l0.378,-0.427l0.408,-0.398l0.436,-0.368l0.463,-0.334l0.485,-0.299l0.507,-0.263l0.524,-0.224l0.539,-0.186l0.552,-0.145l0.561,-0.105l0.567,-0.062l0.57,-0.021l0.57,0.021Zm-13.083,45.594l-40.767,-0.087l33.034,23.316l-12.683,37.813l32.929,-23.457l32.928,23.457l-12.682,-37.813l33.033,-23.316l-40.767,0.087l-12.512,-37.866l-12.513,37.866Z" style="fill:#e6a62c;"/></g></g><g transform="matrix(1.5497,0,0,1.54983,-2044.69,-887.294)"><text x="1405.01px" y="1106.69px" style="font-family:'AgencyFB-Reg', 'Agency FB', sans-serif;font-stretch:condensed;font-size:73px;fill:none;">Prijedor</text><text x="1405.01px" y="1106.69px" style="font-family:'AgencyFB-Reg', 'Agency FB', sans-serif;font-stretch:condensed;font-size:73px;fill:#dfad4d;stroke:#dfad4d;stroke-width:1.5px;stroke-linecap:butt;stroke-miterlimit:1.41421;">Prijedor</text></g></g></svg>