<?xml version="1.0" encoding="UTF-8" standalone="no"?><!DOCTYPE svg PUBLIC "-//W3C//DTD SVG 1.1//EN" "http://www.w3.org/Graphics/SVG/1.1/DTD/svg11.dtd"><svg width="100%" height="100%" viewBox="0 0 1790 72" version="1.1" xmlns="http://www.w3.org/2000/svg" xmlns:xlink="http://www.w3.org/1999/xlink" xml:space="preserve" style="fill-rule:evenodd;clip-rule:evenodd;stroke-linejoin:round;stroke-miterlimit:1.41421;"><g><path d="M-5.152,56.22l33.375,-1.664c33.25,-1.789 100.375,-4.929 166.625,-3.359c66.625,1.57 133.75,8.477 200,13.406c66.625,5.118 133.75,8.257 200,5.023c66.625,-3.359 133.75,-13.406 200,-21.788c66.625,-8.258 133.75,-15.165 200,-11.711c66.625,3.453 133.75,16.64 200,20.093c66.625,3.454 133.75,-3.453 200,-1.664c66.625,1.664 133.75,11.711 200,11.711c66.625,0 133.75,-10.047 166.25,-15.07l33.75,-5.023l0,-50.234l-33.375,0l-1732.88,0l-33.75,0l0,60.28Z" style="fill:none;stroke:#cbc9c6;stroke-width:1px;"/><path d="M1794.85,65.94l-37.5,-1.288c-37.5,-1.385 -112.5,-3.816 -187.5,-5.201c-75,-1.289 -150,-1.289 -225,0c-75,1.385 -150,3.816 -225,-3.889c-75,-7.851 -150,-25.837 -225,-35c-75,-9.066 -150,-9.066 -225,-2.577c-75,6.393 -150,19.518 -225,23.334c-75,3.961 -150,-1.386 -225,-7.778c-75,-6.49 -150,-14.267 -187.5,-18.156l-37.5,-3.889l0,-15.556l37.5,0l1725,0l37.5,0l0,70Z" style="fill:none;stroke:#cbc9c6;stroke-width:3px;"/></g></svg>