<svg xmlns="http://www.w3.org/2000/svg" viewBox="0 0 1440 320">
  <path fill="#f3f4f5" fill-opacity="0.7" d="M0,160L16,186.7C32,213,64,267,96,250.7C128,235,160,149,192,138.7C224,128,256,192,288,181.3C320,171,352,85,384,69.3C416,53,448,107,480,128C512,149,544,139,576,149.3C608,160,640,192,672,202.7C704,213,736,203,768,208C800,213,832,235,864,202.7C896,171,928,85,960,69.3C992,53,1024,107,1056,122.7C1088,139,1120,117,1152,112C1184,107,1216,117,1248,144C1280,171,1312,213,1344,213.3C1376,213,1408,171,1424,149.3L1440,128L1440,0L1424,0C1408,0,1376,0,1344,0C1312,0,1280,0,1248,0C1216,0,1184,0,1152,0C1120,0,1088,0,1056,0C1024,0,992,0,960,0C928,0,896,0,864,0C832,0,800,0,768,0C736,0,704,0,672,0C640,0,608,0,576,0C544,0,512,0,480,0C448,0,416,0,384,0C352,0,320,0,288,0C256,0,224,0,192,0C160,0,128,0,96,0C64,0,32,0,16,0L0,0Z"></path>
</svg>