<?xml version="1.0" encoding="UTF-8" standalone="no"?><!DOCTYPE svg PUBLIC "-//W3C//DTD SVG 1.1//EN" "http://www.w3.org/Graphics/SVG/1.1/DTD/svg11.dtd"><svg width="100%" height="100%" viewBox="0 0 555 503" version="1.1" xmlns="http://www.w3.org/2000/svg" xmlns:xlink="http://www.w3.org/1999/xlink" xml:space="preserve" style="fill-rule:evenodd;clip-rule:evenodd;stroke-linecap:round;stroke-linejoin:round;stroke-miterlimit:1.5;"><g id="coloured.-darker.-on.-transparent"><g><path d="M313.468,347.352l0.075,0.007l0.076,0.011l0.074,0.014l0.074,0.019l0.073,0.022l0.071,0.025l0.07,0.03l0.069,0.032l0.067,0.036l0.065,0.04l0.063,0.043l0.06,0.046l0.058,0.049l0.056,0.051l0.053,0.055l9.061,9.818l0.05,0.057l0.047,0.06l0.045,0.062l0.04,0.064l0.038,0.066l0.034,0.068l0.031,0.069l0.027,0.071l0.024,0.072l0.019,0.074l0.017,0.074l0.012,0.075l0.008,0.076l0.005,0.075l0.001,0.076l-0.003,0.076l-0.007,0.076l-0.011,0.075l-0.014,0.075l-0.019,0.074l-0.022,0.072l-0.025,0.072l-0.029,0.07l-0.033,0.069l-0.036,0.067l-0.04,0.064l-0.043,0.063l-0.046,0.061l-0.048,0.058l-0.052,0.056l-0.055,0.053l-0.057,0.05l-0.059,0.047l-0.062,0.044l-0.064,0.041l-0.067,0.037l-0.067,0.035l-0.07,0.03l-0.071,0.027l-0.072,0.024l-0.074,0.02l-0.074,0.016l-0.075,0.012l-0.075,0.009l-0.076,0.004l-0.076,0.001l-0.076,-0.003l-0.076,-0.007l-0.075,-0.01l-0.075,-0.015l-0.073,-0.018l-0.073,-0.022l-0.072,-0.026l-0.07,-0.029l-0.068,-0.033l-0.067,-0.036l-0.065,-0.04l-0.063,-0.042l-0.061,-0.046l-0.058,-0.049l-0.055,-0.052l-0.053,-0.054l-9.062,-9.819l-0.05,-0.057l-0.047,-0.059l-0.044,-0.062l-0.041,-0.064l-0.038,-0.066l-0.034,-0.068l-0.03,-0.07l-0.028,-0.071l-0.023,-0.072l-0.02,-0.073l-0.016,-0.075l-0.012,-0.075l-0.009,-0.075l-0.004,-0.076l-0.001,-0.076l0.003,-0.076l0.007,-0.076l0.01,-0.075l0.015,-0.074l0.018,-0.074l0.022,-0.073l0.026,-0.071l0.029,-0.071l0.033,-0.068l0.036,-0.067l0.039,-0.065l0.043,-0.063l0.046,-0.06l0.049,-0.059l0.052,-0.055l0.054,-0.053l0.057,-0.05l0.06,-0.047l0.062,-0.045l0.064,-0.04l0.066,-0.038l0.068,-0.034l0.069,-0.031l0.071,-0.027l0.073,-0.024l0.073,-0.019l0.074,-0.016l0.075,-0.013l0.076,-0.008l0.076,-0.005l0.076,-0.001l0.076,0.003Z"/><path d="M374.669,206.332c0,-1.299 -0.516,-2.546 -1.435,-3.464c-0.919,-0.919 -2.165,-1.436 -3.465,-1.436c-27.06,0 -157.987,0 -185.047,0c-1.299,0 -2.546,0.517 -3.465,1.436c-0.919,0.918 -1.435,2.165 -1.435,3.464c0,0.001 0,0.002 0,0.003c0,1.299 0.516,2.545 1.435,3.464c0.919,0.919 2.166,1.436 3.465,1.436c27.06,0 157.987,0 185.047,0c1.3,0 2.546,-0.517 3.465,-1.436c0.919,-0.919 1.435,-2.165 1.435,-3.464c0,-0.001 0,-0.002 0,-0.003Z" style="fill:#f7bf83;stroke:#000;stroke-width:2px;"/><path d="M374.669,147.222c0,-1.299 -0.516,-2.546 -1.435,-3.464c-0.919,-0.919 -2.165,-1.436 -3.465,-1.436c-27.06,0 -157.987,0 -185.047,0c-1.299,0 -2.546,0.517 -3.465,1.436c-0.919,0.918 -1.435,2.165 -1.435,3.464c0,0.001 0,0.002 0,0.003c0,1.299 0.516,2.545 1.435,3.464c0.919,0.919 2.166,1.436 3.465,1.436c27.06,0 157.987,0 185.047,0c1.3,0 2.546,-0.517 3.465,-1.436c0.919,-0.919 1.435,-2.165 1.435,-3.464c0,-0.001 0,-0.002 0,-0.003Z" style="fill:#f7bf83;stroke:#000;stroke-width:2px;"/><path d="M383.6,136.457c0.198,-1.544 -0.234,-3.103 -1.198,-4.326c-0.965,-1.222 -2.381,-2.005 -3.929,-2.171c-65.669,-6.978 -132.164,-7.59 -200.155,-0.762c-3.705,0.377 -6.684,3.216 -7.239,6.899c-0.001,0 -0.001,0.001 -0.001,0.001c-0.235,1.56 0.222,3.145 1.251,4.341c1.03,1.196 2.529,1.883 4.107,1.883c31.32,0 170.071,0 200.5,0c3.381,0 6.234,-2.511 6.664,-5.864c0,0 0,-0.001 0,-0.001Z" style="fill:#f7bf83;stroke:#000;stroke-width:2px;"/><rect x="184.096" y="152.125" width="186.299" height="49.308" style="fill:#f7bf83;stroke:#000;stroke-width:2px;"/><path d="M222.226,295.037c-1.861,-19.864 -10.27,-38.547 -23.906,-53.113c-7.725,-8.147 -12.897,-18.78 -14.224,-30.689c0,0 0,0 0,0l186.299,0c0,0 0,0 0,0c-1.326,11.909 -6.499,22.542 -14.196,30.716c-13.629,14.559 -22.035,33.234 -23.895,53.09c-1.773,18.502 -3.822,40.381 -5.515,58.447c-1.926,20.556 -19.18,36.269 -39.826,36.269c-7.926,0 -16.254,0 -23.989,0c-18.065,0 -33.162,-13.749 -34.847,-31.736c-1.765,-18.843 -4.019,-42.9 -5.901,-62.984Z" style="fill:#f7bf83;stroke:#000;stroke-width:2px;stroke-linecap:square;stroke-linejoin:miter;"/><path d="M319.339,210.235l0.057,0.004l0.057,0.007l0.056,0.01l0.056,0.014l0.054,0.016l0.054,0.02l0.052,0.023l0.051,0.025l0.05,0.029l0.048,0.031l0.046,0.034l0.043,0.037l0.042,0.039l0.04,0.041l7.576,8.402l0.037,0.044l0.034,0.045l0.032,0.048l0.029,0.049l0.026,0.051l0.023,0.052l0.021,0.053l0.017,0.055l0.014,0.055l0.011,0.056l0.007,0.057l0.005,0.057l0.001,0.057l-0.002,0.057l-0.006,0.057l-0.008,0.056l-0.012,0.056l-0.015,0.055l-0.018,0.054l-0.021,0.053l-0.025,0.052l-0.027,0.05l-0.03,0.049l-0.032,0.047l-0.036,0.045l-0.037,0.042l-0.04,0.041l-0.043,0.038l-0.044,0.036l-0.047,0.033l-0.048,0.031l-0.05,0.027l-0.052,0.025l-0.052,0.022l-0.054,0.019l-0.055,0.015l-0.056,0.013l-0.056,0.009l-0.057,0.006l-0.057,0.003l-0.057,-0.001l-0.057,-0.004l-0.057,-0.007l-0.056,-0.01l-0.056,-0.013l-0.054,-0.017l-0.054,-0.02l-0.052,-0.022l-0.051,-0.026l-0.05,-0.028l-0.048,-0.032l-0.046,-0.034l-0.044,-0.036l-0.041,-0.039l-0.04,-0.042l-7.576,-8.402l-0.037,-0.043l-0.034,-0.046l-0.032,-0.047l-0.029,-0.049l-0.026,-0.051l-0.024,-0.052l-0.02,-0.054l-0.017,-0.054l-0.014,-0.056l-0.011,-0.056l-0.008,-0.056l-0.004,-0.057l-0.001,-0.057l0.002,-0.057l0.005,-0.057l0.009,-0.057l0.012,-0.056l0.015,-0.055l0.018,-0.054l0.021,-0.053l0.024,-0.052l0.028,-0.05l0.029,-0.049l0.033,-0.046l0.035,-0.045l0.038,-0.043l0.04,-0.041l0.043,-0.038l0.044,-0.036l0.047,-0.033l0.048,-0.03l0.05,-0.028l0.052,-0.025l0.052,-0.022l0.054,-0.018l0.055,-0.016l0.056,-0.012l0.056,-0.01l0.057,-0.006l0.057,-0.002l0.057,0Z"/><path d="M333.183,225.574l0.087,0.008l0.086,0.016l0.084,0.023l0.082,0.031l0.079,0.037l0.075,0.045l0.071,0.05l0.066,0.057l0.061,0.062l17.324,19.214l0.056,0.067l0.049,0.072l0.043,0.076l0.037,0.079l0.029,0.082l0.022,0.085l0.014,0.086l0.007,0.087l-0.001,0.087l-0.008,0.087l-0.016,0.085l-0.023,0.085l-0.031,0.081l-0.037,0.079l-0.044,0.075l-0.051,0.071l-0.056,0.067l-0.063,0.061l-0.067,0.055l-0.072,0.05l-0.076,0.043l-0.079,0.036l-0.082,0.029l-0.085,0.022l-0.086,0.015l-0.087,0.007l-0.087,-0.001l-0.087,-0.008l-0.086,-0.016l-0.084,-0.024l-0.081,-0.03l-0.079,-0.038l-0.075,-0.044l-0.071,-0.05l-0.067,-0.057l-0.061,-0.062l-17.324,-19.214l-0.056,-0.067l-0.049,-0.072l-0.043,-0.076l-0.036,-0.079l-0.029,-0.082l-0.022,-0.085l-0.015,-0.086l-0.007,-0.087l0.001,-0.087l0.008,-0.087l0.016,-0.086l0.023,-0.084l0.031,-0.082l0.037,-0.078l0.045,-0.075l0.05,-0.072l0.057,-0.066l0.062,-0.061l0.067,-0.056l0.072,-0.049l0.076,-0.043l0.079,-0.036l0.083,-0.03l0.084,-0.021l0.086,-0.015l0.087,-0.007l0.087,0.001Z"/><path d="M253.927,284.877l0.13,0.017l0.128,0.028l0.125,0.039l0.121,0.049l0.116,0.06l0.111,0.07l0.104,0.08l0.097,0.088l0.088,0.096l0.08,0.104l0.071,0.11l0.061,0.116l0.05,0.12l0.04,0.125l0.029,0.128l0.017,0.129l0.006,0.131l-0.005,0.131l-0.017,0.13l-0.028,0.128l-0.039,0.124l-0.049,0.122l-0.061,0.116l-0.07,0.11l-0.079,0.104l-0.088,0.097l-0.096,0.089l-29.304,24.739l-0.103,0.08l-0.11,0.071l-0.116,0.061l-0.121,0.05l-0.125,0.04l-0.127,0.028l-0.13,0.018l-0.131,0.006l-0.131,-0.005l-0.129,-0.017l-0.128,-0.028l-0.125,-0.039l-0.121,-0.05l-0.116,-0.06l-0.111,-0.07l-0.104,-0.079l-0.097,-0.088l-0.089,-0.096l-0.08,-0.104l-0.07,-0.11l-0.061,-0.116l-0.05,-0.121l-0.04,-0.124l-0.029,-0.128l-0.017,-0.13l-0.006,-0.13l0.005,-0.131l0.017,-0.13l0.028,-0.128l0.039,-0.125l0.049,-0.121l0.06,-0.116l0.07,-0.111l0.08,-0.104l0.088,-0.096l0.096,-0.089l29.304,-24.739l0.103,-0.08l0.11,-0.071l0.116,-0.061l0.121,-0.05l0.125,-0.04l0.127,-0.029l0.13,-0.017l0.131,-0.006l0.13,0.005Z"/><path d="M289.728,255.251l0.102,0.02l0.101,0.031l0.096,0.041l0.091,0.05l0.086,0.06l0.079,0.069l0.072,0.077l0.063,0.083l0.054,0.09l0.044,0.095l0.034,0.099l0.024,0.102l0.012,0.104l0.002,0.104l-0.009,0.105l-0.02,0.102l-0.03,0.1l-0.041,0.097l-0.051,0.091l-0.06,0.086l-0.069,0.079l-0.076,0.072l-27.996,23.501l-0.083,0.063l-0.09,0.054l-0.095,0.044l-0.099,0.035l-0.102,0.023l-0.104,0.013l-0.104,0.002l-0.105,-0.009l-0.102,-0.02l-0.1,-0.031l-0.097,-0.041l-0.091,-0.05l-0.086,-0.06l-0.079,-0.069l-0.071,-0.077l-0.064,-0.083l-0.053,-0.09l-0.045,-0.095l-0.034,-0.099l-0.023,-0.102l-0.013,-0.104l-0.002,-0.104l0.009,-0.105l0.02,-0.102l0.031,-0.1l0.041,-0.097l0.05,-0.091l0.06,-0.086l0.069,-0.079l0.076,-0.072l27.996,-23.501l0.083,-0.063l0.09,-0.054l0.095,-0.044l0.099,-0.035l0.102,-0.023l0.104,-0.013l0.104,-0.002l0.105,0.009Z"/><path d="M325.885,224.661l0.126,0.014l0.125,0.025l0.122,0.035l0.119,0.046l0.115,0.055l0.109,0.065l0.104,0.074l0.097,0.083l0.089,0.091l0.082,0.097l0.073,0.105l0.064,0.11l0.054,0.115l0.044,0.119l0.035,0.123l0.023,0.125l0.013,0.127l0.002,0.127l-0.009,0.127l-0.019,0.126l-0.03,0.124l-0.041,0.12l-0.05,0.117l-0.061,0.112l-0.069,0.107l-0.079,0.1l-0.086,0.094l-0.095,0.085l-28.358,23.663l-0.101,0.078l-0.107,0.068l-0.113,0.059l-0.117,0.05l-0.121,0.039l-0.124,0.029l-0.126,0.018l-0.128,0.008l-0.127,-0.004l-0.126,-0.014l-0.125,-0.025l-0.123,-0.035l-0.118,-0.046l-0.115,-0.055l-0.11,-0.065l-0.103,-0.074l-0.097,-0.083l-0.09,-0.09l-0.081,-0.098l-0.073,-0.104l-0.064,-0.11l-0.054,-0.116l-0.045,-0.119l-0.034,-0.123l-0.023,-0.125l-0.013,-0.126l-0.002,-0.128l0.009,-0.127l0.019,-0.126l0.03,-0.123l0.041,-0.121l0.05,-0.117l0.06,-0.112l0.07,-0.107l0.078,-0.1l0.087,-0.093l0.094,-0.086l28.358,-23.663l0.102,-0.077l0.107,-0.069l0.113,-0.059l0.117,-0.05l0.121,-0.039l0.124,-0.029l0.126,-0.018l0.127,-0.007l0.128,0.003Z"/><path d="M308.485,349.371l0.126,0.018l0.124,0.029l0.122,0.038l0.117,0.05l0.113,0.058l0.108,0.068l0.101,0.078l0.094,0.085l0.087,0.093l0.079,0.1l0.07,0.107l0.06,0.111l0.051,0.117l0.041,0.121l0.031,0.123l0.019,0.126l0.01,0.127l-0.002,0.127l-0.013,0.127l-0.023,0.125l-0.033,0.123l-0.044,0.12l-0.054,0.115l-0.064,0.11l-0.073,0.105l-0.081,0.098l-0.089,0.091l-0.097,0.082l-28.44,22.351l-0.103,0.075l-0.11,0.065l-0.114,0.056l-0.119,0.046l-0.122,0.036l-0.125,0.025l-0.126,0.014l-0.128,0.004l-0.127,-0.007l-0.126,-0.018l-0.124,-0.028l-0.121,-0.039l-0.118,-0.049l-0.113,-0.059l-0.107,-0.068l-0.101,-0.077l-0.095,-0.086l-0.087,-0.093l-0.078,-0.1l-0.07,-0.106l-0.061,-0.112l-0.051,-0.117l-0.041,-0.121l-0.03,-0.123l-0.02,-0.126l-0.009,-0.127l0.002,-0.127l0.012,-0.127l0.023,-0.125l0.034,-0.123l0.044,-0.119l0.054,-0.116l0.063,-0.11l0.073,-0.105l0.081,-0.098l0.09,-0.09l0.096,-0.083l28.44,-22.351l0.104,-0.075l0.109,-0.065l0.114,-0.056l0.119,-0.046l0.122,-0.035l0.125,-0.026l0.127,-0.014l0.127,-0.004l0.127,0.007Z"/><path d="M328.314,334.208l0.067,0.009l0.065,0.012l0.065,0.017l0.063,0.021l0.062,0.026l0.06,0.029l0.058,0.033l0.056,0.038l0.052,0.041l0.051,0.044l0.047,0.047l0.043,0.051l0.041,0.053l0.036,0.056l0.033,0.058l0.029,0.061l0.024,0.062l0.021,0.063l0.016,0.065l0.012,0.066l0.007,0.066l0.003,0.067l-0.001,0.067l-0.006,0.066l-0.01,0.067l-0.015,0.065l-0.019,0.064l-0.023,0.062l-0.028,0.061l-0.031,0.059l-0.036,0.057l-0.039,0.054l-0.042,0.052l-0.046,0.048l-0.049,0.046l-0.052,0.042l-11.608,8.757l-0.055,0.038l-0.057,0.035l-0.059,0.031l-0.062,0.026l-0.062,0.023l-0.065,0.018l-0.065,0.014l-0.066,0.01l-0.067,0.005l-0.067,0.001l-0.066,-0.004l-0.067,-0.008l-0.065,-0.012l-0.065,-0.017l-0.063,-0.021l-0.062,-0.026l-0.06,-0.029l-0.058,-0.034l-0.056,-0.037l-0.052,-0.041l-0.051,-0.044l-0.047,-0.048l-0.043,-0.05l-0.04,-0.053l-0.037,-0.056l-0.033,-0.059l-0.029,-0.06l-0.024,-0.062l-0.021,-0.064l-0.016,-0.064l-0.012,-0.066l-0.007,-0.067l-0.003,-0.066l0.001,-0.067l0.006,-0.067l0.01,-0.066l0.015,-0.065l0.019,-0.064l0.023,-0.063l0.028,-0.061l0.031,-0.058l0.036,-0.057l0.039,-0.054l0.042,-0.052l0.046,-0.049l0.049,-0.045l0.052,-0.042l11.608,-8.757l0.055,-0.038l0.057,-0.035l0.059,-0.031l0.062,-0.027l0.062,-0.022l0.065,-0.019l0.065,-0.014l0.066,-0.009l0.067,-0.006l0.067,0l0.066,0.003Z"/><path d="M343.994,210.237l0.064,0.006l0.063,0.011l0.063,0.014l0.061,0.019l0.06,0.022l0.059,0.027l0.057,0.03l0.054,0.033l0.053,0.037l0.05,0.04l0.047,0.043l0.044,0.047l0.042,0.049l0.038,0.051l0.034,0.054l0.032,0.056l0.027,0.058l0.024,0.06l0.02,0.06l0.016,0.063l0.012,0.062l0.008,0.064l0.003,0.064l0,0.064l-0.004,0.064l-0.009,0.064l-0.012,0.063l-0.017,0.061l-0.02,0.061l-0.025,0.06l-0.028,0.057l-0.031,0.056l-0.036,0.053l-0.038,0.052l-0.042,0.048l-0.045,0.046l-0.047,0.043l-10.542,8.892l-0.05,0.04l-0.053,0.037l-0.055,0.033l-0.057,0.029l-0.059,0.026l-0.06,0.022l-0.062,0.018l-0.062,0.013l-0.063,0.01l-0.064,0.006l-0.064,0.002l-0.064,-0.002l-0.064,-0.007l-0.063,-0.01l-0.063,-0.015l-0.061,-0.018l-0.06,-0.023l-0.059,-0.026l-0.056,-0.03l-0.055,-0.033l-0.053,-0.037l-0.049,-0.04l-0.048,-0.044l-0.044,-0.046l-0.041,-0.049l-0.039,-0.052l-0.034,-0.053l-0.032,-0.056l-0.027,-0.058l-0.024,-0.06l-0.02,-0.061l-0.016,-0.062l-0.012,-0.063l-0.008,-0.063l-0.003,-0.064l0,-0.064l0.004,-0.064l0.009,-0.064l0.012,-0.063l0.017,-0.062l0.02,-0.061l0.025,-0.059l0.028,-0.057l0.031,-0.056l0.036,-0.054l0.038,-0.051l0.042,-0.049l0.045,-0.045l0.047,-0.043l10.542,-8.893l0.05,-0.039l0.053,-0.037l0.055,-0.033l0.057,-0.029l0.059,-0.026l0.06,-0.022l0.062,-0.018l0.062,-0.014l0.063,-0.01l0.064,-0.006l0.064,-0.001l0.064,0.002Z"/><path d="M268.198,222.093l0.101,0.011l0.099,0.021l0.096,0.03l0.093,0.041l0.089,0.05l0.082,0.058l0.077,0.066l0.069,0.074l22.21,26.154l0.062,0.081l0.053,0.086l0.044,0.091l0.035,0.095l0.025,0.099l0.015,0.1l0.004,0.101l-0.005,0.101l-0.016,0.1l-0.026,0.098l-0.036,0.095l-0.045,0.091l-0.054,0.085l-0.063,0.08l-0.07,0.073l-0.077,0.066l-0.083,0.057l-0.089,0.049l-0.093,0.039l-0.097,0.03l-0.1,0.02l-0.1,0.01l-0.102,-0.001l-0.1,-0.011l-0.1,-0.021l-0.096,-0.03l-0.093,-0.041l-0.088,-0.05l-0.083,-0.058l-0.077,-0.066l-0.069,-0.074l-22.21,-26.154l-0.062,-0.081l-0.053,-0.086l-0.044,-0.091l-0.035,-0.095l-0.025,-0.099l-0.014,-0.1l-0.005,-0.101l0.006,-0.101l0.016,-0.1l0.025,-0.098l0.036,-0.095l0.045,-0.091l0.054,-0.085l0.063,-0.08l0.07,-0.073l0.077,-0.066l0.084,-0.057l0.088,-0.049l0.094,-0.039l0.097,-0.03l0.099,-0.02l0.101,-0.01l0.101,0.001Z"/><path d="M258.043,210.168l0.042,0.002l0.041,0.004l0.041,0.005l0.041,0.007l0.04,0.009l0.04,0.011l0.039,0.012l0.039,0.014l0.039,0.015l0.037,0.017l0.037,0.019l0.036,0.02l0.036,0.021l0.034,0.023l0.034,0.025l0.032,0.025l0.031,0.027l0.03,0.029l0.029,0.029l0.028,0.031l3.703,4.279l0.026,0.032l0.025,0.033l0.024,0.033l0.022,0.035l0.021,0.036l0.019,0.037l0.018,0.037l0.016,0.038l0.015,0.039l0.013,0.039l0.011,0.04l0.01,0.04l0.008,0.04l0.006,0.041l0.005,0.041l0.003,0.041l0.001,0.042l0,0.041l-0.002,0.041l-0.004,0.041l-0.006,0.041l-0.007,0.041l-0.009,0.04l-0.01,0.04l-0.012,0.04l-0.014,0.039l-0.016,0.038l-0.017,0.038l-0.018,0.037l-0.02,0.036l-0.022,0.035l-0.023,0.035l-0.024,0.033l-0.026,0.032l-0.027,0.032l-0.028,0.03l-0.03,0.029l-0.03,0.027l-0.032,0.027l-0.033,0.025l-0.034,0.024l-0.035,0.022l-0.035,0.021l-0.037,0.019l-0.037,0.018l-0.038,0.016l-0.039,0.015l-0.039,0.013l-0.04,0.011l-0.04,0.01l-0.041,0.008l-0.04,0.006l-0.042,0.005l-0.041,0.003l-0.041,0.001l-0.041,0l-0.042,-0.002l-0.041,-0.004l-0.041,-0.006l-0.04,-0.007l-0.041,-0.009l-0.04,-0.01l-0.039,-0.013l-0.039,-0.013l-0.039,-0.016l-0.037,-0.017l-0.037,-0.018l-0.036,-0.02l-0.036,-0.022l-0.034,-0.023l-0.033,-0.024l-0.033,-0.026l-0.031,-0.027l-0.03,-0.028l-0.029,-0.03l-0.028,-0.03l-3.702,-4.279l-0.027,-0.032l-0.025,-0.033l-0.024,-0.034l-0.022,-0.035l-0.021,-0.036l-0.019,-0.036l-0.018,-0.037l-0.016,-0.038l-0.015,-0.039l-0.013,-0.039l-0.011,-0.04l-0.01,-0.04l-0.008,-0.041l-0.006,-0.041l-0.005,-0.041l-0.003,-0.041l-0.001,-0.041l0,-0.042l0.002,-0.041l0.004,-0.041l0.006,-0.041l0.007,-0.041l0.009,-0.04l0.01,-0.04l0.013,-0.039l0.013,-0.039l0.016,-0.039l0.017,-0.037l0.018,-0.037l0.02,-0.037l0.022,-0.035l0.023,-0.034l0.024,-0.034l0.026,-0.032l0.027,-0.031l0.028,-0.03l0.03,-0.029l0.03,-0.028l0.032,-0.026l0.033,-0.025l0.034,-0.024l0.035,-0.022l0.035,-0.021l0.037,-0.019l0.037,-0.018l0.038,-0.016l0.039,-0.015l0.039,-0.013l0.04,-0.012l0.04,-0.009l0.041,-0.008l0.041,-0.007l0.041,-0.004l0.041,-0.003l0.041,-0.002l0.041,0.001Z"/><path d="M296.913,255.751l0.097,0.013l0.096,0.023l0.093,0.032l0.089,0.041l0.085,0.049l0.079,0.057l0.074,0.065l0.067,0.072l20.693,24.578l0.06,0.078l0.051,0.083l0.043,0.089l0.035,0.091l0.025,0.095l0.015,0.097l0.006,0.098l-0.003,0.098l-0.013,0.098l-0.023,0.095l-0.032,0.093l-0.041,0.089l-0.049,0.085l-0.058,0.079l-0.065,0.074l-0.071,0.067l-0.079,0.059l-0.083,0.052l-0.088,0.043l-0.092,0.034l-0.095,0.025l-0.097,0.016l-0.098,0.006l-0.098,-0.004l-0.097,-0.013l-0.096,-0.023l-0.093,-0.032l-0.089,-0.04l-0.085,-0.05l-0.079,-0.057l-0.074,-0.065l-0.067,-0.072l-20.693,-24.577l-0.06,-0.079l-0.051,-0.083l-0.043,-0.088l-0.035,-0.092l-0.025,-0.095l-0.015,-0.097l-0.006,-0.098l0.003,-0.098l0.013,-0.097l0.023,-0.096l0.032,-0.093l0.041,-0.089l0.049,-0.085l0.058,-0.079l0.065,-0.074l0.072,-0.067l0.078,-0.059l0.083,-0.051l0.088,-0.044l0.092,-0.034l0.095,-0.025l0.097,-0.015l0.098,-0.006l0.098,0.003Z"/><path d="M289.041,318.665l0.098,0.012l0.095,0.023l0.093,0.031l0.09,0.041l0.085,0.048l0.08,0.058l0.073,0.064l0.068,0.072l20.653,24.3l0.059,0.078l0.052,0.083l0.044,0.088l0.035,0.092l0.025,0.094l0.016,0.097l0.007,0.098l-0.004,0.098l-0.012,0.098l-0.022,0.095l-0.032,0.093l-0.04,0.09l-0.049,0.085l-0.057,0.079l-0.065,0.074l-0.072,0.067l-0.077,0.06l-0.084,0.052l-0.088,0.044l-0.092,0.034l-0.094,0.026l-0.097,0.016l-0.098,0.006l-0.098,-0.003l-0.097,-0.013l-0.096,-0.022l-0.093,-0.031l-0.089,-0.041l-0.085,-0.049l-0.08,-0.057l-0.074,-0.064l-0.067,-0.072l-20.653,-24.3l-0.06,-0.078l-0.052,-0.083l-0.044,-0.088l-0.034,-0.092l-0.026,-0.095l-0.016,-0.096l-0.006,-0.098l0.003,-0.098l0.013,-0.098l0.022,-0.095l0.031,-0.093l0.041,-0.09l0.049,-0.085l0.057,-0.08l0.064,-0.073l0.072,-0.068l0.078,-0.059l0.083,-0.052l0.088,-0.044l0.092,-0.034l0.095,-0.026l0.096,-0.016l0.098,-0.006l0.098,0.003Z"/><path d="M316.06,349.867l0.061,0.006l0.061,0.011l0.06,0.014l0.059,0.017l0.058,0.021l0.056,0.025l0.055,0.028l0.053,0.032l0.051,0.035l0.049,0.037l0.046,0.041l0.044,0.043l0.04,0.047l8.127,9.743l0.038,0.049l0.035,0.051l0.032,0.052l0.028,0.055l0.025,0.056l0.022,0.058l0.018,0.059l0.014,0.06l0.01,0.061l0.007,0.061l0.003,0.061l-0.001,0.062l-0.004,0.061l-0.009,0.061l-0.012,0.061l-0.016,0.059l-0.019,0.059l-0.023,0.057l-0.026,0.055l-0.03,0.054l-0.033,0.052l-0.037,0.05l-0.039,0.047l-0.042,0.045l-0.045,0.043l-0.047,0.039l-0.05,0.037l-0.051,0.033l-0.054,0.03l-0.056,0.027l-0.057,0.023l-0.058,0.02l-0.06,0.016l-0.06,0.012l-0.061,0.009l-0.061,0.005l-0.062,0.001l-0.061,-0.003l-0.062,-0.006l-0.06,-0.011l-0.06,-0.014l-0.059,-0.017l-0.058,-0.022l-0.057,-0.024l-0.054,-0.029l-0.053,-0.031l-0.051,-0.035l-0.049,-0.037l-0.046,-0.041l-0.044,-0.044l-0.041,-0.046l-8.126,-9.743l-0.038,-0.049l-0.035,-0.051l-0.032,-0.052l-0.029,-0.055l-0.025,-0.056l-0.021,-0.058l-0.018,-0.059l-0.014,-0.06l-0.011,-0.061l-0.006,-0.061l-0.003,-0.061l0,-0.062l0.005,-0.061l0.008,-0.061l0.013,-0.061l0.015,-0.059l0.02,-0.059l0.023,-0.057l0.026,-0.056l0.03,-0.053l0.033,-0.052l0.036,-0.05l0.04,-0.048l0.042,-0.045l0.045,-0.042l0.047,-0.039l0.05,-0.037l0.051,-0.033l0.054,-0.03l0.056,-0.027l0.057,-0.023l0.058,-0.02l0.059,-0.016l0.061,-0.012l0.061,-0.009l0.061,-0.005l0.062,-0.001l0.061,0.003Z"/><path d="M261.21,285.376l0.097,0.013l0.096,0.023l0.092,0.032l0.089,0.041l0.085,0.05l0.079,0.058l0.074,0.065l0.066,0.072l20.689,24.739l0.059,0.079l0.052,0.083l0.042,0.089l0.034,0.092l0.025,0.095l0.015,0.097l0.006,0.098l-0.004,0.098l-0.013,0.097l-0.023,0.095l-0.032,0.093l-0.042,0.089l-0.049,0.085l-0.058,0.079l-0.065,0.074l-0.072,0.066l-0.079,0.059l-0.083,0.052l-0.089,0.042l-0.092,0.034l-0.095,0.025l-0.097,0.015l-0.098,0.006l-0.098,-0.004l-0.097,-0.013l-0.095,-0.023l-0.093,-0.033l-0.089,-0.041l-0.085,-0.049l-0.079,-0.058l-0.073,-0.065l-0.067,-0.072l-20.689,-24.74l-0.059,-0.078l-0.051,-0.084l-0.043,-0.088l-0.034,-0.092l-0.025,-0.095l-0.015,-0.097l-0.006,-0.098l0.004,-0.098l0.014,-0.097l0.023,-0.096l0.032,-0.092l0.041,-0.09l0.05,-0.084l0.057,-0.08l0.066,-0.073l0.072,-0.066l0.078,-0.06l0.084,-0.051l0.088,-0.043l0.092,-0.034l0.095,-0.024l0.097,-0.016l0.098,-0.005l0.098,0.004Z"/><path d="M232.958,251.593l0.098,0.013l0.095,0.023l0.093,0.032l0.089,0.042l0.084,0.049l0.08,0.058l0.073,0.065l0.067,0.072l21.192,25.342l0.06,0.078l0.051,0.084l0.043,0.088l0.033,0.092l0.025,0.095l0.015,0.097l0.006,0.098l-0.004,0.098l-0.013,0.098l-0.023,0.095l-0.032,0.093l-0.042,0.089l-0.049,0.084l-0.058,0.08l-0.065,0.073l-0.072,0.067l-0.079,0.059l-0.083,0.051l-0.089,0.043l-0.092,0.034l-0.095,0.025l-0.097,0.015l-0.097,0.006l-0.099,-0.004l-0.097,-0.014l-0.095,-0.023l-0.093,-0.032l-0.089,-0.041l-0.085,-0.05l-0.079,-0.058l-0.073,-0.065l-0.067,-0.072l-21.193,-25.342l-0.059,-0.078l-0.051,-0.084l-0.043,-0.088l-0.034,-0.092l-0.024,-0.095l-0.016,-0.097l-0.005,-0.098l0.004,-0.098l0.013,-0.097l0.023,-0.096l0.032,-0.092l0.041,-0.089l0.05,-0.085l0.058,-0.079l0.065,-0.074l0.072,-0.066l0.078,-0.059l0.084,-0.052l0.088,-0.042l0.092,-0.034l0.095,-0.025l0.097,-0.015l0.098,-0.006l0.098,0.004Z"/><path d="M198.519,210.572l0.111,0.016l0.108,0.029l0.105,0.04l0.1,0.052l0.093,0.062l0.085,0.073l0.077,0.081l27.255,32.432l0.067,0.09l0.057,0.096l0.045,0.103l0.034,0.107l0.022,0.11l0.009,0.112l-0.004,0.112l-0.016,0.111l-0.028,0.108l-0.04,0.105l-0.052,0.099l-0.062,0.094l-0.073,0.085l-0.081,0.077l-0.09,0.067l-0.097,0.057l-0.102,0.045l-0.107,0.034l-0.11,0.022l-0.112,0.009l-0.112,-0.003l-0.111,-0.016l-0.109,-0.029l-0.104,-0.04l-0.1,-0.052l-0.093,-0.062l-0.086,-0.073l-0.076,-0.081l-27.255,-32.432l-0.067,-0.09l-0.057,-0.096l-0.046,-0.103l-0.033,-0.107l-0.022,-0.11l-0.009,-0.112l0.003,-0.112l0.016,-0.111l0.028,-0.108l0.041,-0.105l0.051,-0.099l0.063,-0.094l0.072,-0.085l0.082,-0.077l0.09,-0.067l0.097,-0.057l0.102,-0.045l0.107,-0.034l0.11,-0.022l0.112,-0.009l0.112,0.003Z"/><path d="M224.926,251.619l0.068,0.008l0.067,0.013l0.066,0.017l0.065,0.021l0.063,0.026l0.062,0.03l0.059,0.034l0.056,0.038l0.054,0.042l0.051,0.046l0.048,0.049l0.044,0.052l0.041,0.055l0.036,0.057l0.033,0.06l0.029,0.062l0.024,0.064l0.02,0.065l0.015,0.067l0.011,0.067l0.006,0.068l0.002,0.068l-0.004,0.069l-0.007,0.067l-0.013,0.068l-0.017,0.066l-0.021,0.065l-0.026,0.063l-0.03,0.061l-0.034,0.059l-0.039,0.057l-0.042,0.054l-0.045,0.051l-0.049,0.047l-0.052,0.045l-12.104,9.602l-0.055,0.041l-0.058,0.037l-0.06,0.032l-0.062,0.029l-0.063,0.024l-0.066,0.02l-0.066,0.015l-0.068,0.011l-0.068,0.006l-0.068,0.002l-0.068,-0.003l-0.068,-0.008l-0.067,-0.013l-0.066,-0.017l-0.065,-0.021l-0.063,-0.026l-0.062,-0.03l-0.059,-0.034l-0.056,-0.038l-0.054,-0.042l-0.051,-0.046l-0.048,-0.049l-0.044,-0.052l-0.041,-0.054l-0.036,-0.058l-0.033,-0.06l-0.029,-0.062l-0.024,-0.064l-0.02,-0.065l-0.015,-0.067l-0.011,-0.067l-0.006,-0.068l-0.002,-0.068l0.004,-0.069l0.007,-0.067l0.013,-0.068l0.017,-0.066l0.021,-0.065l0.026,-0.063l0.03,-0.061l0.034,-0.059l0.038,-0.057l0.042,-0.054l0.046,-0.051l0.049,-0.047l0.052,-0.044l12.104,-9.603l0.055,-0.041l0.058,-0.037l0.059,-0.032l0.062,-0.029l0.064,-0.024l0.066,-0.02l0.066,-0.015l0.068,-0.011l0.068,-0.006l0.068,-0.002l0.068,0.003Z"/><path d="M261.637,220.823l0.127,0.015l0.125,0.025l0.122,0.036l0.118,0.046l0.115,0.056l0.109,0.066l0.103,0.075l0.097,0.083l0.089,0.091l0.081,0.098l0.072,0.104l0.064,0.111l0.053,0.115l0.044,0.12l0.034,0.123l0.022,0.125l0.013,0.127l0.001,0.127l-0.009,0.127l-0.02,0.126l-0.031,0.123l-0.041,0.121l-0.051,0.116l-0.061,0.112l-0.07,0.107l-0.079,0.1l-0.087,0.092l-0.095,0.086l-27.874,23.023l-0.102,0.076l-0.108,0.068l-0.113,0.059l-0.117,0.049l-0.122,0.038l-0.124,0.029l-0.126,0.017l-0.127,0.007l-0.127,-0.004l-0.127,-0.015l-0.124,-0.025l-0.123,-0.036l-0.118,-0.046l-0.115,-0.056l-0.109,-0.066l-0.103,-0.074l-0.096,-0.083l-0.09,-0.091l-0.081,-0.099l-0.072,-0.104l-0.063,-0.111l-0.054,-0.115l-0.044,-0.12l-0.033,-0.123l-0.023,-0.125l-0.012,-0.127l-0.002,-0.127l0.009,-0.127l0.021,-0.126l0.03,-0.123l0.041,-0.121l0.052,-0.116l0.06,-0.112l0.071,-0.106l0.078,-0.1l0.088,-0.093l0.094,-0.085l27.875,-23.023l0.101,-0.077l0.108,-0.068l0.113,-0.059l0.117,-0.049l0.122,-0.038l0.124,-0.028l0.126,-0.018l0.127,-0.007l0.127,0.004Z"/><path d="M275.114,210.105l0.051,0.005l0.051,0.008l0.05,0.01l0.05,0.014l0.049,0.015l0.048,0.018l0.048,0.021l0.046,0.023l0.044,0.025l0.044,0.028l0.042,0.03l0.04,0.032l0.039,0.034l0.037,0.036l0.035,0.037l0.033,0.04l0.031,0.041l0.029,0.043l0.026,0.044l0.024,0.045l0.022,0.047l0.02,0.048l0.016,0.048l0.015,0.05l0.012,0.05l0.009,0.051l0.007,0.051l0.004,0.051l0.001,0.052l-0.001,0.051l-0.004,0.051l-0.007,0.051l-0.009,0.051l-0.012,0.05l-0.014,0.05l-0.017,0.048l-0.02,0.048l-0.021,0.047l-0.025,0.045l-0.026,0.044l-0.029,0.043l-0.031,0.041l-0.033,0.04l-0.035,0.038l-0.037,0.036l-0.038,0.034l-6.65,5.55l-0.04,0.032l-0.042,0.03l-0.043,0.027l-0.045,0.026l-0.046,0.023l-0.047,0.02l-0.049,0.019l-0.049,0.015l-0.049,0.013l-0.051,0.011l-0.051,0.008l-0.051,0.005l-0.051,0.003l-0.052,0l-0.051,-0.003l-0.051,-0.005l-0.051,-0.008l-0.051,-0.011l-0.05,-0.013l-0.049,-0.015l-0.048,-0.018l-0.047,-0.021l-0.046,-0.023l-0.045,-0.025l-0.043,-0.028l-0.042,-0.03l-0.041,-0.032l-0.038,-0.034l-0.037,-0.036l-0.035,-0.037l-0.033,-0.04l-0.031,-0.041l-0.029,-0.043l-0.027,-0.044l-0.024,-0.045l-0.022,-0.047l-0.019,-0.048l-0.017,-0.048l-0.014,-0.05l-0.012,-0.05l-0.009,-0.051l-0.007,-0.051l-0.004,-0.051l-0.001,-0.052l0.001,-0.051l0.004,-0.051l0.006,-0.051l0.01,-0.051l0.012,-0.05l0.014,-0.05l0.017,-0.048l0.019,-0.048l0.022,-0.047l0.024,-0.045l0.027,-0.044l0.028,-0.043l0.031,-0.041l0.033,-0.04l0.035,-0.038l0.037,-0.036l0.039,-0.034l6.649,-5.55l0.04,-0.032l0.042,-0.03l0.044,-0.027l0.045,-0.026l0.046,-0.023l0.047,-0.02l0.048,-0.019l0.049,-0.015l0.05,-0.013l0.05,-0.011l0.051,-0.008l0.051,-0.005l0.052,-0.003l0.051,0l0.052,0.003Z"/><path d="M324.729,288.603l0.057,0.006l0.057,0.008l0.055,0.012l0.055,0.015l0.055,0.019l0.053,0.021l0.051,0.024l0.05,0.027l0.049,0.03l0.047,0.033l0.045,0.036l0.042,0.037l0.041,0.041l0.038,0.042l6.961,8.211l0.036,0.045l0.033,0.046l0.03,0.049l0.028,0.05l0.024,0.051l0.022,0.053l0.018,0.054l0.016,0.055l0.012,0.056l0.009,0.056l0.006,0.057l0.003,0.057l-0.001,0.057l-0.004,0.057l-0.007,0.057l-0.01,0.056l-0.014,0.056l-0.016,0.054l-0.02,0.054l-0.023,0.052l-0.026,0.051l-0.028,0.05l-0.032,0.047l-0.034,0.046l-0.036,0.044l-0.039,0.042l-0.042,0.039l-0.043,0.037l-0.046,0.034l-0.047,0.032l-0.05,0.029l-0.05,0.026l-0.053,0.023l-0.053,0.02l-0.055,0.017l-0.055,0.014l-0.056,0.011l-0.057,0.008l-0.057,0.004l-0.057,0.001l-0.057,-0.002l-0.057,-0.006l-0.056,-0.009l-0.056,-0.012l-0.055,-0.015l-0.054,-0.018l-0.053,-0.021l-0.052,-0.025l-0.05,-0.027l-0.049,-0.03l-0.046,-0.032l-0.045,-0.036l-0.043,-0.038l-0.041,-0.04l-0.038,-0.042l-6.96,-8.212l-0.036,-0.044l-0.033,-0.047l-0.031,-0.048l-0.027,-0.05l-0.025,-0.052l-0.021,-0.053l-0.019,-0.054l-0.016,-0.054l-0.012,-0.056l-0.009,-0.057l-0.006,-0.056l-0.003,-0.057l0.001,-0.058l0.004,-0.057l0.007,-0.056l0.01,-0.056l0.014,-0.056l0.017,-0.055l0.019,-0.053l0.023,-0.052l0.026,-0.051l0.029,-0.05l0.031,-0.048l0.034,-0.045l0.037,-0.044l0.039,-0.042l0.041,-0.039l0.044,-0.037l0.045,-0.035l0.048,-0.031l0.049,-0.029l0.051,-0.026l0.052,-0.023l0.054,-0.021l0.054,-0.017l0.055,-0.014l0.056,-0.01l0.057,-0.008l0.057,-0.004l0.057,-0.001l0.057,0.002Z"/><path d="M224.177,313.72l0.098,0.011l0.096,0.021l0.093,0.03l0.09,0.039l0.086,0.048l0.081,0.056l0.075,0.063l0.068,0.071l21.929,25.026l0.061,0.077l0.053,0.082l0.045,0.088l0.036,0.091l0.027,0.094l0.017,0.097l0.008,0.098l-0.002,0.098l-0.011,0.097l-0.021,0.096l-0.03,0.094l-0.039,0.09l-0.047,0.086l-0.056,0.08l-0.064,0.075l-0.07,0.068l-0.077,0.061l-0.083,0.053l-0.087,0.045l-0.091,0.036l-0.095,0.027l-0.096,0.018l-0.098,0.008l-0.098,-0.002l-0.098,-0.011l-0.096,-0.021l-0.093,-0.03l-0.09,-0.039l-0.086,-0.048l-0.081,-0.056l-0.074,-0.063l-0.069,-0.071l-21.928,-25.026l-0.061,-0.077l-0.054,-0.083l-0.044,-0.087l-0.036,-0.091l-0.027,-0.095l-0.018,-0.096l-0.008,-0.098l0.002,-0.098l0.011,-0.098l0.021,-0.095l0.03,-0.094l0.039,-0.09l0.048,-0.086l0.056,-0.08l0.063,-0.075l0.071,-0.068l0.077,-0.061l0.082,-0.053l0.087,-0.045l0.092,-0.036l0.094,-0.027l0.097,-0.018l0.097,-0.008l0.098,0.002Z"/><path d="M252.898,347.006l0.097,0.015l0.095,0.024l0.093,0.034l0.088,0.042l0.084,0.051l0.078,0.059l0.073,0.067l0.065,0.073l20.447,25.214l0.058,0.079l0.049,0.085l0.042,0.089l0.032,0.092l0.024,0.096l0.014,0.097l0.004,0.098l-0.006,0.098l-0.015,0.097l-0.024,0.095l-0.034,0.092l-0.042,0.089l-0.051,0.083l-0.059,0.079l-0.066,0.072l-0.073,0.066l-0.08,0.058l-0.084,0.05l-0.089,0.041l-0.093,0.033l-0.095,0.023l-0.097,0.014l-0.098,0.004l-0.098,-0.005l-0.097,-0.015l-0.095,-0.025l-0.092,-0.033l-0.089,-0.043l-0.084,-0.051l-0.078,-0.059l-0.072,-0.066l-0.066,-0.073l-20.446,-25.215l-0.058,-0.079l-0.05,-0.084l-0.042,-0.089l-0.032,-0.093l-0.023,-0.095l-0.014,-0.097l-0.005,-0.098l0.006,-0.098l0.015,-0.097l0.024,-0.095l0.034,-0.093l0.042,-0.088l0.051,-0.084l0.059,-0.078l0.067,-0.073l0.073,-0.065l0.079,-0.058l0.084,-0.05l0.089,-0.042l0.093,-0.032l0.095,-0.023l0.097,-0.014l0.098,-0.004l0.098,0.005Z"/><path d="M245.517,345.88l0.076,0.01l0.075,0.016l0.073,0.022l0.072,0.028l0.069,0.033l0.066,0.038l0.064,0.043l0.06,0.047l0.056,0.053l0.052,0.056l0.047,0.06l0.043,0.064l0.037,0.066l0.033,0.07l0.027,0.071l0.022,0.074l0.015,0.075l0.01,0.076l0.005,0.076l-0.002,0.077l-0.008,0.076l-0.013,0.076l-0.019,0.074l-0.025,0.072l-0.03,0.071l-0.035,0.068l-0.041,0.065l-0.045,0.061l-0.05,0.058l-0.055,0.054l-0.058,0.05l-14.833,11.696l-0.062,0.045l-0.065,0.04l-0.068,0.036l-0.071,0.029l-0.073,0.025l-0.074,0.018l-0.075,0.013l-0.077,0.007l-0.076,0.002l-0.077,-0.005l-0.076,-0.01l-0.075,-0.017l-0.073,-0.022l-0.072,-0.027l-0.069,-0.033l-0.066,-0.038l-0.064,-0.043l-0.059,-0.048l-0.057,-0.052l-0.051,-0.056l-0.048,-0.06l-0.043,-0.064l-0.037,-0.067l-0.033,-0.069l-0.027,-0.072l-0.021,-0.073l-0.016,-0.075l-0.01,-0.076l-0.004,-0.077l0.001,-0.076l0.008,-0.077l0.013,-0.075l0.019,-0.074l0.025,-0.073l0.03,-0.07l0.036,-0.068l0.04,-0.065l0.046,-0.062l0.05,-0.058l0.054,-0.054l0.058,-0.049l14.834,-11.696l0.061,-0.046l0.066,-0.04l0.068,-0.035l0.07,-0.03l0.073,-0.024l0.074,-0.019l0.076,-0.013l0.076,-0.007l0.077,-0.001l0.076,0.005Z"/><path d="M281.152,316.769l0.103,0.021l0.1,0.032l0.095,0.042l0.091,0.052l0.085,0.061l0.078,0.069l0.071,0.078l0.062,0.084l0.053,0.09l0.043,0.096l0.033,0.099l0.022,0.103l0.011,0.104l0.001,0.104l-0.011,0.104l-0.021,0.103l-0.032,0.1l-0.042,0.095l-0.052,0.091l-0.061,0.085l-0.069,0.078l-0.078,0.071l-28.075,22.974l-0.085,0.062l-0.09,0.053l-0.095,0.043l-0.1,0.033l-0.102,0.022l-0.104,0.012l-0.105,0l-0.104,-0.01l-0.102,-0.021l-0.1,-0.032l-0.096,-0.042l-0.091,-0.052l-0.085,-0.061l-0.078,-0.07l-0.07,-0.077l-0.062,-0.085l-0.053,-0.09l-0.043,-0.095l-0.033,-0.1l-0.022,-0.102l-0.012,-0.104l0,-0.105l0.01,-0.104l0.021,-0.102l0.032,-0.1l0.042,-0.096l0.052,-0.091l0.061,-0.085l0.07,-0.078l0.077,-0.071l28.076,-22.974l0.084,-0.062l0.09,-0.053l0.096,-0.043l0.099,-0.033l0.102,-0.022l0.105,-0.011l0.104,-0.001l0.104,0.011Z"/><path d="M317.588,286.611l0.13,0.019l0.127,0.03l0.125,0.041l0.12,0.052l0.115,0.062l0.109,0.072l0.103,0.081l0.096,0.089l0.087,0.098l0.078,0.105l0.069,0.111l0.059,0.117l0.048,0.122l0.038,0.125l0.026,0.128l0.016,0.13l0.004,0.131l-0.008,0.13l-0.019,0.13l-0.03,0.127l-0.041,0.125l-0.051,0.12l-0.062,0.115l-0.072,0.109l-0.081,0.103l-0.09,0.096l-0.097,0.087l-28.741,23.469l-0.105,0.078l-0.111,0.069l-0.117,0.059l-0.122,0.048l-0.125,0.038l-0.128,0.026l-0.13,0.016l-0.131,0.004l-0.131,-0.008l-0.129,-0.019l-0.127,-0.03l-0.125,-0.041l-0.12,-0.051l-0.115,-0.062l-0.11,-0.072l-0.102,-0.081l-0.096,-0.09l-0.087,-0.097l-0.078,-0.105l-0.069,-0.112l-0.059,-0.116l-0.048,-0.122l-0.038,-0.125l-0.026,-0.128l-0.016,-0.13l-0.004,-0.131l0.008,-0.131l0.019,-0.129l0.03,-0.128l0.041,-0.124l0.051,-0.12l0.062,-0.115l0.072,-0.11l0.081,-0.103l0.09,-0.095l0.097,-0.087l28.741,-23.469l0.105,-0.078l0.111,-0.069l0.117,-0.059l0.122,-0.048l0.125,-0.038l0.128,-0.027l0.13,-0.015l0.131,-0.004l0.13,0.007Z"/><path d="M337.271,271.295l0.071,0.006l0.071,0.01l0.069,0.016l0.069,0.02l0.066,0.026l0.065,0.03l0.063,0.034l0.059,0.039l0.057,0.043l0.054,0.047l0.05,0.051l0.047,0.054l0.042,0.058l0.038,0.06l0.034,0.063l0.029,0.065l0.025,0.067l0.02,0.069l0.014,0.07l0.01,0.07l0.005,0.071l-0.001,0.072l-0.005,0.071l-0.011,0.071l-0.015,0.069l-0.021,0.069l-0.025,0.066l-0.03,0.065l-0.035,0.063l-0.039,0.059l-0.043,0.057l-0.047,0.054l-0.051,0.05l-0.054,0.047l-13.269,10.561l-0.057,0.043l-0.06,0.038l-0.063,0.034l-0.065,0.029l-0.067,0.024l-0.069,0.02l-0.07,0.015l-0.071,0.01l-0.071,0.004l-0.071,0l-0.071,-0.006l-0.071,-0.01l-0.07,-0.016l-0.068,-0.02l-0.067,-0.026l-0.065,-0.03l-0.062,-0.034l-0.06,-0.039l-0.057,-0.043l-0.053,-0.048l-0.05,-0.05l-0.047,-0.055l-0.042,-0.057l-0.039,-0.06l-0.033,-0.063l-0.03,-0.065l-0.024,-0.067l-0.02,-0.069l-0.015,-0.07l-0.009,-0.07l-0.005,-0.072l0,-0.071l0.006,-0.071l0.01,-0.071l0.016,-0.069l0.021,-0.069l0.025,-0.067l0.03,-0.064l0.035,-0.063l0.039,-0.06l0.043,-0.056l0.047,-0.054l0.05,-0.05l0.055,-0.047l13.268,-10.561l0.058,-0.043l0.06,-0.038l0.063,-0.034l0.065,-0.029l0.067,-0.025l0.069,-0.019l0.07,-0.015l0.07,-0.01l0.071,-0.004l0.072,0Z"/></g><g><g><path d="M112.017,444.217c49.927,18.855 105.061,29.319 163.003,29.319c59.587,0 116.205,-11.067 167.244,-30.946l0,-73.801c-50.424,19.175 -106.157,29.808 -164.744,29.808c-58.885,0 -114.886,-10.741 -165.503,-30.094l0,75.714Z" style="fill:#ffe5c9;stroke:#000;stroke-width:2px;"/><g><path d="M112.313,421.766l0,-53.145c10.95,4.187 22.152,7.97 33.57,11.296l0,-21.749c-46.623,-7.119 -84.973,-17.905 -109.969,-30.965l45.292,56.457l-49.598,14.578c24.079,8.977 51.178,16.895 80.705,23.528Z" style="fill:#ffe5c9;stroke:#000;stroke-width:2px;"/><path d="M112.462,368.503c11.044,4.153 21.899,8.113 33.417,11.413l0,-21.577c-0.378,-0.057 -0.756,-0.114 -1.133,-0.171l-32.284,10.335Z" style="fill:#ffc280;stroke:#000;stroke-width:2px;"/></g><g><path d="M442.178,421.766l0,-53.145c-10.95,4.187 -22.151,7.97 -33.57,11.296l0,-21.749c46.623,-7.119 84.973,-17.905 109.969,-30.965l-45.292,56.457l49.598,14.578c-24.079,8.977 -51.178,16.895 -80.705,23.528Z" style="fill:#ffe5c9;stroke:#000;stroke-width:2px;"/><path d="M442.03,368.503c-11.045,4.153 -21.9,8.113 -33.418,11.413l0,-21.577c0.379,-0.057 0.756,-0.114 1.133,-0.171l32.285,10.335Z" style="fill:#ffc280;stroke:#000;stroke-width:2px;"/></g></g><g transform="matrix(1.4876,0,0,-1.81499,-832.333,1545.77)"><g transform="matrix(-0.672223,0,0,0.550966,971.161,271.399)"><g transform="matrix(-0.984183,-0.177156,0.177156,-0.984183,770.603,1293.54)"><text x="443.048px" y="612.37px" style="font-family:'Roboto-Bold', 'Roboto';font-weight:700;font-size:46px;fill:none;">P</text></g><g transform="matrix(-0.992983,-0.118255,0.118255,-0.992983,752.615,1258.74)"><text x="413.652px" y="607.041px" style="font-family:'Roboto-Bold', 'Roboto';font-weight:700;font-size:46px;fill:none;">R</text></g><g transform="matrix(-0.996968,-0.0778188,0.0778188,-0.996968,720.66,1235.49)"><text x="384.403px" y="603.703px" style="font-family:'Roboto-Bold', 'Roboto';font-weight:700;font-size:46px;fill:none;">I</text></g><g transform="matrix(-0.999166,-0.040841,0.040841,-0.999166,716.834,1219.75)"><text x="370.876px" y="602.554px" style="font-family:'Roboto-Bold', 'Roboto';font-weight:700;font-size:46px;fill:none;">J</text></g><g transform="matrix(-0.999902,0.0139662,-0.0139662,-0.999902,698.471,1198.13)"><text x="345.052px" y="601.501px" style="font-family:'Roboto-Bold', 'Roboto';font-weight:700;font-size:46px;fill:none;">E</text></g><g transform="matrix(-0.997665,0.0683028,-0.0683028,-0.997665,678.433,1180.35)"><text x="319.037px" y="601.775px" style="font-family:'Roboto-Bold', 'Roboto';font-weight:700;font-size:46px;fill:none;">D</text></g><g transform="matrix(-0.991725,0.128384,-0.128384,-0.991725,653.259,1165.47)"><text x="289.067px" y="603.789px" style="font-family:'Roboto-Bold', 'Roboto';font-weight:700;font-size:46px;fill:none;">O</text></g><g transform="matrix(-0.981692,0.190475,-0.190475,-0.981692,625.741,1155.68)"><text x="257.33px" y="607.914px" style="font-family:'Roboto-Bold', 'Roboto';font-weight:700;font-size:46px;fill:none;">R</text></g></g><g transform="matrix(-0.672223,0,0,0.550966,971.161,271.399)"><g transform="matrix(-0.984183,-0.177156,0.177156,-0.984183,770.603,1293.54)"><text x="443.048px" y="612.37px" style="font-family:'Roboto-Bold', 'Roboto';font-weight:700;font-size:46px;fill:#ff6969;stroke:#000;stroke-width:1.5px;stroke-linecap:butt;stroke-miterlimit:1.41421;">P</text></g><g transform="matrix(-0.992983,-0.118255,0.118255,-0.992983,752.615,1258.74)"><text x="413.652px" y="607.041px" style="font-family:'Roboto-Bold', 'Roboto';font-weight:700;font-size:46px;fill:#ff6969;stroke:#000;stroke-width:1.5px;stroke-linecap:butt;stroke-miterlimit:1.41421;">R</text></g><g transform="matrix(-0.996968,-0.0778188,0.0778188,-0.996968,720.66,1235.49)"><text x="384.403px" y="603.703px" style="font-family:'Roboto-Bold', 'Roboto';font-weight:700;font-size:46px;fill:#ff6969;stroke:#000;stroke-width:1.5px;stroke-linecap:butt;stroke-miterlimit:1.41421;">I</text></g><g transform="matrix(-0.999166,-0.040841,0.040841,-0.999166,716.834,1219.75)"><text x="370.876px" y="602.554px" style="font-family:'Roboto-Bold', 'Roboto';font-weight:700;font-size:46px;fill:#ff6969;stroke:#000;stroke-width:1.5px;stroke-linecap:butt;stroke-miterlimit:1.41421;">J</text></g><g transform="matrix(-0.999902,0.0139662,-0.0139662,-0.999902,698.471,1198.13)"><text x="345.052px" y="601.501px" style="font-family:'Roboto-Bold', 'Roboto';font-weight:700;font-size:46px;fill:#ff6969;stroke:#000;stroke-width:1.5px;stroke-linecap:butt;stroke-miterlimit:1.41421;">E</text></g><g transform="matrix(-0.997665,0.0683028,-0.0683028,-0.997665,678.433,1180.35)"><text x="319.037px" y="601.775px" style="font-family:'Roboto-Bold', 'Roboto';font-weight:700;font-size:46px;fill:#ff6969;stroke:#000;stroke-width:1.5px;stroke-linecap:butt;stroke-miterlimit:1.41421;">D</text></g><g transform="matrix(-0.991725,0.128384,-0.128384,-0.991725,653.259,1165.47)"><text x="289.067px" y="603.789px" style="font-family:'Roboto-Bold', 'Roboto';font-weight:700;font-size:46px;fill:#ff6969;stroke:#000;stroke-width:1.5px;stroke-linecap:butt;stroke-miterlimit:1.41421;">O</text></g><g transform="matrix(-0.981692,0.190475,-0.190475,-0.981692,625.741,1155.68)"><text x="257.33px" y="607.914px" style="font-family:'Roboto-Bold', 'Roboto';font-weight:700;font-size:46px;fill:#ff6969;stroke:#000;stroke-width:1.5px;stroke-linecap:butt;stroke-miterlimit:1.41421;">R</text></g></g></g></g><g><g><path d="M112.017,58.273c49.927,-18.855 105.061,-29.318 163.003,-29.318c59.587,0 116.205,11.066 167.244,30.946l0,73.8c-50.424,-19.175 -106.157,-29.807 -164.744,-29.807c-58.885,0 -114.886,10.74 -165.503,30.094l0,-75.715Z" style="fill:#ffe5c9;stroke:#000;stroke-width:2px;"/><g><path d="M112.313,80.724l0,53.145c10.95,-4.186 22.152,-7.97 33.57,-11.296l0,21.749c-46.623,7.119 -84.973,17.906 -109.969,30.965l45.292,-56.456l-49.598,-14.579c24.079,-8.976 51.178,-16.895 80.705,-23.528Z" style="fill:#ffe5c9;stroke:#000;stroke-width:2px;"/><path d="M112.462,133.988c11.044,-4.154 21.899,-8.114 33.417,-11.413l0,21.576c-0.378,0.057 -0.756,0.114 -1.133,0.172l-32.284,-10.335Z" style="fill:#ffc280;stroke:#000;stroke-width:2px;"/></g><g><path d="M442.178,80.724l0,53.145c-10.95,-4.186 -22.151,-7.97 -33.57,-11.296l0,21.749c46.623,7.119 84.973,17.906 109.969,30.965l-45.292,-56.456l49.598,-14.579c-24.079,-8.976 -51.178,-16.895 -80.705,-23.528Z" style="fill:#ffe5c9;stroke:#000;stroke-width:2px;"/><path d="M442.03,133.988c-11.045,-4.154 -21.9,-8.114 -33.418,-11.413l0,21.576c0.379,0.057 0.756,0.114 1.133,0.172l32.285,-10.335Z" style="fill:#ffc280;stroke:#000;stroke-width:2px;"/></g></g><g transform="matrix(1.4876,0,0,1.8029,-832.333,-1004.5)"><g transform="matrix(0.672223,0,0,0.554661,190.36,269.166)"><g transform="matrix(0.967407,-0.253227,0.253227,0.967407,-135.92,192.91)"><text x="681.431px" y="624.459px" style="font-family:'Roboto-Bold', 'Roboto';font-weight:700;font-size:46px;fill:none;">E</text></g><g transform="matrix(0.979508,-0.201407,0.201407,0.979508,-109.956,154.945)"><text x="706.456px" y="617.821px" style="font-family:'Roboto-Bold', 'Roboto';font-weight:700;font-size:46px;fill:none;">U</text></g><g transform="matrix(0.989931,-0.141548,0.141548,0.989931,-79.1752,110.351)"><text x="736.09px" y="611.711px" style="font-family:'Roboto-Bold', 'Roboto';font-weight:700;font-size:46px;fill:none;">R</text></g><g transform="matrix(0.996522,-0.0833253,0.0833253,0.996522,-47.9581,65.8718)"><text x="765.184px" y="607.488px" style="font-family:'Roboto-Bold', 'Roboto';font-weight:700;font-size:46px;fill:none;">O</text></g><g transform="matrix(0.999799,-0.0200474,0.0200474,0.999799,-11.9652,16.0951)"><text x="796.789px" y="604.834px" style="font-family:'Roboto-Bold', 'Roboto';font-weight:700;font-size:46px;fill:none;">K</text></g><g transform="matrix(0.999379,0.0352402,-0.0352402,0.999379,21.8034,-28.7091)"><text x="825.318px" y="604.162px" style="font-family:'Roboto-Bold', 'Roboto';font-weight:700;font-size:46px;fill:none;">O</text></g><g transform="matrix(0.995232,0.0975357,-0.0975357,0.995232,63.1241,-80.7115)"><text x="857.096px" y="605.291px" style="font-family:'Roboto-Bold', 'Roboto';font-weight:700;font-size:46px;fill:none;">R</text></g><g transform="matrix(0.987726,0.156197,-0.156197,0.987726,105.858,-130.971)"><text x="886.283px" y="608.076px" style="font-family:'Roboto-Bold', 'Roboto';font-weight:700;font-size:46px;fill:none;">N</text></g><g transform="matrix(0.976698,0.214619,-0.214619,0.976698,153.009,-182.808)"><text x="918.36px" y="613.221px" style="font-family:'Roboto-Bold', 'Roboto';font-weight:700;font-size:46px;fill:none;">E</text></g><g transform="matrix(0.964163,0.265311,-0.265311,0.964163,198.019,-228.308)"><text x="944.119px" y="618.836px" style="font-family:'Roboto-Bold', 'Roboto';font-weight:700;font-size:46px;fill:none;">T</text></g></g><g transform="matrix(0.672223,0,0,0.554661,190.36,269.166)"><g transform="matrix(0.967407,-0.253227,0.253227,0.967407,-135.92,192.91)"><text x="681.431px" y="624.459px" style="font-family:'Roboto-Bold', 'Roboto';font-weight:700;font-size:46px;fill:#ff6969;stroke:#000;stroke-width:1.5px;stroke-linecap:butt;stroke-miterlimit:1.41421;">E</text></g><g transform="matrix(0.979508,-0.201407,0.201407,0.979508,-109.956,154.945)"><text x="706.456px" y="617.821px" style="font-family:'Roboto-Bold', 'Roboto';font-weight:700;font-size:46px;fill:#ff6969;stroke:#000;stroke-width:1.5px;stroke-linecap:butt;stroke-miterlimit:1.41421;">U</text></g><g transform="matrix(0.989931,-0.141548,0.141548,0.989931,-79.1752,110.351)"><text x="736.09px" y="611.711px" style="font-family:'Roboto-Bold', 'Roboto';font-weight:700;font-size:46px;fill:#ff6969;stroke:#000;stroke-width:1.5px;stroke-linecap:butt;stroke-miterlimit:1.41421;">R</text></g><g transform="matrix(0.996522,-0.0833253,0.0833253,0.996522,-47.9581,65.8718)"><text x="765.184px" y="607.488px" style="font-family:'Roboto-Bold', 'Roboto';font-weight:700;font-size:46px;fill:#ff6969;stroke:#000;stroke-width:1.5px;stroke-linecap:butt;stroke-miterlimit:1.41421;">O</text></g><g transform="matrix(0.999799,-0.0200474,0.0200474,0.999799,-11.9652,16.0951)"><text x="796.789px" y="604.834px" style="font-family:'Roboto-Bold', 'Roboto';font-weight:700;font-size:46px;fill:#ff6969;stroke:#000;stroke-width:1.5px;stroke-linecap:butt;stroke-miterlimit:1.41421;">K</text></g><g transform="matrix(0.999379,0.0352402,-0.0352402,0.999379,21.8034,-28.7091)"><text x="825.318px" y="604.162px" style="font-family:'Roboto-Bold', 'Roboto';font-weight:700;font-size:46px;fill:#ff6969;stroke:#000;stroke-width:1.5px;stroke-linecap:butt;stroke-miterlimit:1.41421;">O</text></g><g transform="matrix(0.995232,0.0975357,-0.0975357,0.995232,63.1241,-80.7115)"><text x="857.096px" y="605.291px" style="font-family:'Roboto-Bold', 'Roboto';font-weight:700;font-size:46px;fill:#ff6969;stroke:#000;stroke-width:1.5px;stroke-linecap:butt;stroke-miterlimit:1.41421;">R</text></g><g transform="matrix(0.987726,0.156197,-0.156197,0.987726,105.858,-130.971)"><text x="886.283px" y="608.076px" style="font-family:'Roboto-Bold', 'Roboto';font-weight:700;font-size:46px;fill:#ff6969;stroke:#000;stroke-width:1.5px;stroke-linecap:butt;stroke-miterlimit:1.41421;">N</text></g><g transform="matrix(0.976698,0.214619,-0.214619,0.976698,153.009,-182.808)"><text x="918.36px" y="613.221px" style="font-family:'Roboto-Bold', 'Roboto';font-weight:700;font-size:46px;fill:#ff6969;stroke:#000;stroke-width:1.5px;stroke-linecap:butt;stroke-miterlimit:1.41421;">E</text></g><g transform="matrix(0.964163,0.265311,-0.265311,0.964163,198.019,-228.308)"><text x="944.119px" y="618.836px" style="font-family:'Roboto-Bold', 'Roboto';font-weight:700;font-size:46px;fill:#ff6969;stroke:#000;stroke-width:1.5px;stroke-linecap:butt;stroke-miterlimit:1.41421;">T</text></g></g></g><g transform="matrix(1.4876,0,0,1.8029,-832.333,-1004.5)"><g transform="matrix(0.672223,0,0,0.554661,190.36,269.166)"><g transform="matrix(0.967407,-0.253227,0.253227,0.967407,-135.92,192.91)"><text x="681.431px" y="624.459px" style="font-family:'Roboto-Bold', 'Roboto';font-weight:700;font-size:46px;fill:none;">E</text></g><g transform="matrix(0.979508,-0.201407,0.201407,0.979508,-109.956,154.945)"><text x="706.456px" y="617.821px" style="font-family:'Roboto-Bold', 'Roboto';font-weight:700;font-size:46px;fill:none;">U</text></g><g transform="matrix(0.989931,-0.141548,0.141548,0.989931,-79.1752,110.351)"><text x="736.09px" y="611.711px" style="font-family:'Roboto-Bold', 'Roboto';font-weight:700;font-size:46px;fill:none;">R</text></g><g transform="matrix(0.996522,-0.0833253,0.0833253,0.996522,-47.9581,65.8718)"><text x="765.184px" y="607.488px" style="font-family:'Roboto-Bold', 'Roboto';font-weight:700;font-size:46px;fill:none;">O</text></g><g transform="matrix(0.999799,-0.0200474,0.0200474,0.999799,-11.9652,16.0951)"><text x="796.789px" y="604.834px" style="font-family:'Roboto-Bold', 'Roboto';font-weight:700;font-size:46px;fill:none;">K</text></g><g transform="matrix(0.999379,0.0352402,-0.0352402,0.999379,21.8034,-28.7091)"><text x="825.318px" y="604.162px" style="font-family:'Roboto-Bold', 'Roboto';font-weight:700;font-size:46px;fill:none;">O</text></g><g transform="matrix(0.995232,0.0975357,-0.0975357,0.995232,63.1241,-80.7115)"><text x="857.096px" y="605.291px" style="font-family:'Roboto-Bold', 'Roboto';font-weight:700;font-size:46px;fill:none;">R</text></g><g transform="matrix(0.987726,0.156197,-0.156197,0.987726,105.858,-130.971)"><text x="886.283px" y="608.076px" style="font-family:'Roboto-Bold', 'Roboto';font-weight:700;font-size:46px;fill:none;">N</text></g><g transform="matrix(0.976698,0.214619,-0.214619,0.976698,153.009,-182.808)"><text x="918.36px" y="613.221px" style="font-family:'Roboto-Bold', 'Roboto';font-weight:700;font-size:46px;fill:none;">E</text></g><g transform="matrix(0.964163,0.265311,-0.265311,0.964163,198.019,-228.308)"><text x="944.119px" y="618.836px" style="font-family:'Roboto-Bold', 'Roboto';font-weight:700;font-size:46px;fill:none;">T</text></g></g><g transform="matrix(0.672223,0,0,0.554661,190.36,269.166)"><g transform="matrix(0.967407,-0.253227,0.253227,0.967407,-135.92,192.91)"><text x="681.431px" y="624.459px" style="font-family:'Roboto-Bold', 'Roboto';font-weight:700;font-size:46px;fill:#ff6969;stroke:#000;stroke-width:1.5px;stroke-linecap:butt;stroke-miterlimit:1.41421;">E</text></g><g transform="matrix(0.979508,-0.201407,0.201407,0.979508,-109.956,154.945)"><text x="706.456px" y="617.821px" style="font-family:'Roboto-Bold', 'Roboto';font-weight:700;font-size:46px;fill:#ff6969;stroke:#000;stroke-width:1.5px;stroke-linecap:butt;stroke-miterlimit:1.41421;">U</text></g><g transform="matrix(0.989931,-0.141548,0.141548,0.989931,-79.1752,110.351)"><text x="736.09px" y="611.711px" style="font-family:'Roboto-Bold', 'Roboto';font-weight:700;font-size:46px;fill:#ff6969;stroke:#000;stroke-width:1.5px;stroke-linecap:butt;stroke-miterlimit:1.41421;">R</text></g><g transform="matrix(0.996522,-0.0833253,0.0833253,0.996522,-47.9581,65.8718)"><text x="765.184px" y="607.488px" style="font-family:'Roboto-Bold', 'Roboto';font-weight:700;font-size:46px;fill:#ff6969;stroke:#000;stroke-width:1.5px;stroke-linecap:butt;stroke-miterlimit:1.41421;">O</text></g><g transform="matrix(0.999799,-0.0200474,0.0200474,0.999799,-11.9652,16.0951)"><text x="796.789px" y="604.834px" style="font-family:'Roboto-Bold', 'Roboto';font-weight:700;font-size:46px;fill:#ff6969;stroke:#000;stroke-width:1.5px;stroke-linecap:butt;stroke-miterlimit:1.41421;">K</text></g><g transform="matrix(0.999379,0.0352402,-0.0352402,0.999379,21.8034,-28.7091)"><text x="825.318px" y="604.162px" style="font-family:'Roboto-Bold', 'Roboto';font-weight:700;font-size:46px;fill:#ff6969;stroke:#000;stroke-width:1.5px;stroke-linecap:butt;stroke-miterlimit:1.41421;">O</text></g><g transform="matrix(0.995232,0.0975357,-0.0975357,0.995232,63.1241,-80.7115)"><text x="857.096px" y="605.291px" style="font-family:'Roboto-Bold', 'Roboto';font-weight:700;font-size:46px;fill:#ff6969;stroke:#000;stroke-width:1.5px;stroke-linecap:butt;stroke-miterlimit:1.41421;">R</text></g><g transform="matrix(0.987726,0.156197,-0.156197,0.987726,105.858,-130.971)"><text x="886.283px" y="608.076px" style="font-family:'Roboto-Bold', 'Roboto';font-weight:700;font-size:46px;fill:#ff6969;stroke:#000;stroke-width:1.5px;stroke-linecap:butt;stroke-miterlimit:1.41421;">N</text></g><g transform="matrix(0.976698,0.214619,-0.214619,0.976698,153.009,-182.808)"><text x="918.36px" y="613.221px" style="font-family:'Roboto-Bold', 'Roboto';font-weight:700;font-size:46px;fill:#ff6969;stroke:#000;stroke-width:1.5px;stroke-linecap:butt;stroke-miterlimit:1.41421;">E</text></g><g transform="matrix(0.964163,0.265311,-0.265311,0.964163,198.019,-228.308)"><text x="944.119px" y="618.836px" style="font-family:'Roboto-Bold', 'Roboto';font-weight:700;font-size:46px;fill:#ff6969;stroke:#000;stroke-width:1.5px;stroke-linecap:butt;stroke-miterlimit:1.41421;">T</text></g></g></g></g><path d="M97.098,205.896l10.08,21.125l23.207,3.059l-16.977,16.115l4.262,23.016l-20.572,-11.165l-20.573,11.165l4.262,-23.016l-16.976,-16.115l23.206,-3.059l10.081,-21.125Z" style="fill:#ff6969;stroke:#000;stroke-width:2px;stroke-linejoin:miter;"/><path d="M457.098,205.896l10.08,21.125l23.207,3.059l-16.977,16.115l4.262,23.016l-20.572,-11.165l-20.573,11.165l4.262,-23.016l-16.976,-16.115l23.206,-3.059l10.081,-21.125Z" style="fill:#ff6969;stroke:#000;stroke-width:2px;stroke-linejoin:miter;"/><path d="M280.447,380.213l0.056,0.006l0.055,0.008l0.055,0.011l0.055,0.014l0.053,0.018l0.052,0.02l0.051,0.023l0.05,0.027l0.048,0.028l0.046,0.032l0.045,0.034l0.043,0.036l0.04,0.039l0.038,0.041l7,7.945l0.036,0.043l0.034,0.045l0.03,0.047l0.029,0.048l0.025,0.05l0.023,0.052l0.019,0.052l0.017,0.054l0.014,0.054l0.01,0.055l0.008,0.056l0.004,0.056l0.001,0.056l-0.002,0.056l-0.005,0.056l-0.008,0.055l-0.012,0.055l-0.014,0.054l-0.017,0.054l-0.021,0.052l-0.023,0.051l-0.026,0.05l-0.029,0.048l-0.031,0.046l-0.035,0.045l-0.036,0.042l-0.039,0.041l-0.041,0.038l-0.043,0.036l-0.045,0.033l-0.047,0.031l-0.048,0.028l-0.05,0.026l-0.052,0.022l-0.052,0.02l-0.054,0.017l-0.054,0.013l-0.055,0.011l-0.056,0.007l-0.056,0.005l-0.056,0.001l-0.056,-0.002l-0.056,-0.005l-0.055,-0.009l-0.055,-0.011l-0.055,-0.014l-0.053,-0.018l-0.052,-0.02l-0.051,-0.023l-0.05,-0.026l-0.048,-0.029l-0.046,-0.032l-0.045,-0.034l-0.043,-0.036l-0.04,-0.039l-0.038,-0.041l-7,-7.944l-0.036,-0.044l-0.034,-0.045l-0.03,-0.047l-0.029,-0.048l-0.025,-0.05l-0.023,-0.051l-0.019,-0.053l-0.017,-0.053l-0.013,-0.055l-0.011,-0.055l-0.007,-0.056l-0.005,-0.056l-0.001,-0.056l0.002,-0.056l0.005,-0.056l0.008,-0.055l0.012,-0.055l0.014,-0.054l0.017,-0.053l0.021,-0.053l0.023,-0.051l0.026,-0.049l0.029,-0.049l0.032,-0.046l0.034,-0.045l0.036,-0.042l0.039,-0.041l0.041,-0.038l0.043,-0.036l0.045,-0.033l0.047,-0.031l0.048,-0.028l0.05,-0.026l0.052,-0.022l0.052,-0.02l0.054,-0.016l0.054,-0.014l0.055,-0.011l0.056,-0.007l0.056,-0.004l0.056,-0.002l0.056,0.002Z"/><path d="M272.054,378.833l0.069,0.006l0.069,0.011l0.068,0.016l0.067,0.021l0.065,0.026l0.063,0.029l0.061,0.034l0.058,0.039l0.056,0.042l0.052,0.046l0.049,0.05l0.046,0.053l0.042,0.056l0.037,0.058l0.034,0.062l0.029,0.063l0.025,0.065l0.02,0.067l0.015,0.068l0.011,0.069l0.005,0.07l0.001,0.07l-0.004,0.069l-0.009,0.069l-0.013,0.069l-0.019,0.067l-0.023,0.066l-0.027,0.064l-0.032,0.062l-0.037,0.06l-0.04,0.057l-0.044,0.054l-0.048,0.051l-0.051,0.047l-0.055,0.044l-12.502,9.324l-0.058,0.04l-0.06,0.036l-0.062,0.031l-0.064,0.027l-0.067,0.023l-0.067,0.017l-0.069,0.013l-0.069,0.008l-0.07,0.004l-0.069,-0.002l-0.07,-0.006l-0.069,-0.012l-0.068,-0.016l-0.066,-0.02l-0.065,-0.026l-0.064,-0.029l-0.06,-0.035l-0.059,-0.038l-0.055,-0.042l-0.053,-0.046l-0.049,-0.05l-0.045,-0.053l-0.042,-0.056l-0.038,-0.058l-0.033,-0.062l-0.03,-0.063l-0.024,-0.065l-0.02,-0.067l-0.016,-0.068l-0.01,-0.069l-0.006,-0.07l-0.001,-0.07l0.004,-0.069l0.009,-0.07l0.014,-0.068l0.018,-0.067l0.023,-0.066l0.028,-0.064l0.032,-0.062l0.036,-0.06l0.04,-0.057l0.044,-0.054l0.048,-0.051l0.051,-0.047l0.055,-0.044l12.503,-9.325l0.057,-0.039l0.06,-0.036l0.062,-0.031l0.065,-0.027l0.066,-0.023l0.067,-0.017l0.069,-0.013l0.069,-0.009l0.07,-0.003l0.07,0.002Z"/></g></svg>