<?xml version="1.0" encoding="UTF-8" standalone="no"?><!DOCTYPE svg PUBLIC "-//W3C//DTD SVG 1.1//EN" "http://www.w3.org/Graphics/SVG/1.1/DTD/svg11.dtd"><svg width="100%" height="100%" viewBox="0 0 503 435" version="1.1" xmlns="http://www.w3.org/2000/svg" xmlns:xlink="http://www.w3.org/1999/xlink" xml:space="preserve" style="fill-rule:evenodd;clip-rule:evenodd;stroke-linecap:round;stroke-linejoin:round;stroke-miterlimit:1.5;"><g id="transparent.-logo"><g><path d="M287.255,326.341l0.076,0.007l0.075,0.011l0.074,0.014l0.074,0.018l0.073,0.022l0.071,0.026l0.071,0.029l0.068,0.033l0.067,0.036l0.065,0.04l0.063,0.042l0.06,0.046l0.059,0.049l0.055,0.052l0.053,0.054l9.061,9.819l0.051,0.057l0.047,0.059l0.044,0.062l0.041,0.064l0.037,0.066l0.034,0.068l0.031,0.07l0.027,0.071l0.024,0.072l0.02,0.073l0.016,0.075l0.012,0.075l0.009,0.075l0.004,0.076l0.001,0.076l-0.003,0.076l-0.007,0.076l-0.011,0.075l-0.014,0.074l-0.018,0.074l-0.022,0.073l-0.026,0.072l-0.029,0.07l-0.033,0.068l-0.036,0.067l-0.04,0.065l-0.042,0.063l-0.046,0.06l-0.049,0.059l-0.052,0.055l-0.055,0.053l-0.057,0.05l-0.059,0.047l-0.062,0.045l-0.064,0.04l-0.066,0.038l-0.068,0.034l-0.07,0.031l-0.071,0.027l-0.072,0.024l-0.073,0.019l-0.075,0.016l-0.075,0.013l-0.075,0.008l-0.076,0.005l-0.076,0.001l-0.076,-0.003l-0.076,-0.007l-0.075,-0.011l-0.074,-0.014l-0.074,-0.019l-0.073,-0.022l-0.072,-0.025l-0.07,-0.03l-0.068,-0.032l-0.067,-0.036l-0.065,-0.04l-0.063,-0.043l-0.06,-0.046l-0.059,-0.048l-0.055,-0.052l-0.053,-0.055l-9.062,-9.818l-0.05,-0.057l-0.047,-0.06l-0.044,-0.062l-0.041,-0.064l-0.037,-0.066l-0.035,-0.068l-0.03,-0.069l-0.027,-0.071l-0.024,-0.072l-0.02,-0.074l-0.016,-0.074l-0.012,-0.075l-0.009,-0.076l-0.004,-0.075l-0.001,-0.076l0.003,-0.076l0.007,-0.076l0.011,-0.075l0.014,-0.075l0.018,-0.074l0.022,-0.072l0.026,-0.072l0.029,-0.07l0.033,-0.069l0.036,-0.066l0.04,-0.065l0.042,-0.063l0.046,-0.061l0.049,-0.058l0.052,-0.056l0.054,-0.053l0.058,-0.05l0.059,-0.047l0.062,-0.044l0.064,-0.041l0.066,-0.037l0.068,-0.035l0.07,-0.03l0.071,-0.027l0.072,-0.024l0.073,-0.02l0.075,-0.016l0.075,-0.012l0.075,-0.009l0.076,-0.004l0.076,-0.001l0.076,0.003Z" style="fill:#fff;"/><path d="M348.456,185.321c0,-1.3 -0.516,-2.546 -1.435,-3.465c-0.919,-0.919 -2.165,-1.435 -3.465,-1.435c-27.06,0 -157.986,0 -185.047,0c-1.299,0 -2.546,0.516 -3.464,1.435c-0.919,0.919 -1.436,2.165 -1.436,3.465c0,0.001 0,0.001 0,0.002c0,1.3 0.517,2.546 1.436,3.465c0.918,0.919 2.165,1.435 3.464,1.435c27.061,0 157.987,0 185.047,0c1.3,0 2.546,-0.516 3.465,-1.435c0.919,-0.919 1.435,-2.165 1.435,-3.465c0,-0.001 0,-0.001 0,-0.002Z" style="fill:none;stroke:#fff;stroke-width:3px;"/><path d="M348.456,126.211c0,-1.3 -0.516,-2.546 -1.435,-3.465c-0.919,-0.919 -2.165,-1.435 -3.465,-1.435c-27.06,0 -157.986,0 -185.047,0c-1.299,0 -2.546,0.516 -3.464,1.435c-0.919,0.919 -1.436,2.165 -1.436,3.465c0,0.001 0,0.001 0,0.002c0,1.3 0.517,2.546 1.436,3.465c0.918,0.919 2.165,1.435 3.464,1.435c27.061,0 157.987,0 185.047,0c1.3,0 2.546,-0.516 3.465,-1.435c0.919,-0.919 1.435,-2.165 1.435,-3.465c0,-0.001 0,-0.001 0,-0.002Z" style="fill:none;stroke:#fff;stroke-width:2px;"/><path d="M357.387,115.445c0.198,-1.544 -0.234,-3.103 -1.198,-4.325c-0.965,-1.223 -2.381,-2.005 -3.929,-2.172c-65.669,-6.977 -132.164,-7.589 -200.155,-0.762c-3.705,0.378 -6.684,3.217 -7.238,6.899c-0.002,0.001 -0.002,0.001 -0.002,0.001c-0.235,1.561 0.222,3.146 1.251,4.341c1.03,1.196 2.529,1.884 4.107,1.884c31.32,0 170.071,0 200.501,0c3.38,0 6.234,-2.512 6.663,-5.864c0,-0.001 0,-0.001 0,-0.002Z" style="fill:none;stroke:#fff;stroke-width:3px;"/><rect x="157.884" y="131.113" width="186.299" height="49.308" style="fill:none;stroke:#fff;stroke-width:3px;"/><path d="M293.126,189.224l0.057,0.003l0.057,0.007l0.056,0.011l0.056,0.013l0.055,0.017l0.053,0.019l0.053,0.023l0.051,0.026l0.049,0.028l0.048,0.031l0.046,0.034l0.044,0.037l0.041,0.039l0.04,0.041l7.576,8.403l0.037,0.043l0.034,0.046l0.032,0.047l0.029,0.049l0.026,0.051l0.024,0.052l0.02,0.054l0.017,0.054l0.014,0.055l0.011,0.056l0.008,0.057l0.004,0.057l0.001,0.057l-0.002,0.057l-0.005,0.057l-0.009,0.056l-0.012,0.056l-0.015,0.055l-0.018,0.055l-0.021,0.053l-0.024,0.051l-0.027,0.051l-0.03,0.048l-0.033,0.047l-0.035,0.045l-0.038,0.043l-0.04,0.041l-0.043,0.038l-0.044,0.036l-0.047,0.033l-0.048,0.03l-0.05,0.028l-0.051,0.025l-0.053,0.021l-0.054,0.019l-0.055,0.016l-0.056,0.012l-0.056,0.009l-0.057,0.006l-0.057,0.003l-0.057,0l-0.057,-0.004l-0.057,-0.007l-0.056,-0.01l-0.056,-0.014l-0.054,-0.016l-0.054,-0.02l-0.052,-0.023l-0.051,-0.025l-0.05,-0.029l-0.048,-0.031l-0.045,-0.034l-0.044,-0.037l-0.042,-0.039l-0.039,-0.041l-7.577,-8.402l-0.037,-0.044l-0.034,-0.045l-0.032,-0.048l-0.029,-0.049l-0.026,-0.051l-0.023,-0.052l-0.021,-0.053l-0.017,-0.055l-0.014,-0.055l-0.011,-0.056l-0.007,-0.057l-0.005,-0.057l-0.001,-0.057l0.002,-0.057l0.006,-0.057l0.008,-0.056l0.012,-0.056l0.015,-0.055l0.018,-0.054l0.021,-0.053l0.025,-0.052l0.027,-0.05l0.03,-0.049l0.032,-0.047l0.036,-0.045l0.037,-0.043l0.041,-0.04l0.042,-0.039l0.044,-0.035l0.047,-0.034l0.048,-0.03l0.05,-0.028l0.052,-0.024l0.053,-0.022l0.053,-0.019l0.055,-0.015l0.056,-0.013l0.057,-0.009l0.056,-0.006l0.057,-0.003l0.057,0.001Z" style="fill:#fff;"/><path d="M306.97,204.562l0.087,0.009l0.086,0.015l0.084,0.024l0.082,0.03l0.079,0.038l0.075,0.044l0.071,0.051l0.066,0.056l0.061,0.062l17.325,19.214l0.055,0.067l0.05,0.072l0.043,0.076l0.036,0.079l0.029,0.083l0.022,0.084l0.014,0.086l0.007,0.087l-0.001,0.087l-0.008,0.087l-0.016,0.086l-0.023,0.084l-0.03,0.082l-0.038,0.078l-0.044,0.076l-0.051,0.071l-0.056,0.066l-0.063,0.061l-0.067,0.056l-0.072,0.049l-0.076,0.043l-0.079,0.037l-0.082,0.029l-0.085,0.022l-0.086,0.014l-0.087,0.007l-0.087,-0.001l-0.087,-0.008l-0.085,-0.016l-0.085,-0.023l-0.081,-0.031l-0.079,-0.037l-0.075,-0.044l-0.071,-0.051l-0.067,-0.057l-0.061,-0.062l-17.324,-19.213l-0.055,-0.068l-0.05,-0.071l-0.043,-0.076l-0.036,-0.08l-0.029,-0.082l-0.022,-0.084l-0.015,-0.086l-0.007,-0.087l0.001,-0.088l0.008,-0.086l0.016,-0.086l0.024,-0.084l0.03,-0.082l0.038,-0.079l0.044,-0.075l0.05,-0.071l0.057,-0.066l0.062,-0.062l0.067,-0.055l0.072,-0.05l0.076,-0.043l0.08,-0.036l0.082,-0.029l0.084,-0.022l0.086,-0.014l0.087,-0.007l0.087,0Z" style="fill:#fff;"/><path d="M227.714,263.865l0.13,0.017l0.128,0.028l0.125,0.039l0.121,0.05l0.116,0.06l0.111,0.07l0.104,0.079l0.097,0.088l0.088,0.096l0.08,0.104l0.071,0.11l0.061,0.116l0.05,0.121l0.04,0.124l0.029,0.128l0.017,0.13l0.006,0.13l-0.005,0.131l-0.017,0.13l-0.028,0.128l-0.039,0.125l-0.049,0.121l-0.06,0.116l-0.07,0.111l-0.08,0.104l-0.088,0.096l-0.096,0.089l-29.304,24.74l-0.103,0.08l-0.11,0.07l-0.116,0.061l-0.121,0.051l-0.125,0.039l-0.127,0.029l-0.13,0.017l-0.131,0.007l-0.13,-0.006l-0.13,-0.016l-0.128,-0.028l-0.125,-0.039l-0.121,-0.05l-0.116,-0.06l-0.111,-0.07l-0.104,-0.08l-0.097,-0.088l-0.088,-0.096l-0.08,-0.103l-0.071,-0.111l-0.061,-0.115l-0.05,-0.121l-0.04,-0.125l-0.029,-0.128l-0.017,-0.129l-0.006,-0.131l0.005,-0.131l0.017,-0.129l0.028,-0.128l0.039,-0.125l0.049,-0.121l0.06,-0.117l0.07,-0.11l0.08,-0.104l0.088,-0.097l0.096,-0.089l29.304,-24.739l0.103,-0.08l0.11,-0.071l0.116,-0.061l0.121,-0.05l0.125,-0.04l0.127,-0.028l0.13,-0.018l0.131,-0.006l0.13,0.005Z" style="fill:#fff;"/><path d="M263.515,234.24l0.103,0.02l0.1,0.03l0.096,0.041l0.092,0.051l0.085,0.06l0.079,0.068l0.072,0.077l0.063,0.084l0.054,0.089l0.044,0.095l0.034,0.099l0.024,0.102l0.012,0.104l0.002,0.105l-0.009,0.104l-0.02,0.103l-0.03,0.1l-0.041,0.096l-0.051,0.092l-0.06,0.085l-0.069,0.079l-0.076,0.072l-27.995,23.502l-0.084,0.063l-0.09,0.054l-0.095,0.044l-0.099,0.034l-0.102,0.024l-0.103,0.012l-0.105,0.002l-0.104,-0.009l-0.103,-0.02l-0.1,-0.03l-0.097,-0.041l-0.091,-0.051l-0.086,-0.06l-0.079,-0.069l-0.071,-0.076l-0.063,-0.084l-0.054,-0.089l-0.045,-0.095l-0.034,-0.099l-0.023,-0.102l-0.013,-0.104l-0.002,-0.105l0.009,-0.104l0.02,-0.103l0.031,-0.1l0.041,-0.096l0.05,-0.092l0.06,-0.086l0.069,-0.079l0.077,-0.071l27.995,-23.502l0.084,-0.063l0.089,-0.054l0.095,-0.044l0.099,-0.034l0.102,-0.024l0.104,-0.013l0.105,-0.001l0.104,0.009Z" style="fill:#fff;"/><path d="M299.672,203.65l0.126,0.014l0.125,0.025l0.123,0.035l0.118,0.045l0.115,0.056l0.109,0.065l0.104,0.074l0.097,0.083l0.09,0.09l0.081,0.098l0.073,0.104l0.064,0.11l0.054,0.115l0.045,0.12l0.034,0.122l0.023,0.126l0.013,0.126l0.002,0.128l-0.009,0.127l-0.019,0.125l-0.03,0.124l-0.041,0.121l-0.05,0.117l-0.061,0.112l-0.069,0.106l-0.078,0.101l-0.087,0.093l-0.094,0.086l-28.358,23.663l-0.102,0.077l-0.107,0.069l-0.113,0.059l-0.117,0.049l-0.121,0.04l-0.124,0.028l-0.126,0.019l-0.127,0.007l-0.128,-0.003l-0.126,-0.014l-0.125,-0.025l-0.122,-0.036l-0.119,-0.045l-0.115,-0.056l-0.109,-0.065l-0.104,-0.074l-0.097,-0.082l-0.089,-0.091l-0.082,-0.097l-0.073,-0.105l-0.064,-0.11l-0.054,-0.115l-0.044,-0.119l-0.035,-0.123l-0.023,-0.125l-0.013,-0.127l-0.002,-0.127l0.009,-0.127l0.019,-0.126l0.03,-0.124l0.041,-0.121l0.05,-0.116l0.061,-0.113l0.069,-0.106l0.079,-0.101l0.086,-0.093l0.094,-0.085l28.359,-23.664l0.101,-0.077l0.107,-0.068l0.113,-0.06l0.117,-0.049l0.121,-0.039l0.124,-0.029l0.126,-0.018l0.127,-0.008l0.128,0.004Z" style="fill:#fff;"/><path d="M282.272,328.36l0.126,0.018l0.124,0.028l0.122,0.039l0.117,0.049l0.113,0.059l0.108,0.068l0.101,0.077l0.095,0.085l0.086,0.093l0.079,0.101l0.07,0.106l0.061,0.112l0.051,0.117l0.04,0.12l0.031,0.124l0.02,0.126l0.009,0.127l-0.002,0.127l-0.012,0.127l-0.024,0.125l-0.033,0.123l-0.044,0.119l-0.054,0.115l-0.064,0.111l-0.072,0.104l-0.082,0.098l-0.089,0.091l-0.097,0.083l-28.44,22.351l-0.103,0.074l-0.109,0.066l-0.115,0.055l-0.119,0.046l-0.122,0.036l-0.125,0.025l-0.126,0.015l-0.127,0.003l-0.127,-0.007l-0.127,-0.018l-0.124,-0.028l-0.121,-0.039l-0.117,-0.049l-0.113,-0.059l-0.108,-0.068l-0.101,-0.077l-0.095,-0.085l-0.087,-0.093l-0.078,-0.101l-0.07,-0.106l-0.061,-0.112l-0.051,-0.117l-0.041,-0.12l-0.03,-0.124l-0.02,-0.126l-0.009,-0.127l0.002,-0.127l0.012,-0.127l0.023,-0.125l0.034,-0.123l0.044,-0.119l0.054,-0.115l0.064,-0.111l0.072,-0.104l0.082,-0.098l0.089,-0.091l0.097,-0.083l28.44,-22.351l0.103,-0.074l0.109,-0.066l0.115,-0.055l0.118,-0.046l0.123,-0.036l0.124,-0.025l0.127,-0.015l0.127,-0.003l0.127,0.007Z" style="fill:#fff;"/><path d="M302.101,313.197l0.067,0.008l0.065,0.012l0.065,0.017l0.063,0.022l0.062,0.025l0.06,0.029l0.058,0.034l0.056,0.037l0.053,0.041l0.05,0.044l0.047,0.048l0.043,0.05l0.041,0.054l0.036,0.055l0.033,0.059l0.029,0.06l0.025,0.062l0.02,0.064l0.016,0.064l0.012,0.066l0.008,0.067l0.003,0.066l-0.002,0.067l-0.006,0.067l-0.01,0.066l-0.015,0.065l-0.019,0.064l-0.023,0.063l-0.028,0.061l-0.031,0.059l-0.036,0.056l-0.039,0.055l-0.042,0.051l-0.046,0.049l-0.049,0.045l-0.052,0.042l-11.608,8.757l-0.055,0.039l-0.057,0.034l-0.059,0.031l-0.061,0.027l-0.063,0.023l-0.065,0.018l-0.065,0.014l-0.066,0.01l-0.067,0.005l-0.066,0.001l-0.067,-0.004l-0.067,-0.008l-0.065,-0.013l-0.065,-0.017l-0.063,-0.021l-0.062,-0.025l-0.06,-0.03l-0.058,-0.033l-0.055,-0.037l-0.053,-0.041l-0.05,-0.045l-0.047,-0.047l-0.044,-0.051l-0.04,-0.053l-0.037,-0.056l-0.033,-0.058l-0.029,-0.06l-0.024,-0.062l-0.021,-0.064l-0.016,-0.065l-0.012,-0.066l-0.007,-0.066l-0.003,-0.067l0.001,-0.067l0.006,-0.066l0.01,-0.066l0.015,-0.065l0.019,-0.064l0.024,-0.063l0.027,-0.061l0.032,-0.059l0.035,-0.057l0.039,-0.054l0.042,-0.052l0.046,-0.048l0.049,-0.045l0.052,-0.042l11.608,-8.758l0.055,-0.038l0.057,-0.035l0.059,-0.031l0.062,-0.026l0.063,-0.023l0.064,-0.018l0.065,-0.014l0.066,-0.01l0.067,-0.005l0.067,-0.001l0.066,0.004Z" style="fill:#fff;"/><path d="M317.782,189.225l0.063,0.007l0.064,0.01l0.062,0.015l0.061,0.018l0.06,0.023l0.059,0.026l0.057,0.03l0.054,0.033l0.053,0.037l0.05,0.04l0.047,0.044l0.044,0.046l0.042,0.049l0.038,0.052l0.035,0.053l0.031,0.056l0.027,0.058l0.024,0.06l0.02,0.061l0.016,0.062l0.012,0.063l0.008,0.063l0.004,0.064l-0.001,0.065l-0.004,0.064l-0.009,0.063l-0.012,0.063l-0.017,0.062l-0.02,0.061l-0.024,0.059l-0.028,0.058l-0.032,0.055l-0.035,0.054l-0.039,0.051l-0.042,0.049l-0.045,0.045l-0.047,0.043l-10.542,8.893l-0.05,0.04l-0.053,0.036l-0.055,0.033l-0.057,0.029l-0.059,0.026l-0.06,0.022l-0.061,0.018l-0.063,0.014l-0.063,0.01l-0.064,0.006l-0.064,0.001l-0.064,-0.002l-0.064,-0.006l-0.063,-0.011l-0.063,-0.014l-0.061,-0.019l-0.06,-0.022l-0.059,-0.027l-0.056,-0.029l-0.055,-0.034l-0.052,-0.037l-0.05,-0.04l-0.048,-0.043l-0.044,-0.047l-0.041,-0.049l-0.038,-0.051l-0.035,-0.054l-0.031,-0.056l-0.028,-0.058l-0.024,-0.059l-0.02,-0.061l-0.016,-0.062l-0.012,-0.063l-0.007,-0.064l-0.004,-0.064l0,-0.064l0.004,-0.064l0.009,-0.064l0.012,-0.062l0.017,-0.062l0.02,-0.061l0.025,-0.059l0.028,-0.058l0.032,-0.056l0.035,-0.053l0.038,-0.052l0.042,-0.048l0.045,-0.046l0.048,-0.043l10.541,-8.892l0.051,-0.04l0.052,-0.037l0.055,-0.033l0.057,-0.029l0.059,-0.026l0.06,-0.021l0.062,-0.018l0.062,-0.014l0.064,-0.01l0.063,-0.006l0.065,-0.002l0.064,0.002Z" style="fill:#fff;"/><path d="M241.985,201.081l0.101,0.011l0.099,0.021l0.097,0.031l0.092,0.04l0.089,0.05l0.083,0.058l0.076,0.067l0.069,0.073l22.211,26.155l0.061,0.08l0.053,0.086l0.044,0.092l0.035,0.095l0.025,0.098l0.015,0.1l0.004,0.101l-0.005,0.102l-0.016,0.1l-0.026,0.098l-0.036,0.094l-0.045,0.091l-0.054,0.086l-0.062,0.079l-0.071,0.074l-0.077,0.065l-0.083,0.058l-0.089,0.048l-0.093,0.04l-0.097,0.029l-0.099,0.02l-0.101,0.01l-0.102,-0.001l-0.1,-0.01l-0.099,-0.021l-0.097,-0.031l-0.093,-0.041l-0.088,-0.049l-0.083,-0.058l-0.076,-0.067l-0.07,-0.074l-22.21,-26.154l-0.062,-0.08l-0.053,-0.087l-0.044,-0.091l-0.035,-0.095l-0.024,-0.098l-0.015,-0.1l-0.005,-0.102l0.006,-0.101l0.016,-0.1l0.026,-0.098l0.035,-0.094l0.045,-0.091l0.055,-0.086l0.062,-0.08l0.07,-0.073l0.077,-0.065l0.084,-0.058l0.089,-0.048l0.093,-0.04l0.097,-0.03l0.099,-0.019l0.101,-0.01l0.101,0Z" style="fill:#fff;"/><path d="M231.831,189.156l0.041,0.002l0.041,0.004l0.041,0.005l0.041,0.008l0.04,0.009l0.04,0.01l0.04,0.012l0.039,0.014l0.038,0.016l0.038,0.017l0.036,0.018l0.037,0.02l0.035,0.022l0.034,0.023l0.034,0.024l0.032,0.026l0.031,0.027l0.03,0.028l0.029,0.029l0.028,0.031l3.703,4.279l0.026,0.032l0.025,0.033l0.024,0.034l0.022,0.035l0.021,0.035l0.019,0.037l0.018,0.037l0.016,0.038l0.015,0.039l0.013,0.039l0.011,0.04l0.01,0.04l0.008,0.041l0.006,0.04l0.005,0.041l0.003,0.042l0.001,0.041l0,0.041l-0.002,0.042l-0.004,0.041l-0.005,0.041l-0.008,0.04l-0.009,0.041l-0.01,0.04l-0.012,0.039l-0.014,0.039l-0.016,0.039l-0.016,0.037l-0.019,0.037l-0.02,0.036l-0.022,0.036l-0.023,0.034l-0.024,0.033l-0.026,0.033l-0.027,0.031l-0.028,0.03l-0.029,0.029l-0.031,0.028l-0.032,0.026l-0.033,0.025l-0.034,0.024l-0.035,0.022l-0.035,0.021l-0.037,0.019l-0.037,0.018l-0.038,0.016l-0.039,0.015l-0.039,0.013l-0.04,0.011l-0.04,0.01l-0.04,0.008l-0.041,0.006l-0.041,0.005l-0.042,0.003l-0.041,0.001l-0.041,0l-0.042,-0.002l-0.041,-0.004l-0.041,-0.005l-0.04,-0.008l-0.041,-0.009l-0.04,-0.01l-0.039,-0.012l-0.039,-0.014l-0.038,-0.015l-0.038,-0.017l-0.037,-0.019l-0.036,-0.02l-0.036,-0.022l-0.034,-0.023l-0.033,-0.024l-0.033,-0.026l-0.031,-0.027l-0.03,-0.028l-0.029,-0.029l-0.028,-0.031l-3.702,-4.279l-0.027,-0.032l-0.025,-0.033l-0.023,-0.034l-0.023,-0.035l-0.021,-0.035l-0.019,-0.037l-0.018,-0.037l-0.016,-0.038l-0.014,-0.039l-0.013,-0.039l-0.012,-0.04l-0.01,-0.04l-0.008,-0.04l-0.006,-0.041l-0.005,-0.041l-0.003,-0.042l-0.001,-0.041l0,-0.041l0.002,-0.042l0.004,-0.041l0.006,-0.041l0.007,-0.04l0.009,-0.041l0.01,-0.04l0.013,-0.039l0.013,-0.039l0.016,-0.038l0.017,-0.038l0.018,-0.037l0.02,-0.036l0.022,-0.036l0.023,-0.034l0.024,-0.033l0.026,-0.033l0.027,-0.031l0.028,-0.03l0.03,-0.029l0.031,-0.028l0.031,-0.026l0.033,-0.025l0.034,-0.024l0.035,-0.022l0.036,-0.021l0.036,-0.019l0.038,-0.018l0.038,-0.016l0.038,-0.015l0.039,-0.013l0.04,-0.011l0.04,-0.01l0.041,-0.008l0.041,-0.006l0.041,-0.005l0.041,-0.003l0.041,-0.001l0.042,0Z" style="fill:#fff;"/><path d="M270.7,234.74l0.097,0.013l0.096,0.022l0.093,0.032l0.089,0.041l0.085,0.049l0.079,0.058l0.074,0.065l0.067,0.072l20.694,24.577l0.059,0.078l0.052,0.084l0.043,0.088l0.034,0.092l0.025,0.095l0.016,0.097l0.006,0.098l-0.004,0.098l-0.013,0.097l-0.023,0.095l-0.032,0.093l-0.041,0.089l-0.049,0.085l-0.057,0.08l-0.065,0.073l-0.072,0.067l-0.078,0.06l-0.084,0.051l-0.088,0.043l-0.092,0.034l-0.095,0.025l-0.097,0.016l-0.098,0.006l-0.098,-0.003l-0.097,-0.014l-0.095,-0.022l-0.093,-0.032l-0.09,-0.041l-0.084,-0.049l-0.08,-0.058l-0.073,-0.065l-0.067,-0.072l-20.694,-24.577l-0.06,-0.078l-0.051,-0.084l-0.043,-0.088l-0.034,-0.092l-0.026,-0.095l-0.015,-0.097l-0.006,-0.098l0.003,-0.098l0.014,-0.097l0.022,-0.095l0.032,-0.093l0.041,-0.089l0.049,-0.085l0.058,-0.08l0.065,-0.073l0.072,-0.067l0.078,-0.06l0.083,-0.051l0.088,-0.043l0.092,-0.034l0.095,-0.025l0.097,-0.016l0.098,-0.006l0.098,0.004Z" style="fill:#fff;"/><path d="M262.829,297.653l0.097,0.013l0.096,0.022l0.093,0.031l0.089,0.041l0.085,0.049l0.08,0.057l0.074,0.065l0.067,0.071l20.653,24.3l0.06,0.078l0.051,0.083l0.044,0.088l0.035,0.092l0.025,0.095l0.016,0.097l0.007,0.098l-0.003,0.098l-0.013,0.097l-0.022,0.096l-0.032,0.092l-0.04,0.09l-0.049,0.085l-0.057,0.08l-0.065,0.074l-0.072,0.067l-0.077,0.06l-0.084,0.051l-0.088,0.044l-0.091,0.035l-0.095,0.025l-0.097,0.016l-0.098,0.007l-0.098,-0.004l-0.097,-0.012l-0.096,-0.022l-0.093,-0.032l-0.089,-0.04l-0.085,-0.049l-0.08,-0.057l-0.074,-0.065l-0.067,-0.072l-20.653,-24.3l-0.06,-0.077l-0.052,-0.084l-0.043,-0.088l-0.035,-0.091l-0.025,-0.095l-0.017,-0.097l-0.006,-0.098l0.003,-0.098l0.013,-0.097l0.022,-0.096l0.031,-0.093l0.041,-0.089l0.049,-0.085l0.057,-0.08l0.065,-0.074l0.071,-0.067l0.078,-0.06l0.083,-0.052l0.088,-0.043l0.092,-0.035l0.095,-0.025l0.097,-0.017l0.098,-0.006l0.098,0.003Z" style="fill:#fff;"/><path d="M289.847,328.855l0.062,0.007l0.06,0.01l0.06,0.014l0.059,0.018l0.058,0.021l0.057,0.025l0.054,0.028l0.053,0.031l0.051,0.035l0.049,0.038l0.046,0.04l0.044,0.044l0.041,0.046l8.126,9.744l0.038,0.048l0.035,0.051l0.032,0.053l0.028,0.054l0.025,0.057l0.022,0.057l0.018,0.059l0.014,0.06l0.011,0.061l0.006,0.061l0.003,0.062l0,0.061l-0.005,0.062l-0.008,0.061l-0.013,0.06l-0.015,0.06l-0.02,0.058l-0.023,0.057l-0.026,0.056l-0.03,0.054l-0.033,0.052l-0.037,0.049l-0.039,0.048l-0.042,0.045l-0.045,0.042l-0.047,0.04l-0.05,0.036l-0.051,0.033l-0.054,0.03l-0.056,0.027l-0.057,0.023l-0.058,0.02l-0.059,0.016l-0.061,0.013l-0.061,0.008l-0.061,0.005l-0.062,0.001l-0.061,-0.003l-0.062,-0.006l-0.06,-0.01l-0.06,-0.014l-0.059,-0.018l-0.058,-0.021l-0.056,-0.025l-0.055,-0.028l-0.053,-0.032l-0.051,-0.034l-0.049,-0.038l-0.046,-0.041l-0.044,-0.043l-0.04,-0.046l-8.127,-9.744l-0.038,-0.048l-0.035,-0.051l-0.032,-0.053l-0.028,-0.055l-0.025,-0.056l-0.022,-0.058l-0.018,-0.059l-0.014,-0.059l-0.01,-0.061l-0.007,-0.061l-0.003,-0.062l0.001,-0.062l0.004,-0.061l0.009,-0.061l0.012,-0.06l0.016,-0.06l0.019,-0.058l0.023,-0.057l0.027,-0.056l0.029,-0.054l0.033,-0.052l0.037,-0.05l0.039,-0.047l0.042,-0.045l0.045,-0.042l0.047,-0.04l0.05,-0.036l0.052,-0.034l0.053,-0.03l0.056,-0.026l0.057,-0.024l0.058,-0.019l0.06,-0.016l0.06,-0.013l0.061,-0.008l0.061,-0.005l0.062,-0.001l0.061,0.002Z" style="fill:#fff;"/><path d="M234.997,264.364l0.097,0.014l0.096,0.022l0.092,0.033l0.09,0.041l0.084,0.049l0.08,0.058l0.073,0.065l0.066,0.073l20.689,24.739l0.06,0.078l0.051,0.084l0.043,0.088l0.034,0.092l0.024,0.095l0.016,0.097l0.005,0.098l-0.004,0.098l-0.013,0.097l-0.023,0.096l-0.032,0.093l-0.041,0.089l-0.05,0.084l-0.058,0.08l-0.065,0.073l-0.072,0.067l-0.078,0.059l-0.084,0.051l-0.088,0.043l-0.093,0.034l-0.095,0.024l-0.096,0.016l-0.098,0.005l-0.099,-0.004l-0.097,-0.013l-0.095,-0.023l-0.093,-0.032l-0.089,-0.041l-0.085,-0.05l-0.079,-0.058l-0.073,-0.065l-0.067,-0.072l-20.689,-24.739l-0.059,-0.079l-0.051,-0.083l-0.043,-0.089l-0.034,-0.092l-0.025,-0.095l-0.015,-0.097l-0.006,-0.098l0.004,-0.098l0.014,-0.097l0.023,-0.095l0.032,-0.093l0.041,-0.089l0.05,-0.085l0.058,-0.079l0.065,-0.073l0.072,-0.067l0.078,-0.059l0.084,-0.051l0.088,-0.043l0.092,-0.034l0.095,-0.025l0.097,-0.015l0.098,-0.006l0.098,0.004Z" style="fill:#fff;"/><path d="M206.746,230.581l0.097,0.014l0.095,0.023l0.093,0.032l0.089,0.041l0.085,0.05l0.079,0.057l0.073,0.066l0.067,0.072l21.192,25.342l0.06,0.078l0.051,0.084l0.043,0.088l0.034,0.092l0.024,0.095l0.016,0.097l0.005,0.098l-0.004,0.098l-0.013,0.097l-0.023,0.096l-0.032,0.092l-0.041,0.089l-0.05,0.085l-0.058,0.079l-0.065,0.074l-0.072,0.066l-0.078,0.059l-0.084,0.052l-0.088,0.042l-0.092,0.034l-0.095,0.025l-0.097,0.015l-0.098,0.006l-0.098,-0.004l-0.098,-0.013l-0.095,-0.023l-0.093,-0.033l-0.089,-0.041l-0.084,-0.049l-0.08,-0.058l-0.073,-0.065l-0.067,-0.072l-21.192,-25.342l-0.06,-0.078l-0.051,-0.084l-0.043,-0.088l-0.034,-0.093l-0.024,-0.095l-0.016,-0.096l-0.005,-0.098l0.004,-0.098l0.013,-0.098l0.023,-0.095l0.032,-0.093l0.041,-0.089l0.05,-0.085l0.058,-0.079l0.065,-0.073l0.072,-0.067l0.078,-0.059l0.084,-0.051l0.088,-0.043l0.093,-0.034l0.095,-0.025l0.096,-0.015l0.098,-0.006l0.099,0.004Z" style="fill:#fff;"/><path d="M172.306,189.561l0.111,0.016l0.109,0.028l0.104,0.04l0.1,0.052l0.093,0.062l0.085,0.073l0.077,0.082l27.255,32.431l0.067,0.09l0.057,0.097l0.045,0.102l0.034,0.107l0.022,0.11l0.009,0.112l-0.003,0.112l-0.016,0.111l-0.029,0.109l-0.04,0.104l-0.052,0.1l-0.062,0.093l-0.073,0.085l-0.081,0.077l-0.09,0.068l-0.097,0.056l-0.102,0.046l-0.107,0.034l-0.11,0.021l-0.112,0.009l-0.112,-0.003l-0.111,-0.016l-0.109,-0.028l-0.104,-0.04l-0.1,-0.052l-0.093,-0.063l-0.085,-0.072l-0.077,-0.082l-27.255,-32.432l-0.067,-0.089l-0.057,-0.097l-0.046,-0.103l-0.033,-0.106l-0.022,-0.11l-0.009,-0.112l0.003,-0.112l0.016,-0.111l0.029,-0.109l0.04,-0.105l0.051,-0.099l0.063,-0.093l0.073,-0.086l0.081,-0.076l0.09,-0.068l0.097,-0.056l0.102,-0.046l0.107,-0.034l0.11,-0.021l0.112,-0.01l0.112,0.004Z" style="fill:#fff;"/><path d="M198.713,230.608l0.068,0.008l0.067,0.012l0.066,0.017l0.065,0.022l0.063,0.025l0.062,0.031l0.059,0.034l0.056,0.038l0.054,0.042l0.051,0.045l0.048,0.049l0.044,0.052l0.041,0.055l0.037,0.058l0.032,0.06l0.029,0.062l0.024,0.063l0.02,0.066l0.015,0.066l0.011,0.068l0.006,0.068l0.002,0.068l-0.003,0.068l-0.008,0.068l-0.013,0.067l-0.017,0.066l-0.021,0.065l-0.026,0.063l-0.03,0.062l-0.034,0.059l-0.038,0.056l-0.042,0.054l-0.046,0.051l-0.049,0.048l-0.052,0.044l-12.104,9.603l-0.055,0.04l-0.057,0.037l-0.06,0.033l-0.062,0.028l-0.064,0.025l-0.066,0.019l-0.066,0.016l-0.067,0.011l-0.069,0.006l-0.068,0.001l-0.068,-0.003l-0.068,-0.008l-0.067,-0.012l-0.066,-0.017l-0.065,-0.022l-0.063,-0.025l-0.061,-0.031l-0.06,-0.034l-0.056,-0.038l-0.054,-0.042l-0.051,-0.045l-0.048,-0.049l-0.044,-0.052l-0.04,-0.055l-0.037,-0.058l-0.033,-0.06l-0.029,-0.062l-0.024,-0.063l-0.02,-0.066l-0.015,-0.066l-0.011,-0.068l-0.006,-0.068l-0.001,-0.068l0.003,-0.068l0.008,-0.068l0.012,-0.067l0.017,-0.066l0.021,-0.065l0.026,-0.063l0.03,-0.062l0.035,-0.059l0.038,-0.056l0.042,-0.054l0.045,-0.051l0.049,-0.048l0.052,-0.044l12.104,-9.603l0.055,-0.04l0.058,-0.037l0.06,-0.033l0.062,-0.028l0.064,-0.025l0.065,-0.019l0.066,-0.016l0.068,-0.011l0.068,-0.006l0.068,-0.001l0.068,0.003Z" style="fill:#fff;"/><path d="M235.425,199.811l0.126,0.015l0.125,0.026l0.122,0.036l0.119,0.046l0.114,0.056l0.109,0.065l0.103,0.075l0.097,0.083l0.089,0.091l0.081,0.098l0.072,0.105l0.064,0.11l0.054,0.116l0.043,0.119l0.034,0.123l0.023,0.125l0.012,0.127l0.001,0.127l-0.009,0.127l-0.02,0.126l-0.031,0.124l-0.041,0.12l-0.051,0.117l-0.061,0.112l-0.07,0.106l-0.079,0.1l-0.087,0.093l-0.095,0.085l-27.874,23.023l-0.102,0.077l-0.107,0.068l-0.113,0.058l-0.118,0.049l-0.121,0.039l-0.125,0.028l-0.126,0.018l-0.127,0.007l-0.127,-0.004l-0.126,-0.015l-0.125,-0.026l-0.122,-0.036l-0.119,-0.046l-0.114,-0.056l-0.11,-0.065l-0.103,-0.075l-0.096,-0.083l-0.089,-0.091l-0.081,-0.098l-0.073,-0.105l-0.063,-0.11l-0.054,-0.116l-0.044,-0.119l-0.033,-0.123l-0.023,-0.125l-0.012,-0.127l-0.002,-0.127l0.01,-0.127l0.02,-0.126l0.031,-0.124l0.041,-0.12l0.051,-0.117l0.061,-0.112l0.07,-0.106l0.079,-0.1l0.087,-0.093l0.094,-0.085l27.875,-23.023l0.101,-0.077l0.108,-0.068l0.113,-0.059l0.118,-0.048l0.121,-0.039l0.124,-0.028l0.126,-0.018l0.127,-0.007l0.128,0.004Z" style="fill:#fff;"/><path d="M248.901,189.093l0.051,0.005l0.051,0.008l0.051,0.011l0.049,0.013l0.049,0.016l0.049,0.018l0.047,0.02l0.046,0.023l0.045,0.026l0.043,0.027l0.042,0.03l0.04,0.032l0.039,0.034l0.037,0.036l0.035,0.038l0.033,0.039l0.031,0.042l0.029,0.042l0.026,0.044l0.024,0.046l0.022,0.047l0.02,0.047l0.017,0.049l0.014,0.049l0.012,0.05l0.009,0.051l0.007,0.051l0.004,0.051l0.001,0.052l-0.001,0.051l-0.004,0.052l-0.007,0.051l-0.009,0.051l-0.012,0.05l-0.014,0.049l-0.017,0.049l-0.019,0.047l-0.022,0.047l-0.024,0.046l-0.027,0.044l-0.029,0.042l-0.031,0.042l-0.033,0.039l-0.035,0.038l-0.036,0.036l-0.039,0.034l-6.649,5.55l-0.041,0.032l-0.042,0.03l-0.043,0.028l-0.045,0.025l-0.046,0.023l-0.047,0.021l-0.048,0.018l-0.049,0.016l-0.05,0.013l-0.051,0.01l-0.051,0.008l-0.051,0.006l-0.051,0.002l-0.052,0l-0.051,-0.002l-0.051,-0.006l-0.051,-0.008l-0.051,-0.01l-0.049,-0.013l-0.049,-0.016l-0.049,-0.018l-0.047,-0.021l-0.046,-0.023l-0.045,-0.025l-0.043,-0.028l-0.042,-0.029l-0.041,-0.032l-0.038,-0.034l-0.037,-0.036l-0.035,-0.038l-0.033,-0.04l-0.031,-0.041l-0.029,-0.042l-0.026,-0.045l-0.025,-0.045l-0.021,-0.047l-0.02,-0.047l-0.017,-0.049l-0.014,-0.049l-0.012,-0.051l-0.009,-0.05l-0.007,-0.051l-0.004,-0.052l-0.001,-0.051l0.001,-0.052l0.004,-0.051l0.007,-0.051l0.009,-0.051l0.012,-0.05l0.014,-0.049l0.017,-0.049l0.019,-0.048l0.022,-0.046l0.024,-0.046l0.027,-0.044l0.029,-0.043l0.03,-0.041l0.033,-0.039l0.035,-0.038l0.037,-0.036l0.039,-0.034l6.649,-5.55l0.041,-0.032l0.042,-0.03l0.043,-0.028l0.045,-0.025l0.046,-0.023l0.047,-0.021l0.048,-0.018l0.049,-0.016l0.05,-0.013l0.051,-0.01l0.05,-0.008l0.052,-0.006l0.051,-0.002l0.052,0l0.051,0.002Z" style="fill:#fff;"/><path d="M298.516,267.592l0.057,0.005l0.057,0.009l0.056,0.012l0.055,0.015l0.054,0.018l0.053,0.021l0.051,0.025l0.051,0.027l0.048,0.03l0.047,0.033l0.045,0.035l0.043,0.038l0.04,0.04l0.038,0.043l6.961,8.211l0.036,0.044l0.033,0.047l0.03,0.048l0.028,0.05l0.024,0.052l0.022,0.053l0.019,0.054l0.015,0.055l0.012,0.055l0.01,0.057l0.006,0.057l0.002,0.057l0,0.057l-0.004,0.057l-0.007,0.056l-0.011,0.057l-0.013,0.055l-0.017,0.055l-0.02,0.053l-0.023,0.053l-0.025,0.051l-0.029,0.049l-0.031,0.048l-0.034,0.046l-0.037,0.043l-0.039,0.042l-0.042,0.039l-0.043,0.037l-0.046,0.035l-0.047,0.031l-0.049,0.029l-0.051,0.027l-0.052,0.023l-0.054,0.02l-0.054,0.017l-0.056,0.014l-0.056,0.011l-0.056,0.007l-0.057,0.004l-0.058,0.001l-0.057,-0.002l-0.056,-0.005l-0.057,-0.009l-0.056,-0.012l-0.055,-0.015l-0.054,-0.018l-0.053,-0.022l-0.052,-0.024l-0.05,-0.027l-0.048,-0.03l-0.047,-0.033l-0.045,-0.035l-0.043,-0.038l-0.04,-0.04l-0.038,-0.043l-6.961,-8.211l-0.036,-0.045l-0.033,-0.046l-0.03,-0.049l-0.028,-0.05l-0.025,-0.051l-0.021,-0.053l-0.019,-0.054l-0.015,-0.055l-0.013,-0.056l-0.009,-0.056l-0.006,-0.057l-0.002,-0.057l0,-0.057l0.004,-0.057l0.007,-0.057l0.011,-0.056l0.013,-0.055l0.017,-0.055l0.02,-0.054l0.022,-0.052l0.026,-0.051l0.029,-0.049l0.031,-0.048l0.034,-0.046l0.037,-0.044l0.039,-0.041l0.041,-0.04l0.044,-0.037l0.046,-0.034l0.047,-0.032l0.049,-0.029l0.051,-0.026l0.052,-0.023l0.054,-0.02l0.054,-0.017l0.056,-0.014l0.056,-0.011l0.056,-0.007l0.057,-0.005l0.057,-0.001l0.057,0.003Z" style="fill:#fff;"/><path d="M197.965,292.708l0.097,0.012l0.096,0.02l0.094,0.03l0.09,0.04l0.085,0.047l0.081,0.056l0.075,0.064l0.068,0.07l21.929,25.027l0.061,0.076l0.053,0.083l0.045,0.087l0.036,0.092l0.027,0.094l0.017,0.096l0.008,0.098l-0.001,0.098l-0.012,0.098l-0.02,0.096l-0.031,0.093l-0.039,0.09l-0.047,0.086l-0.056,0.081l-0.064,0.074l-0.07,0.069l-0.077,0.061l-0.083,0.053l-0.087,0.045l-0.091,0.036l-0.095,0.027l-0.096,0.017l-0.098,0.008l-0.098,-0.002l-0.098,-0.011l-0.096,-0.021l-0.093,-0.03l-0.09,-0.039l-0.086,-0.047l-0.08,-0.056l-0.075,-0.064l-0.068,-0.07l-21.929,-25.027l-0.061,-0.077l-0.053,-0.082l-0.045,-0.087l-0.036,-0.092l-0.027,-0.094l-0.018,-0.097l-0.008,-0.098l0.002,-0.098l0.011,-0.097l0.021,-0.096l0.03,-0.093l0.039,-0.09l0.048,-0.086l0.056,-0.081l0.063,-0.075l0.071,-0.068l0.077,-0.061l0.082,-0.053l0.088,-0.045l0.091,-0.036l0.094,-0.027l0.097,-0.017l0.098,-0.008l0.098,0.001Z" style="fill:#fff;"/><path d="M226.686,325.994l0.096,0.015l0.096,0.025l0.092,0.033l0.088,0.043l0.084,0.051l0.079,0.059l0.072,0.066l0.065,0.073l20.447,25.215l0.058,0.079l0.05,0.084l0.041,0.089l0.033,0.093l0.023,0.095l0.014,0.097l0.004,0.098l-0.005,0.098l-0.015,0.097l-0.025,0.095l-0.033,0.093l-0.043,0.088l-0.051,0.084l-0.059,0.078l-0.066,0.073l-0.073,0.065l-0.079,0.058l-0.085,0.05l-0.089,0.042l-0.092,0.032l-0.096,0.023l-0.097,0.014l-0.098,0.004l-0.098,-0.005l-0.097,-0.015l-0.095,-0.024l-0.092,-0.034l-0.089,-0.042l-0.083,-0.051l-0.079,-0.059l-0.072,-0.067l-0.066,-0.073l-20.446,-25.214l-0.058,-0.079l-0.05,-0.085l-0.041,-0.089l-0.033,-0.092l-0.023,-0.096l-0.014,-0.097l-0.004,-0.098l0.005,-0.098l0.015,-0.097l0.024,-0.095l0.034,-0.092l0.043,-0.089l0.05,-0.083l0.059,-0.079l0.067,-0.072l0.073,-0.066l0.079,-0.058l0.084,-0.05l0.089,-0.041l0.093,-0.033l0.095,-0.023l0.097,-0.014l0.099,-0.004l0.098,0.005Z" style="fill:#fff;"/><path d="M219.304,324.868l0.076,0.011l0.075,0.016l0.073,0.022l0.072,0.027l0.069,0.033l0.067,0.038l0.063,0.043l0.06,0.048l0.056,0.052l0.052,0.056l0.047,0.061l0.043,0.063l0.038,0.067l0.032,0.069l0.027,0.072l0.022,0.073l0.016,0.075l0.01,0.076l0.004,0.077l-0.002,0.076l-0.007,0.077l-0.014,0.075l-0.019,0.074l-0.025,0.073l-0.03,0.07l-0.035,0.068l-0.041,0.065l-0.045,0.062l-0.05,0.058l-0.055,0.054l-0.058,0.049l-14.833,11.697l-0.062,0.045l-0.065,0.04l-0.068,0.035l-0.071,0.03l-0.073,0.024l-0.074,0.019l-0.075,0.013l-0.077,0.007l-0.076,0.001l-0.077,-0.004l-0.076,-0.011l-0.074,-0.016l-0.074,-0.022l-0.071,-0.028l-0.07,-0.032l-0.066,-0.038l-0.063,-0.044l-0.06,-0.047l-0.056,-0.052l-0.052,-0.057l-0.048,-0.06l-0.042,-0.064l-0.038,-0.066l-0.033,-0.07l-0.027,-0.071l-0.021,-0.074l-0.016,-0.075l-0.01,-0.076l-0.004,-0.076l0.002,-0.077l0.007,-0.076l0.013,-0.076l0.02,-0.074l0.024,-0.072l0.03,-0.071l0.036,-0.068l0.04,-0.064l0.046,-0.062l0.05,-0.058l0.054,-0.054l0.059,-0.05l14.833,-11.696l0.062,-0.045l0.065,-0.04l0.068,-0.035l0.07,-0.03l0.073,-0.025l0.074,-0.018l0.076,-0.013l0.076,-0.007l0.077,-0.002l0.076,0.005Z" style="fill:#fff;"/><path d="M254.94,295.757l0.102,0.021l0.1,0.032l0.096,0.042l0.091,0.052l0.085,0.061l0.078,0.07l0.07,0.077l0.062,0.085l0.053,0.09l0.043,0.095l0.033,0.1l0.022,0.102l0.012,0.104l0,0.105l-0.01,0.104l-0.022,0.102l-0.031,0.1l-0.043,0.096l-0.051,0.091l-0.061,0.085l-0.07,0.078l-0.078,0.07l-28.075,22.975l-0.084,0.062l-0.091,0.052l-0.095,0.043l-0.1,0.033l-0.102,0.023l-0.104,0.011l-0.105,0.001l-0.104,-0.011l-0.102,-0.021l-0.1,-0.032l-0.096,-0.042l-0.091,-0.052l-0.085,-0.061l-0.078,-0.07l-0.07,-0.077l-0.062,-0.084l-0.053,-0.091l-0.043,-0.095l-0.033,-0.099l-0.022,-0.103l-0.012,-0.104l0,-0.104l0.01,-0.105l0.021,-0.102l0.032,-0.1l0.042,-0.096l0.052,-0.091l0.061,-0.085l0.07,-0.078l0.077,-0.07l28.076,-22.974l0.084,-0.062l0.091,-0.053l0.095,-0.043l0.099,-0.033l0.103,-0.022l0.104,-0.012l0.104,0l0.105,0.01Z" style="fill:#fff;"/><path d="M291.376,265.6l0.129,0.019l0.128,0.03l0.124,0.041l0.12,0.051l0.115,0.062l0.11,0.072l0.102,0.081l0.096,0.09l0.087,0.098l0.078,0.104l0.069,0.112l0.059,0.117l0.048,0.121l0.038,0.125l0.027,0.129l0.015,0.13l0.004,0.13l-0.008,0.131l-0.018,0.129l-0.03,0.128l-0.041,0.124l-0.052,0.12l-0.062,0.116l-0.072,0.109l-0.081,0.103l-0.09,0.095l-0.097,0.087l-28.741,23.469l-0.105,0.078l-0.111,0.069l-0.117,0.059l-0.121,0.049l-0.126,0.037l-0.128,0.027l-0.13,0.015l-0.131,0.004l-0.13,-0.007l-0.13,-0.019l-0.127,-0.03l-0.124,-0.041l-0.121,-0.052l-0.115,-0.062l-0.109,-0.072l-0.103,-0.081l-0.095,-0.089l-0.087,-0.098l-0.079,-0.105l-0.069,-0.111l-0.058,-0.117l-0.049,-0.122l-0.038,-0.125l-0.026,-0.128l-0.016,-0.13l-0.004,-0.131l0.008,-0.13l0.019,-0.13l0.03,-0.127l0.041,-0.125l0.051,-0.12l0.062,-0.115l0.072,-0.109l0.081,-0.103l0.09,-0.095l0.098,-0.088l28.74,-23.469l0.105,-0.078l0.111,-0.069l0.117,-0.059l0.122,-0.048l0.125,-0.038l0.128,-0.026l0.13,-0.016l0.131,-0.004l0.131,0.008Z" style="fill:#fff;"/><path d="M311.058,250.283l0.071,0.006l0.071,0.011l0.07,0.015l0.068,0.021l0.067,0.025l0.064,0.03l0.063,0.035l0.06,0.039l0.057,0.043l0.053,0.047l0.05,0.051l0.047,0.054l0.042,0.057l0.038,0.06l0.034,0.063l0.03,0.065l0.024,0.067l0.02,0.069l0.015,0.07l0.009,0.071l0.005,0.071l0,0.071l-0.006,0.071l-0.011,0.071l-0.015,0.07l-0.021,0.068l-0.025,0.067l-0.03,0.065l-0.035,0.062l-0.039,0.06l-0.043,0.057l-0.047,0.053l-0.051,0.051l-0.054,0.046l-13.269,10.562l-0.057,0.042l-0.06,0.038l-0.063,0.034l-0.065,0.029l-0.067,0.025l-0.069,0.02l-0.07,0.014l-0.07,0.01l-0.072,0.005l-0.071,-0.001l-0.071,-0.005l-0.071,-0.011l-0.069,-0.015l-0.069,-0.021l-0.067,-0.025l-0.064,-0.03l-0.063,-0.035l-0.06,-0.039l-0.056,-0.043l-0.054,-0.047l-0.05,-0.051l-0.047,-0.054l-0.042,-0.058l-0.038,-0.06l-0.034,-0.063l-0.029,-0.065l-0.025,-0.067l-0.02,-0.068l-0.014,-0.07l-0.01,-0.071l-0.005,-0.071l0.001,-0.072l0.005,-0.071l0.011,-0.07l0.015,-0.07l0.021,-0.068l0.025,-0.067l0.03,-0.065l0.035,-0.062l0.039,-0.06l0.043,-0.057l0.047,-0.054l0.051,-0.05l0.054,-0.046l13.269,-10.562l0.057,-0.042l0.06,-0.038l0.063,-0.034l0.065,-0.03l0.067,-0.024l0.069,-0.02l0.07,-0.015l0.07,-0.009l0.072,-0.005l0.071,0Z" style="fill:#fff;"/></g><g><g><path d="M86.1,59.574l0,53.145c10.95,-4.186 22.152,-7.97 33.57,-11.296l0,21.749c-46.622,7.119 -84.972,17.906 -109.968,30.965l45.291,-56.456l-49.598,-14.579c24.079,-8.976 51.178,-16.895 80.705,-23.528Z" style="fill:none;stroke:#fff;stroke-width:4px;"/><path d="M86.249,112.838c11.045,-4.154 21.899,-8.114 33.417,-11.413l0,21.577c-0.378,0.056 -0.756,0.113 -1.133,0.171l-32.284,-10.335Z" style="fill:none;stroke:#fff;stroke-width:4px;"/></g><g><path d="M415.965,59.574l0,53.145c-10.949,-4.186 -22.151,-7.97 -33.57,-11.296l0,21.749c46.623,7.119 84.973,17.906 109.969,30.965l-45.292,-56.456l49.598,-14.579c-24.079,-8.976 -51.177,-16.895 -80.705,-23.528Z" style="fill:none;stroke:#fff;stroke-width:4px;"/><path d="M415.817,112.838c-11.045,-4.154 -21.9,-8.114 -33.417,-11.413l0,21.577c0.378,0.056 0.755,0.113 1.133,0.171l32.284,-10.335Z" style="fill:none;stroke:#fff;stroke-width:4px;"/></g><path d="M85.805,37.124c49.926,-18.856 105.06,-29.319 163.002,-29.319c59.588,0 116.205,11.066 167.244,30.946l0,73.8c-50.424,-19.175 -106.157,-29.807 -164.744,-29.807c-58.884,0 -114.886,10.74 -165.502,30.094l0,-75.714Z" style="fill:none;stroke:#fff;stroke-width:5px;"/><g transform="matrix(1.4876,0,0,1.8029,-858.546,-1025.65)"><g transform="matrix(0.672223,0,0,0.554661,190.36,269.166)"><g transform="matrix(0.967407,-0.253227,0.253227,0.967407,-135.92,192.91)"><text x="681.431px" y="624.459px" style="font-family:'Roboto-Bold', 'Roboto';font-weight:700;font-size:46px;fill:none;">E</text></g><g transform="matrix(0.979508,-0.201407,0.201407,0.979508,-109.956,154.945)"><text x="706.456px" y="617.821px" style="font-family:'Roboto-Bold', 'Roboto';font-weight:700;font-size:46px;fill:none;">U</text></g><g transform="matrix(0.989931,-0.141548,0.141548,0.989931,-79.1752,110.351)"><text x="736.09px" y="611.711px" style="font-family:'Roboto-Bold', 'Roboto';font-weight:700;font-size:46px;fill:none;">R</text></g><g transform="matrix(0.996522,-0.0833253,0.0833253,0.996522,-47.9581,65.8718)"><text x="765.184px" y="607.488px" style="font-family:'Roboto-Bold', 'Roboto';font-weight:700;font-size:46px;fill:none;">O</text></g><g transform="matrix(0.999799,-0.0200474,0.0200474,0.999799,-11.9652,16.0951)"><text x="796.789px" y="604.834px" style="font-family:'Roboto-Bold', 'Roboto';font-weight:700;font-size:46px;fill:none;">K</text></g><g transform="matrix(0.999379,0.0352402,-0.0352402,0.999379,21.8034,-28.7091)"><text x="825.318px" y="604.162px" style="font-family:'Roboto-Bold', 'Roboto';font-weight:700;font-size:46px;fill:none;">O</text></g><g transform="matrix(0.995232,0.0975357,-0.0975357,0.995232,63.1241,-80.7115)"><text x="857.096px" y="605.291px" style="font-family:'Roboto-Bold', 'Roboto';font-weight:700;font-size:46px;fill:none;">R</text></g><g transform="matrix(0.987726,0.156197,-0.156197,0.987726,105.858,-130.971)"><text x="886.283px" y="608.076px" style="font-family:'Roboto-Bold', 'Roboto';font-weight:700;font-size:46px;fill:none;">N</text></g><g transform="matrix(0.976698,0.214619,-0.214619,0.976698,153.009,-182.808)"><text x="918.36px" y="613.221px" style="font-family:'Roboto-Bold', 'Roboto';font-weight:700;font-size:46px;fill:none;">E</text></g><g transform="matrix(0.964163,0.265311,-0.265311,0.964163,198.019,-228.308)"><text x="944.119px" y="618.836px" style="font-family:'Roboto-Bold', 'Roboto';font-weight:700;font-size:46px;fill:none;">T</text></g></g><g transform="matrix(0.672223,0,0,0.554661,190.36,269.166)"><g transform="matrix(0.967407,-0.253227,0.253227,0.967407,-135.92,192.91)"><text x="681.431px" y="624.459px" style="font-family:'Roboto-Bold', 'Roboto';font-weight:700;font-size:46px;fill:#fff;stroke:#fff;stroke-width:1.5px;stroke-linecap:butt;stroke-miterlimit:1.41421;">E</text></g><g transform="matrix(0.979508,-0.201407,0.201407,0.979508,-109.956,154.945)"><text x="706.456px" y="617.821px" style="font-family:'Roboto-Bold', 'Roboto';font-weight:700;font-size:46px;fill:#fff;stroke:#fff;stroke-width:1.5px;stroke-linecap:butt;stroke-miterlimit:1.41421;">U</text></g><g transform="matrix(0.989931,-0.141548,0.141548,0.989931,-79.1752,110.351)"><text x="736.09px" y="611.711px" style="font-family:'Roboto-Bold', 'Roboto';font-weight:700;font-size:46px;fill:#fff;stroke:#fff;stroke-width:1.5px;stroke-linecap:butt;stroke-miterlimit:1.41421;">R</text></g><g transform="matrix(0.996522,-0.0833253,0.0833253,0.996522,-47.9581,65.8718)"><text x="765.184px" y="607.488px" style="font-family:'Roboto-Bold', 'Roboto';font-weight:700;font-size:46px;fill:#fff;stroke:#fff;stroke-width:1.5px;stroke-linecap:butt;stroke-miterlimit:1.41421;">O</text></g><g transform="matrix(0.999799,-0.0200474,0.0200474,0.999799,-11.9652,16.0951)"><text x="796.789px" y="604.834px" style="font-family:'Roboto-Bold', 'Roboto';font-weight:700;font-size:46px;fill:#fff;stroke:#fff;stroke-width:1.5px;stroke-linecap:butt;stroke-miterlimit:1.41421;">K</text></g><g transform="matrix(0.999379,0.0352402,-0.0352402,0.999379,21.8034,-28.7091)"><text x="825.318px" y="604.162px" style="font-family:'Roboto-Bold', 'Roboto';font-weight:700;font-size:46px;fill:#fff;stroke:#fff;stroke-width:1.5px;stroke-linecap:butt;stroke-miterlimit:1.41421;">O</text></g><g transform="matrix(0.995232,0.0975357,-0.0975357,0.995232,63.1241,-80.7115)"><text x="857.096px" y="605.291px" style="font-family:'Roboto-Bold', 'Roboto';font-weight:700;font-size:46px;fill:#fff;stroke:#fff;stroke-width:1.5px;stroke-linecap:butt;stroke-miterlimit:1.41421;">R</text></g><g transform="matrix(0.987726,0.156197,-0.156197,0.987726,105.858,-130.971)"><text x="886.283px" y="608.076px" style="font-family:'Roboto-Bold', 'Roboto';font-weight:700;font-size:46px;fill:#fff;stroke:#fff;stroke-width:1.5px;stroke-linecap:butt;stroke-miterlimit:1.41421;">N</text></g><g transform="matrix(0.976698,0.214619,-0.214619,0.976698,153.009,-182.808)"><text x="918.36px" y="613.221px" style="font-family:'Roboto-Bold', 'Roboto';font-weight:700;font-size:46px;fill:#fff;stroke:#fff;stroke-width:1.5px;stroke-linecap:butt;stroke-miterlimit:1.41421;">E</text></g><g transform="matrix(0.964163,0.265311,-0.265311,0.964163,198.019,-228.308)"><text x="944.119px" y="618.836px" style="font-family:'Roboto-Bold', 'Roboto';font-weight:700;font-size:46px;fill:#fff;stroke:#fff;stroke-width:1.5px;stroke-linecap:butt;stroke-miterlimit:1.41421;">T</text></g></g></g></g><g><g><path d="M85.805,398.109c49.926,18.856 105.06,29.319 163.002,29.319c59.588,0 116.205,-11.066 167.244,-30.946l0,-73.801c-50.424,19.175 -106.157,29.808 -164.744,29.808c-58.884,0 -114.886,-10.741 -165.502,-30.094l0,75.714Z" style="fill:none;stroke:#fff;stroke-width:4px;"/><g><path d="M86.1,375.659l0,-53.146c10.95,4.187 22.152,7.971 33.57,11.296l0,-21.748c-46.622,-7.12 -84.972,-17.906 -109.968,-30.966l45.291,56.457l-49.598,14.578c24.079,8.977 51.178,16.895 80.705,23.529Z" style="fill:none;stroke:#fff;stroke-width:4px;"/><path d="M86.249,322.395c11.045,4.153 21.899,8.114 33.417,11.413l0,-21.577c-0.378,-0.057 -0.756,-0.114 -1.133,-0.171l-32.284,10.335Z" style="fill:none;stroke:#fff;stroke-width:4px;"/></g><g><path d="M415.965,375.659l0,-53.146c-10.949,4.187 -22.151,7.971 -33.57,11.296l0,-21.748c46.623,-7.12 84.973,-17.906 109.969,-30.966l-45.292,56.457l49.598,14.578c-24.079,8.977 -51.177,16.895 -80.705,23.529Z" style="fill:none;stroke:#fff;stroke-width:4px;"/><path d="M415.817,322.395c-11.045,4.153 -21.9,8.114 -33.417,11.413l0,-21.577c0.378,-0.057 0.755,-0.114 1.133,-0.171l32.284,10.335Z" style="fill:none;stroke:#fff;stroke-width:4px;"/></g></g><g transform="matrix(1.4876,0,0,-1.81499,-858.546,1499.66)"><g transform="matrix(-0.672223,0,0,0.550966,971.161,271.399)"><g transform="matrix(-0.984183,-0.177156,0.177156,-0.984183,770.603,1293.54)"><text x="443.048px" y="612.37px" style="font-family:'Roboto-Bold', 'Roboto';font-weight:700;font-size:46px;fill:none;">P</text></g><g transform="matrix(-0.992983,-0.118255,0.118255,-0.992983,752.615,1258.74)"><text x="413.652px" y="607.041px" style="font-family:'Roboto-Bold', 'Roboto';font-weight:700;font-size:46px;fill:none;">R</text></g><g transform="matrix(-0.996968,-0.0778188,0.0778188,-0.996968,720.66,1235.49)"><text x="384.403px" y="603.703px" style="font-family:'Roboto-Bold', 'Roboto';font-weight:700;font-size:46px;fill:none;">I</text></g><g transform="matrix(-0.999166,-0.040841,0.040841,-0.999166,716.834,1219.75)"><text x="370.876px" y="602.554px" style="font-family:'Roboto-Bold', 'Roboto';font-weight:700;font-size:46px;fill:none;">J</text></g><g transform="matrix(-0.999902,0.0139662,-0.0139662,-0.999902,698.471,1198.13)"><text x="345.052px" y="601.501px" style="font-family:'Roboto-Bold', 'Roboto';font-weight:700;font-size:46px;fill:none;">E</text></g><g transform="matrix(-0.997665,0.0683028,-0.0683028,-0.997665,678.433,1180.35)"><text x="319.037px" y="601.775px" style="font-family:'Roboto-Bold', 'Roboto';font-weight:700;font-size:46px;fill:none;">D</text></g><g transform="matrix(-0.991725,0.128384,-0.128384,-0.991725,653.259,1165.47)"><text x="289.067px" y="603.789px" style="font-family:'Roboto-Bold', 'Roboto';font-weight:700;font-size:46px;fill:none;">O</text></g><g transform="matrix(-0.981692,0.190475,-0.190475,-0.981692,625.741,1155.68)"><text x="257.33px" y="607.914px" style="font-family:'Roboto-Bold', 'Roboto';font-weight:700;font-size:46px;fill:none;">R</text></g></g><g transform="matrix(-0.672223,0,0,0.550966,971.161,271.399)"><g transform="matrix(-0.984183,-0.177156,0.177156,-0.984183,770.603,1293.54)"><text x="443.048px" y="612.37px" style="font-family:'Roboto-Bold', 'Roboto';font-weight:700;font-size:46px;fill:#fff;stroke:#fff;stroke-width:1.5px;stroke-linecap:butt;stroke-miterlimit:1.41421;">P</text></g><g transform="matrix(-0.992983,-0.118255,0.118255,-0.992983,752.615,1258.74)"><text x="413.652px" y="607.041px" style="font-family:'Roboto-Bold', 'Roboto';font-weight:700;font-size:46px;fill:#fff;stroke:#fff;stroke-width:1.5px;stroke-linecap:butt;stroke-miterlimit:1.41421;">R</text></g><g transform="matrix(-0.996968,-0.0778188,0.0778188,-0.996968,720.66,1235.49)"><text x="384.403px" y="603.703px" style="font-family:'Roboto-Bold', 'Roboto';font-weight:700;font-size:46px;fill:#fff;stroke:#fff;stroke-width:1.5px;stroke-linecap:butt;stroke-miterlimit:1.41421;">I</text></g><g transform="matrix(-0.999166,-0.040841,0.040841,-0.999166,716.834,1219.75)"><text x="370.876px" y="602.554px" style="font-family:'Roboto-Bold', 'Roboto';font-weight:700;font-size:46px;fill:#fff;stroke:#fff;stroke-width:1.5px;stroke-linecap:butt;stroke-miterlimit:1.41421;">J</text></g><g transform="matrix(-0.999902,0.0139662,-0.0139662,-0.999902,698.471,1198.13)"><text x="345.052px" y="601.501px" style="font-family:'Roboto-Bold', 'Roboto';font-weight:700;font-size:46px;fill:#fff;stroke:#fff;stroke-width:1.5px;stroke-linecap:butt;stroke-miterlimit:1.41421;">E</text></g><g transform="matrix(-0.997665,0.0683028,-0.0683028,-0.997665,678.433,1180.35)"><text x="319.037px" y="601.775px" style="font-family:'Roboto-Bold', 'Roboto';font-weight:700;font-size:46px;fill:#fff;stroke:#fff;stroke-width:1.5px;stroke-linecap:butt;stroke-miterlimit:1.41421;">D</text></g><g transform="matrix(-0.991725,0.128384,-0.128384,-0.991725,653.259,1165.47)"><text x="289.067px" y="603.789px" style="font-family:'Roboto-Bold', 'Roboto';font-weight:700;font-size:46px;fill:#fff;stroke:#fff;stroke-width:1.5px;stroke-linecap:butt;stroke-miterlimit:1.41421;">O</text></g><g transform="matrix(-0.981692,0.190475,-0.190475,-0.981692,625.741,1155.68)"><text x="257.33px" y="607.914px" style="font-family:'Roboto-Bold', 'Roboto';font-weight:700;font-size:46px;fill:#fff;stroke:#fff;stroke-width:1.5px;stroke-linecap:butt;stroke-miterlimit:1.41421;">R</text></g></g></g></g><path d="M346.182,190.337l-0.045,0.397l-0.035,0.289l-0.035,0.287l-0.038,0.288l-0.038,0.287l-0.041,0.288l-0.041,0.285l-0.043,0.286l-0.045,0.285l-0.046,0.285l-0.047,0.284l-0.049,0.284l-0.05,0.284l-0.052,0.282l-0.053,0.282l-0.054,0.281l-0.056,0.282l-0.057,0.28l-0.059,0.28l-0.06,0.28l-0.061,0.278l-0.063,0.279l-0.064,0.277l-0.065,0.277l-0.068,0.277l-0.068,0.276l-0.069,0.276l-0.071,0.275l-0.073,0.274l-0.073,0.274l-0.075,0.273l-0.077,0.273l-0.077,0.271l-0.079,0.272l-0.081,0.271l-0.081,0.27l-0.083,0.27l-0.085,0.269l-0.085,0.268l-0.087,0.267l-0.088,0.268l-0.09,0.266l-0.091,0.266l-0.092,0.265l-0.093,0.265l-0.095,0.264l-0.096,0.263l-0.097,0.262l-0.099,0.262l-0.099,0.262l-0.101,0.26l-0.103,0.26l-0.103,0.26l-0.105,0.259l-0.106,0.257l-0.107,0.257l-0.109,0.257l-0.11,0.257l-0.111,0.255l-0.112,0.254l-0.114,0.254l-0.114,0.253l-0.117,0.253l-0.117,0.251l-0.118,0.251l-0.12,0.251l-0.12,0.249l-0.122,0.249l-0.123,0.248l-0.125,0.248l-0.125,0.247l-0.127,0.246l-0.128,0.244l-0.129,0.245l-0.13,0.244l-0.132,0.243l-0.132,0.242l-0.134,0.241l-0.135,0.241l-0.136,0.241l-0.137,0.239l-0.138,0.238l-0.14,0.237l-0.14,0.238l-0.142,0.235l-0.143,0.235l-0.144,0.235l-0.145,0.234l-0.146,0.233l-0.147,0.232l-0.149,0.231l-0.15,0.231l-0.15,0.229l-0.152,0.23l-0.153,0.227l-0.154,0.228l-0.155,0.227l-0.156,0.225l-0.157,0.224l-0.158,0.225l-0.159,0.223l-0.161,0.222l-0.161,0.221l-0.162,0.221l-0.164,0.22l-0.165,0.219l-0.165,0.218l-0.167,0.217l-0.168,0.216l-0.168,0.215l-0.17,0.215l-0.171,0.214l-0.172,0.213l-0.173,0.211l-0.173,0.211l-0.175,0.21l-0.176,0.21l-0.177,0.208l-0.178,0.208l-0.179,0.206l-0.18,0.206l-0.18,0.204l-0.182,0.204l-0.182,0.203l-0.184,0.202l-0.185,0.201l-0.186,0.2l-0.181,0.194l-0.313,0.336l-0.31,0.335l-0.307,0.338l-0.306,0.339l-0.304,0.34l-0.302,0.341l-0.3,0.343l-0.298,0.345l-0.296,0.346l-0.295,0.347l-0.292,0.349l-0.291,0.35l-0.289,0.351l-0.286,0.353l-0.285,0.354l-0.283,0.356l-0.281,0.357l-0.279,0.357l-0.277,0.36l-0.275,0.361l-0.274,0.362l-0.271,0.363l-0.269,0.365l-0.267,0.366l-0.266,0.368l-0.264,0.368l-0.261,0.37l-0.259,0.371l-0.258,0.372l-0.255,0.374l-0.254,0.374l-0.251,0.376l-0.25,0.378l-0.248,0.378l-0.245,0.38l-0.244,0.38l-0.241,0.382l-0.24,0.383l-0.238,0.385l-0.235,0.385l-0.234,0.387l-0.231,0.388l-0.23,0.388l-0.227,0.39l-0.226,0.391l-0.223,0.393l-0.222,0.393l-0.219,0.394l-0.217,0.396l-0.215,0.396l-0.213,0.398l-0.212,0.399l-0.209,0.399l-0.207,0.401l-0.204,0.402l-0.203,0.403l-0.201,0.403l-0.199,0.405l-0.196,0.406l-0.195,0.407l-0.192,0.407l-0.19,0.409l-0.189,0.41l-0.186,0.411l-0.184,0.411l-0.182,0.413l-0.179,0.413l-0.178,0.415l-0.176,0.415l-0.173,0.416l-0.171,0.417l-0.17,0.419l-0.167,0.419l-0.165,0.419l-0.162,0.421l-0.161,0.422l-0.158,0.422l-0.156,0.423l-0.155,0.424l-0.151,0.425l-0.15,0.426l-0.148,0.426l-0.145,0.428l-0.144,0.428l-0.141,0.428l-0.139,0.43l-0.136,0.43l-0.135,0.432l-0.132,0.432l-0.13,0.432l-0.128,0.433l-0.126,0.435l-0.123,0.435l-0.122,0.435l-0.119,0.436l-0.117,0.437l-0.114,0.438l-0.112,0.438l-0.111,0.439l-0.108,0.44l-0.105,0.44l-0.104,0.441l-0.101,0.442l-0.099,0.442l-0.097,0.443l-0.094,0.443l-0.092,0.444l-0.09,0.445l-0.088,0.445l-0.085,0.446l-0.083,0.446l-0.081,0.447l-0.078,0.448l-0.077,0.448l-0.074,0.448l-0.071,0.449l-0.07,0.45l-0.067,0.45l-0.064,0.451l-0.063,0.451l-0.06,0.451l-0.058,0.453l-0.055,0.452l-0.053,0.453l-0.051,0.454l-0.049,0.454l-0.046,0.454l-0.044,0.459l-0.335,3.507l-0.341,3.575l-0.346,3.633l-0.349,3.681l-0.706,7.462l-0.71,7.526l-0.706,7.506l-0.695,7.401l-1.327,14.156l-0.031,0.323l-0.035,0.327l-0.037,0.326l-0.039,0.325l-0.042,0.324l-0.044,0.323l-0.047,0.323l-0.049,0.322l-0.051,0.321l-0.054,0.32l-0.056,0.319l-0.059,0.318l-0.061,0.318l-0.063,0.317l-0.066,0.316l-0.068,0.314l-0.07,0.314l-0.072,0.313l-0.075,0.312l-0.077,0.311l-0.08,0.31l-0.082,0.31l-0.084,0.308l-0.086,0.307l-0.089,0.306l-0.091,0.306l-0.093,0.304l-0.095,0.303l-0.097,0.303l-0.1,0.301l-0.102,0.299l-0.104,0.299l-0.106,0.298l-0.108,0.298l-0.111,0.295l-0.112,0.295l-0.115,0.294l-0.117,0.292l-0.119,0.292l-0.121,0.29l-0.123,0.289l-0.125,0.288l-0.127,0.286l-0.13,0.286l-0.131,0.285l-0.134,0.283l-0.135,0.282l-0.138,0.281l-0.139,0.28l-0.142,0.278l-0.143,0.277l-0.145,0.276l-0.148,0.275l-0.15,0.274l-0.151,0.271l-0.153,0.271l-0.155,0.27l-0.157,0.268l-0.159,0.268l-0.161,0.265l-0.163,0.264l-0.165,0.263l-0.166,0.262l-0.695,1.073l-1.633,0.146l-0.664,0.058l-0.664,0.058l-0.664,0.056l-0.665,0.056l-0.665,0.054l-0.665,0.054l-0.665,0.053l-0.666,0.052l-0.666,0.051l-0.667,0.05l-0.666,0.049l-0.667,0.048l-0.668,0.047l-0.667,0.047l-0.668,0.045l-0.668,0.045l-0.669,0.043l-0.669,0.043l-0.669,0.042l-0.669,0.041l-0.67,0.039l-0.67,0.04l-0.67,0.038l-0.671,0.037l-0.67,0.036l-0.672,0.035l-0.671,0.035l-0.671,0.033l-0.672,0.033l-0.673,0.031l-0.672,0.031l-0.673,0.03l-0.673,0.028l-0.674,0.028l-0.673,0.027l-0.674,0.026l-0.675,0.025l-0.674,0.024l-0.675,0.023l-0.675,0.023l-0.675,0.021l-0.676,0.02l-0.676,0.02l-0.676,0.018l-0.676,0.018l-0.677,0.016l-0.677,0.016l-0.677,0.015l-0.677,0.013l-0.678,0.013l-0.678,0.012l-0.679,0.011l-0.678,0.01l-0.679,0.009l-0.679,0.008l-0.679,0.007l-0.68,0.006l-0.68,0.006l-0.68,0.004l-0.68,0.003l-0.681,0.003l-0.681,0.001l-0.681,0.001l-0.723,-0.001l-0.723,-0.001l-0.723,-0.003l-0.723,-0.004l-0.722,-0.005l-0.722,-0.006l-0.721,-0.007l-0.721,-0.008l-0.722,-0.009l-0.72,-0.01l-0.72,-0.011l-0.72,-0.013l-0.72,-0.013l-0.72,-0.014l-0.719,-0.016l-0.719,-0.017l-0.718,-0.017l-0.719,-0.019l-0.717,-0.02l-0.718,-0.02l-0.718,-0.022l-0.717,-0.023l-0.716,-0.024l-0.717,-0.025l-0.716,-0.027l-0.716,-0.027l-0.715,-0.028l-0.715,-0.029l-0.715,-0.03l-0.715,-0.032l-0.714,-0.032l-0.714,-0.034l-0.713,-0.034l-0.714,-0.036l-0.712,-0.036l-0.713,-0.038l-0.712,-0.039l-0.712,-0.04l-0.712,-0.04l-0.711,-0.042l-0.711,-0.043l-0.711,-0.044l-0.71,-0.045l-0.71,-0.046l-0.71,-0.047l-0.709,-0.048l-0.709,-0.049l-0.709,-0.051l-0.708,-0.051l-0.708,-0.052l-0.708,-0.053l-0.707,-0.055l-0.707,-0.055l-0.706,-0.056l-0.707,-0.058l-0.706,-0.058l-0.705,-0.06l-0.705,-0.06l-0.706,-0.061l-0.704,-0.063l-0.704,-0.064l-0.704,-0.064l-0.703,-0.066l-1.771,-0.167l-0.61,-1.142l-0.106,-0.2l-0.104,-0.2l-0.103,-0.202l-0.102,-0.203l-0.1,-0.203l-0.1,-0.204l-0.098,-0.204l-0.097,-0.206l-0.096,-0.206l-0.095,-0.207l-0.094,-0.207l-0.092,-0.208l-0.091,-0.209l-0.09,-0.21l-0.088,-0.21l-0.087,-0.211l-0.086,-0.211l-0.085,-0.212l-0.083,-0.213l-0.083,-0.214l-0.081,-0.214l-0.079,-0.215l-0.079,-0.216l-0.077,-0.216l-0.075,-0.216l-0.075,-0.218l-0.073,-0.218l-0.072,-0.219l-0.07,-0.219l-0.07,-0.22l-0.068,-0.221l-0.066,-0.221l-0.066,-0.222l-0.063,-0.222l-0.063,-0.223l-0.061,-0.223l-0.06,-0.225l-0.059,-0.224l-0.057,-0.225l-0.056,-0.226l-0.054,-0.227l-0.053,-0.227l-0.052,-0.227l-0.05,-0.228l-0.049,-0.229l-0.047,-0.229l-0.046,-0.229l-0.045,-0.23l-0.043,-0.231l-0.042,-0.231l-0.04,-0.232l-0.04,-0.233l-0.037,-0.232l-0.036,-0.233l-0.035,-0.234l-0.033,-0.235l-0.032,-0.234l-0.03,-0.236l-0.029,-0.235l-0.028,-0.236l-0.026,-0.237l-0.024,-0.237l-0.023,-0.234l-5.9,-62.985l-0.045,-0.458l-0.046,-0.454l-0.048,-0.455l-0.051,-0.453l-0.053,-0.453l-0.056,-0.453l-0.058,-0.453l-0.06,-0.452l-0.062,-0.451l-0.065,-0.451l-0.067,-0.45l-0.069,-0.45l-0.072,-0.449l-0.074,-0.449l-0.076,-0.448l-0.079,-0.448l-0.081,-0.447l-0.083,-0.446l-0.085,-0.446l-0.088,-0.446l-0.09,-0.445l-0.092,-0.444l-0.094,-0.444l-0.097,-0.442l-0.099,-0.443l-0.101,-0.442l-0.104,-0.441l-0.106,-0.44l-0.108,-0.44l-0.11,-0.439l-0.112,-0.439l-0.115,-0.437l-0.117,-0.438l-0.119,-0.436l-0.121,-0.436l-0.124,-0.435l-0.126,-0.434l-0.128,-0.434l-0.13,-0.433l-0.132,-0.432l-0.135,-0.431l-0.136,-0.431l-0.139,-0.43l-0.142,-0.429l-0.143,-0.428l-0.145,-0.427l-0.148,-0.427l-0.15,-0.426l-0.152,-0.425l-0.154,-0.424l-0.156,-0.424l-0.159,-0.422l-0.161,-0.422l-0.162,-0.421l-0.165,-0.42l-0.167,-0.419l-0.17,-0.418l-0.171,-0.417l-0.174,-0.417l-0.175,-0.415l-0.178,-0.415l-0.18,-0.414l-0.182,-0.412l-0.184,-0.412l-0.186,-0.411l-0.188,-0.41l-0.191,-0.409l-0.192,-0.408l-0.195,-0.407l-0.197,-0.406l-0.198,-0.405l-0.201,-0.404l-0.203,-0.403l-0.205,-0.402l-0.207,-0.401l-0.209,-0.4l-0.211,-0.398l-0.214,-0.398l-0.215,-0.397l-0.217,-0.395l-0.22,-0.395l-0.221,-0.393l-0.224,-0.393l-0.225,-0.391l-0.228,-0.39l-0.23,-0.389l-0.231,-0.388l-0.234,-0.387l-0.236,-0.386l-0.237,-0.384l-0.24,-0.383l-0.242,-0.382l-0.243,-0.381l-0.246,-0.38l-0.248,-0.379l-0.249,-0.377l-0.252,-0.376l-0.254,-0.375l-0.255,-0.374l-0.258,-0.372l-0.26,-0.372l-0.261,-0.37l-0.264,-0.368l-0.265,-0.368l-0.268,-0.366l-0.269,-0.365l-0.272,-0.363l-0.273,-0.363l-0.275,-0.361l-0.277,-0.359l-0.28,-0.358l-0.281,-0.357l-0.283,-0.356l-0.285,-0.355l-0.287,-0.352l-0.288,-0.352l-0.291,-0.35l-0.293,-0.349l-0.294,-0.348l-0.297,-0.345l-0.298,-0.345l-0.3,-0.343l-0.302,-0.342l-0.304,-0.34l-0.306,-0.339l-0.308,-0.338l-0.31,-0.336l-0.31,-0.333l-0.18,-0.191l-0.187,-0.199l-0.185,-0.2l-0.184,-0.202l-0.184,-0.203l-0.182,-0.203l-0.182,-0.204l-0.181,-0.205l-0.179,-0.206l-0.178,-0.207l-0.178,-0.208l-0.176,-0.209l-0.176,-0.21l-0.174,-0.21l-0.174,-0.211l-0.172,-0.213l-0.172,-0.213l-0.17,-0.214l-0.169,-0.215l-0.168,-0.216l-0.167,-0.217l-0.167,-0.218l-0.165,-0.218l-0.164,-0.219l-0.163,-0.221l-0.162,-0.221l-0.16,-0.222l-0.16,-0.223l-0.159,-0.223l-0.157,-0.225l-0.157,-0.225l-0.155,-0.226l-0.155,-0.227l-0.153,-0.228l-0.152,-0.229l-0.151,-0.229l-0.15,-0.23l-0.149,-0.231l-0.148,-0.232l-0.146,-0.233l-0.146,-0.233l-0.144,-0.235l-0.143,-0.235l-0.142,-0.236l-0.141,-0.236l-0.14,-0.238l-0.139,-0.238l-0.137,-0.239l-0.137,-0.24l-0.135,-0.24l-0.134,-0.241l-0.133,-0.243l-0.131,-0.243l-0.131,-0.243l-0.129,-0.244l-0.128,-0.246l-0.127,-0.245l-0.126,-0.247l-0.125,-0.247l-0.123,-0.248l-0.122,-0.249l-0.121,-0.25l-0.12,-0.25l-0.118,-0.251l-0.118,-0.251l-0.116,-0.253l-0.115,-0.253l-0.114,-0.253l-0.112,-0.255l-0.111,-0.255l-0.11,-0.256l-0.109,-0.257l-0.107,-0.256l-0.107,-0.259l-0.104,-0.258l-0.104,-0.259l-0.103,-0.26l-0.101,-0.261l-0.1,-0.261l-0.098,-0.262l-0.098,-0.263l-0.096,-0.263l-0.095,-0.264l-0.093,-0.264l-0.092,-0.266l-0.091,-0.265l-0.09,-0.267l-0.088,-0.267l-0.087,-0.267l-0.086,-0.269l-0.084,-0.269l-0.083,-0.269l-0.082,-0.27l-0.08,-0.271l-0.079,-0.272l-0.078,-0.272l-0.077,-0.272l-0.075,-0.273l-0.073,-0.274l-0.073,-0.274l-0.071,-0.275l-0.069,-0.276l-0.068,-0.276l-0.067,-0.276l-0.066,-0.277l-0.064,-0.278l-0.063,-0.279l-0.061,-0.279l-0.06,-0.279l-0.059,-0.28l-0.057,-0.28l-0.056,-0.282l-0.054,-0.281l-0.053,-0.282l-0.052,-0.283l-0.05,-0.283l-0.049,-0.284l-0.047,-0.284l-0.046,-0.285l-0.045,-0.285l-0.043,-0.286l-0.042,-0.286l-0.04,-0.286l-0.039,-0.288l-0.037,-0.288l-0.036,-0.287l-0.034,-0.289l-0.045,-0.397l0,-2.114l190.298,0l0,2.114Zm-186.015,1.886l0.028,0.18l0.043,0.264l0.044,0.263l0.045,0.264l0.047,0.263l0.048,0.262l0.049,0.262l0.05,0.262l0.052,0.26l0.053,0.26l0.055,0.26l0.055,0.26l0.057,0.258l0.059,0.258l0.059,0.258l0.061,0.257l0.062,0.257l0.063,0.256l0.065,0.256l0.066,0.255l0.067,0.254l0.068,0.254l0.07,0.253l0.071,0.253l0.072,0.253l0.073,0.251l0.075,0.251l0.075,0.251l0.078,0.25l0.078,0.249l0.079,0.249l0.081,0.248l0.082,0.248l0.083,0.247l0.084,0.247l0.086,0.245l0.086,0.245l0.088,0.245l0.089,0.244l0.091,0.244l0.091,0.243l0.093,0.242l0.094,0.241l0.094,0.242l0.097,0.24l0.097,0.239l0.098,0.24l0.1,0.238l0.101,0.238l0.102,0.237l0.103,0.237l0.104,0.236l0.105,0.235l0.107,0.235l0.108,0.233l0.109,0.234l0.109,0.232l0.112,0.232l0.112,0.232l0.113,0.23l0.114,0.23l0.116,0.229l0.116,0.229l0.118,0.228l0.119,0.227l0.12,0.227l0.121,0.226l0.122,0.225l0.123,0.224l0.124,0.224l0.126,0.223l0.126,0.222l0.127,0.222l0.129,0.22l0.13,0.221l0.13,0.219l0.132,0.219l0.133,0.218l0.134,0.217l0.134,0.216l0.136,0.216l0.137,0.215l0.138,0.214l0.139,0.214l0.14,0.213l0.142,0.212l0.141,0.211l0.144,0.21l0.144,0.21l0.145,0.209l0.146,0.208l0.147,0.208l0.148,0.206l0.149,0.206l0.151,0.205l0.151,0.204l0.152,0.203l0.153,0.203l0.154,0.202l0.155,0.201l0.156,0.2l0.157,0.199l0.158,0.199l0.159,0.198l0.159,0.196l0.162,0.197l0.161,0.195l0.163,0.194l0.164,0.194l0.164,0.193l0.166,0.192l0.166,0.191l0.168,0.19l0.168,0.19l0.169,0.188l0.17,0.188l0.171,0.186l0.172,0.187l0.173,0.185l0.182,0.192l0.326,0.351l0.324,0.351l0.322,0.353l0.32,0.354l0.318,0.356l0.315,0.357l0.314,0.359l0.312,0.36l0.31,0.362l0.308,0.363l0.306,0.365l0.304,0.366l0.302,0.368l0.3,0.369l0.298,0.37l0.295,0.372l0.294,0.373l0.292,0.375l0.29,0.376l0.288,0.377l0.286,0.379l0.283,0.38l0.282,0.381l0.28,0.383l0.277,0.384l0.276,0.386l0.273,0.387l0.272,0.388l0.269,0.389l0.267,0.391l0.266,0.392l0.263,0.393l0.261,0.394l0.259,0.396l0.257,0.397l0.254,0.399l0.253,0.399l0.251,0.401l0.248,0.402l0.247,0.403l0.244,0.404l0.242,0.406l0.24,0.406l0.238,0.408l0.236,0.41l0.233,0.41l0.232,0.411l0.229,0.412l0.228,0.414l0.225,0.415l0.223,0.416l0.22,0.417l0.219,0.418l0.217,0.419l0.214,0.42l0.212,0.421l0.21,0.423l0.208,0.423l0.205,0.425l0.204,0.425l0.201,0.426l0.199,0.428l0.197,0.429l0.195,0.429l0.192,0.431l0.19,0.431l0.188,0.433l0.186,0.433l0.184,0.434l0.181,0.436l0.179,0.436l0.177,0.437l0.175,0.438l0.172,0.439l0.171,0.441l0.168,0.44l0.165,0.442l0.164,0.443l0.161,0.443l0.159,0.445l0.156,0.445l0.155,0.446l0.152,0.447l0.15,0.448l0.147,0.448l0.146,0.45l0.143,0.45l0.14,0.451l0.139,0.451l0.136,0.453l0.134,0.453l0.131,0.454l0.129,0.455l0.127,0.456l0.125,0.456l0.122,0.457l0.12,0.458l0.117,0.458l0.116,0.459l0.113,0.46l0.11,0.461l0.108,0.461l0.106,0.462l0.104,0.462l0.101,0.463l0.098,0.464l0.097,0.464l0.094,0.466l0.092,0.465l0.089,0.466l0.087,0.467l0.084,0.468l0.082,0.468l0.08,0.469l0.077,0.469l0.075,0.469l0.073,0.47l0.07,0.471l0.068,0.472l0.065,0.472l0.063,0.472l0.06,0.473l0.058,0.473l0.056,0.474l0.053,0.474l0.051,0.475l0.048,0.475l0.046,0.474l5.9,62.983l0.021,0.216l0.022,0.211l0.023,0.212l0.025,0.211l0.025,0.21l0.028,0.21l0.028,0.21l0.03,0.209l0.031,0.208l0.032,0.209l0.033,0.208l0.035,0.207l0.036,0.207l0.038,0.206l0.038,0.206l0.04,0.205l0.041,0.205l0.043,0.205l0.043,0.203l0.045,0.204l0.046,0.203l0.047,0.202l0.049,0.202l0.049,0.201l0.051,0.201l0.053,0.201l0.053,0.199l0.055,0.199l0.055,0.199l0.057,0.198l0.059,0.198l0.059,0.197l0.06,0.197l0.062,0.196l0.063,0.196l0.064,0.195l0.065,0.193l0.067,0.194l0.067,0.194l0.069,0.193l0.07,0.191l0.071,0.192l0.072,0.191l0.073,0.19l0.074,0.19l0.076,0.189l0.077,0.189l0.077,0.187l0.079,0.188l0.08,0.187l0.081,0.186l0.083,0.185l0.083,0.185l0.084,0.184l0.086,0.184l0.086,0.183l0.088,0.182l0.089,0.182l0.067,0.137l0.311,0.029l0.698,0.064l0.699,0.063l0.698,0.062l0.699,0.061l0.699,0.06l0.7,0.059l0.7,0.058l0.7,0.057l0.701,0.056l0.701,0.054l0.702,0.054l0.701,0.053l0.702,0.052l0.703,0.051l0.702,0.049l0.703,0.049l0.704,0.048l0.703,0.046l0.704,0.046l0.705,0.045l0.705,0.043l0.705,0.043l0.705,0.041l0.706,0.041l0.706,0.039l0.706,0.039l0.707,0.037l0.707,0.036l0.707,0.036l0.708,0.034l0.708,0.033l0.708,0.032l0.708,0.031l0.709,0.03l0.709,0.029l0.71,0.028l0.71,0.027l0.71,0.026l0.711,0.025l0.71,0.024l0.711,0.023l0.712,0.021l0.711,0.021l0.712,0.02l0.713,0.018l0.712,0.018l0.713,0.016l0.714,0.015l0.713,0.015l0.714,0.013l0.714,0.012l0.715,0.011l0.714,0.011l0.715,0.009l0.715,0.008l0.716,0.006l0.716,0.006l0.716,0.005l0.717,0.004l0.716,0.003l0.718,0.001l0.717,0.001l0.676,-0.001l0.675,-0.001l0.675,-0.003l0.675,-0.003l0.674,-0.004l0.674,-0.005l0.674,-0.006l0.674,-0.008l0.674,-0.008l0.673,-0.009l0.673,-0.009l0.673,-0.011l0.672,-0.012l0.672,-0.013l0.672,-0.013l0.672,-0.015l0.671,-0.016l0.671,-0.016l0.671,-0.017l0.67,-0.019l0.671,-0.019l0.67,-0.02l0.669,-0.021l0.67,-0.022l0.669,-0.023l0.669,-0.024l0.668,-0.025l0.669,-0.026l0.668,-0.027l0.668,-0.027l0.667,-0.029l0.667,-0.029l0.667,-0.031l0.667,-0.031l0.666,-0.032l0.666,-0.033l0.666,-0.034l0.666,-0.035l0.665,-0.036l0.665,-0.037l0.664,-0.038l0.665,-0.039l0.664,-0.039l0.664,-0.041l0.663,-0.041l0.663,-0.042l0.663,-0.044l0.663,-0.044l0.662,-0.045l0.662,-0.046l0.662,-0.047l0.661,-0.048l0.661,-0.048l0.661,-0.05l0.661,-0.05l0.66,-0.052l0.66,-0.052l0.66,-0.054l0.659,-0.054l0.659,-0.055l0.659,-0.056l0.658,-0.057l0.335,-0.029l0.084,-0.137l0.146,-0.241l0.144,-0.241l0.142,-0.243l0.14,-0.243l0.139,-0.245l0.137,-0.247l0.135,-0.247l0.133,-0.248l0.131,-0.25l0.13,-0.25l0.128,-0.253l0.127,-0.252l0.124,-0.254l0.122,-0.255l0.121,-0.257l0.119,-0.257l0.116,-0.257l0.116,-0.26l0.113,-0.261l0.111,-0.261l0.11,-0.262l0.107,-0.263l0.106,-0.265l0.104,-0.266l0.101,-0.266l0.1,-0.268l0.098,-0.268l0.096,-0.269l0.094,-0.271l0.092,-0.271l0.091,-0.273l0.088,-0.273l0.086,-0.274l0.084,-0.276l0.082,-0.275l0.08,-0.277l0.078,-0.278l0.076,-0.279l0.074,-0.279l0.072,-0.281l0.07,-0.281l0.067,-0.283l0.066,-0.283l0.064,-0.284l0.061,-0.285l0.06,-0.286l0.057,-0.286l0.055,-0.287l0.053,-0.288l0.051,-0.289l0.049,-0.29l0.046,-0.291l0.045,-0.291l0.042,-0.292l0.04,-0.293l0.038,-0.294l0.035,-0.294l0.034,-0.296l0.031,-0.295l0.029,-0.301l1.326,-14.148l0.695,-7.402l0.706,-7.507l0.71,-7.527l0.707,-7.464l0.349,-3.681l0.346,-3.635l0.341,-3.576l0.335,-3.508l0.046,-0.471l0.048,-0.475l0.051,-0.475l0.053,-0.473l0.055,-0.474l0.058,-0.473l0.061,-0.473l0.063,-0.472l0.065,-0.472l0.068,-0.471l0.07,-0.47l0.072,-0.47l0.075,-0.47l0.077,-0.469l0.08,-0.468l0.082,-0.468l0.085,-0.468l0.086,-0.466l0.09,-0.466l0.091,-0.466l0.094,-0.465l0.096,-0.464l0.099,-0.463l0.101,-0.464l0.104,-0.462l0.106,-0.461l0.108,-0.461l0.11,-0.461l0.113,-0.46l0.115,-0.458l0.118,-0.459l0.12,-0.457l0.122,-0.457l0.124,-0.456l0.127,-0.455l0.129,-0.455l0.132,-0.454l0.133,-0.453l0.136,-0.452l0.139,-0.452l0.14,-0.451l0.143,-0.45l0.145,-0.449l0.148,-0.448l0.15,-0.448l0.152,-0.446l0.154,-0.446l0.157,-0.445l0.158,-0.444l0.162,-0.444l0.163,-0.442l0.166,-0.442l0.167,-0.44l0.171,-0.44l0.172,-0.44l0.175,-0.437l0.176,-0.437l0.18,-0.436l0.181,-0.436l0.183,-0.434l0.186,-0.433l0.188,-0.432l0.19,-0.432l0.193,-0.43l0.194,-0.429l0.197,-0.429l0.199,-0.427l0.201,-0.427l0.203,-0.425l0.206,-0.424l0.208,-0.423l0.209,-0.422l0.212,-0.421l0.215,-0.42l0.216,-0.419l0.219,-0.418l0.22,-0.417l0.223,-0.416l0.225,-0.414l0.227,-0.414l0.23,-0.412l0.231,-0.411l0.234,-0.41l0.235,-0.409l0.238,-0.408l0.24,-0.407l0.242,-0.405l0.244,-0.404l0.247,-0.403l0.248,-0.402l0.251,-0.4l0.252,-0.399l0.255,-0.399l0.257,-0.397l0.258,-0.395l0.261,-0.395l0.263,-0.393l0.265,-0.391l0.268,-0.391l0.269,-0.389l0.271,-0.388l0.274,-0.387l0.275,-0.385l0.277,-0.384l0.28,-0.383l0.282,-0.381l0.283,-0.38l0.286,-0.378l0.287,-0.378l0.29,-0.376l0.292,-0.374l0.294,-0.373l0.295,-0.372l0.298,-0.37l0.3,-0.369l0.302,-0.367l0.304,-0.366l0.305,-0.365l0.308,-0.363l0.31,-0.361l0.312,-0.361l0.313,-0.358l0.316,-0.357l0.318,-0.356l0.32,-0.354l0.321,-0.353l0.324,-0.351l0.324,-0.348l0.178,-0.191l0.173,-0.186l0.171,-0.186l0.171,-0.187l0.169,-0.188l0.169,-0.19l0.168,-0.19l0.167,-0.191l0.166,-0.192l0.165,-0.192l0.164,-0.193l0.163,-0.194l0.163,-0.196l0.161,-0.195l0.16,-0.197l0.16,-0.198l0.158,-0.198l0.157,-0.198l0.157,-0.2l0.156,-0.202l0.155,-0.201l0.153,-0.202l0.153,-0.203l0.151,-0.204l0.151,-0.205l0.15,-0.205l0.149,-0.206l0.148,-0.208l0.146,-0.207l0.146,-0.209l0.145,-0.21l0.144,-0.209l0.143,-0.211l0.142,-0.212l0.14,-0.212l0.14,-0.213l0.139,-0.214l0.137,-0.215l0.137,-0.215l0.136,-0.217l0.135,-0.216l0.133,-0.217l0.133,-0.219l0.131,-0.219l0.13,-0.22l0.13,-0.22l0.128,-0.221l0.128,-0.222l0.126,-0.223l0.125,-0.223l0.124,-0.224l0.123,-0.225l0.122,-0.225l0.12,-0.226l0.12,-0.227l0.119,-0.228l0.118,-0.228l0.116,-0.228l0.115,-0.23l0.114,-0.23l0.113,-0.231l0.112,-0.232l0.111,-0.231l0.11,-0.233l0.109,-0.234l0.107,-0.234l0.107,-0.235l0.105,-0.236l0.104,-0.236l0.103,-0.236l0.102,-0.238l0.101,-0.237l0.099,-0.239l0.099,-0.24l0.097,-0.239l0.096,-0.241l0.095,-0.241l0.093,-0.242l0.093,-0.242l0.091,-0.243l0.091,-0.244l0.089,-0.244l0.087,-0.244l0.087,-0.246l0.085,-0.246l0.085,-0.247l0.083,-0.247l0.081,-0.247l0.081,-0.249l0.08,-0.249l0.078,-0.249l0.077,-0.25l0.076,-0.251l0.074,-0.251l0.073,-0.252l0.072,-0.252l0.071,-0.253l0.07,-0.253l0.068,-0.254l0.067,-0.255l0.066,-0.255l0.065,-0.256l0.063,-0.256l0.062,-0.256l0.061,-0.257l0.059,-0.259l0.058,-0.257l0.057,-0.259l0.056,-0.26l0.054,-0.259l0.054,-0.261l0.051,-0.26l0.051,-0.262l0.049,-0.262l0.048,-0.262l0.047,-0.263l0.045,-0.263l0.044,-0.264l0.043,-0.264l0.028,-0.18l-181.732,0Z" style="fill:#fff;"/><path d="M70.885,184.746l10.08,21.125l23.207,3.059l-16.976,16.115l4.261,23.016l-20.572,-11.165l-20.573,11.165l4.262,-23.016l-16.976,-16.115l23.206,-3.059l10.081,-21.125Z" style="fill:#fff;stroke:#fff;stroke-width:2px;stroke-linejoin:miter;"/><path d="M430.885,184.746l10.08,21.125l23.207,3.059l-16.976,16.115l4.261,23.016l-20.572,-11.165l-20.573,11.165l4.262,-23.016l-16.976,-16.115l23.206,-3.059l10.081,-21.125Z" style="fill:#fd6d6d;stroke:#fff;stroke-width:2px;stroke-linejoin:miter;"/><path d="M430.885,184.746l10.08,21.125l23.207,3.059l-16.976,16.115l4.261,23.016l-20.572,-11.165l-20.573,11.165l4.262,-23.016l-16.976,-16.115l23.206,-3.059l10.081,-21.125Z" style="fill:#fff;stroke:#fff;stroke-width:2px;stroke-linejoin:miter;"/></g></svg>