<?xml version="1.0" encoding="UTF-8" standalone="no"?><!DOCTYPE svg PUBLIC "-//W3C//DTD SVG 1.1//EN" "http://www.w3.org/Graphics/SVG/1.1/DTD/svg11.dtd"><svg width="100%" height="100%" viewBox="0 0 503 435" version="1.1" xmlns="http://www.w3.org/2000/svg" xmlns:xlink="http://www.w3.org/1999/xlink" xml:space="preserve" style="fill-rule:evenodd;clip-rule:evenodd;stroke-linecap:round;stroke-linejoin:round;stroke-miterlimit:1.5;"><g id="transparent.-logo"><g><path d="M287.047,326.495l0.076,0.006l0.075,0.011l0.075,0.015l0.074,0.018l0.072,0.022l0.072,0.026l0.07,0.029l0.069,0.032l0.066,0.037l0.065,0.039l0.063,0.043l0.061,0.046l0.058,0.049l0.056,0.051l0.053,0.055l9.061,9.818l0.05,0.057l0.047,0.06l0.044,0.062l0.041,0.064l0.038,0.066l0.034,0.068l0.031,0.069l0.027,0.071l0.023,0.073l0.02,0.073l0.016,0.074l0.012,0.075l0.009,0.076l0.005,0.076l0,0.076l-0.003,0.076l-0.006,0.075l-0.011,0.075l-0.015,0.075l-0.018,0.074l-0.022,0.073l-0.026,0.071l-0.029,0.07l-0.033,0.069l-0.036,0.067l-0.039,0.065l-0.043,0.062l-0.046,0.061l-0.049,0.058l-0.052,0.056l-0.054,0.053l-0.057,0.05l-0.06,0.047l-0.062,0.044l-0.064,0.041l-0.066,0.038l-0.068,0.034l-0.069,0.031l-0.071,0.027l-0.072,0.023l-0.074,0.02l-0.074,0.016l-0.075,0.012l-0.076,0.009l-0.075,0.005l-0.076,0l-0.076,-0.003l-0.076,-0.007l-0.075,-0.01l-0.075,-0.015l-0.074,-0.018l-0.072,-0.022l-0.072,-0.026l-0.07,-0.029l-0.069,-0.033l-0.067,-0.036l-0.064,-0.039l-0.063,-0.043l-0.061,-0.046l-0.058,-0.049l-0.056,-0.052l-0.053,-0.054l-9.061,-9.818l-0.05,-0.057l-0.047,-0.06l-0.044,-0.062l-0.041,-0.064l-0.038,-0.066l-0.034,-0.068l-0.031,-0.07l-0.027,-0.07l-0.023,-0.073l-0.02,-0.073l-0.016,-0.074l-0.013,-0.075l-0.008,-0.076l-0.005,-0.076l-0.001,-0.076l0.003,-0.076l0.007,-0.075l0.011,-0.076l0.015,-0.074l0.018,-0.074l0.022,-0.073l0.025,-0.071l0.03,-0.07l0.032,-0.069l0.037,-0.067l0.039,-0.065l0.043,-0.063l0.046,-0.06l0.049,-0.058l0.051,-0.056l0.055,-0.053l0.057,-0.05l0.06,-0.047l0.062,-0.044l0.064,-0.041l0.066,-0.038l0.068,-0.034l0.069,-0.031l0.071,-0.027l0.072,-0.023l0.074,-0.02l0.074,-0.016l0.075,-0.013l0.075,-0.008l0.076,-0.005l0.076,-0.001l0.076,0.004Z"/><path d="M348.249,185.475c0,-1.3 -0.516,-2.546 -1.435,-3.465c-0.919,-0.919 -2.166,-1.435 -3.465,-1.435c-27.06,0 -157.987,0 -185.047,0c-1.3,0 -2.546,0.516 -3.465,1.435c-0.919,0.919 -1.435,2.165 -1.435,3.465c0,0 0,0.001 0,0.002c0,1.299 0.516,2.546 1.435,3.465c0.919,0.919 2.165,1.435 3.465,1.435c27.06,0 157.987,0 185.047,0c1.299,0 2.546,-0.516 3.465,-1.435c0.919,-0.919 1.435,-2.166 1.435,-3.465c0,-0.001 0,-0.002 0,-0.002Z" style="fill:none;stroke:#000;stroke-width:3px;"/><path d="M348.249,126.365c0,-1.3 -0.516,-2.546 -1.435,-3.465c-0.919,-0.919 -2.166,-1.435 -3.465,-1.435c-27.06,0 -157.987,0 -185.047,0c-1.3,0 -2.546,0.516 -3.465,1.435c-0.919,0.919 -1.435,2.165 -1.435,3.465c0,0 0,0.001 0,0.002c0,1.299 0.516,2.546 1.435,3.465c0.919,0.919 2.165,1.435 3.465,1.435c27.06,0 157.987,0 185.047,0c1.299,0 2.546,-0.516 3.465,-1.435c0.919,-0.919 1.435,-2.166 1.435,-3.465c0,-0.001 0,-0.002 0,-0.002Z" style="fill:none;stroke:#000;stroke-width:2px;"/><path d="M357.18,115.599c0.198,-1.544 -0.234,-3.103 -1.199,-4.326c-0.964,-1.222 -2.38,-2.005 -3.928,-2.171c-65.669,-6.978 -132.165,-7.589 -200.156,-0.762c-3.705,0.377 -6.684,3.217 -7.238,6.899c-0.001,0 -0.001,0.001 -0.001,0.001c-0.235,1.56 0.222,3.145 1.251,4.341c1.029,1.196 2.529,1.884 4.106,1.884c31.321,0 170.072,0 200.501,0c3.38,0 6.234,-2.512 6.664,-5.865c0,0 0,0 0,-0.001Z" style="fill:none;stroke:#000;stroke-width:3px;"/><rect x="157.676" y="131.267" width="186.299" height="49.308" style="fill:none;stroke:#000;stroke-width:3px;"/><path d="M292.919,189.377l0.057,0.004l0.057,0.007l0.056,0.01l0.055,0.014l0.055,0.016l0.054,0.02l0.052,0.023l0.051,0.025l0.05,0.029l0.047,0.031l0.046,0.034l0.044,0.037l0.042,0.039l0.039,0.041l7.576,8.402l0.037,0.044l0.035,0.045l0.032,0.048l0.029,0.049l0.026,0.051l0.023,0.052l0.02,0.053l0.018,0.055l0.014,0.055l0.01,0.056l0.008,0.057l0.004,0.057l0.002,0.057l-0.003,0.057l-0.005,0.057l-0.009,0.056l-0.011,0.056l-0.015,0.055l-0.019,0.054l-0.021,0.053l-0.024,0.052l-0.027,0.05l-0.03,0.049l-0.033,0.047l-0.035,0.045l-0.038,0.043l-0.04,0.04l-0.042,0.039l-0.045,0.035l-0.046,0.033l-0.049,0.031l-0.05,0.028l-0.051,0.024l-0.053,0.022l-0.054,0.019l-0.055,0.015l-0.055,0.013l-0.057,0.009l-0.057,0.006l-0.057,0.003l-0.057,-0.001l-0.057,-0.003l-0.056,-0.007l-0.057,-0.011l-0.055,-0.013l-0.055,-0.017l-0.053,-0.019l-0.053,-0.023l-0.051,-0.026l-0.049,-0.028l-0.048,-0.031l-0.046,-0.034l-0.044,-0.037l-0.042,-0.039l-0.039,-0.041l-7.576,-8.403l-0.037,-0.043l-0.035,-0.046l-0.031,-0.047l-0.029,-0.049l-0.027,-0.051l-0.023,-0.052l-0.02,-0.054l-0.017,-0.054l-0.014,-0.055l-0.011,-0.056l-0.008,-0.057l-0.004,-0.057l-0.001,-0.057l0.002,-0.057l0.005,-0.057l0.009,-0.057l0.012,-0.055l0.015,-0.055l0.018,-0.055l0.021,-0.053l0.024,-0.051l0.027,-0.051l0.03,-0.048l0.033,-0.047l0.035,-0.045l0.038,-0.043l0.04,-0.041l0.042,-0.038l0.045,-0.036l0.046,-0.033l0.049,-0.03l0.05,-0.028l0.051,-0.025l0.053,-0.021l0.054,-0.019l0.055,-0.016l0.056,-0.012l0.056,-0.009l0.057,-0.006l0.057,-0.003l0.057,0Z"/><path d="M306.763,204.716l0.087,0.009l0.086,0.015l0.084,0.024l0.081,0.03l0.079,0.038l0.075,0.044l0.071,0.05l0.067,0.057l0.061,0.062l17.324,19.214l0.056,0.067l0.049,0.072l0.043,0.076l0.036,0.079l0.029,0.082l0.022,0.085l0.015,0.086l0.007,0.087l-0.001,0.087l-0.008,0.087l-0.016,0.086l-0.023,0.084l-0.031,0.082l-0.037,0.078l-0.045,0.076l-0.05,0.071l-0.057,0.066l-0.062,0.061l-0.067,0.056l-0.072,0.049l-0.076,0.043l-0.079,0.036l-0.083,0.03l-0.084,0.021l-0.086,0.015l-0.087,0.007l-0.087,-0.001l-0.087,-0.008l-0.086,-0.016l-0.084,-0.023l-0.082,-0.031l-0.079,-0.037l-0.075,-0.044l-0.071,-0.051l-0.066,-0.057l-0.061,-0.062l-17.324,-19.213l-0.056,-0.068l-0.049,-0.072l-0.043,-0.075l-0.037,-0.08l-0.029,-0.082l-0.022,-0.085l-0.014,-0.086l-0.007,-0.086l0.001,-0.088l0.008,-0.087l0.016,-0.085l0.023,-0.084l0.031,-0.082l0.037,-0.079l0.044,-0.075l0.051,-0.071l0.056,-0.067l0.063,-0.061l0.067,-0.055l0.072,-0.05l0.076,-0.043l0.079,-0.036l0.082,-0.029l0.085,-0.022l0.086,-0.015l0.087,-0.006l0.087,0Z"/><path d="M227.507,264.019l0.13,0.017l0.128,0.028l0.125,0.039l0.121,0.049l0.116,0.06l0.11,0.07l0.104,0.08l0.097,0.088l0.089,0.096l0.08,0.104l0.071,0.11l0.06,0.116l0.051,0.12l0.039,0.125l0.029,0.128l0.018,0.13l0.006,0.13l-0.006,0.131l-0.016,0.13l-0.028,0.128l-0.039,0.125l-0.05,0.121l-0.06,0.116l-0.07,0.11l-0.079,0.104l-0.088,0.097l-0.097,0.089l-29.303,24.739l-0.104,0.08l-0.11,0.071l-0.116,0.061l-0.121,0.05l-0.124,0.04l-0.128,0.029l-0.13,0.017l-0.13,0.006l-0.131,-0.005l-0.13,-0.017l-0.128,-0.028l-0.125,-0.039l-0.121,-0.049l-0.116,-0.06l-0.11,-0.07l-0.105,-0.08l-0.096,-0.088l-0.089,-0.096l-0.08,-0.104l-0.071,-0.11l-0.06,-0.116l-0.051,-0.12l-0.04,-0.125l-0.028,-0.128l-0.018,-0.129l-0.006,-0.131l0.006,-0.131l0.016,-0.13l0.028,-0.128l0.039,-0.125l0.05,-0.121l0.06,-0.116l0.07,-0.11l0.079,-0.104l0.088,-0.097l0.097,-0.089l29.303,-24.739l0.104,-0.08l0.11,-0.071l0.116,-0.061l0.12,-0.05l0.125,-0.04l0.128,-0.029l0.13,-0.017l0.13,-0.006l0.131,0.005Z"/><path d="M263.307,234.393l0.103,0.02l0.1,0.031l0.097,0.041l0.091,0.051l0.086,0.06l0.079,0.068l0.071,0.077l0.063,0.083l0.054,0.09l0.045,0.095l0.034,0.099l0.023,0.102l0.013,0.104l0.002,0.104l-0.009,0.105l-0.02,0.102l-0.031,0.101l-0.041,0.096l-0.05,0.091l-0.06,0.086l-0.069,0.079l-0.077,0.072l-27.995,23.502l-0.084,0.063l-0.089,0.054l-0.095,0.044l-0.099,0.034l-0.102,0.023l-0.104,0.013l-0.105,0.002l-0.104,-0.009l-0.103,-0.02l-0.1,-0.031l-0.096,-0.04l-0.092,-0.051l-0.085,-0.06l-0.079,-0.069l-0.072,-0.076l-0.063,-0.084l-0.054,-0.09l-0.044,-0.094l-0.034,-0.099l-0.024,-0.102l-0.013,-0.104l-0.001,-0.105l0.009,-0.104l0.02,-0.103l0.03,-0.1l0.041,-0.096l0.051,-0.092l0.06,-0.086l0.069,-0.079l0.076,-0.071l27.995,-23.502l0.084,-0.063l0.09,-0.054l0.095,-0.044l0.099,-0.034l0.102,-0.024l0.103,-0.013l0.105,-0.002l0.104,0.009Z"/><path d="M299.464,203.803l0.127,0.014l0.125,0.025l0.122,0.036l0.119,0.045l0.114,0.056l0.11,0.065l0.103,0.074l0.097,0.082l0.09,0.091l0.082,0.097l0.073,0.105l0.063,0.11l0.055,0.115l0.044,0.119l0.034,0.123l0.024,0.125l0.013,0.127l0.002,0.127l-0.009,0.127l-0.02,0.126l-0.03,0.124l-0.04,0.121l-0.051,0.116l-0.06,0.113l-0.07,0.106l-0.078,0.101l-0.087,0.093l-0.094,0.085l-28.358,23.664l-0.101,0.077l-0.108,0.068l-0.112,0.06l-0.118,0.049l-0.121,0.039l-0.124,0.029l-0.126,0.018l-0.127,0.008l-0.127,-0.004l-0.127,-0.014l-0.125,-0.025l-0.122,-0.035l-0.119,-0.045l-0.114,-0.056l-0.11,-0.065l-0.103,-0.074l-0.097,-0.083l-0.09,-0.09l-0.082,-0.098l-0.073,-0.104l-0.063,-0.11l-0.055,-0.115l-0.044,-0.12l-0.034,-0.122l-0.024,-0.126l-0.013,-0.126l-0.002,-0.128l0.009,-0.127l0.02,-0.125l0.03,-0.124l0.04,-0.121l0.051,-0.117l0.06,-0.112l0.07,-0.106l0.078,-0.101l0.087,-0.093l0.094,-0.086l28.358,-23.663l0.101,-0.077l0.108,-0.069l0.112,-0.059l0.118,-0.049l0.121,-0.04l0.124,-0.028l0.126,-0.019l0.127,-0.007l0.127,0.003Z"/><path d="M282.065,328.513l0.126,0.018l0.124,0.029l0.121,0.039l0.118,0.049l0.113,0.059l0.107,0.068l0.101,0.077l0.095,0.085l0.087,0.093l0.079,0.1l0.069,0.107l0.061,0.112l0.051,0.116l0.041,0.121l0.03,0.124l0.02,0.125l0.009,0.127l-0.001,0.128l-0.013,0.126l-0.023,0.126l-0.034,0.122l-0.044,0.12l-0.054,0.115l-0.063,0.111l-0.073,0.104l-0.081,0.098l-0.09,0.091l-0.096,0.083l-28.44,22.351l-0.104,0.074l-0.109,0.065l-0.114,0.056l-0.119,0.046l-0.122,0.036l-0.125,0.025l-0.127,0.014l-0.127,0.004l-0.127,-0.007l-0.126,-0.018l-0.124,-0.028l-0.121,-0.039l-0.118,-0.049l-0.113,-0.059l-0.107,-0.068l-0.102,-0.077l-0.094,-0.086l-0.087,-0.093l-0.079,-0.1l-0.07,-0.106l-0.06,-0.112l-0.051,-0.117l-0.041,-0.12l-0.031,-0.124l-0.019,-0.126l-0.01,-0.127l0.002,-0.127l0.013,-0.127l0.023,-0.125l0.033,-0.123l0.044,-0.119l0.054,-0.116l0.064,-0.11l0.073,-0.104l0.081,-0.098l0.089,-0.091l0.097,-0.083l28.44,-22.351l0.103,-0.074l0.11,-0.066l0.114,-0.056l0.119,-0.045l0.122,-0.036l0.125,-0.025l0.126,-0.015l0.128,-0.004l0.127,0.007Z"/><path d="M301.894,313.35l0.066,0.009l0.066,0.012l0.065,0.017l0.063,0.021l0.062,0.026l0.06,0.029l0.058,0.034l0.055,0.037l0.053,0.041l0.05,0.044l0.047,0.047l0.044,0.051l0.04,0.053l0.037,0.056l0.033,0.058l0.028,0.061l0.025,0.062l0.021,0.063l0.016,0.065l0.012,0.066l0.007,0.066l0.003,0.067l-0.001,0.067l-0.006,0.067l-0.011,0.066l-0.014,0.065l-0.02,0.064l-0.023,0.062l-0.027,0.061l-0.032,0.059l-0.035,0.057l-0.039,0.054l-0.043,0.052l-0.046,0.048l-0.049,0.046l-0.052,0.042l-11.608,8.757l-0.054,0.038l-0.057,0.035l-0.06,0.031l-0.061,0.027l-0.063,0.022l-0.064,0.019l-0.065,0.014l-0.067,0.009l-0.066,0.006l-0.067,0l-0.067,-0.003l-0.066,-0.009l-0.066,-0.012l-0.064,-0.017l-0.064,-0.021l-0.062,-0.026l-0.06,-0.029l-0.057,-0.033l-0.056,-0.038l-0.053,-0.041l-0.05,-0.044l-0.047,-0.047l-0.044,-0.051l-0.04,-0.053l-0.036,-0.056l-0.033,-0.058l-0.029,-0.061l-0.025,-0.062l-0.02,-0.063l-0.017,-0.065l-0.011,-0.066l-0.008,-0.066l-0.003,-0.067l0.002,-0.067l0.006,-0.066l0.01,-0.066l0.015,-0.066l0.019,-0.064l0.023,-0.062l0.028,-0.061l0.031,-0.059l0.035,-0.057l0.039,-0.054l0.043,-0.052l0.046,-0.048l0.049,-0.046l0.052,-0.042l11.608,-8.757l0.055,-0.038l0.057,-0.035l0.059,-0.031l0.061,-0.027l0.063,-0.022l0.064,-0.019l0.066,-0.014l0.066,-0.009l0.066,-0.006l0.067,0l0.067,0.003Z"/><path d="M317.574,189.379l0.064,0.007l0.063,0.01l0.063,0.015l0.061,0.018l0.06,0.022l0.058,0.027l0.057,0.03l0.055,0.033l0.052,0.037l0.05,0.04l0.047,0.044l0.045,0.046l0.041,0.049l0.038,0.051l0.035,0.054l0.031,0.056l0.028,0.058l0.024,0.06l0.019,0.061l0.016,0.062l0.012,0.063l0.008,0.063l0.004,0.064l0,0.064l-0.005,0.064l-0.008,0.064l-0.013,0.063l-0.016,0.062l-0.021,0.06l-0.024,0.06l-0.028,0.057l-0.032,0.056l-0.035,0.054l-0.038,0.051l-0.042,0.048l-0.045,0.046l-0.048,0.043l-10.541,8.893l-0.051,0.039l-0.052,0.037l-0.055,0.033l-0.057,0.029l-0.059,0.026l-0.06,0.022l-0.062,0.018l-0.062,0.014l-0.064,0.01l-0.064,0.005l-0.064,0.002l-0.064,-0.002l-0.064,-0.007l-0.063,-0.01l-0.062,-0.015l-0.062,-0.018l-0.06,-0.023l-0.058,-0.026l-0.057,-0.03l-0.054,-0.033l-0.053,-0.037l-0.05,-0.04l-0.047,-0.044l-0.044,-0.046l-0.042,-0.049l-0.038,-0.051l-0.035,-0.054l-0.031,-0.056l-0.027,-0.058l-0.024,-0.06l-0.02,-0.061l-0.016,-0.062l-0.012,-0.063l-0.008,-0.063l-0.004,-0.064l0.001,-0.064l0.004,-0.064l0.008,-0.064l0.013,-0.063l0.016,-0.062l0.021,-0.06l0.024,-0.06l0.028,-0.057l0.032,-0.056l0.035,-0.054l0.039,-0.051l0.042,-0.048l0.044,-0.046l0.048,-0.043l10.542,-8.893l0.05,-0.039l0.053,-0.037l0.055,-0.033l0.057,-0.029l0.058,-0.026l0.061,-0.022l0.061,-0.018l0.063,-0.014l0.063,-0.01l0.064,-0.006l0.064,-0.001l0.064,0.002Z"/><path d="M241.778,201.235l0.1,0.011l0.099,0.021l0.097,0.031l0.093,0.04l0.088,0.05l0.083,0.058l0.076,0.066l0.07,0.074l22.21,26.155l0.062,0.08l0.053,0.086l0.044,0.091l0.035,0.096l0.024,0.098l0.015,0.1l0.005,0.101l-0.006,0.101l-0.016,0.1l-0.026,0.098l-0.035,0.095l-0.045,0.091l-0.054,0.085l-0.063,0.08l-0.07,0.073l-0.077,0.066l-0.084,0.057l-0.089,0.049l-0.093,0.039l-0.097,0.03l-0.099,0.02l-0.101,0.01l-0.101,-0.001l-0.101,-0.011l-0.099,-0.02l-0.096,-0.031l-0.093,-0.041l-0.089,-0.049l-0.082,-0.059l-0.077,-0.066l-0.069,-0.074l-22.211,-26.154l-0.061,-0.081l-0.053,-0.086l-0.044,-0.091l-0.035,-0.095l-0.025,-0.098l-0.015,-0.101l-0.004,-0.101l0.005,-0.101l0.016,-0.1l0.026,-0.098l0.036,-0.095l0.045,-0.09l0.054,-0.086l0.062,-0.08l0.071,-0.073l0.077,-0.065l0.083,-0.058l0.089,-0.049l0.093,-0.039l0.097,-0.03l0.099,-0.02l0.101,-0.009l0.102,0Z"/><path d="M231.623,189.31l0.041,0.002l0.041,0.004l0.041,0.005l0.041,0.007l0.041,0.009l0.039,0.011l0.04,0.012l0.039,0.014l0.038,0.015l0.038,0.017l0.037,0.019l0.036,0.02l0.035,0.021l0.035,0.023l0.033,0.025l0.032,0.025l0.032,0.027l0.03,0.029l0.029,0.029l0.028,0.031l3.702,4.279l0.027,0.032l0.025,0.033l0.023,0.034l0.023,0.034l0.02,0.036l0.02,0.037l0.017,0.037l0.017,0.038l0.014,0.039l0.013,0.039l0.012,0.04l0.009,0.04l0.009,0.04l0.006,0.041l0.005,0.041l0.003,0.041l0.001,0.042l0,0.041l-0.003,0.041l-0.003,0.041l-0.006,0.041l-0.007,0.041l-0.009,0.041l-0.011,0.039l-0.012,0.04l-0.014,0.039l-0.015,0.038l-0.017,0.038l-0.019,0.037l-0.02,0.036l-0.021,0.035l-0.023,0.035l-0.024,0.033l-0.026,0.032l-0.027,0.032l-0.028,0.03l-0.03,0.029l-0.031,0.028l-0.031,0.026l-0.033,0.025l-0.034,0.024l-0.035,0.022l-0.036,0.021l-0.036,0.019l-0.038,0.018l-0.038,0.016l-0.038,0.015l-0.04,0.013l-0.039,0.011l-0.04,0.01l-0.041,0.008l-0.041,0.006l-0.041,0.005l-0.041,0.003l-0.041,0.001l-0.042,0l-0.041,-0.002l-0.041,-0.004l-0.041,-0.006l-0.041,-0.007l-0.04,-0.009l-0.04,-0.01l-0.04,-0.012l-0.039,-0.014l-0.038,-0.016l-0.038,-0.017l-0.037,-0.018l-0.036,-0.02l-0.035,-0.022l-0.034,-0.023l-0.034,-0.024l-0.032,-0.026l-0.031,-0.027l-0.031,-0.028l-0.028,-0.03l-0.028,-0.03l-3.703,-4.279l-0.026,-0.032l-0.025,-0.033l-0.024,-0.034l-0.022,-0.035l-0.021,-0.035l-0.019,-0.037l-0.018,-0.037l-0.016,-0.038l-0.015,-0.039l-0.013,-0.039l-0.011,-0.04l-0.01,-0.04l-0.008,-0.041l-0.007,-0.041l-0.004,-0.041l-0.003,-0.041l-0.002,-0.041l0.001,-0.041l0.002,-0.042l0.004,-0.041l0.005,-0.041l0.007,-0.041l0.009,-0.04l0.011,-0.04l0.012,-0.039l0.014,-0.039l0.015,-0.039l0.017,-0.037l0.019,-0.037l0.02,-0.036l0.021,-0.036l0.023,-0.034l0.025,-0.034l0.025,-0.032l0.027,-0.031l0.029,-0.03l0.029,-0.029l0.031,-0.028l0.032,-0.026l0.033,-0.025l0.034,-0.024l0.034,-0.022l0.036,-0.021l0.037,-0.019l0.037,-0.018l0.038,-0.016l0.039,-0.015l0.039,-0.013l0.04,-0.011l0.04,-0.01l0.04,-0.008l0.041,-0.007l0.041,-0.004l0.041,-0.003l0.042,-0.002l0.041,0.001Z"/><path d="M270.493,234.893l0.097,0.013l0.095,0.023l0.093,0.032l0.089,0.041l0.085,0.049l0.08,0.058l0.073,0.065l0.067,0.072l20.694,24.577l0.06,0.078l0.051,0.084l0.043,0.088l0.034,0.092l0.025,0.095l0.016,0.096l0.006,0.098l-0.004,0.098l-0.013,0.098l-0.022,0.095l-0.032,0.093l-0.041,0.089l-0.049,0.085l-0.058,0.08l-0.065,0.073l-0.072,0.067l-0.078,0.059l-0.083,0.052l-0.089,0.043l-0.092,0.034l-0.094,0.025l-0.097,0.016l-0.098,0.006l-0.098,-0.004l-0.098,-0.013l-0.095,-0.022l-0.093,-0.032l-0.089,-0.041l-0.085,-0.05l-0.079,-0.057l-0.074,-0.065l-0.067,-0.072l-20.694,-24.577l-0.059,-0.078l-0.052,-0.084l-0.043,-0.088l-0.034,-0.092l-0.025,-0.095l-0.016,-0.097l-0.006,-0.098l0.004,-0.098l0.013,-0.097l0.023,-0.096l0.032,-0.092l0.04,-0.09l0.05,-0.084l0.057,-0.08l0.065,-0.073l0.072,-0.067l0.078,-0.06l0.084,-0.051l0.088,-0.043l0.092,-0.035l0.095,-0.025l0.097,-0.015l0.098,-0.006l0.098,0.003Z"/><path d="M262.621,297.807l0.097,0.013l0.096,0.022l0.093,0.031l0.089,0.041l0.085,0.049l0.08,0.057l0.074,0.064l0.067,0.072l20.653,24.3l0.06,0.078l0.052,0.083l0.043,0.088l0.035,0.092l0.026,0.095l0.016,0.096l0.006,0.098l-0.003,0.098l-0.013,0.098l-0.022,0.095l-0.031,0.093l-0.041,0.09l-0.049,0.085l-0.057,0.08l-0.065,0.073l-0.071,0.068l-0.078,0.059l-0.083,0.052l-0.088,0.044l-0.092,0.034l-0.095,0.026l-0.097,0.016l-0.098,0.006l-0.098,-0.003l-0.097,-0.012l-0.095,-0.023l-0.093,-0.031l-0.09,-0.041l-0.085,-0.049l-0.08,-0.057l-0.074,-0.064l-0.067,-0.072l-20.653,-24.3l-0.06,-0.078l-0.051,-0.083l-0.044,-0.088l-0.035,-0.092l-0.025,-0.094l-0.016,-0.097l-0.007,-0.098l0.003,-0.098l0.013,-0.098l0.022,-0.095l0.032,-0.093l0.04,-0.09l0.049,-0.085l0.057,-0.079l0.065,-0.074l0.072,-0.067l0.077,-0.06l0.084,-0.052l0.088,-0.044l0.091,-0.034l0.095,-0.026l0.097,-0.016l0.098,-0.006l0.098,0.003Z"/><path d="M289.64,329.009l0.061,0.006l0.061,0.011l0.06,0.014l0.059,0.017l0.058,0.022l0.056,0.024l0.055,0.029l0.053,0.031l0.051,0.035l0.048,0.037l0.047,0.041l0.043,0.044l0.041,0.046l8.127,9.743l0.038,0.049l0.035,0.051l0.032,0.052l0.028,0.055l0.025,0.056l0.021,0.058l0.018,0.059l0.015,0.06l0.01,0.061l0.007,0.061l0.003,0.061l-0.001,0.062l-0.005,0.061l-0.008,0.061l-0.012,0.061l-0.016,0.059l-0.019,0.059l-0.023,0.057l-0.027,0.056l-0.03,0.053l-0.033,0.052l-0.036,0.05l-0.039,0.048l-0.042,0.045l-0.045,0.042l-0.048,0.039l-0.049,0.037l-0.052,0.033l-0.054,0.03l-0.055,0.027l-0.057,0.023l-0.059,0.02l-0.059,0.016l-0.06,0.012l-0.061,0.009l-0.062,0.005l-0.061,0.001l-0.062,-0.003l-0.061,-0.006l-0.061,-0.011l-0.06,-0.014l-0.059,-0.017l-0.058,-0.021l-0.056,-0.025l-0.055,-0.028l-0.053,-0.032l-0.051,-0.035l-0.048,-0.037l-0.046,-0.041l-0.044,-0.043l-0.041,-0.047l-8.127,-9.743l-0.038,-0.049l-0.035,-0.051l-0.031,-0.052l-0.029,-0.055l-0.025,-0.056l-0.021,-0.058l-0.018,-0.059l-0.014,-0.06l-0.011,-0.061l-0.007,-0.061l-0.003,-0.061l0.001,-0.062l0.005,-0.061l0.008,-0.061l0.012,-0.061l0.016,-0.059l0.019,-0.059l0.023,-0.057l0.027,-0.055l0.03,-0.054l0.033,-0.052l0.036,-0.05l0.039,-0.047l0.043,-0.045l0.044,-0.043l0.048,-0.039l0.049,-0.037l0.052,-0.033l0.054,-0.03l0.055,-0.027l0.057,-0.023l0.059,-0.02l0.059,-0.016l0.06,-0.012l0.061,-0.009l0.062,-0.005l0.061,-0.001l0.062,0.003Z"/><path d="M234.79,264.518l0.097,0.013l0.095,0.023l0.093,0.032l0.089,0.042l0.085,0.049l0.079,0.058l0.073,0.065l0.067,0.072l20.689,24.74l0.059,0.078l0.051,0.084l0.043,0.088l0.034,0.092l0.025,0.095l0.015,0.097l0.006,0.098l-0.004,0.098l-0.014,0.097l-0.023,0.096l-0.032,0.092l-0.041,0.089l-0.05,0.085l-0.057,0.079l-0.066,0.074l-0.072,0.066l-0.078,0.06l-0.084,0.051l-0.088,0.043l-0.092,0.033l-0.095,0.025l-0.097,0.015l-0.098,0.006l-0.098,-0.004l-0.097,-0.013l-0.096,-0.023l-0.092,-0.032l-0.089,-0.042l-0.085,-0.049l-0.079,-0.058l-0.074,-0.065l-0.066,-0.072l-20.689,-24.74l-0.059,-0.078l-0.052,-0.084l-0.042,-0.088l-0.034,-0.092l-0.025,-0.095l-0.015,-0.097l-0.006,-0.098l0.004,-0.098l0.013,-0.097l0.023,-0.096l0.032,-0.092l0.042,-0.089l0.049,-0.085l0.058,-0.079l0.065,-0.074l0.072,-0.066l0.079,-0.059l0.083,-0.052l0.089,-0.042l0.092,-0.034l0.095,-0.025l0.097,-0.015l0.098,-0.006l0.098,0.004Z"/><path d="M206.538,230.735l0.097,0.013l0.096,0.023l0.092,0.033l0.089,0.041l0.085,0.049l0.079,0.058l0.074,0.065l0.066,0.072l21.193,25.342l0.059,0.079l0.051,0.083l0.043,0.089l0.034,0.092l0.025,0.095l0.015,0.097l0.006,0.098l-0.004,0.098l-0.014,0.097l-0.023,0.095l-0.032,0.093l-0.041,0.089l-0.05,0.085l-0.057,0.079l-0.066,0.073l-0.072,0.067l-0.078,0.059l-0.084,0.051l-0.088,0.043l-0.092,0.034l-0.095,0.025l-0.097,0.015l-0.098,0.006l-0.098,-0.004l-0.097,-0.014l-0.096,-0.023l-0.092,-0.032l-0.089,-0.041l-0.085,-0.05l-0.079,-0.057l-0.074,-0.066l-0.066,-0.072l-21.193,-25.341l-0.059,-0.079l-0.051,-0.083l-0.043,-0.089l-0.034,-0.092l-0.025,-0.095l-0.015,-0.097l-0.006,-0.098l0.004,-0.098l0.014,-0.097l0.023,-0.095l0.032,-0.093l0.041,-0.089l0.05,-0.085l0.057,-0.079l0.066,-0.074l0.072,-0.066l0.078,-0.059l0.084,-0.052l0.088,-0.042l0.092,-0.034l0.095,-0.025l0.097,-0.015l0.098,-0.006l0.098,0.004Z"/><path d="M172.098,189.715l0.111,0.015l0.109,0.029l0.105,0.04l0.099,0.052l0.093,0.062l0.086,0.073l0.077,0.081l27.254,32.432l0.068,0.09l0.056,0.097l0.046,0.102l0.034,0.107l0.021,0.11l0.009,0.112l-0.003,0.112l-0.016,0.111l-0.028,0.108l-0.04,0.105l-0.052,0.1l-0.063,0.093l-0.072,0.085l-0.082,0.077l-0.09,0.067l-0.096,0.057l-0.103,0.046l-0.107,0.033l-0.11,0.022l-0.111,0.009l-0.113,-0.003l-0.111,-0.016l-0.108,-0.029l-0.105,-0.04l-0.099,-0.051l-0.093,-0.063l-0.086,-0.073l-0.077,-0.081l-27.255,-32.432l-0.067,-0.09l-0.057,-0.096l-0.045,-0.103l-0.034,-0.107l-0.021,-0.11l-0.01,-0.112l0.004,-0.112l0.016,-0.111l0.028,-0.108l0.04,-0.105l0.052,-0.099l0.062,-0.093l0.073,-0.086l0.082,-0.077l0.089,-0.067l0.097,-0.057l0.103,-0.045l0.107,-0.034l0.11,-0.022l0.111,-0.009l0.112,0.004Z"/><path d="M198.506,230.762l0.068,0.008l0.067,0.012l0.066,0.017l0.065,0.021l0.063,0.026l0.061,0.03l0.059,0.034l0.057,0.039l0.054,0.042l0.051,0.045l0.047,0.049l0.045,0.052l0.04,0.055l0.037,0.057l0.033,0.06l0.028,0.062l0.025,0.064l0.019,0.066l0.016,0.066l0.011,0.067l0.006,0.068l0.001,0.069l-0.003,0.068l-0.008,0.068l-0.012,0.067l-0.017,0.066l-0.022,0.065l-0.026,0.063l-0.03,0.061l-0.034,0.059l-0.038,0.057l-0.042,0.054l-0.045,0.051l-0.049,0.048l-0.052,0.044l-12.105,9.602l-0.054,0.041l-0.058,0.037l-0.06,0.033l-0.062,0.028l-0.064,0.024l-0.065,0.02l-0.067,0.016l-0.067,0.01l-0.068,0.007l-0.068,0.001l-0.069,-0.003l-0.067,-0.008l-0.068,-0.012l-0.066,-0.017l-0.064,-0.022l-0.064,-0.026l-0.061,-0.03l-0.059,-0.034l-0.057,-0.038l-0.054,-0.042l-0.051,-0.046l-0.047,-0.048l-0.044,-0.052l-0.041,-0.055l-0.037,-0.058l-0.033,-0.06l-0.028,-0.062l-0.024,-0.064l-0.02,-0.065l-0.016,-0.067l-0.01,-0.067l-0.006,-0.068l-0.002,-0.068l0.003,-0.068l0.008,-0.068l0.012,-0.067l0.017,-0.067l0.022,-0.064l0.026,-0.064l0.03,-0.061l0.034,-0.059l0.038,-0.057l0.042,-0.054l0.046,-0.05l0.048,-0.048l0.052,-0.044l12.105,-9.603l0.055,-0.041l0.057,-0.036l0.06,-0.033l0.062,-0.029l0.064,-0.024l0.065,-0.02l0.067,-0.015l0.067,-0.011l0.068,-0.006l0.069,-0.001l0.068,0.003Z"/><path d="M235.217,199.965l0.126,0.015l0.125,0.025l0.122,0.036l0.119,0.046l0.114,0.057l0.11,0.065l0.103,0.075l0.096,0.083l0.089,0.091l0.081,0.098l0.073,0.105l0.063,0.11l0.054,0.115l0.044,0.12l0.033,0.123l0.023,0.125l0.012,0.127l0.002,0.127l-0.01,0.127l-0.02,0.126l-0.031,0.123l-0.041,0.121l-0.051,0.117l-0.061,0.111l-0.07,0.107l-0.079,0.1l-0.087,0.092l-0.094,0.086l-27.875,23.023l-0.101,0.077l-0.108,0.068l-0.113,0.058l-0.118,0.049l-0.121,0.039l-0.124,0.028l-0.126,0.017l-0.127,0.007l-0.128,-0.004l-0.126,-0.014l-0.125,-0.026l-0.122,-0.036l-0.119,-0.046l-0.114,-0.056l-0.109,-0.066l-0.103,-0.074l-0.097,-0.083l-0.089,-0.091l-0.081,-0.098l-0.073,-0.105l-0.063,-0.11l-0.054,-0.116l-0.043,-0.119l-0.034,-0.123l-0.023,-0.126l-0.012,-0.126l-0.001,-0.128l0.009,-0.127l0.02,-0.125l0.031,-0.124l0.041,-0.12l0.051,-0.117l0.061,-0.112l0.07,-0.106l0.079,-0.1l0.087,-0.093l0.095,-0.085l27.874,-23.023l0.102,-0.077l0.107,-0.068l0.113,-0.059l0.118,-0.049l0.121,-0.038l0.125,-0.028l0.126,-0.018l0.127,-0.007l0.127,0.004Z"/><path d="M248.693,189.247l0.052,0.005l0.051,0.008l0.05,0.011l0.05,0.013l0.049,0.015l0.048,0.019l0.047,0.02l0.046,0.023l0.045,0.026l0.044,0.027l0.042,0.03l0.04,0.032l0.039,0.034l0.037,0.036l0.034,0.038l0.033,0.039l0.031,0.041l0.029,0.043l0.027,0.044l0.024,0.046l0.022,0.046l0.019,0.048l0.017,0.049l0.015,0.049l0.011,0.05l0.01,0.051l0.006,0.051l0.004,0.051l0.002,0.052l-0.002,0.051l-0.004,0.051l-0.006,0.052l-0.01,0.05l-0.011,0.05l-0.015,0.05l-0.017,0.048l-0.019,0.048l-0.022,0.047l-0.024,0.045l-0.027,0.044l-0.028,0.043l-0.031,0.041l-0.033,0.04l-0.035,0.038l-0.037,0.036l-0.039,0.034l-6.649,5.55l-0.04,0.032l-0.042,0.03l-0.044,0.028l-0.045,0.025l-0.046,0.023l-0.047,0.021l-0.048,0.018l-0.049,0.016l-0.05,0.013l-0.05,0.01l-0.051,0.008l-0.051,0.005l-0.052,0.003l-0.051,0l-0.052,-0.002l-0.051,-0.006l-0.051,-0.008l-0.05,-0.01l-0.05,-0.013l-0.049,-0.016l-0.048,-0.018l-0.047,-0.021l-0.046,-0.023l-0.045,-0.025l-0.044,-0.028l-0.042,-0.029l-0.04,-0.032l-0.039,-0.034l-0.037,-0.036l-0.035,-0.038l-0.033,-0.04l-0.031,-0.041l-0.028,-0.043l-0.027,-0.044l-0.024,-0.045l-0.022,-0.047l-0.019,-0.047l-0.017,-0.049l-0.015,-0.05l-0.012,-0.05l-0.009,-0.05l-0.006,-0.051l-0.004,-0.052l-0.002,-0.051l0.002,-0.052l0.004,-0.051l0.006,-0.051l0.009,-0.051l0.012,-0.05l0.015,-0.049l0.016,-0.049l0.02,-0.048l0.022,-0.046l0.024,-0.046l0.026,-0.044l0.029,-0.043l0.031,-0.041l0.033,-0.039l0.035,-0.038l0.037,-0.036l0.038,-0.034l6.65,-5.551l0.04,-0.032l0.042,-0.03l0.044,-0.027l0.044,-0.026l0.046,-0.023l0.048,-0.02l0.048,-0.018l0.049,-0.016l0.05,-0.013l0.05,-0.011l0.051,-0.008l0.051,-0.005l0.052,-0.003l0.051,0l0.051,0.003Z"/><path d="M298.309,267.745l0.057,0.006l0.056,0.008l0.056,0.012l0.055,0.016l0.054,0.018l0.053,0.021l0.052,0.024l0.05,0.028l0.049,0.03l0.047,0.032l0.044,0.036l0.043,0.038l0.041,0.04l0.038,0.042l6.961,8.211l0.035,0.045l0.033,0.047l0.031,0.048l0.027,0.05l0.025,0.052l0.022,0.052l0.018,0.054l0.016,0.055l0.012,0.056l0.009,0.056l0.006,0.057l0.003,0.057l-0.001,0.057l-0.004,0.057l-0.007,0.057l-0.01,0.056l-0.014,0.056l-0.017,0.054l-0.019,0.054l-0.023,0.052l-0.026,0.051l-0.028,0.05l-0.032,0.047l-0.034,0.046l-0.037,0.044l-0.039,0.042l-0.041,0.039l-0.044,0.037l-0.045,0.034l-0.048,0.032l-0.049,0.029l-0.051,0.026l-0.052,0.023l-0.053,0.02l-0.055,0.018l-0.055,0.013l-0.056,0.011l-0.057,0.008l-0.057,0.004l-0.057,0.001l-0.057,-0.002l-0.057,-0.006l-0.056,-0.008l-0.056,-0.012l-0.055,-0.016l-0.054,-0.018l-0.053,-0.021l-0.052,-0.024l-0.05,-0.028l-0.049,-0.03l-0.047,-0.032l-0.045,-0.036l-0.042,-0.038l-0.041,-0.04l-0.038,-0.042l-6.961,-8.211l-0.035,-0.045l-0.034,-0.047l-0.03,-0.048l-0.027,-0.05l-0.025,-0.052l-0.022,-0.052l-0.018,-0.054l-0.016,-0.055l-0.012,-0.056l-0.009,-0.056l-0.006,-0.057l-0.003,-0.057l0.001,-0.057l0.004,-0.057l0.007,-0.057l0.01,-0.056l0.014,-0.056l0.016,-0.054l0.02,-0.054l0.023,-0.052l0.026,-0.051l0.028,-0.05l0.032,-0.047l0.034,-0.046l0.036,-0.044l0.039,-0.042l0.042,-0.039l0.043,-0.037l0.046,-0.034l0.048,-0.032l0.049,-0.029l0.051,-0.026l0.052,-0.023l0.053,-0.02l0.055,-0.018l0.055,-0.013l0.056,-0.011l0.057,-0.008l0.057,-0.004l0.057,-0.001l0.057,0.002Z"/><path d="M197.757,292.862l0.098,0.011l0.096,0.021l0.093,0.03l0.09,0.039l0.086,0.048l0.08,0.056l0.075,0.063l0.068,0.071l21.929,25.026l0.061,0.077l0.053,0.083l0.045,0.087l0.036,0.091l0.027,0.095l0.018,0.096l0.008,0.098l-0.002,0.098l-0.011,0.098l-0.021,0.096l-0.03,0.093l-0.039,0.09l-0.048,0.086l-0.056,0.081l-0.063,0.074l-0.071,0.069l-0.077,0.061l-0.082,0.053l-0.088,0.044l-0.091,0.037l-0.094,0.026l-0.097,0.018l-0.098,0.008l-0.098,-0.002l-0.097,-0.011l-0.096,-0.021l-0.093,-0.03l-0.09,-0.039l-0.086,-0.048l-0.081,-0.055l-0.075,-0.064l-0.068,-0.071l-21.929,-25.026l-0.061,-0.077l-0.053,-0.082l-0.045,-0.088l-0.036,-0.091l-0.027,-0.094l-0.017,-0.097l-0.008,-0.098l0.001,-0.098l0.012,-0.097l0.02,-0.096l0.031,-0.094l0.039,-0.09l0.047,-0.085l0.056,-0.081l0.064,-0.075l0.07,-0.068l0.077,-0.061l0.083,-0.053l0.087,-0.045l0.091,-0.036l0.095,-0.027l0.096,-0.017l0.098,-0.008l0.098,0.001Z"/><path d="M226.478,326.148l0.097,0.015l0.095,0.025l0.092,0.033l0.089,0.043l0.084,0.051l0.078,0.059l0.072,0.066l0.066,0.073l20.446,25.214l0.058,0.08l0.05,0.084l0.042,0.089l0.032,0.093l0.023,0.095l0.014,0.097l0.004,0.098l-0.005,0.098l-0.015,0.097l-0.024,0.095l-0.034,0.092l-0.042,0.089l-0.051,0.084l-0.059,0.078l-0.067,0.072l-0.073,0.066l-0.079,0.058l-0.084,0.05l-0.089,0.041l-0.093,0.033l-0.095,0.023l-0.097,0.014l-0.098,0.004l-0.098,-0.005l-0.097,-0.015l-0.095,-0.025l-0.093,-0.033l-0.088,-0.043l-0.084,-0.051l-0.078,-0.058l-0.073,-0.067l-0.065,-0.073l-20.447,-25.214l-0.058,-0.079l-0.05,-0.085l-0.041,-0.089l-0.033,-0.092l-0.023,-0.096l-0.014,-0.097l-0.004,-0.098l0.006,-0.098l0.014,-0.097l0.025,-0.095l0.033,-0.092l0.043,-0.089l0.051,-0.084l0.059,-0.078l0.066,-0.072l0.073,-0.066l0.079,-0.058l0.085,-0.05l0.089,-0.041l0.092,-0.033l0.096,-0.023l0.097,-0.014l0.098,-0.004l0.098,0.005Z"/><path d="M219.097,325.022l0.076,0.01l0.074,0.016l0.074,0.022l0.071,0.028l0.07,0.033l0.066,0.038l0.063,0.043l0.06,0.047l0.056,0.053l0.052,0.056l0.048,0.06l0.042,0.064l0.038,0.066l0.033,0.07l0.027,0.072l0.021,0.073l0.016,0.075l0.01,0.076l0.004,0.076l-0.001,0.077l-0.008,0.076l-0.013,0.076l-0.019,0.074l-0.025,0.072l-0.03,0.071l-0.036,0.068l-0.04,0.065l-0.046,0.061l-0.05,0.058l-0.054,0.054l-0.058,0.05l-14.834,11.696l-0.062,0.045l-0.065,0.041l-0.068,0.035l-0.07,0.029l-0.073,0.025l-0.074,0.018l-0.076,0.013l-0.076,0.007l-0.077,0.002l-0.076,-0.005l-0.076,-0.01l-0.075,-0.017l-0.073,-0.021l-0.072,-0.028l-0.069,-0.033l-0.067,-0.038l-0.063,-0.043l-0.06,-0.048l-0.056,-0.052l-0.052,-0.056l-0.047,-0.06l-0.043,-0.064l-0.038,-0.067l-0.032,-0.069l-0.027,-0.072l-0.022,-0.073l-0.015,-0.075l-0.011,-0.076l-0.004,-0.077l0.002,-0.076l0.008,-0.076l0.013,-0.076l0.019,-0.074l0.025,-0.073l0.03,-0.07l0.035,-0.068l0.041,-0.065l0.045,-0.062l0.05,-0.058l0.055,-0.054l0.058,-0.049l14.833,-11.696l0.062,-0.045l0.065,-0.041l0.068,-0.035l0.071,-0.03l0.073,-0.024l0.074,-0.019l0.075,-0.013l0.077,-0.007l0.076,-0.001l0.077,0.005Z"/><path d="M254.732,295.911l0.103,0.021l0.099,0.032l0.096,0.042l0.091,0.052l0.085,0.061l0.078,0.07l0.071,0.077l0.062,0.084l0.052,0.091l0.043,0.095l0.033,0.1l0.023,0.102l0.011,0.104l0.001,0.105l-0.011,0.104l-0.021,0.102l-0.032,0.1l-0.042,0.096l-0.052,0.091l-0.061,0.085l-0.07,0.078l-0.077,0.07l-28.076,22.974l-0.084,0.062l-0.09,0.053l-0.096,0.043l-0.099,0.033l-0.102,0.022l-0.104,0.012l-0.105,0l-0.104,-0.01l-0.103,-0.021l-0.099,-0.032l-0.096,-0.042l-0.091,-0.052l-0.085,-0.061l-0.078,-0.07l-0.071,-0.077l-0.062,-0.085l-0.053,-0.09l-0.043,-0.095l-0.032,-0.1l-0.023,-0.102l-0.011,-0.104l-0.001,-0.105l0.011,-0.104l0.021,-0.102l0.032,-0.1l0.042,-0.096l0.052,-0.091l0.061,-0.085l0.069,-0.078l0.078,-0.07l28.075,-22.975l0.085,-0.062l0.09,-0.052l0.096,-0.043l0.099,-0.033l0.102,-0.023l0.104,-0.011l0.105,-0.001l0.104,0.011Z"/><path d="M291.168,265.754l0.13,0.018l0.127,0.03l0.124,0.041l0.12,0.052l0.116,0.062l0.109,0.072l0.103,0.081l0.095,0.09l0.087,0.097l0.079,0.105l0.068,0.111l0.059,0.117l0.049,0.122l0.037,0.125l0.027,0.128l0.015,0.13l0.004,0.131l-0.007,0.131l-0.019,0.129l-0.03,0.127l-0.041,0.125l-0.052,0.12l-0.062,0.115l-0.071,0.11l-0.082,0.102l-0.089,0.096l-0.098,0.087l-28.74,23.469l-0.105,0.078l-0.112,0.069l-0.117,0.059l-0.121,0.048l-0.125,0.038l-0.129,0.027l-0.129,0.015l-0.131,0.004l-0.131,-0.007l-0.129,-0.019l-0.128,-0.03l-0.124,-0.041l-0.12,-0.052l-0.116,-0.062l-0.109,-0.072l-0.103,-0.081l-0.095,-0.089l-0.087,-0.098l-0.078,-0.105l-0.069,-0.111l-0.059,-0.117l-0.048,-0.122l-0.038,-0.125l-0.027,-0.128l-0.015,-0.13l-0.004,-0.131l0.007,-0.131l0.019,-0.129l0.03,-0.127l0.041,-0.125l0.052,-0.12l0.062,-0.115l0.072,-0.11l0.081,-0.102l0.089,-0.096l0.098,-0.087l28.741,-23.469l0.105,-0.078l0.111,-0.069l0.117,-0.059l0.121,-0.048l0.126,-0.038l0.128,-0.027l0.13,-0.015l0.13,-0.004l0.131,0.008Z"/><path d="M310.851,250.437l0.071,0.006l0.07,0.01l0.07,0.016l0.068,0.021l0.067,0.025l0.065,0.03l0.062,0.035l0.06,0.039l0.057,0.043l0.054,0.047l0.05,0.05l0.046,0.055l0.043,0.057l0.038,0.06l0.034,0.063l0.029,0.065l0.025,0.067l0.019,0.069l0.015,0.07l0.01,0.071l0.004,0.071l0,0.071l-0.006,0.071l-0.01,0.071l-0.016,0.07l-0.02,0.068l-0.026,0.067l-0.03,0.064l-0.034,0.063l-0.039,0.06l-0.043,0.057l-0.047,0.053l-0.051,0.05l-0.054,0.047l-13.269,10.561l-0.057,0.043l-0.061,0.038l-0.063,0.034l-0.065,0.029l-0.067,0.025l-0.068,0.019l-0.07,0.015l-0.071,0.01l-0.071,0.004l-0.072,0l-0.071,-0.006l-0.07,-0.01l-0.07,-0.016l-0.068,-0.02l-0.067,-0.026l-0.065,-0.03l-0.062,-0.034l-0.06,-0.039l-0.057,-0.043l-0.054,-0.047l-0.05,-0.051l-0.046,-0.054l-0.043,-0.058l-0.038,-0.06l-0.034,-0.063l-0.029,-0.065l-0.025,-0.067l-0.019,-0.069l-0.015,-0.07l-0.01,-0.07l-0.004,-0.071l0,-0.072l0.006,-0.071l0.01,-0.071l0.016,-0.069l0.02,-0.069l0.026,-0.066l0.03,-0.065l0.034,-0.063l0.039,-0.059l0.043,-0.057l0.047,-0.054l0.051,-0.05l0.054,-0.047l13.269,-10.561l0.057,-0.042l0.061,-0.039l0.063,-0.033l0.065,-0.03l0.067,-0.024l0.068,-0.02l0.07,-0.015l0.071,-0.009l0.071,-0.005l0.072,0Z"/></g><g><g><path d="M85.893,59.728l0,53.145c10.95,-4.187 22.151,-7.97 33.57,-11.296l0,21.749c-46.623,7.119 -84.973,17.906 -109.969,30.965l45.292,-56.456l-49.598,-14.579c24.079,-8.976 51.178,-16.895 80.705,-23.528Z" style="fill:none;stroke:#000;stroke-width:4px;"/><path d="M86.041,112.992c11.045,-4.154 21.9,-8.114 33.418,-11.413l0,21.576c-0.379,0.057 -0.756,0.114 -1.133,0.172l-32.285,-10.335Z" style="fill:none;stroke:#000;stroke-width:4px;"/></g><g><path d="M415.758,59.728l0,53.145c-10.95,-4.187 -22.152,-7.97 -33.57,-11.296l0,21.749c46.623,7.119 84.973,17.906 109.969,30.965l-45.292,-56.456l49.598,-14.579c-24.079,-8.976 -51.178,-16.895 -80.705,-23.528Z" style="fill:none;stroke:#000;stroke-width:4px;"/><path d="M415.609,112.992c-11.044,-4.154 -21.899,-8.114 -33.417,-11.413l0,21.576c0.378,0.057 0.756,0.114 1.133,0.172l32.284,-10.335Z" style="fill:none;stroke:#000;stroke-width:4px;"/></g><path d="M85.597,37.277c49.927,-18.855 105.06,-29.318 163.002,-29.318c59.588,0 116.206,11.066 167.244,30.946l0,73.8c-50.423,-19.175 -106.157,-29.807 -164.744,-29.807c-58.884,0 -114.886,10.74 -165.502,30.094l0,-75.715Z" style="fill:none;stroke:#000;stroke-width:5px;"/><g transform="matrix(1.4876,0,0,1.8029,-858.753,-1025.49)"><g transform="matrix(0.672223,0,0,0.554661,190.36,269.166)"><g transform="matrix(0.967407,-0.253227,0.253227,0.967407,-135.92,192.91)"><text x="681.431px" y="624.459px" style="font-family:'Roboto-Bold', 'Roboto';font-weight:700;font-size:46px;fill:none;">E</text></g><g transform="matrix(0.979508,-0.201407,0.201407,0.979508,-109.956,154.945)"><text x="706.456px" y="617.821px" style="font-family:'Roboto-Bold', 'Roboto';font-weight:700;font-size:46px;fill:none;">U</text></g><g transform="matrix(0.989931,-0.141548,0.141548,0.989931,-79.1752,110.351)"><text x="736.09px" y="611.711px" style="font-family:'Roboto-Bold', 'Roboto';font-weight:700;font-size:46px;fill:none;">R</text></g><g transform="matrix(0.996522,-0.0833253,0.0833253,0.996522,-47.9581,65.8718)"><text x="765.184px" y="607.488px" style="font-family:'Roboto-Bold', 'Roboto';font-weight:700;font-size:46px;fill:none;">O</text></g><g transform="matrix(0.999799,-0.0200474,0.0200474,0.999799,-11.9652,16.0951)"><text x="796.789px" y="604.834px" style="font-family:'Roboto-Bold', 'Roboto';font-weight:700;font-size:46px;fill:none;">K</text></g><g transform="matrix(0.999379,0.0352402,-0.0352402,0.999379,21.8034,-28.7091)"><text x="825.318px" y="604.162px" style="font-family:'Roboto-Bold', 'Roboto';font-weight:700;font-size:46px;fill:none;">O</text></g><g transform="matrix(0.995232,0.0975357,-0.0975357,0.995232,63.1241,-80.7115)"><text x="857.096px" y="605.291px" style="font-family:'Roboto-Bold', 'Roboto';font-weight:700;font-size:46px;fill:none;">R</text></g><g transform="matrix(0.987726,0.156197,-0.156197,0.987726,105.858,-130.971)"><text x="886.283px" y="608.076px" style="font-family:'Roboto-Bold', 'Roboto';font-weight:700;font-size:46px;fill:none;">N</text></g><g transform="matrix(0.976698,0.214619,-0.214619,0.976698,153.009,-182.808)"><text x="918.36px" y="613.221px" style="font-family:'Roboto-Bold', 'Roboto';font-weight:700;font-size:46px;fill:none;">E</text></g><g transform="matrix(0.964163,0.265311,-0.265311,0.964163,198.019,-228.308)"><text x="944.119px" y="618.836px" style="font-family:'Roboto-Bold', 'Roboto';font-weight:700;font-size:46px;fill:none;">T</text></g></g><g transform="matrix(0.672223,0,0,0.554661,190.36,269.166)"><g transform="matrix(0.967407,-0.253227,0.253227,0.967407,-135.92,192.91)"><text x="681.431px" y="624.459px" style="font-family:'Roboto-Bold', 'Roboto';font-weight:700;font-size:46px;stroke:#000;stroke-width:1.5px;stroke-linecap:butt;stroke-miterlimit:1.41421;">E</text></g><g transform="matrix(0.979508,-0.201407,0.201407,0.979508,-109.956,154.945)"><text x="706.456px" y="617.821px" style="font-family:'Roboto-Bold', 'Roboto';font-weight:700;font-size:46px;stroke:#000;stroke-width:1.5px;stroke-linecap:butt;stroke-miterlimit:1.41421;">U</text></g><g transform="matrix(0.989931,-0.141548,0.141548,0.989931,-79.1752,110.351)"><text x="736.09px" y="611.711px" style="font-family:'Roboto-Bold', 'Roboto';font-weight:700;font-size:46px;stroke:#000;stroke-width:1.5px;stroke-linecap:butt;stroke-miterlimit:1.41421;">R</text></g><g transform="matrix(0.996522,-0.0833253,0.0833253,0.996522,-47.9581,65.8718)"><text x="765.184px" y="607.488px" style="font-family:'Roboto-Bold', 'Roboto';font-weight:700;font-size:46px;stroke:#000;stroke-width:1.5px;stroke-linecap:butt;stroke-miterlimit:1.41421;">O</text></g><g transform="matrix(0.999799,-0.0200474,0.0200474,0.999799,-11.9652,16.0951)"><text x="796.789px" y="604.834px" style="font-family:'Roboto-Bold', 'Roboto';font-weight:700;font-size:46px;stroke:#000;stroke-width:1.5px;stroke-linecap:butt;stroke-miterlimit:1.41421;">K</text></g><g transform="matrix(0.999379,0.0352402,-0.0352402,0.999379,21.8034,-28.7091)"><text x="825.318px" y="604.162px" style="font-family:'Roboto-Bold', 'Roboto';font-weight:700;font-size:46px;stroke:#000;stroke-width:1.5px;stroke-linecap:butt;stroke-miterlimit:1.41421;">O</text></g><g transform="matrix(0.995232,0.0975357,-0.0975357,0.995232,63.1241,-80.7115)"><text x="857.096px" y="605.291px" style="font-family:'Roboto-Bold', 'Roboto';font-weight:700;font-size:46px;stroke:#000;stroke-width:1.5px;stroke-linecap:butt;stroke-miterlimit:1.41421;">R</text></g><g transform="matrix(0.987726,0.156197,-0.156197,0.987726,105.858,-130.971)"><text x="886.283px" y="608.076px" style="font-family:'Roboto-Bold', 'Roboto';font-weight:700;font-size:46px;stroke:#000;stroke-width:1.5px;stroke-linecap:butt;stroke-miterlimit:1.41421;">N</text></g><g transform="matrix(0.976698,0.214619,-0.214619,0.976698,153.009,-182.808)"><text x="918.36px" y="613.221px" style="font-family:'Roboto-Bold', 'Roboto';font-weight:700;font-size:46px;stroke:#000;stroke-width:1.5px;stroke-linecap:butt;stroke-miterlimit:1.41421;">E</text></g><g transform="matrix(0.964163,0.265311,-0.265311,0.964163,198.019,-228.308)"><text x="944.119px" y="618.836px" style="font-family:'Roboto-Bold', 'Roboto';font-weight:700;font-size:46px;stroke:#000;stroke-width:1.5px;stroke-linecap:butt;stroke-miterlimit:1.41421;">T</text></g></g></g></g><g><g><path d="M85.597,398.263c49.927,18.855 105.06,29.318 163.002,29.318c59.588,0 116.206,-11.066 167.244,-30.945l0,-73.801c-50.423,19.175 -106.157,29.807 -164.744,29.807c-58.884,0 -114.886,-10.74 -165.502,-30.094l0,75.715Z" style="fill:none;stroke:#000;stroke-width:4px;"/><g><path d="M85.893,375.812l0,-53.145c10.95,4.187 22.151,7.97 33.57,11.296l0,-21.749c-46.623,-7.119 -84.973,-17.906 -109.969,-30.965l45.292,56.456l-49.598,14.579c24.079,8.976 51.178,16.895 80.705,23.528Z" style="fill:none;stroke:#000;stroke-width:4px;"/><path d="M86.041,322.548c11.045,4.154 21.9,8.114 33.418,11.414l0,-21.577c-0.379,-0.057 -0.756,-0.114 -1.133,-0.171l-32.285,10.334Z" style="fill:none;stroke:#000;stroke-width:4px;"/></g><g><path d="M415.758,375.812l0,-53.145c-10.95,4.187 -22.152,7.97 -33.57,11.296l0,-21.749c46.623,-7.119 84.973,-17.906 109.969,-30.965l-45.292,56.456l49.598,14.579c-24.079,8.976 -51.178,16.895 -80.705,23.528Z" style="fill:none;stroke:#000;stroke-width:4px;"/><path d="M415.609,322.548c-11.044,4.154 -21.899,8.114 -33.417,11.414l0,-21.577c0.378,-0.057 0.756,-0.114 1.133,-0.171l32.284,10.334Z" style="fill:none;stroke:#000;stroke-width:4px;"/></g></g><g transform="matrix(1.4876,0,0,-1.81499,-858.753,1499.81)"><g transform="matrix(-0.672223,0,0,0.550966,971.161,271.399)"><g transform="matrix(-0.984183,-0.177156,0.177156,-0.984183,770.603,1293.54)"><text x="443.048px" y="612.37px" style="font-family:'Roboto-Bold', 'Roboto';font-weight:700;font-size:46px;fill:none;">P</text></g><g transform="matrix(-0.992983,-0.118255,0.118255,-0.992983,752.615,1258.74)"><text x="413.652px" y="607.041px" style="font-family:'Roboto-Bold', 'Roboto';font-weight:700;font-size:46px;fill:none;">R</text></g><g transform="matrix(-0.996968,-0.0778188,0.0778188,-0.996968,720.66,1235.49)"><text x="384.403px" y="603.703px" style="font-family:'Roboto-Bold', 'Roboto';font-weight:700;font-size:46px;fill:none;">I</text></g><g transform="matrix(-0.999166,-0.040841,0.040841,-0.999166,716.834,1219.75)"><text x="370.876px" y="602.554px" style="font-family:'Roboto-Bold', 'Roboto';font-weight:700;font-size:46px;fill:none;">J</text></g><g transform="matrix(-0.999902,0.0139662,-0.0139662,-0.999902,698.471,1198.13)"><text x="345.052px" y="601.501px" style="font-family:'Roboto-Bold', 'Roboto';font-weight:700;font-size:46px;fill:none;">E</text></g><g transform="matrix(-0.997665,0.0683028,-0.0683028,-0.997665,678.433,1180.35)"><text x="319.037px" y="601.775px" style="font-family:'Roboto-Bold', 'Roboto';font-weight:700;font-size:46px;fill:none;">D</text></g><g transform="matrix(-0.991725,0.128384,-0.128384,-0.991725,653.259,1165.47)"><text x="289.067px" y="603.789px" style="font-family:'Roboto-Bold', 'Roboto';font-weight:700;font-size:46px;fill:none;">O</text></g><g transform="matrix(-0.981692,0.190475,-0.190475,-0.981692,625.741,1155.68)"><text x="257.33px" y="607.914px" style="font-family:'Roboto-Bold', 'Roboto';font-weight:700;font-size:46px;fill:none;">R</text></g></g><g transform="matrix(-0.672223,0,0,0.550966,971.161,271.399)"><g transform="matrix(-0.984183,-0.177156,0.177156,-0.984183,770.603,1293.54)"><text x="443.048px" y="612.37px" style="font-family:'Roboto-Bold', 'Roboto';font-weight:700;font-size:46px;stroke:#000;stroke-width:1.5px;stroke-linecap:butt;stroke-miterlimit:1.41421;">P</text></g><g transform="matrix(-0.992983,-0.118255,0.118255,-0.992983,752.615,1258.74)"><text x="413.652px" y="607.041px" style="font-family:'Roboto-Bold', 'Roboto';font-weight:700;font-size:46px;stroke:#000;stroke-width:1.5px;stroke-linecap:butt;stroke-miterlimit:1.41421;">R</text></g><g transform="matrix(-0.996968,-0.0778188,0.0778188,-0.996968,720.66,1235.49)"><text x="384.403px" y="603.703px" style="font-family:'Roboto-Bold', 'Roboto';font-weight:700;font-size:46px;stroke:#000;stroke-width:1.5px;stroke-linecap:butt;stroke-miterlimit:1.41421;">I</text></g><g transform="matrix(-0.999166,-0.040841,0.040841,-0.999166,716.834,1219.75)"><text x="370.876px" y="602.554px" style="font-family:'Roboto-Bold', 'Roboto';font-weight:700;font-size:46px;stroke:#000;stroke-width:1.5px;stroke-linecap:butt;stroke-miterlimit:1.41421;">J</text></g><g transform="matrix(-0.999902,0.0139662,-0.0139662,-0.999902,698.471,1198.13)"><text x="345.052px" y="601.501px" style="font-family:'Roboto-Bold', 'Roboto';font-weight:700;font-size:46px;stroke:#000;stroke-width:1.5px;stroke-linecap:butt;stroke-miterlimit:1.41421;">E</text></g><g transform="matrix(-0.997665,0.0683028,-0.0683028,-0.997665,678.433,1180.35)"><text x="319.037px" y="601.775px" style="font-family:'Roboto-Bold', 'Roboto';font-weight:700;font-size:46px;stroke:#000;stroke-width:1.5px;stroke-linecap:butt;stroke-miterlimit:1.41421;">D</text></g><g transform="matrix(-0.991725,0.128384,-0.128384,-0.991725,653.259,1165.47)"><text x="289.067px" y="603.789px" style="font-family:'Roboto-Bold', 'Roboto';font-weight:700;font-size:46px;stroke:#000;stroke-width:1.5px;stroke-linecap:butt;stroke-miterlimit:1.41421;">O</text></g><g transform="matrix(-0.981692,0.190475,-0.190475,-0.981692,625.741,1155.68)"><text x="257.33px" y="607.914px" style="font-family:'Roboto-Bold', 'Roboto';font-weight:700;font-size:46px;stroke:#000;stroke-width:1.5px;stroke-linecap:butt;stroke-miterlimit:1.41421;">R</text></g></g></g></g><path d="M345.975,190.491l-0.046,0.396l-0.034,0.289l-0.036,0.288l-0.037,0.288l-0.039,0.287l-0.04,0.287l-0.042,0.286l-0.043,0.286l-0.044,0.285l-0.046,0.285l-0.048,0.284l-0.049,0.284l-0.05,0.283l-0.051,0.283l-0.053,0.282l-0.055,0.281l-0.056,0.281l-0.057,0.281l-0.058,0.28l-0.06,0.279l-0.062,0.279l-0.063,0.278l-0.064,0.278l-0.065,0.277l-0.067,0.277l-0.068,0.276l-0.07,0.276l-0.071,0.275l-0.072,0.274l-0.074,0.273l-0.075,0.274l-0.076,0.272l-0.078,0.273l-0.079,0.271l-0.08,0.27l-0.082,0.27l-0.083,0.27l-0.084,0.269l-0.086,0.268l-0.087,0.268l-0.088,0.268l-0.089,0.266l-0.091,0.265l-0.092,0.266l-0.094,0.265l-0.094,0.263l-0.096,0.264l-0.098,0.262l-0.098,0.262l-0.1,0.262l-0.101,0.26l-0.102,0.26l-0.104,0.259l-0.105,0.259l-0.106,0.258l-0.107,0.257l-0.109,0.257l-0.109,0.256l-0.112,0.255l-0.112,0.255l-0.113,0.253l-0.115,0.254l-0.116,0.252l-0.117,0.252l-0.119,0.251l-0.119,0.25l-0.121,0.25l-0.122,0.249l-0.123,0.248l-0.124,0.247l-0.126,0.247l-0.126,0.246l-0.128,0.245l-0.129,0.245l-0.131,0.244l-0.131,0.243l-0.133,0.242l-0.134,0.241l-0.134,0.241l-0.136,0.24l-0.137,0.239l-0.139,0.239l-0.14,0.238l-0.14,0.236l-0.142,0.236l-0.143,0.236l-0.144,0.234l-0.145,0.234l-0.146,0.233l-0.147,0.232l-0.148,0.231l-0.15,0.23l-0.151,0.23l-0.151,0.229l-0.153,0.228l-0.154,0.228l-0.155,0.226l-0.156,0.226l-0.157,0.224l-0.159,0.224l-0.159,0.223l-0.16,0.223l-0.162,0.221l-0.162,0.221l-0.164,0.219l-0.164,0.219l-0.166,0.218l-0.167,0.217l-0.167,0.217l-0.169,0.215l-0.17,0.215l-0.171,0.214l-0.171,0.212l-0.173,0.212l-0.174,0.211l-0.175,0.21l-0.176,0.209l-0.177,0.209l-0.177,0.207l-0.179,0.207l-0.18,0.205l-0.181,0.205l-0.182,0.204l-0.182,0.203l-0.184,0.202l-0.185,0.201l-0.185,0.2l-0.182,0.193l-0.313,0.336l-0.309,0.336l-0.308,0.337l-0.306,0.339l-0.303,0.34l-0.302,0.342l-0.3,0.343l-0.299,0.345l-0.296,0.346l-0.294,0.347l-0.293,0.348l-0.291,0.35l-0.288,0.352l-0.287,0.353l-0.285,0.354l-0.283,0.355l-0.281,0.357l-0.279,0.358l-0.277,0.36l-0.275,0.36l-0.273,0.363l-0.271,0.363l-0.27,0.365l-0.267,0.366l-0.265,0.367l-0.264,0.369l-0.261,0.369l-0.26,0.372l-0.257,0.372l-0.256,0.373l-0.254,0.375l-0.251,0.376l-0.25,0.377l-0.247,0.379l-0.246,0.379l-0.243,0.381l-0.242,0.382l-0.24,0.383l-0.237,0.385l-0.236,0.385l-0.233,0.387l-0.232,0.387l-0.229,0.389l-0.228,0.39l-0.225,0.391l-0.224,0.392l-0.221,0.394l-0.219,0.394l-0.218,0.395l-0.215,0.397l-0.213,0.398l-0.211,0.398l-0.209,0.4l-0.207,0.401l-0.205,0.402l-0.203,0.403l-0.201,0.403l-0.198,0.405l-0.197,0.406l-0.194,0.407l-0.193,0.407l-0.19,0.409l-0.188,0.41l-0.186,0.411l-0.184,0.411l-0.182,0.413l-0.18,0.413l-0.178,0.415l-0.175,0.415l-0.174,0.416l-0.171,0.417l-0.169,0.418l-0.167,0.419l-0.165,0.42l-0.163,0.421l-0.16,0.421l-0.159,0.422l-0.156,0.424l-0.154,0.424l-0.152,0.425l-0.15,0.425l-0.147,0.427l-0.146,0.427l-0.143,0.428l-0.141,0.429l-0.139,0.43l-0.137,0.43l-0.134,0.431l-0.133,0.432l-0.13,0.433l-0.128,0.433l-0.125,0.434l-0.124,0.435l-0.121,0.436l-0.119,0.436l-0.117,0.437l-0.115,0.438l-0.112,0.438l-0.11,0.439l-0.108,0.44l-0.106,0.44l-0.103,0.441l-0.102,0.441l-0.098,0.443l-0.097,0.442l-0.095,0.444l-0.092,0.444l-0.09,0.444l-0.087,0.446l-0.086,0.446l-0.083,0.446l-0.08,0.447l-0.079,0.447l-0.076,0.448l-0.074,0.449l-0.072,0.449l-0.069,0.45l-0.067,0.45l-0.065,0.451l-0.062,0.451l-0.06,0.451l-0.058,0.452l-0.056,0.453l-0.053,0.453l-0.051,0.454l-0.048,0.453l-0.046,0.455l-0.044,0.459l-0.336,3.506l-0.341,3.575l-0.345,3.634l-0.35,3.68l-0.706,7.463l-0.71,7.526l-0.706,7.506l-0.695,7.401l-1.326,14.155l-0.032,0.324l-0.034,0.326l-0.037,0.326l-0.04,0.325l-0.041,0.325l-0.045,0.323l-0.046,0.323l-0.049,0.322l-0.052,0.321l-0.053,0.32l-0.057,0.319l-0.058,0.318l-0.061,0.318l-0.063,0.316l-0.066,0.316l-0.068,0.315l-0.07,0.314l-0.073,0.313l-0.075,0.312l-0.077,0.311l-0.08,0.31l-0.081,0.309l-0.084,0.309l-0.087,0.307l-0.088,0.306l-0.091,0.305l-0.093,0.305l-0.095,0.303l-0.098,0.302l-0.099,0.301l-0.102,0.3l-0.104,0.299l-0.106,0.298l-0.109,0.297l-0.11,0.296l-0.113,0.295l-0.114,0.293l-0.117,0.293l-0.119,0.291l-0.121,0.29l-0.123,0.29l-0.126,0.288l-0.127,0.286l-0.129,0.286l-0.132,0.284l-0.133,0.284l-0.136,0.282l-0.137,0.281l-0.14,0.279l-0.141,0.279l-0.143,0.277l-0.146,0.276l-0.147,0.275l-0.15,0.273l-0.151,0.272l-0.153,0.271l-0.156,0.27l-0.157,0.268l-0.159,0.267l-0.161,0.266l-0.163,0.264l-0.164,0.263l-0.167,0.262l-0.694,1.073l-1.634,0.146l-0.663,0.058l-0.665,0.057l-0.664,0.057l-0.664,0.055l-0.665,0.055l-0.665,0.054l-0.666,0.053l-0.666,0.051l-0.666,0.051l-0.666,0.05l-0.667,0.05l-0.667,0.048l-0.667,0.047l-0.668,0.046l-0.668,0.046l-0.668,0.044l-0.668,0.044l-0.669,0.043l-0.669,0.042l-0.67,0.04l-0.669,0.04l-0.67,0.039l-0.671,0.038l-0.67,0.038l-0.671,0.036l-0.671,0.035l-0.671,0.034l-0.672,0.034l-0.672,0.032l-0.673,0.032l-0.672,0.031l-0.673,0.029l-0.673,0.029l-0.673,0.028l-0.674,0.027l-0.674,0.026l-0.674,0.025l-0.675,0.024l-0.674,0.023l-0.675,0.022l-0.676,0.022l-0.675,0.02l-0.676,0.019l-0.676,0.019l-0.677,0.017l-0.676,0.017l-0.677,0.016l-0.678,0.014l-0.677,0.014l-0.678,0.013l-0.678,0.012l-0.678,0.011l-0.679,0.01l-0.679,0.009l-0.679,0.008l-0.679,0.007l-0.68,0.006l-0.679,0.005l-0.68,0.005l-0.681,0.003l-0.68,0.003l-0.681,0.001l-0.682,0l-0.723,0l-0.723,-0.002l-0.723,-0.002l-0.722,-0.004l-0.722,-0.005l-0.722,-0.006l-0.721,-0.007l-0.722,-0.008l-0.721,-0.009l-0.72,-0.01l-0.721,-0.011l-0.72,-0.013l-0.72,-0.013l-0.719,-0.015l-0.72,-0.015l-0.719,-0.017l-0.718,-0.017l-0.718,-0.019l-0.718,-0.02l-0.718,-0.021l-0.717,-0.022l-0.717,-0.023l-0.717,-0.024l-0.716,-0.025l-0.716,-0.026l-0.716,-0.027l-0.716,-0.028l-0.715,-0.029l-0.715,-0.031l-0.714,-0.031l-0.714,-0.033l-0.714,-0.033l-0.714,-0.035l-0.713,-0.035l-0.713,-0.037l-0.713,-0.037l-0.712,-0.039l-0.712,-0.04l-0.712,-0.041l-0.711,-0.042l-0.711,-0.042l-0.71,-0.044l-0.711,-0.045l-0.71,-0.046l-0.709,-0.047l-0.71,-0.049l-0.709,-0.049l-0.708,-0.05l-0.709,-0.051l-0.708,-0.052l-0.707,-0.054l-0.708,-0.054l-0.706,-0.055l-0.707,-0.056l-0.707,-0.058l-0.705,-0.058l-0.706,-0.06l-0.705,-0.06l-0.705,-0.062l-0.705,-0.062l-0.704,-0.064l-0.704,-0.064l-0.703,-0.066l-1.771,-0.168l-0.61,-1.141l-0.105,-0.2l-0.104,-0.201l-0.103,-0.202l-0.102,-0.202l-0.101,-0.203l-0.1,-0.204l-0.098,-0.204l-0.097,-0.206l-0.096,-0.206l-0.095,-0.207l-0.093,-0.208l-0.092,-0.207l-0.091,-0.209l-0.09,-0.21l-0.089,-0.21l-0.087,-0.211l-0.086,-0.211l-0.085,-0.213l-0.083,-0.213l-0.082,-0.213l-0.081,-0.214l-0.08,-0.215l-0.078,-0.216l-0.077,-0.216l-0.076,-0.217l-0.075,-0.217l-0.073,-0.218l-0.072,-0.219l-0.07,-0.219l-0.069,-0.22l-0.068,-0.221l-0.067,-0.221l-0.065,-0.222l-0.064,-0.222l-0.063,-0.223l-0.061,-0.223l-0.06,-0.224l-0.058,-0.225l-0.057,-0.226l-0.056,-0.225l-0.055,-0.227l-0.052,-0.227l-0.052,-0.227l-0.05,-0.228l-0.049,-0.229l-0.048,-0.229l-0.046,-0.229l-0.044,-0.231l-0.044,-0.23l-0.042,-0.232l-0.04,-0.232l-0.039,-0.232l-0.038,-0.232l-0.036,-0.234l-0.034,-0.234l-0.034,-0.234l-0.031,-0.234l-0.031,-0.236l-0.029,-0.235l-0.027,-0.236l-0.026,-0.237l-0.025,-0.237l-0.022,-0.235l-5.901,-62.984l-0.044,-0.458l-0.046,-0.455l-0.049,-0.454l-0.051,-0.454l-0.053,-0.453l-0.055,-0.452l-0.058,-0.453l-0.06,-0.451l-0.063,-0.452l-0.064,-0.451l-0.068,-0.45l-0.069,-0.45l-0.072,-0.449l-0.074,-0.449l-0.076,-0.448l-0.078,-0.448l-0.081,-0.447l-0.083,-0.447l-0.086,-0.446l-0.087,-0.445l-0.09,-0.445l-0.093,-0.444l-0.094,-0.444l-0.097,-0.443l-0.099,-0.442l-0.101,-0.442l-0.103,-0.441l-0.106,-0.441l-0.108,-0.439l-0.11,-0.44l-0.113,-0.438l-0.114,-0.438l-0.117,-0.437l-0.119,-0.437l-0.122,-0.435l-0.123,-0.435l-0.126,-0.435l-0.128,-0.433l-0.13,-0.433l-0.133,-0.432l-0.134,-0.431l-0.137,-0.431l-0.139,-0.43l-0.141,-0.429l-0.143,-0.428l-0.146,-0.428l-0.148,-0.426l-0.149,-0.426l-0.153,-0.425l-0.154,-0.425l-0.156,-0.423l-0.159,-0.422l-0.16,-0.422l-0.163,-0.421l-0.165,-0.42l-0.167,-0.419l-0.169,-0.418l-0.172,-0.418l-0.173,-0.416l-0.176,-0.416l-0.177,-0.414l-0.18,-0.414l-0.182,-0.413l-0.184,-0.411l-0.187,-0.411l-0.188,-0.41l-0.19,-0.409l-0.193,-0.408l-0.194,-0.407l-0.197,-0.406l-0.199,-0.405l-0.201,-0.404l-0.203,-0.403l-0.205,-0.402l-0.207,-0.401l-0.209,-0.4l-0.211,-0.399l-0.213,-0.397l-0.216,-0.397l-0.217,-0.396l-0.219,-0.394l-0.222,-0.394l-0.223,-0.392l-0.226,-0.391l-0.227,-0.39l-0.23,-0.389l-0.232,-0.388l-0.233,-0.387l-0.236,-0.386l-0.238,-0.384l-0.239,-0.384l-0.242,-0.382l-0.244,-0.381l-0.246,-0.379l-0.247,-0.379l-0.25,-0.377l-0.252,-0.376l-0.253,-0.375l-0.256,-0.374l-0.258,-0.373l-0.259,-0.371l-0.262,-0.37l-0.263,-0.369l-0.266,-0.367l-0.267,-0.366l-0.27,-0.365l-0.271,-0.364l-0.274,-0.362l-0.275,-0.361l-0.277,-0.36l-0.279,-0.358l-0.281,-0.357l-0.283,-0.355l-0.285,-0.355l-0.287,-0.353l-0.289,-0.351l-0.291,-0.35l-0.292,-0.349l-0.295,-0.348l-0.296,-0.346l-0.299,-0.344l-0.3,-0.344l-0.302,-0.341l-0.304,-0.34l-0.306,-0.339l-0.308,-0.338l-0.309,-0.336l-0.311,-0.334l-0.18,-0.19l-0.186,-0.199l-0.185,-0.201l-0.185,-0.201l-0.183,-0.203l-0.183,-0.203l-0.181,-0.204l-0.181,-0.205l-0.18,-0.207l-0.178,-0.206l-0.177,-0.208l-0.177,-0.209l-0.175,-0.21l-0.175,-0.211l-0.173,-0.211l-0.173,-0.212l-0.171,-0.214l-0.17,-0.214l-0.17,-0.215l-0.168,-0.216l-0.167,-0.216l-0.166,-0.218l-0.165,-0.219l-0.164,-0.219l-0.163,-0.22l-0.162,-0.221l-0.161,-0.222l-0.16,-0.223l-0.159,-0.224l-0.157,-0.224l-0.157,-0.225l-0.155,-0.226l-0.154,-0.227l-0.154,-0.228l-0.152,-0.229l-0.151,-0.229l-0.15,-0.231l-0.149,-0.231l-0.147,-0.231l-0.147,-0.233l-0.145,-0.233l-0.145,-0.235l-0.143,-0.235l-0.142,-0.236l-0.141,-0.237l-0.14,-0.237l-0.138,-0.238l-0.138,-0.239l-0.136,-0.24l-0.135,-0.24l-0.134,-0.242l-0.133,-0.242l-0.132,-0.243l-0.13,-0.243l-0.13,-0.245l-0.128,-0.245l-0.127,-0.246l-0.125,-0.246l-0.125,-0.247l-0.124,-0.249l-0.122,-0.248l-0.121,-0.25l-0.12,-0.25l-0.118,-0.251l-0.117,-0.251l-0.116,-0.253l-0.115,-0.253l-0.114,-0.254l-0.112,-0.254l-0.112,-0.255l-0.11,-0.256l-0.108,-0.257l-0.108,-0.257l-0.106,-0.258l-0.105,-0.258l-0.104,-0.259l-0.102,-0.261l-0.101,-0.26l-0.1,-0.261l-0.099,-0.262l-0.097,-0.263l-0.096,-0.263l-0.095,-0.264l-0.094,-0.265l-0.092,-0.265l-0.091,-0.266l-0.089,-0.266l-0.089,-0.267l-0.087,-0.268l-0.085,-0.268l-0.085,-0.269l-0.083,-0.27l-0.081,-0.269l-0.081,-0.271l-0.079,-0.272l-0.078,-0.272l-0.076,-0.272l-0.075,-0.273l-0.074,-0.274l-0.072,-0.275l-0.071,-0.274l-0.07,-0.276l-0.068,-0.276l-0.067,-0.277l-0.066,-0.277l-0.064,-0.278l-0.062,-0.278l-0.062,-0.279l-0.06,-0.279l-0.058,-0.28l-0.058,-0.281l-0.055,-0.281l-0.055,-0.281l-0.053,-0.282l-0.052,-0.283l-0.05,-0.283l-0.049,-0.284l-0.047,-0.284l-0.046,-0.285l-0.044,-0.285l-0.043,-0.286l-0.042,-0.286l-0.04,-0.287l-0.039,-0.287l-0.037,-0.288l-0.036,-0.288l-0.035,-0.289l-0.017,-0.153l-0.513,-2.05l0.24,-0.307l190.544,0l0,2.114Zm-186.015,1.886l0.028,0.179l0.042,0.264l0.044,0.264l0.046,0.264l0.046,0.263l0.048,0.262l0.049,0.262l0.051,0.261l0.052,0.261l0.053,0.26l0.054,0.26l0.056,0.259l0.057,0.259l0.058,0.258l0.06,0.258l0.06,0.257l0.062,0.257l0.064,0.256l0.064,0.255l0.066,0.255l0.067,0.255l0.069,0.254l0.069,0.253l0.071,0.253l0.072,0.252l0.074,0.252l0.074,0.251l0.076,0.25l0.077,0.251l0.078,0.249l0.08,0.249l0.08,0.248l0.082,0.248l0.083,0.247l0.085,0.246l0.085,0.246l0.087,0.245l0.088,0.245l0.089,0.244l0.09,0.244l0.091,0.242l0.093,0.243l0.094,0.241l0.095,0.241l0.096,0.24l0.097,0.24l0.099,0.24l0.099,0.238l0.101,0.238l0.102,0.237l0.103,0.236l0.105,0.237l0.105,0.235l0.106,0.234l0.108,0.234l0.109,0.234l0.11,0.232l0.111,0.232l0.112,0.232l0.113,0.23l0.115,0.23l0.115,0.229l0.117,0.229l0.118,0.228l0.118,0.227l0.12,0.227l0.121,0.225l0.122,0.225l0.123,0.225l0.125,0.224l0.125,0.223l0.126,0.222l0.128,0.221l0.128,0.221l0.13,0.221l0.131,0.219l0.131,0.219l0.133,0.218l0.134,0.217l0.135,0.216l0.136,0.216l0.137,0.215l0.138,0.214l0.139,0.214l0.14,0.212l0.141,0.212l0.142,0.212l0.143,0.21l0.144,0.21l0.145,0.209l0.146,0.208l0.148,0.207l0.148,0.207l0.149,0.206l0.15,0.205l0.151,0.204l0.152,0.203l0.153,0.203l0.154,0.201l0.156,0.202l0.155,0.2l0.157,0.199l0.158,0.199l0.159,0.197l0.16,0.197l0.161,0.197l0.162,0.195l0.162,0.194l0.164,0.194l0.165,0.193l0.165,0.192l0.167,0.191l0.167,0.19l0.168,0.189l0.17,0.189l0.17,0.188l0.171,0.186l0.172,0.186l0.173,0.186l0.181,0.192l0.327,0.351l0.324,0.351l0.321,0.353l0.32,0.354l0.318,0.356l0.316,0.357l0.314,0.359l0.312,0.36l0.31,0.362l0.308,0.363l0.305,0.365l0.304,0.366l0.302,0.367l0.3,0.369l0.298,0.371l0.296,0.371l0.294,0.374l0.292,0.374l0.29,0.376l0.287,0.378l0.286,0.379l0.284,0.38l0.281,0.381l0.28,0.383l0.278,0.384l0.275,0.386l0.274,0.386l0.271,0.388l0.27,0.39l0.267,0.391l0.265,0.392l0.263,0.393l0.261,0.394l0.259,0.396l0.257,0.397l0.255,0.398l0.253,0.4l0.25,0.401l0.249,0.401l0.246,0.404l0.244,0.404l0.242,0.405l0.241,0.407l0.238,0.408l0.235,0.409l0.234,0.41l0.231,0.412l0.23,0.412l0.227,0.414l0.225,0.415l0.223,0.415l0.221,0.417l0.219,0.418l0.216,0.42l0.214,0.42l0.213,0.421l0.21,0.422l0.207,0.424l0.206,0.424l0.203,0.426l0.202,0.426l0.199,0.428l0.196,0.428l0.195,0.43l0.193,0.43l0.19,0.432l0.188,0.432l0.186,0.434l0.183,0.434l0.182,0.436l0.179,0.436l0.177,0.437l0.174,0.438l0.173,0.439l0.17,0.44l0.168,0.441l0.166,0.442l0.163,0.442l0.161,0.444l0.159,0.444l0.157,0.445l0.154,0.447l0.153,0.447l0.149,0.447l0.148,0.449l0.145,0.449l0.143,0.45l0.141,0.451l0.138,0.452l0.136,0.453l0.134,0.453l0.132,0.454l0.129,0.455l0.127,0.455l0.124,0.457l0.122,0.457l0.12,0.457l0.118,0.459l0.115,0.459l0.113,0.46l0.11,0.46l0.109,0.461l0.106,0.462l0.103,0.463l0.101,0.463l0.099,0.464l0.096,0.464l0.094,0.465l0.092,0.466l0.089,0.466l0.087,0.467l0.085,0.468l0.082,0.468l0.08,0.468l0.077,0.47l0.075,0.469l0.072,0.47l0.07,0.471l0.068,0.472l0.065,0.471l0.063,0.473l0.061,0.473l0.058,0.473l0.055,0.474l0.053,0.474l0.051,0.475l0.048,0.475l0.046,0.473l5.901,62.984l0.021,0.215l0.021,0.212l0.024,0.211l0.024,0.211l0.026,0.211l0.027,0.21l0.028,0.21l0.03,0.209l0.031,0.208l0.032,0.209l0.034,0.207l0.035,0.208l0.036,0.207l0.037,0.206l0.039,0.206l0.04,0.205l0.041,0.205l0.042,0.204l0.044,0.204l0.044,0.203l0.046,0.203l0.048,0.203l0.048,0.202l0.05,0.201l0.051,0.201l0.052,0.2l0.053,0.2l0.055,0.199l0.056,0.199l0.057,0.198l0.058,0.198l0.059,0.197l0.061,0.196l0.062,0.197l0.062,0.195l0.065,0.195l0.065,0.195l0.066,0.193l0.068,0.193l0.068,0.193l0.07,0.192l0.071,0.192l0.072,0.191l0.074,0.19l0.074,0.19l0.075,0.189l0.077,0.188l0.078,0.188l0.079,0.188l0.08,0.186l0.081,0.186l0.082,0.186l0.083,0.185l0.085,0.184l0.085,0.184l0.087,0.183l0.087,0.182l0.089,0.182l0.068,0.136l0.311,0.03l0.698,0.064l0.698,0.063l0.699,0.062l0.699,0.061l0.699,0.06l0.7,0.059l0.7,0.057l0.7,0.057l0.701,0.056l0.701,0.055l0.701,0.054l0.702,0.053l0.702,0.052l0.702,0.05l0.703,0.05l0.703,0.049l0.703,0.048l0.704,0.046l0.704,0.046l0.704,0.044l0.705,0.044l0.705,0.042l0.706,0.042l0.705,0.04l0.706,0.04l0.707,0.038l0.706,0.038l0.707,0.036l0.707,0.035l0.708,0.035l0.708,0.033l0.708,0.032l0.709,0.031l0.709,0.03l0.709,0.029l0.71,0.028l0.709,0.027l0.71,0.026l0.711,0.025l0.711,0.024l0.711,0.022l0.711,0.022l0.712,0.021l0.712,0.019l0.712,0.019l0.713,0.017l0.713,0.017l0.713,0.015l0.713,0.015l0.714,0.013l0.715,0.012l0.714,0.011l0.715,0.01l0.715,0.009l0.715,0.008l0.716,0.007l0.716,0.006l0.716,0.005l0.716,0.004l0.717,0.002l0.717,0.002l0.718,0l0.675,0l0.675,-0.001l0.675,-0.003l0.675,-0.003l0.674,-0.004l0.675,-0.006l0.674,-0.006l0.674,-0.007l0.673,-0.008l0.673,-0.009l0.673,-0.01l0.673,-0.011l0.672,-0.011l0.672,-0.013l0.672,-0.014l0.672,-0.014l0.671,-0.016l0.671,-0.016l0.671,-0.018l0.671,-0.018l0.67,-0.019l0.67,-0.02l0.67,-0.022l0.669,-0.022l0.669,-0.023l0.669,-0.023l0.669,-0.025l0.668,-0.026l0.668,-0.027l0.668,-0.027l0.667,-0.029l0.668,-0.029l0.667,-0.031l0.666,-0.031l0.667,-0.032l0.666,-0.033l0.666,-0.035l0.665,-0.035l0.665,-0.036l0.665,-0.036l0.665,-0.038l0.664,-0.039l0.664,-0.039l0.664,-0.041l0.664,-0.041l0.663,-0.043l0.663,-0.043l0.663,-0.044l0.662,-0.045l0.662,-0.046l0.662,-0.047l0.661,-0.048l0.661,-0.049l0.661,-0.049l0.66,-0.051l0.66,-0.051l0.66,-0.053l0.66,-0.053l0.659,-0.054l0.659,-0.055l0.659,-0.056l0.658,-0.057l0.335,-0.029l0.085,-0.137l0.145,-0.241l0.144,-0.241l0.142,-0.243l0.14,-0.243l0.139,-0.246l0.137,-0.246l0.135,-0.247l0.133,-0.248l0.132,-0.25l0.13,-0.251l0.128,-0.251l0.126,-0.253l0.124,-0.254l0.123,-0.255l0.12,-0.257l0.119,-0.257l0.117,-0.258l0.115,-0.26l0.113,-0.26l0.112,-0.261l0.109,-0.263l0.108,-0.263l0.105,-0.265l0.104,-0.265l0.102,-0.266l0.1,-0.268l0.098,-0.268l0.096,-0.27l0.094,-0.27l0.092,-0.272l0.09,-0.272l0.088,-0.273l0.086,-0.274l0.084,-0.275l0.082,-0.276l0.08,-0.278l0.078,-0.277l0.076,-0.279l0.074,-0.28l0.072,-0.28l0.07,-0.282l0.068,-0.282l0.066,-0.283l0.063,-0.284l0.062,-0.285l0.059,-0.286l0.057,-0.286l0.056,-0.288l0.053,-0.288l0.051,-0.289l0.048,-0.29l0.047,-0.29l0.044,-0.291l0.042,-0.293l0.04,-0.293l0.038,-0.293l0.036,-0.295l0.033,-0.295l0.031,-0.296l0.03,-0.301l1.326,-14.148l0.695,-7.401l0.706,-7.507l0.71,-7.527l0.706,-7.464l0.349,-3.682l0.346,-3.634l0.341,-3.576l0.336,-3.508l0.045,-0.471l0.048,-0.475l0.051,-0.475l0.053,-0.474l0.056,-0.473l0.058,-0.474l0.06,-0.472l0.063,-0.472l0.065,-0.472l0.068,-0.471l0.07,-0.471l0.073,-0.47l0.074,-0.469l0.078,-0.469l0.079,-0.469l0.082,-0.467l0.085,-0.468l0.087,-0.466l0.089,-0.467l0.092,-0.465l0.094,-0.465l0.096,-0.464l0.099,-0.464l0.101,-0.463l0.103,-0.462l0.106,-0.462l0.108,-0.461l0.111,-0.46l0.112,-0.46l0.116,-0.459l0.117,-0.458l0.12,-0.458l0.122,-0.456l0.125,-0.456l0.126,-0.456l0.13,-0.454l0.131,-0.454l0.134,-0.453l0.136,-0.453l0.138,-0.451l0.141,-0.451l0.143,-0.45l0.145,-0.449l0.147,-0.448l0.15,-0.448l0.152,-0.447l0.154,-0.446l0.157,-0.445l0.159,-0.444l0.161,-0.443l0.163,-0.442l0.166,-0.442l0.168,-0.441l0.17,-0.44l0.172,-0.438l0.175,-0.438l0.177,-0.437l0.179,-0.437l0.181,-0.435l0.184,-0.434l0.186,-0.433l0.187,-0.433l0.191,-0.431l0.192,-0.43l0.194,-0.429l0.197,-0.429l0.199,-0.427l0.201,-0.427l0.204,-0.425l0.205,-0.424l0.208,-0.423l0.21,-0.423l0.212,-0.421l0.214,-0.42l0.217,-0.419l0.218,-0.417l0.221,-0.417l0.223,-0.416l0.225,-0.414l0.227,-0.414l0.229,-0.412l0.232,-0.411l0.233,-0.411l0.236,-0.408l0.238,-0.408l0.239,-0.407l0.243,-0.405l0.244,-0.404l0.246,-0.403l0.248,-0.402l0.251,-0.401l0.253,-0.399l0.254,-0.398l0.257,-0.397l0.259,-0.395l0.261,-0.395l0.263,-0.393l0.265,-0.392l0.267,-0.39l0.269,-0.389l0.272,-0.388l0.273,-0.387l0.275,-0.385l0.278,-0.384l0.279,-0.383l0.282,-0.381l0.284,-0.38l0.285,-0.379l0.288,-0.377l0.29,-0.376l0.291,-0.374l0.294,-0.374l0.296,-0.371l0.298,-0.37l0.299,-0.369l0.302,-0.368l0.304,-0.365l0.306,-0.365l0.308,-0.363l0.309,-0.362l0.312,-0.36l0.314,-0.358l0.316,-0.358l0.317,-0.355l0.32,-0.354l0.322,-0.353l0.323,-0.351l0.324,-0.348l0.179,-0.191l0.172,-0.186l0.172,-0.186l0.17,-0.188l0.17,-0.188l0.169,-0.189l0.167,-0.19l0.167,-0.191l0.166,-0.192l0.165,-0.192l0.164,-0.193l0.164,-0.195l0.162,-0.195l0.161,-0.195l0.161,-0.197l0.159,-0.198l0.159,-0.198l0.157,-0.199l0.156,-0.2l0.156,-0.201l0.155,-0.201l0.154,-0.203l0.152,-0.202l0.152,-0.205l0.151,-0.204l0.149,-0.205l0.149,-0.207l0.148,-0.207l0.147,-0.208l0.146,-0.208l0.145,-0.21l0.144,-0.21l0.142,-0.21l0.142,-0.212l0.141,-0.213l0.139,-0.212l0.139,-0.214l0.138,-0.215l0.137,-0.216l0.135,-0.215l0.135,-0.217l0.133,-0.218l0.133,-0.218l0.131,-0.219l0.131,-0.22l0.129,-0.22l0.128,-0.221l0.128,-0.222l0.126,-0.223l0.125,-0.223l0.124,-0.224l0.123,-0.225l0.122,-0.226l0.121,-0.225l0.12,-0.227l0.118,-0.228l0.118,-0.228l0.116,-0.229l0.115,-0.229l0.115,-0.231l0.113,-0.23l0.112,-0.232l0.111,-0.232l0.109,-0.233l0.109,-0.233l0.108,-0.234l0.106,-0.235l0.105,-0.236l0.105,-0.236l0.102,-0.236l0.102,-0.238l0.101,-0.238l0.1,-0.238l0.098,-0.24l0.097,-0.24l0.096,-0.24l0.095,-0.242l0.094,-0.241l0.092,-0.242l0.092,-0.243l0.09,-0.244l0.089,-0.244l0.088,-0.245l0.086,-0.245l0.086,-0.246l0.084,-0.247l0.083,-0.247l0.082,-0.248l0.081,-0.248l0.079,-0.249l0.078,-0.249l0.077,-0.25l0.076,-0.251l0.075,-0.251l0.073,-0.252l0.072,-0.252l0.071,-0.253l0.069,-0.253l0.069,-0.254l0.067,-0.255l0.066,-0.255l0.064,-0.256l0.063,-0.256l0.062,-0.256l0.061,-0.258l0.06,-0.258l0.058,-0.258l0.057,-0.258l0.056,-0.26l0.054,-0.26l0.053,-0.26l0.052,-0.261l0.05,-0.261l0.05,-0.262l0.047,-0.262l0.047,-0.263l0.045,-0.264l0.044,-0.263l0.043,-0.265l0.028,-0.179l-181.731,0Z"/><path d="M70.677,184.9l10.081,21.125l23.206,3.059l-16.976,16.115l4.262,23.016l-20.573,-11.165l-20.572,11.165l4.262,-23.016l-16.977,-16.115l23.207,-3.059l10.08,-21.125Z" style="stroke:#000;stroke-width:2px;stroke-linejoin:miter;"/><path d="M430.677,184.9l10.081,21.125l23.206,3.059l-16.976,16.115l4.262,23.016l-20.573,-11.165l-20.572,11.165l4.262,-23.016l-16.977,-16.115l23.207,-3.059l10.08,-21.125Z" style="fill:#fd6d6d;stroke:#000;stroke-width:2px;stroke-linejoin:miter;"/><path d="M430.677,184.9l10.081,21.125l23.206,3.059l-16.976,16.115l4.262,23.016l-20.573,-11.165l-20.572,11.165l4.262,-23.016l-16.977,-16.115l23.207,-3.059l10.08,-21.125Z" style="stroke:#000;stroke-width:2px;stroke-linejoin:miter;"/></g></svg>