<?xml version="1.0" encoding="UTF-8" standalone="no"?><!DOCTYPE svg PUBLIC "-//W3C//DTD SVG 1.1//EN" "http://www.w3.org/Graphics/SVG/1.1/DTD/svg11.dtd"><svg width="100%" height="100%" viewBox="0 0 555 503" version="1.1" xmlns="http://www.w3.org/2000/svg" xmlns:xlink="http://www.w3.org/1999/xlink" xml:space="preserve" style="fill-rule:evenodd;clip-rule:evenodd;stroke-linecap:round;stroke-linejoin:round;stroke-miterlimit:1.5;"><g id="black.-on.-transparent"><path d="M280.391,380.575l0.056,0.005l0.055,0.008l0.055,0.011l0.055,0.015l0.053,0.017l0.052,0.021l0.051,0.023l0.05,0.026l0.048,0.029l0.046,0.031l0.045,0.034l0.043,0.037l0.04,0.039l0.038,0.041l7,7.944l0.036,0.043l0.034,0.045l0.03,0.047l0.029,0.049l0.025,0.05l0.023,0.051l0.019,0.052l0.017,0.054l0.013,0.054l0.011,0.056l0.008,0.055l0.004,0.056l0.001,0.056l-0.002,0.056l-0.005,0.056l-0.008,0.056l-0.012,0.054l-0.014,0.055l-0.017,0.053l-0.021,0.052l-0.023,0.051l-0.026,0.05l-0.029,0.048l-0.031,0.047l-0.035,0.044l-0.036,0.043l-0.039,0.04l-0.041,0.038l-0.043,0.036l-0.045,0.034l-0.047,0.031l-0.048,0.028l-0.05,0.025l-0.052,0.023l-0.052,0.019l-0.054,0.017l-0.054,0.014l-0.055,0.01l-0.056,0.008l-0.056,0.004l-0.056,0.001l-0.056,-0.002l-0.056,-0.005l-0.055,-0.008l-0.055,-0.011l-0.055,-0.015l-0.053,-0.017l-0.052,-0.021l-0.051,-0.023l-0.05,-0.026l-0.048,-0.029l-0.046,-0.031l-0.045,-0.034l-0.043,-0.037l-0.04,-0.039l-0.038,-0.041l-7,-7.944l-0.036,-0.043l-0.034,-0.045l-0.03,-0.047l-0.029,-0.049l-0.025,-0.05l-0.023,-0.051l-0.019,-0.053l-0.017,-0.053l-0.013,-0.054l-0.011,-0.056l-0.007,-0.055l-0.005,-0.056l-0.001,-0.056l0.002,-0.056l0.005,-0.056l0.008,-0.056l0.012,-0.055l0.014,-0.054l0.017,-0.053l0.021,-0.052l0.023,-0.051l0.026,-0.05l0.029,-0.048l0.031,-0.047l0.035,-0.044l0.036,-0.043l0.039,-0.04l0.041,-0.038l0.043,-0.036l0.045,-0.034l0.047,-0.031l0.048,-0.028l0.05,-0.025l0.052,-0.023l0.052,-0.019l0.054,-0.017l0.054,-0.014l0.055,-0.01l0.056,-0.008l0.056,-0.004l0.056,-0.001l0.056,0.002Z"/><path d="M374.613,206.832c0,-1.299 -0.516,-2.546 -1.435,-3.465c-0.919,-0.919 -2.165,-1.435 -3.465,-1.435c-27.06,0 -157.987,0 -185.047,0c-1.299,0 -2.546,0.516 -3.465,1.435c-0.919,0.919 -1.435,2.166 -1.435,3.465c0,0.001 0,0.002 0,0.002c0,1.3 0.516,2.546 1.435,3.465c0.919,0.919 2.166,1.435 3.465,1.435c27.06,0 157.987,0 185.047,0c1.3,0 2.546,-0.516 3.465,-1.435c0.919,-0.919 1.435,-2.165 1.435,-3.465c0,0 0,-0.001 0,-0.002Z" style="fill:none;stroke:#000;stroke-width:3px;"/><path d="M374.613,147.722c0,-1.299 -0.516,-2.546 -1.435,-3.465c-0.919,-0.919 -2.165,-1.435 -3.465,-1.435c-27.06,0 -157.987,0 -185.047,0c-1.299,0 -2.546,0.516 -3.465,1.435c-0.919,0.919 -1.435,2.166 -1.435,3.465c0,0.001 0,0.002 0,0.002c0,1.3 0.516,2.546 1.435,3.465c0.919,0.919 2.166,1.435 3.465,1.435c27.06,0 157.987,0 185.047,0c1.3,0 2.546,-0.516 3.465,-1.435c0.919,-0.919 1.435,-2.165 1.435,-3.465c0,0 0,-0.001 0,-0.002Z" style="fill:none;stroke:#000;stroke-width:2px;"/><path d="M383.544,136.957c0.198,-1.545 -0.234,-3.104 -1.198,-4.326c-0.965,-1.222 -2.381,-2.005 -3.929,-2.172c-65.669,-6.977 -132.164,-7.589 -200.155,-0.761c-3.705,0.377 -6.684,3.216 -7.239,6.899c-0.001,0 -0.001,0 -0.001,0.001c-0.235,1.56 0.222,3.145 1.251,4.341c1.03,1.195 2.529,1.883 4.107,1.883c31.32,0 170.071,0 200.5,0c3.381,0 6.234,-2.511 6.664,-5.864c0,0 0,-0.001 0,-0.001Z" style="fill:none;stroke:#000;stroke-width:2px;"/><rect x="184.04" y="152.624" width="186.299" height="49.308" style="fill:none;stroke:#000;stroke-width:2px;"/><path d="M372.019,210.238l-0.222,1.949l-0.034,0.286l-0.036,0.286l-0.037,0.285l-0.038,0.285l-0.04,0.284l-0.041,0.284l-0.043,0.283l-0.044,0.282l-0.045,0.283l-0.047,0.281l-0.049,0.281l-0.049,0.281l-0.052,0.28l-0.052,0.279l-0.054,0.28l-0.055,0.278l-0.057,0.278l-0.058,0.278l-0.06,0.277l-0.06,0.276l-0.063,0.276l-0.063,0.275l-0.065,0.275l-0.066,0.274l-0.068,0.273l-0.069,0.273l-0.07,0.273l-0.072,0.272l-0.073,0.271l-0.074,0.271l-0.076,0.27l-0.077,0.269l-0.078,0.269l-0.08,0.269l-0.081,0.267l-0.082,0.268l-0.084,0.266l-0.084,0.266l-0.086,0.265l-0.088,0.265l-0.089,0.264l-0.09,0.263l-0.091,0.263l-0.092,0.262l-0.094,0.262l-0.095,0.261l-0.097,0.26l-0.097,0.26l-0.099,0.259l-0.1,0.258l-0.102,0.258l-0.102,0.257l-0.104,0.256l-0.105,0.255l-0.107,0.255l-0.107,0.255l-0.109,0.253l-0.11,0.253l-0.111,0.252l-0.113,0.252l-0.114,0.251l-0.114,0.25l-0.117,0.25l-0.117,0.248l-0.118,0.248l-0.12,0.248l-0.121,0.246l-0.122,0.246l-0.123,0.245l-0.124,0.245l-0.126,0.244l-0.127,0.243l-0.128,0.242l-0.129,0.241l-0.13,0.241l-0.131,0.24l-0.133,0.239l-0.134,0.239l-0.134,0.238l-0.136,0.237l-0.137,0.236l-0.139,0.235l-0.139,0.235l-0.14,0.234l-0.142,0.234l-0.143,0.232l-0.143,0.231l-0.145,0.231l-0.146,0.231l-0.147,0.229l-0.149,0.228l-0.149,0.228l-0.15,0.227l-0.152,0.226l-0.152,0.225l-0.154,0.224l-0.154,0.224l-0.156,0.223l-0.157,0.221l-0.158,0.222l-0.159,0.22l-0.16,0.219l-0.161,0.219l-0.162,0.217l-0.163,0.217l-0.164,0.216l-0.165,0.216l-0.166,0.214l-0.168,0.214l-0.168,0.212l-0.169,0.212l-0.17,0.211l-0.171,0.21l-0.173,0.209l-0.173,0.208l-0.174,0.207l-0.176,0.207l-0.176,0.206l-0.177,0.204l-0.178,0.204l-0.179,0.203l-0.181,0.202l-0.181,0.201l-0.182,0.2l-0.183,0.199l-0.184,0.199l-0.181,0.193l-0.314,0.337l-0.311,0.338l-0.31,0.339l-0.307,0.341l-0.306,0.342l-0.303,0.343l-0.302,0.345l-0.3,0.347l-0.298,0.348l-0.296,0.349l-0.294,0.351l-0.293,0.352l-0.29,0.353l-0.288,0.355l-0.287,0.356l-0.284,0.358l-0.283,0.358l-0.28,0.361l-0.279,0.361l-0.277,0.363l-0.275,0.364l-0.273,0.366l-0.27,0.366l-0.269,0.369l-0.267,0.369l-0.265,0.37l-0.263,0.372l-0.261,0.374l-0.259,0.374l-0.257,0.376l-0.255,0.377l-0.253,0.378l-0.251,0.379l-0.249,0.38l-0.247,0.382l-0.245,0.383l-0.243,0.384l-0.241,0.386l-0.239,0.386l-0.237,0.388l-0.235,0.389l-0.232,0.39l-0.231,0.391l-0.229,0.392l-0.227,0.393l-0.224,0.395l-0.223,0.395l-0.221,0.397l-0.218,0.398l-0.217,0.398l-0.214,0.4l-0.212,0.401l-0.21,0.402l-0.209,0.403l-0.206,0.404l-0.204,0.405l-0.202,0.406l-0.199,0.407l-0.198,0.408l-0.196,0.41l-0.193,0.41l-0.192,0.411l-0.189,0.412l-0.187,0.413l-0.185,0.414l-0.183,0.415l-0.181,0.416l-0.178,0.416l-0.177,0.418l-0.174,0.419l-0.173,0.419l-0.17,0.421l-0.168,0.421l-0.165,0.422l-0.164,0.423l-0.162,0.424l-0.159,0.425l-0.157,0.425l-0.155,0.427l-0.153,0.427l-0.151,0.428l-0.148,0.429l-0.146,0.43l-0.144,0.43l-0.142,0.432l-0.14,0.432l-0.137,0.432l-0.136,0.434l-0.133,0.435l-0.131,0.435l-0.128,0.436l-0.127,0.436l-0.124,0.437l-0.122,0.439l-0.12,0.438l-0.117,0.44l-0.115,0.44l-0.113,0.441l-0.111,0.441l-0.109,0.442l-0.106,0.443l-0.104,0.443l-0.102,0.444l-0.099,0.445l-0.098,0.446l-0.095,0.446l-0.092,0.446l-0.091,0.447l-0.088,0.448l-0.086,0.448l-0.083,0.449l-0.081,0.45l-0.079,0.45l-0.077,0.45l-0.074,0.451l-0.072,0.452l-0.07,0.452l-0.068,0.453l-0.065,0.453l-0.062,0.454l-0.061,0.454l-0.058,0.455l-0.056,0.455l-0.053,0.456l-0.051,0.456l-0.049,0.456l-0.046,0.457l-0.045,0.461l-0.335,3.506l-0.341,3.576l-0.346,3.633l-0.349,3.681l-0.706,7.462l-0.71,7.527l-0.706,7.506l-0.695,7.401l-1.327,14.154l-0.024,0.247l-0.025,0.249l-0.027,0.249l-0.029,0.248l-0.03,0.247l-0.031,0.248l-0.033,0.247l-0.034,0.246l-0.036,0.245l-0.037,0.246l-0.038,0.245l-0.04,0.244l-0.041,0.244l-0.043,0.243l-0.044,0.243l-0.045,0.242l-0.047,0.242l-0.048,0.241l-0.05,0.241l-0.051,0.24l-0.052,0.24l-0.054,0.239l-0.055,0.238l-0.056,0.238l-0.058,0.238l-0.059,0.237l-0.061,0.236l-0.061,0.236l-0.064,0.235l-0.064,0.235l-0.066,0.234l-0.067,0.233l-0.068,0.233l-0.07,0.233l-0.071,0.231l-0.072,0.231l-0.074,0.231l-0.075,0.23l-0.076,0.229l-0.077,0.228l-0.079,0.229l-0.08,0.227l-0.082,0.227l-0.082,0.226l-0.084,0.225l-0.085,0.225l-0.087,0.225l-0.087,0.223l-0.089,0.223l-0.09,0.222l-0.091,0.222l-0.093,0.221l-0.094,0.22l-0.095,0.22l-0.096,0.218l-0.097,0.219l-0.099,0.217l-0.1,0.217l-0.101,0.216l-0.102,0.216l-0.103,0.214l-0.105,0.215l-0.106,0.213l-0.107,0.212l-0.108,0.212l-0.109,0.211l-0.111,0.211l-0.111,0.21l-0.113,0.209l-0.114,0.208l-0.115,0.207l-0.116,0.207l-0.118,0.206l-0.118,0.205l-0.12,0.205l-0.12,0.204l-0.122,0.203l-0.123,0.202l-0.124,0.201l-0.125,0.201l-0.127,0.199l-0.127,0.2l-0.129,0.198l-0.129,0.197l-0.131,0.197l-0.131,0.196l-0.133,0.195l-0.134,0.194l-0.135,0.194l-0.136,0.192l-0.137,0.192l-0.138,0.191l-0.139,0.19l-0.14,0.189l-0.142,0.189l-0.142,0.187l-0.143,0.187l-0.145,0.186l-0.145,0.185l-0.146,0.184l-0.147,0.183l-0.149,0.183l-0.149,0.182l-0.151,0.18l-0.151,0.18l-0.152,0.179l-0.154,0.178l-0.154,0.177l-0.155,0.176l-0.157,0.176l-0.157,0.174l-0.158,0.174l-0.159,0.172l-0.16,0.172l-0.161,0.171l-0.162,0.17l-0.163,0.169l-0.164,0.167l-0.165,0.168l-0.166,0.166l-0.167,0.165l-0.167,0.164l-0.168,0.163l-0.17,0.163l-0.17,0.161l-0.171,0.16l-0.173,0.16l-0.173,0.158l-0.174,0.158l-0.175,0.156l-0.175,0.156l-0.176,0.154l-0.178,0.154l-0.178,0.153l-0.179,0.151l-0.181,0.151l-0.18,0.149l-0.182,0.149l-0.183,0.147l-0.183,0.147l-0.184,0.145l-0.185,0.145l-0.186,0.143l-0.187,0.142l-0.188,0.142l-0.188,0.14l-0.189,0.139l-0.19,0.139l-0.191,0.137l-0.191,0.136l-0.193,0.135l-0.193,0.134l-0.194,0.132l-0.194,0.132l-0.196,0.131l-0.196,0.13l-0.197,0.128l-0.198,0.127l-0.199,0.127l-0.199,0.125l-0.2,0.124l-0.201,0.123l-0.201,0.122l-0.203,0.121l-0.203,0.12l-0.203,0.118l-0.205,0.117l-0.205,0.117l-0.205,0.115l-0.207,0.114l-0.208,0.113l-0.207,0.112l-0.209,0.11l-0.209,0.109l-0.211,0.109l-0.211,0.107l-0.211,0.106l-0.211,0.104l-0.214,0.104l-0.213,0.103l-0.214,0.101l-0.215,0.1l-0.215,0.098l-0.216,0.098l-0.217,0.097l-0.217,0.095l-0.218,0.094l-0.219,0.092l-0.219,0.092l-0.22,0.091l-0.22,0.089l-0.221,0.088l-0.222,0.086l-0.222,0.086l-0.223,0.084l-0.224,0.083l-0.224,0.081l-0.224,0.081l-0.226,0.079l-0.226,0.078l-0.226,0.077l-0.227,0.075l-0.227,0.074l-0.228,0.073l-0.229,0.071l-0.229,0.071l-0.23,0.069l-0.23,0.067l-0.231,0.067l-0.231,0.065l-0.232,0.063l-0.232,0.063l-0.233,0.061l-0.233,0.06l-0.234,0.058l-0.235,0.057l-0.235,0.056l-0.235,0.055l-0.236,0.053l-0.236,0.052l-0.237,0.05l-0.237,0.049l-0.238,0.048l-0.238,0.046l-0.239,0.045l-0.239,0.044l-0.24,0.042l-0.24,0.041l-0.24,0.04l-0.241,0.038l-0.242,0.037l-0.242,0.035l-0.242,0.034l-0.242,0.032l-0.244,0.032l-0.243,0.029l-0.244,0.029l-0.244,0.027l-0.245,0.025l-0.245,0.024l-0.245,0.023l-0.246,0.021l-0.247,0.02l-0.246,0.018l-0.247,0.017l-0.247,0.016l-0.248,0.013l-0.248,0.013l-0.248,0.011l-0.249,0.01l-0.249,0.008l-0.249,0.006l-0.25,0.006l-0.251,0.004l-0.25,0.002l-0.248,0l-23.994,0l-0.218,0l-0.22,-0.002l-0.22,-0.004l-0.219,-0.004l-0.22,-0.006l-0.219,-0.007l-0.219,-0.008l-0.219,-0.01l-0.218,-0.011l-0.218,-0.013l-0.217,-0.013l-0.217,-0.015l-0.217,-0.016l-0.217,-0.018l-0.216,-0.018l-0.215,-0.02l-0.216,-0.021l-0.216,-0.023l-0.214,-0.023l-0.215,-0.025l-0.214,-0.027l-0.214,-0.027l-0.213,-0.029l-0.213,-0.03l-0.212,-0.031l-0.213,-0.032l-0.212,-0.033l-0.212,-0.035l-0.211,-0.036l-0.211,-0.037l-0.21,-0.039l-0.21,-0.039l-0.209,-0.041l-0.21,-0.042l-0.208,-0.043l-0.208,-0.045l-0.208,-0.045l-0.208,-0.047l-0.207,-0.048l-0.206,-0.049l-0.207,-0.05l-0.206,-0.052l-0.205,-0.052l-0.204,-0.054l-0.205,-0.055l-0.204,-0.056l-0.203,-0.057l-0.203,-0.059l-0.202,-0.059l-0.202,-0.061l-0.203,-0.062l-0.201,-0.063l-0.2,-0.064l-0.199,-0.065l-0.2,-0.066l-0.2,-0.067l-0.198,-0.069l-0.198,-0.069l-0.198,-0.071l-0.197,-0.072l-0.196,-0.073l-0.197,-0.074l-0.195,-0.075l-0.195,-0.076l-0.194,-0.078l-0.194,-0.078l-0.194,-0.08l-0.192,-0.08l-0.193,-0.082l-0.191,-0.082l-0.192,-0.084l-0.19,-0.085l-0.19,-0.086l-0.19,-0.087l-0.189,-0.088l-0.188,-0.089l-0.187,-0.09l-0.188,-0.091l-0.186,-0.092l-0.186,-0.093l-0.185,-0.094l-0.185,-0.095l-0.185,-0.097l-0.183,-0.097l-0.183,-0.098l-0.182,-0.1l-0.182,-0.1l-0.181,-0.101l-0.18,-0.102l-0.18,-0.104l-0.179,-0.104l-0.179,-0.105l-0.178,-0.106l-0.177,-0.107l-0.177,-0.109l-0.176,-0.109l-0.175,-0.11l-0.175,-0.111l-0.173,-0.112l-0.174,-0.113l-0.172,-0.115l-0.172,-0.114l-0.171,-0.116l-0.171,-0.117l-0.17,-0.118l-0.169,-0.119l-0.168,-0.119l-0.169,-0.121l-0.167,-0.122l-0.166,-0.122l-0.165,-0.123l-0.165,-0.125l-0.165,-0.125l-0.163,-0.126l-0.163,-0.127l-0.162,-0.128l-0.161,-0.129l-0.161,-0.129l-0.159,-0.131l-0.16,-0.132l-0.158,-0.132l-0.158,-0.134l-0.156,-0.133l-0.156,-0.135l-0.156,-0.136l-0.154,-0.137l-0.154,-0.138l-0.153,-0.138l-0.152,-0.14l-0.151,-0.14l-0.151,-0.141l-0.15,-0.142l-0.149,-0.143l-0.148,-0.143l-0.147,-0.145l-0.147,-0.145l-0.146,-0.146l-0.144,-0.147l-0.145,-0.147l-0.143,-0.149l-0.143,-0.15l-0.141,-0.15l-0.141,-0.151l-0.14,-0.152l-0.139,-0.153l-0.138,-0.153l-0.138,-0.154l-0.137,-0.155l-0.135,-0.156l-0.135,-0.157l-0.134,-0.157l-0.133,-0.158l-0.132,-0.159l-0.132,-0.16l-0.131,-0.16l-0.129,-0.161l-0.128,-0.162l-0.129,-0.163l-0.127,-0.164l-0.125,-0.164l-0.126,-0.165l-0.124,-0.165l-0.123,-0.167l-0.123,-0.167l-0.121,-0.168l-0.12,-0.169l-0.12,-0.169l-0.119,-0.17l-0.117,-0.171l-0.117,-0.172l-0.116,-0.172l-0.115,-0.173l-0.114,-0.174l-0.113,-0.174l-0.112,-0.175l-0.111,-0.176l-0.11,-0.176l-0.109,-0.177l-0.108,-0.178l-0.107,-0.178l-0.107,-0.18l-0.105,-0.18l-0.104,-0.18l-0.103,-0.181l-0.102,-0.182l-0.102,-0.183l-0.1,-0.183l-0.099,-0.184l-0.098,-0.184l-0.097,-0.185l-0.097,-0.186l-0.095,-0.186l-0.094,-0.187l-0.093,-0.188l-0.092,-0.188l-0.091,-0.189l-0.09,-0.189l-0.089,-0.191l-0.087,-0.19l-0.087,-0.192l-0.086,-0.192l-0.084,-0.192l-0.084,-0.194l-0.082,-0.193l-0.082,-0.194l-0.08,-0.195l-0.079,-0.196l-0.078,-0.196l-0.077,-0.197l-0.076,-0.197l-0.075,-0.198l-0.074,-0.198l-0.073,-0.199l-0.071,-0.199l-0.071,-0.2l-0.069,-0.201l-0.068,-0.201l-0.067,-0.202l-0.066,-0.202l-0.065,-0.202l-0.063,-0.204l-0.063,-0.203l-0.061,-0.205l-0.06,-0.205l-0.059,-0.205l-0.058,-0.206l-0.057,-0.206l-0.055,-0.207l-0.055,-0.208l-0.053,-0.208l-0.052,-0.207l-0.051,-0.21l-0.049,-0.209l-0.049,-0.21l-0.047,-0.21l-0.046,-0.211l-0.045,-0.211l-0.043,-0.212l-0.043,-0.212l-0.041,-0.212l-0.04,-0.214l-0.039,-0.213l-0.037,-0.214l-0.036,-0.215l-0.035,-0.214l-0.034,-0.216l-0.033,-0.216l-0.031,-0.216l-0.03,-0.216l-0.029,-0.217l-0.028,-0.218l-0.026,-0.218l-0.025,-0.218l-0.024,-0.218l-0.022,-0.22l-0.021,-0.217l-5.901,-62.984l-0.044,-0.46l-0.047,-0.457l-0.048,-0.457l-0.051,-0.456l-0.054,-0.456l-0.056,-0.455l-0.058,-0.455l-0.06,-0.454l-0.063,-0.454l-0.065,-0.454l-0.068,-0.453l-0.07,-0.452l-0.072,-0.452l-0.074,-0.451l-0.077,-0.451l-0.079,-0.45l-0.081,-0.45l-0.084,-0.449l-0.086,-0.448l-0.088,-0.448l-0.09,-0.448l-0.093,-0.446l-0.095,-0.447l-0.097,-0.445l-0.1,-0.445l-0.102,-0.444l-0.104,-0.444l-0.106,-0.443l-0.109,-0.442l-0.11,-0.442l-0.113,-0.441l-0.116,-0.44l-0.117,-0.44l-0.12,-0.439l-0.122,-0.438l-0.124,-0.438l-0.127,-0.436l-0.129,-0.436l-0.131,-0.436l-0.133,-0.434l-0.135,-0.434l-0.138,-0.433l-0.139,-0.432l-0.142,-0.432l-0.144,-0.431l-0.147,-0.43l-0.148,-0.429l-0.151,-0.428l-0.153,-0.427l-0.155,-0.427l-0.157,-0.426l-0.159,-0.425l-0.162,-0.424l-0.164,-0.423l-0.166,-0.422l-0.168,-0.422l-0.17,-0.421l-0.172,-0.419l-0.175,-0.419l-0.176,-0.418l-0.179,-0.417l-0.181,-0.416l-0.183,-0.415l-0.185,-0.414l-0.187,-0.413l-0.19,-0.413l-0.191,-0.411l-0.194,-0.41l-0.195,-0.409l-0.198,-0.409l-0.2,-0.407l-0.202,-0.406l-0.204,-0.405l-0.206,-0.405l-0.209,-0.403l-0.21,-0.402l-0.212,-0.401l-0.215,-0.4l-0.216,-0.399l-0.219,-0.398l-0.221,-0.397l-0.222,-0.395l-0.225,-0.395l-0.227,-0.394l-0.229,-0.392l-0.231,-0.391l-0.233,-0.39l-0.235,-0.389l-0.237,-0.388l-0.239,-0.387l-0.241,-0.385l-0.243,-0.384l-0.245,-0.384l-0.247,-0.382l-0.249,-0.38l-0.251,-0.38l-0.253,-0.378l-0.256,-0.377l-0.257,-0.376l-0.259,-0.374l-0.261,-0.374l-0.263,-0.372l-0.265,-0.371l-0.267,-0.369l-0.269,-0.369l-0.271,-0.367l-0.273,-0.365l-0.275,-0.364l-0.277,-0.364l-0.279,-0.361l-0.28,-0.361l-0.283,-0.359l-0.284,-0.357l-0.287,-0.356l-0.289,-0.356l-0.29,-0.353l-0.292,-0.352l-0.295,-0.351l-0.296,-0.349l-0.298,-0.348l-0.3,-0.347l-0.302,-0.345l-0.304,-0.344l-0.306,-0.342l-0.307,-0.341l-0.31,-0.339l-0.311,-0.338l-0.313,-0.336l-0.18,-0.19l-0.185,-0.198l-0.183,-0.199l-0.183,-0.199l-0.182,-0.201l-0.181,-0.202l-0.18,-0.202l-0.178,-0.203l-0.178,-0.204l-0.177,-0.206l-0.176,-0.205l-0.175,-0.207l-0.174,-0.208l-0.173,-0.209l-0.171,-0.209l-0.171,-0.211l-0.17,-0.211l-0.169,-0.212l-0.168,-0.213l-0.166,-0.214l-0.166,-0.215l-0.165,-0.216l-0.163,-0.217l-0.163,-0.217l-0.161,-0.218l-0.161,-0.219l-0.159,-0.22l-0.158,-0.221l-0.158,-0.221l-0.156,-0.223l-0.155,-0.223l-0.154,-0.224l-0.153,-0.225l-0.152,-0.226l-0.15,-0.226l-0.15,-0.228l-0.149,-0.228l-0.147,-0.229l-0.147,-0.229l-0.145,-0.231l-0.144,-0.232l-0.143,-0.232l-0.142,-0.232l-0.141,-0.234l-0.139,-0.235l-0.139,-0.235l-0.137,-0.236l-0.136,-0.237l-0.136,-0.237l-0.133,-0.239l-0.133,-0.239l-0.132,-0.24l-0.13,-0.24l-0.13,-0.242l-0.128,-0.242l-0.127,-0.243l-0.126,-0.243l-0.124,-0.245l-0.124,-0.245l-0.122,-0.246l-0.121,-0.246l-0.12,-0.247l-0.119,-0.248l-0.117,-0.249l-0.116,-0.249l-0.115,-0.25l-0.114,-0.251l-0.113,-0.251l-0.111,-0.252l-0.111,-0.254l-0.108,-0.253l-0.108,-0.254l-0.107,-0.255l-0.105,-0.255l-0.104,-0.257l-0.103,-0.257l-0.101,-0.257l-0.1,-0.259l-0.099,-0.258l-0.098,-0.26l-0.097,-0.26l-0.095,-0.261l-0.094,-0.261l-0.092,-0.262l-0.092,-0.263l-0.09,-0.264l-0.089,-0.264l-0.087,-0.264l-0.086,-0.266l-0.085,-0.265l-0.084,-0.267l-0.082,-0.267l-0.081,-0.268l-0.08,-0.268l-0.078,-0.269l-0.077,-0.269l-0.076,-0.27l-0.074,-0.271l-0.073,-0.271l-0.072,-0.272l-0.07,-0.273l-0.069,-0.273l-0.068,-0.273l-0.066,-0.274l-0.065,-0.275l-0.064,-0.275l-0.062,-0.276l-0.061,-0.276l-0.059,-0.277l-0.058,-0.278l-0.057,-0.278l-0.055,-0.279l-0.054,-0.278l-0.053,-0.28l-0.051,-0.28l-0.05,-0.281l-0.048,-0.281l-0.047,-0.281l-0.046,-0.283l-0.044,-0.282l-0.043,-0.283l-0.041,-0.284l-0.04,-0.284l-0.038,-0.285l-0.037,-0.285l-0.036,-0.286l-0.034,-0.286l-0.222,-1.949l0.003,-0.004l189.653,0l0.003,0.004Zm-186.275,2.996l0.032,0.223l0.041,0.268l0.041,0.267l0.043,0.267l0.045,0.266l0.045,0.266l0.047,0.266l0.049,0.264l0.05,0.265l0.051,0.264l0.052,0.263l0.053,0.263l0.055,0.262l0.057,0.262l0.057,0.261l0.059,0.261l0.06,0.26l0.061,0.26l0.063,0.259l0.064,0.258l0.065,0.259l0.067,0.257l0.068,0.257l0.069,0.257l0.07,0.255l0.071,0.256l0.073,0.254l0.074,0.254l0.076,0.254l0.076,0.253l0.078,0.252l0.079,0.252l0.08,0.252l0.081,0.25l0.083,0.25l0.084,0.25l0.085,0.249l0.087,0.248l0.087,0.248l0.089,0.247l0.09,0.246l0.091,0.246l0.092,0.245l0.094,0.245l0.095,0.244l0.096,0.243l0.097,0.243l0.098,0.242l0.099,0.242l0.101,0.24l0.102,0.24l0.103,0.24l0.104,0.239l0.105,0.238l0.107,0.238l0.107,0.237l0.109,0.236l0.11,0.236l0.111,0.235l0.112,0.234l0.113,0.233l0.115,0.233l0.115,0.232l0.117,0.232l0.117,0.231l0.119,0.23l0.12,0.229l0.121,0.229l0.122,0.228l0.124,0.227l0.124,0.227l0.126,0.226l0.126,0.225l0.128,0.224l0.128,0.224l0.13,0.224l0.131,0.222l0.132,0.221l0.133,0.221l0.134,0.22l0.135,0.22l0.137,0.218l0.137,0.218l0.138,0.217l0.139,0.217l0.141,0.215l0.141,0.215l0.143,0.214l0.143,0.213l0.145,0.213l0.145,0.212l0.147,0.211l0.147,0.21l0.149,0.209l0.15,0.209l0.15,0.207l0.152,0.207l0.152,0.207l0.154,0.205l0.155,0.205l0.155,0.204l0.156,0.202l0.158,0.203l0.159,0.201l0.159,0.201l0.161,0.199l0.161,0.199l0.162,0.198l0.164,0.197l0.164,0.197l0.165,0.195l0.167,0.195l0.167,0.194l0.168,0.193l0.169,0.192l0.17,0.191l0.171,0.19l0.171,0.19l0.173,0.188l0.174,0.188l0.174,0.187l0.182,0.192l0.324,0.349l0.322,0.349l0.32,0.351l0.319,0.352l0.316,0.354l0.314,0.356l0.312,0.357l0.31,0.358l0.308,0.36l0.307,0.361l0.304,0.363l0.302,0.364l0.301,0.365l0.298,0.367l0.296,0.368l0.294,0.37l0.293,0.372l0.29,0.372l0.288,0.374l0.286,0.375l0.285,0.377l0.282,0.378l0.28,0.38l0.278,0.38l0.276,0.382l0.274,0.384l0.272,0.384l0.27,0.386l0.268,0.388l0.266,0.388l0.264,0.39l0.261,0.391l0.26,0.393l0.258,0.393l0.255,0.395l0.253,0.396l0.252,0.398l0.249,0.398l0.247,0.4l0.245,0.401l0.243,0.402l0.241,0.403l0.239,0.405l0.236,0.406l0.235,0.406l0.232,0.408l0.23,0.409l0.229,0.411l0.226,0.411l0.224,0.413l0.221,0.413l0.22,0.415l0.217,0.416l0.216,0.417l0.213,0.417l0.211,0.419l0.209,0.421l0.206,0.421l0.205,0.422l0.202,0.423l0.2,0.424l0.198,0.425l0.196,0.427l0.194,0.427l0.191,0.428l0.189,0.429l0.187,0.43l0.185,0.431l0.183,0.432l0.18,0.433l0.178,0.434l0.176,0.435l0.174,0.436l0.171,0.436l0.17,0.438l0.167,0.438l0.165,0.44l0.162,0.44l0.16,0.441l0.158,0.442l0.156,0.443l0.154,0.444l0.151,0.444l0.149,0.445l0.147,0.446l0.144,0.447l0.143,0.448l0.14,0.449l0.137,0.449l0.136,0.45l0.133,0.451l0.13,0.451l0.129,0.453l0.126,0.453l0.124,0.454l0.121,0.454l0.12,0.455l0.117,0.456l0.114,0.457l0.112,0.457l0.11,0.458l0.108,0.459l0.105,0.459l0.103,0.46l0.101,0.461l0.098,0.461l0.096,0.462l0.093,0.463l0.092,0.463l0.088,0.464l0.087,0.464l0.084,0.465l0.081,0.465l0.08,0.466l0.077,0.467l0.074,0.467l0.072,0.468l0.07,0.468l0.067,0.469l0.065,0.469l0.063,0.47l0.06,0.47l0.058,0.471l0.055,0.471l0.053,0.472l0.05,0.472l0.048,0.473l0.046,0.471l5.9,62.984l0.02,0.204l0.021,0.201l0.022,0.201l0.023,0.201l0.024,0.2l0.025,0.199l0.027,0.2l0.027,0.199l0.029,0.199l0.03,0.198l0.031,0.197l0.032,0.198l0.033,0.197l0.035,0.196l0.035,0.196l0.037,0.196l0.038,0.195l0.039,0.195l0.04,0.194l0.041,0.194l0.042,0.193l0.044,0.193l0.044,0.193l0.045,0.192l0.047,0.191l0.048,0.192l0.049,0.191l0.049,0.19l0.051,0.19l0.052,0.189l0.053,0.189l0.055,0.188l0.055,0.188l0.056,0.188l0.057,0.187l0.059,0.186l0.059,0.186l0.061,0.186l0.061,0.184l0.063,0.185l0.063,0.184l0.065,0.183l0.065,0.183l0.067,0.183l0.068,0.182l0.068,0.181l0.07,0.181l0.071,0.181l0.071,0.179l0.073,0.18l0.074,0.178l0.074,0.179l0.076,0.178l0.077,0.177l0.077,0.176l0.079,0.176l0.079,0.176l0.081,0.175l0.081,0.174l0.083,0.174l0.083,0.173l0.085,0.173l0.085,0.172l0.087,0.172l0.087,0.171l0.088,0.17l0.089,0.17l0.09,0.169l0.091,0.169l0.092,0.168l0.093,0.167l0.094,0.167l0.094,0.166l0.096,0.166l0.097,0.165l0.097,0.165l0.098,0.163l0.1,0.164l0.1,0.162l0.101,0.162l0.102,0.161l0.103,0.161l0.103,0.16l0.105,0.159l0.105,0.159l0.106,0.158l0.108,0.157l0.108,0.157l0.109,0.156l0.109,0.156l0.111,0.155l0.112,0.154l0.112,0.153l0.113,0.153l0.114,0.152l0.115,0.152l0.116,0.151l0.116,0.15l0.117,0.149l0.119,0.149l0.119,0.148l0.119,0.147l0.121,0.147l0.121,0.145l0.123,0.146l0.123,0.144l0.123,0.144l0.125,0.143l0.125,0.142l0.126,0.142l0.128,0.141l0.127,0.14l0.129,0.139l0.129,0.139l0.13,0.138l0.131,0.137l0.131,0.136l0.133,0.136l0.133,0.135l0.134,0.134l0.134,0.133l0.136,0.133l0.136,0.132l0.137,0.131l0.137,0.13l0.138,0.13l0.14,0.129l0.139,0.128l0.14,0.127l0.142,0.126l0.142,0.126l0.142,0.124l0.144,0.125l0.144,0.123l0.144,0.122l0.145,0.122l0.146,0.12l0.147,0.12l0.148,0.119l0.148,0.119l0.149,0.117l0.149,0.117l0.15,0.116l0.151,0.115l0.151,0.114l0.153,0.113l0.152,0.113l0.154,0.111l0.153,0.111l0.155,0.11l0.156,0.109l0.156,0.108l0.156,0.107l0.157,0.106l0.158,0.106l0.159,0.105l0.159,0.103l0.16,0.103l0.16,0.102l0.161,0.101l0.161,0.101l0.162,0.099l0.163,0.098l0.163,0.098l0.164,0.097l0.164,0.095l0.165,0.095l0.166,0.094l0.166,0.093l0.167,0.092l0.167,0.091l0.168,0.09l0.169,0.089l0.169,0.089l0.169,0.087l0.17,0.086l0.171,0.086l0.171,0.084l0.172,0.084l0.172,0.083l0.173,0.081l0.173,0.081l0.174,0.08l0.174,0.079l0.176,0.078l0.174,0.076l0.176,0.076l0.177,0.075l0.177,0.074l0.177,0.073l0.178,0.072l0.178,0.071l0.179,0.07l0.18,0.069l0.179,0.067l0.181,0.067l0.181,0.066l0.181,0.065l0.182,0.064l0.182,0.063l0.182,0.062l0.183,0.06l0.184,0.06l0.184,0.059l0.185,0.058l0.184,0.056l0.185,0.056l0.186,0.055l0.186,0.053l0.188,0.053l0.186,0.051l0.187,0.05l0.189,0.05l0.188,0.048l0.189,0.047l0.188,0.046l0.19,0.045l0.19,0.044l0.19,0.043l0.191,0.042l0.191,0.041l0.192,0.039l0.191,0.039l0.193,0.037l0.193,0.037l0.192,0.035l0.194,0.034l0.194,0.033l0.194,0.032l0.194,0.031l0.195,0.029l0.195,0.029l0.196,0.027l0.195,0.027l0.197,0.025l0.196,0.024l0.197,0.023l0.197,0.021l0.198,0.021l0.197,0.019l0.199,0.019l0.199,0.017l0.198,0.016l0.199,0.015l0.2,0.013l0.2,0.013l0.2,0.011l0.2,0.01l0.2,0.009l0.202,0.008l0.201,0.006l0.201,0.006l0.202,0.004l0.203,0.003l0.202,0.002l0.204,0l23.985,0l0.236,0l0.232,-0.002l0.232,-0.004l0.232,-0.005l0.232,-0.006l0.231,-0.007l0.231,-0.009l0.23,-0.011l0.231,-0.011l0.23,-0.013l0.229,-0.015l0.23,-0.015l0.228,-0.017l0.229,-0.019l0.228,-0.019l0.228,-0.021l0.227,-0.023l0.227,-0.023l0.227,-0.025l0.226,-0.027l0.226,-0.027l0.225,-0.029l0.225,-0.03l0.225,-0.032l0.225,-0.033l0.223,-0.034l0.224,-0.035l0.223,-0.037l0.223,-0.038l0.222,-0.039l0.222,-0.04l0.221,-0.042l0.221,-0.043l0.221,-0.044l0.22,-0.046l0.219,-0.047l0.219,-0.048l0.219,-0.049l0.219,-0.051l0.217,-0.051l0.217,-0.053l0.217,-0.055l0.217,-0.055l0.216,-0.057l0.215,-0.058l0.216,-0.059l0.214,-0.06l0.213,-0.061l0.214,-0.063l0.213,-0.064l0.212,-0.065l0.212,-0.067l0.212,-0.067l0.211,-0.069l0.211,-0.07l0.209,-0.071l0.21,-0.072l0.208,-0.073l0.209,-0.075l0.208,-0.076l0.207,-0.077l0.206,-0.078l0.207,-0.079l0.205,-0.08l0.205,-0.082l0.205,-0.083l0.203,-0.083l0.204,-0.085l0.202,-0.086l0.203,-0.088l0.202,-0.088l0.2,-0.089l0.201,-0.091l0.2,-0.092l0.199,-0.092l0.198,-0.094l0.198,-0.095l0.197,-0.096l0.197,-0.097l0.197,-0.099l0.195,-0.099l0.194,-0.1l0.195,-0.102l0.193,-0.102l0.193,-0.104l0.193,-0.105l0.191,-0.105l0.191,-0.107l0.191,-0.108l0.189,-0.109l0.19,-0.11l0.188,-0.111l0.187,-0.112l0.187,-0.113l0.187,-0.114l0.185,-0.116l0.185,-0.116l0.184,-0.117l0.184,-0.118l0.183,-0.12l0.182,-0.12l0.181,-0.121l0.181,-0.122l0.18,-0.124l0.179,-0.124l0.178,-0.125l0.178,-0.126l0.177,-0.128l0.176,-0.128l0.176,-0.129l0.175,-0.13l0.174,-0.131l0.173,-0.133l0.173,-0.133l0.171,-0.134l0.171,-0.135l0.171,-0.136l0.169,-0.136l0.169,-0.138l0.168,-0.139l0.166,-0.14l0.167,-0.14l0.165,-0.142l0.165,-0.142l0.164,-0.144l0.163,-0.144l0.162,-0.145l0.161,-0.147l0.161,-0.147l0.16,-0.148l0.159,-0.149l0.158,-0.149l0.157,-0.151l0.156,-0.151l0.156,-0.153l0.155,-0.153l0.153,-0.154l0.153,-0.155l0.152,-0.156l0.151,-0.157l0.151,-0.158l0.15,-0.158l0.148,-0.16l0.148,-0.16l0.146,-0.161l0.147,-0.162l0.144,-0.162l0.144,-0.164l0.144,-0.164l0.142,-0.165l0.141,-0.166l0.141,-0.167l0.139,-0.168l0.139,-0.168l0.137,-0.17l0.137,-0.17l0.136,-0.171l0.135,-0.171l0.134,-0.173l0.133,-0.173l0.132,-0.174l0.131,-0.175l0.13,-0.176l0.129,-0.176l0.128,-0.177l0.127,-0.178l0.126,-0.179l0.126,-0.179l0.124,-0.181l0.123,-0.18l0.122,-0.182l0.121,-0.183l0.121,-0.183l0.119,-0.183l0.118,-0.185l0.117,-0.186l0.116,-0.186l0.115,-0.187l0.114,-0.187l0.113,-0.188l0.112,-0.189l0.111,-0.19l0.11,-0.19l0.109,-0.191l0.108,-0.192l0.106,-0.192l0.106,-0.193l0.105,-0.195l0.103,-0.194l0.102,-0.195l0.102,-0.196l0.1,-0.196l0.099,-0.198l0.098,-0.197l0.097,-0.199l0.096,-0.199l0.095,-0.2l0.094,-0.2l0.092,-0.201l0.092,-0.202l0.09,-0.202l0.089,-0.204l0.089,-0.203l0.086,-0.204l0.086,-0.205l0.085,-0.206l0.083,-0.206l0.083,-0.206l0.081,-0.208l0.08,-0.208l0.079,-0.208l0.078,-0.21l0.076,-0.209l0.076,-0.211l0.074,-0.21l0.073,-0.212l0.072,-0.212l0.071,-0.212l0.069,-0.214l0.068,-0.213l0.067,-0.214l0.066,-0.215l0.065,-0.216l0.063,-0.216l0.062,-0.216l0.061,-0.217l0.06,-0.218l0.059,-0.218l0.057,-0.219l0.056,-0.219l0.055,-0.22l0.054,-0.22l0.052,-0.221l0.051,-0.221l0.05,-0.222l0.048,-0.223l0.048,-0.222l0.046,-0.223l0.044,-0.224l0.044,-0.224l0.042,-0.226l0.041,-0.225l0.039,-0.225l0.039,-0.227l0.037,-0.227l0.035,-0.227l0.035,-0.227l0.033,-0.229l0.032,-0.228l0.03,-0.23l0.029,-0.229l0.028,-0.23l0.026,-0.231l0.025,-0.23l0.024,-0.232l0.023,-0.234l1.326,-14.149l0.695,-7.402l0.706,-7.507l0.71,-7.527l0.706,-7.463l0.35,-3.682l0.345,-3.634l0.341,-3.576l0.336,-3.508l0.045,-0.469l0.048,-0.473l0.051,-0.472l0.052,-0.471l0.056,-0.471l0.057,-0.471l0.06,-0.47l0.063,-0.47l0.065,-0.469l0.067,-0.468l0.07,-0.468l0.072,-0.468l0.074,-0.467l0.077,-0.466l0.079,-0.466l0.082,-0.465l0.084,-0.465l0.087,-0.464l0.088,-0.464l0.091,-0.463l0.094,-0.462l0.096,-0.462l0.098,-0.461l0.1,-0.46l0.103,-0.46l0.105,-0.459l0.108,-0.459l0.11,-0.457l0.112,-0.458l0.115,-0.456l0.116,-0.456l0.12,-0.455l0.121,-0.454l0.124,-0.454l0.126,-0.453l0.129,-0.452l0.13,-0.451l0.133,-0.451l0.136,-0.45l0.137,-0.449l0.14,-0.448l0.142,-0.448l0.145,-0.446l0.146,-0.446l0.149,-0.446l0.151,-0.444l0.154,-0.443l0.156,-0.443l0.158,-0.442l0.16,-0.441l0.162,-0.44l0.165,-0.439l0.167,-0.438l0.169,-0.437l0.172,-0.437l0.173,-0.436l0.176,-0.434l0.178,-0.434l0.181,-0.433l0.182,-0.432l0.185,-0.431l0.187,-0.429l0.189,-0.429l0.191,-0.428l0.194,-0.428l0.196,-0.426l0.197,-0.425l0.2,-0.423l0.203,-0.423l0.204,-0.422l0.207,-0.421l0.208,-0.42l0.211,-0.419l0.213,-0.418l0.216,-0.416l0.217,-0.416l0.219,-0.415l0.222,-0.413l0.224,-0.412l0.226,-0.412l0.228,-0.41l0.23,-0.409l0.232,-0.407l0.235,-0.407l0.236,-0.406l0.239,-0.404l0.241,-0.403l0.242,-0.402l0.245,-0.401l0.247,-0.399l0.25,-0.399l0.251,-0.397l0.253,-0.396l0.255,-0.394l0.258,-0.394l0.259,-0.392l0.262,-0.391l0.264,-0.39l0.265,-0.388l0.268,-0.387l0.27,-0.386l0.272,-0.385l0.274,-0.383l0.276,-0.382l0.278,-0.38l0.28,-0.38l0.282,-0.377l0.284,-0.377l0.286,-0.375l0.288,-0.374l0.29,-0.373l0.292,-0.37l0.295,-0.37l0.296,-0.368l0.298,-0.367l0.3,-0.366l0.302,-0.364l0.304,-0.362l0.306,-0.361l0.309,-0.36l0.31,-0.358l0.312,-0.357l0.314,-0.355l0.316,-0.354l0.318,-0.352l0.32,-0.351l0.321,-0.349l0.323,-0.346l0.179,-0.191l0.174,-0.188l0.173,-0.188l0.172,-0.189l0.172,-0.191l0.17,-0.191l0.169,-0.191l0.169,-0.193l0.167,-0.194l0.167,-0.194l0.166,-0.195l0.164,-0.196l0.164,-0.197l0.163,-0.198l0.162,-0.199l0.161,-0.199l0.16,-0.2l0.159,-0.201l0.158,-0.202l0.157,-0.203l0.157,-0.203l0.155,-0.204l0.154,-0.205l0.153,-0.206l0.152,-0.207l0.152,-0.208l0.15,-0.208l0.149,-0.209l0.148,-0.21l0.148,-0.21l0.146,-0.211l0.145,-0.213l0.144,-0.213l0.143,-0.213l0.142,-0.214l0.142,-0.216l0.14,-0.216l0.139,-0.217l0.138,-0.217l0.137,-0.218l0.136,-0.219l0.135,-0.22l0.133,-0.22l0.133,-0.221l0.132,-0.222l0.13,-0.223l0.13,-0.223l0.129,-0.224l0.127,-0.225l0.126,-0.225l0.125,-0.227l0.125,-0.227l0.123,-0.227l0.122,-0.229l0.121,-0.228l0.12,-0.23l0.118,-0.23l0.118,-0.231l0.116,-0.232l0.115,-0.233l0.115,-0.233l0.113,-0.234l0.112,-0.234l0.111,-0.235l0.109,-0.236l0.109,-0.236l0.108,-0.238l0.106,-0.237l0.105,-0.238l0.104,-0.24l0.103,-0.239l0.101,-0.241l0.101,-0.24l0.099,-0.242l0.098,-0.242l0.097,-0.243l0.096,-0.244l0.095,-0.244l0.093,-0.245l0.093,-0.245l0.091,-0.246l0.09,-0.246l0.088,-0.248l0.088,-0.247l0.086,-0.249l0.085,-0.249l0.084,-0.249l0.082,-0.25l0.082,-0.251l0.08,-0.252l0.079,-0.252l0.078,-0.252l0.076,-0.253l0.076,-0.254l0.074,-0.254l0.072,-0.254l0.072,-0.256l0.07,-0.256l0.069,-0.256l0.068,-0.257l0.066,-0.258l0.065,-0.258l0.064,-0.259l0.063,-0.259l0.061,-0.26l0.06,-0.26l0.059,-0.26l0.058,-0.262l0.056,-0.262l0.055,-0.262l0.054,-0.263l0.052,-0.263l0.051,-0.264l0.05,-0.264l0.048,-0.265l0.047,-0.266l0.046,-0.266l0.044,-0.266l0.043,-0.267l0.042,-0.267l0.04,-0.268l0.033,-0.223l-182.892,0Z"/><path d="M319.283,210.735l0.057,0.004l0.057,0.007l0.056,0.01l0.056,0.013l0.054,0.017l0.054,0.02l0.052,0.022l0.051,0.026l0.05,0.029l0.048,0.031l0.046,0.034l0.043,0.036l0.042,0.039l0.04,0.042l7.576,8.402l0.037,0.043l0.034,0.046l0.032,0.047l0.029,0.05l0.026,0.05l0.023,0.053l0.021,0.053l0.017,0.054l0.014,0.056l0.011,0.056l0.007,0.056l0.005,0.057l0.001,0.057l-0.002,0.058l-0.006,0.056l-0.008,0.057l-0.012,0.056l-0.015,0.055l-0.018,0.054l-0.021,0.053l-0.025,0.052l-0.027,0.05l-0.03,0.049l-0.032,0.047l-0.035,0.044l-0.038,0.043l-0.04,0.041l-0.043,0.038l-0.044,0.036l-0.047,0.033l-0.048,0.031l-0.05,0.027l-0.052,0.025l-0.052,0.022l-0.054,0.018l-0.055,0.016l-0.056,0.012l-0.056,0.01l-0.057,0.006l-0.057,0.002l-0.057,0l-0.057,-0.004l-0.057,-0.007l-0.056,-0.01l-0.056,-0.013l-0.054,-0.017l-0.054,-0.02l-0.052,-0.022l-0.051,-0.026l-0.05,-0.029l-0.048,-0.031l-0.046,-0.034l-0.044,-0.036l-0.041,-0.039l-0.04,-0.042l-7.576,-8.402l-0.037,-0.044l-0.034,-0.045l-0.032,-0.047l-0.029,-0.05l-0.026,-0.05l-0.024,-0.053l-0.02,-0.053l-0.017,-0.054l-0.014,-0.056l-0.011,-0.056l-0.008,-0.056l-0.004,-0.057l-0.001,-0.058l0.002,-0.057l0.005,-0.056l0.009,-0.057l0.012,-0.056l0.015,-0.055l0.018,-0.054l0.021,-0.053l0.024,-0.052l0.028,-0.05l0.029,-0.049l0.033,-0.047l0.035,-0.045l0.038,-0.042l0.04,-0.041l0.043,-0.038l0.044,-0.036l0.047,-0.033l0.048,-0.031l0.05,-0.027l0.052,-0.025l0.052,-0.022l0.054,-0.018l0.055,-0.016l0.056,-0.012l0.056,-0.01l0.057,-0.006l0.057,-0.002l0.057,0Z"/><path d="M333.127,226.074l0.087,0.008l0.086,0.016l0.084,0.023l0.082,0.031l0.078,0.037l0.076,0.044l0.071,0.051l0.066,0.057l0.061,0.062l17.324,19.213l0.056,0.068l0.049,0.071l0.043,0.076l0.037,0.08l0.029,0.082l0.022,0.084l0.014,0.086l0.007,0.087l-0.001,0.088l-0.008,0.086l-0.016,0.086l-0.023,0.084l-0.031,0.082l-0.037,0.079l-0.044,0.075l-0.051,0.071l-0.057,0.066l-0.062,0.062l-0.067,0.055l-0.072,0.05l-0.076,0.043l-0.079,0.036l-0.082,0.029l-0.085,0.022l-0.086,0.014l-0.087,0.007l-0.087,0l-0.087,-0.009l-0.086,-0.015l-0.084,-0.024l-0.081,-0.03l-0.079,-0.038l-0.075,-0.044l-0.071,-0.051l-0.067,-0.056l-0.061,-0.062l-17.324,-19.214l-0.056,-0.067l-0.049,-0.072l-0.043,-0.076l-0.036,-0.079l-0.029,-0.083l-0.022,-0.084l-0.015,-0.086l-0.007,-0.087l0.001,-0.087l0.008,-0.087l0.016,-0.086l0.023,-0.084l0.031,-0.082l0.037,-0.078l0.045,-0.076l0.05,-0.071l0.057,-0.066l0.062,-0.061l0.067,-0.056l0.072,-0.049l0.076,-0.043l0.079,-0.037l0.083,-0.029l0.084,-0.022l0.086,-0.014l0.087,-0.007l0.087,0.001Z"/><path d="M253.871,285.377l0.13,0.016l0.128,0.028l0.125,0.039l0.121,0.05l0.116,0.06l0.111,0.07l0.104,0.079l0.097,0.089l0.088,0.096l0.08,0.103l0.071,0.11l0.061,0.116l0.05,0.121l0.04,0.125l0.029,0.127l0.017,0.13l0.006,0.131l-0.005,0.131l-0.017,0.129l-0.028,0.128l-0.039,0.125l-0.05,0.121l-0.06,0.116l-0.07,0.111l-0.079,0.104l-0.088,0.097l-0.096,0.089l-29.304,24.739l-0.103,0.08l-0.111,0.07l-0.115,0.061l-0.121,0.051l-0.125,0.039l-0.128,0.029l-0.129,0.018l-0.131,0.006l-0.131,-0.006l-0.129,-0.016l-0.128,-0.028l-0.125,-0.039l-0.121,-0.05l-0.117,-0.06l-0.11,-0.07l-0.104,-0.079l-0.097,-0.088l-0.089,-0.097l-0.08,-0.103l-0.07,-0.11l-0.061,-0.116l-0.05,-0.121l-0.04,-0.125l-0.029,-0.127l-0.017,-0.13l-0.006,-0.131l0.005,-0.131l0.017,-0.129l0.027,-0.128l0.039,-0.125l0.05,-0.121l0.06,-0.116l0.07,-0.111l0.08,-0.104l0.088,-0.097l0.096,-0.088l29.303,-24.74l0.104,-0.08l0.11,-0.07l0.116,-0.061l0.121,-0.051l0.125,-0.039l0.127,-0.029l0.13,-0.018l0.131,-0.006l0.13,0.006Z"/><path d="M289.672,255.751l0.102,0.02l0.101,0.031l0.096,0.04l0.092,0.051l0.085,0.06l0.079,0.069l0.072,0.076l0.063,0.084l0.054,0.09l0.044,0.095l0.034,0.099l0.024,0.101l0.012,0.104l0.002,0.105l-0.009,0.104l-0.02,0.103l-0.03,0.1l-0.041,0.097l-0.051,0.091l-0.06,0.086l-0.069,0.079l-0.076,0.071l-27.996,23.502l-0.083,0.063l-0.09,0.054l-0.095,0.044l-0.099,0.034l-0.102,0.024l-0.104,0.013l-0.104,0.002l-0.105,-0.01l-0.102,-0.02l-0.1,-0.03l-0.097,-0.041l-0.091,-0.051l-0.086,-0.06l-0.079,-0.068l-0.071,-0.077l-0.063,-0.083l-0.054,-0.09l-0.045,-0.095l-0.034,-0.099l-0.023,-0.102l-0.013,-0.104l-0.002,-0.105l0.009,-0.104l0.02,-0.103l0.031,-0.1l0.041,-0.096l0.05,-0.092l0.06,-0.085l0.069,-0.079l0.076,-0.072l27.996,-23.502l0.083,-0.063l0.09,-0.053l0.095,-0.045l0.099,-0.034l0.102,-0.023l0.104,-0.013l0.104,-0.002l0.105,0.009Z"/><path d="M325.829,225.161l0.126,0.014l0.125,0.025l0.122,0.035l0.119,0.046l0.115,0.055l0.109,0.065l0.104,0.074l0.097,0.083l0.089,0.09l0.082,0.098l0.073,0.104l0.064,0.111l0.054,0.115l0.044,0.119l0.035,0.123l0.023,0.125l0.013,0.127l0.002,0.127l-0.009,0.127l-0.019,0.126l-0.03,0.123l-0.041,0.121l-0.05,0.117l-0.061,0.112l-0.069,0.107l-0.079,0.1l-0.086,0.093l-0.095,0.086l-28.358,23.663l-0.101,0.078l-0.107,0.068l-0.113,0.059l-0.117,0.05l-0.121,0.039l-0.124,0.029l-0.126,0.018l-0.128,0.007l-0.127,-0.003l-0.126,-0.014l-0.125,-0.025l-0.123,-0.035l-0.118,-0.046l-0.115,-0.055l-0.11,-0.065l-0.103,-0.074l-0.097,-0.083l-0.09,-0.09l-0.081,-0.098l-0.073,-0.105l-0.064,-0.11l-0.054,-0.115l-0.045,-0.119l-0.034,-0.123l-0.023,-0.125l-0.013,-0.127l-0.002,-0.127l0.009,-0.127l0.019,-0.126l0.03,-0.124l0.041,-0.12l0.05,-0.117l0.06,-0.112l0.07,-0.107l0.078,-0.1l0.087,-0.094l0.094,-0.085l28.358,-23.663l0.102,-0.078l0.107,-0.068l0.113,-0.059l0.117,-0.05l0.121,-0.039l0.124,-0.029l0.126,-0.018l0.127,-0.007l0.128,0.003Z"/><path d="M308.439,349.872l0.126,0.019l0.124,0.029l0.121,0.04l0.117,0.05l0.113,0.059l0.107,0.069l0.101,0.078l0.094,0.086l0.086,0.094l0.078,0.1l0.069,0.107l0.06,0.113l0.05,0.117l0.04,0.121l0.03,0.123l0.019,0.126l0.008,0.127l-0.003,0.128l-0.013,0.126l-0.024,0.125l-0.035,0.123l-0.044,0.119l-0.055,0.115l-0.065,0.11l-0.073,0.104l-0.082,0.097l-0.09,0.09l-0.097,0.083l-27.954,21.656l-0.104,0.074l-0.11,0.065l-0.115,0.055l-0.119,0.045l-0.122,0.035l-0.125,0.024l-0.127,0.014l-0.127,0.002l-0.127,-0.008l-0.126,-0.018l-0.124,-0.03l-0.121,-0.039l-0.117,-0.05l-0.113,-0.06l-0.107,-0.069l-0.101,-0.077l-0.093,-0.086l-0.087,-0.094l-0.078,-0.101l-0.069,-0.107l-0.06,-0.112l-0.05,-0.117l-0.04,-0.121l-0.029,-0.124l-0.019,-0.126l-0.009,-0.127l0.003,-0.127l0.013,-0.127l0.024,-0.125l0.035,-0.122l0.045,-0.119l0.054,-0.115l0.065,-0.11l0.073,-0.104l0.082,-0.098l0.09,-0.09l0.097,-0.082l27.955,-21.657l0.103,-0.074l0.11,-0.064l0.115,-0.055l0.119,-0.045l0.123,-0.035l0.125,-0.024l0.126,-0.014l0.127,-0.003l0.127,0.008Z"/><path d="M328.258,334.708l0.067,0.008l0.065,0.013l0.065,0.017l0.063,0.021l0.062,0.025l0.06,0.03l0.058,0.033l0.056,0.037l0.052,0.041l0.051,0.044l0.047,0.048l0.043,0.05l0.04,0.054l0.037,0.056l0.033,0.058l0.029,0.06l0.024,0.062l0.021,0.064l0.016,0.065l0.012,0.066l0.007,0.066l0.003,0.067l-0.001,0.067l-0.006,0.066l-0.01,0.066l-0.015,0.065l-0.019,0.064l-0.023,0.063l-0.028,0.061l-0.031,0.059l-0.036,0.057l-0.039,0.054l-0.042,0.051l-0.046,0.049l-0.049,0.045l-0.052,0.042l-11.608,8.757l-0.055,0.039l-0.057,0.035l-0.059,0.03l-0.062,0.027l-0.062,0.023l-0.065,0.018l-0.065,0.014l-0.066,0.01l-0.067,0.005l-0.067,0.001l-0.066,-0.004l-0.067,-0.008l-0.065,-0.013l-0.065,-0.016l-0.063,-0.022l-0.062,-0.025l-0.06,-0.029l-0.058,-0.034l-0.056,-0.037l-0.052,-0.041l-0.051,-0.044l-0.047,-0.048l-0.043,-0.05l-0.041,-0.054l-0.036,-0.056l-0.033,-0.058l-0.029,-0.06l-0.024,-0.062l-0.021,-0.064l-0.016,-0.065l-0.012,-0.065l-0.007,-0.067l-0.003,-0.067l0.001,-0.066l0.006,-0.067l0.01,-0.066l0.015,-0.065l0.019,-0.064l0.023,-0.063l0.028,-0.061l0.031,-0.059l0.036,-0.056l0.039,-0.055l0.042,-0.051l0.046,-0.049l0.049,-0.045l0.052,-0.042l11.608,-8.757l0.055,-0.039l0.057,-0.034l0.059,-0.031l0.062,-0.027l0.062,-0.023l0.065,-0.018l0.065,-0.014l0.066,-0.01l0.067,-0.005l0.067,-0.001l0.066,0.004Z"/><path d="M343.939,210.737l0.063,0.006l0.064,0.011l0.062,0.014l0.061,0.019l0.06,0.022l0.059,0.026l0.057,0.03l0.054,0.034l0.053,0.037l0.05,0.04l0.047,0.043l0.044,0.046l0.042,0.049l0.038,0.052l0.034,0.054l0.032,0.056l0.027,0.058l0.024,0.059l0.02,0.061l0.016,0.062l0.012,0.063l0.008,0.064l0.004,0.064l-0.001,0.064l-0.004,0.064l-0.009,0.063l-0.012,0.063l-0.017,0.062l-0.02,0.061l-0.024,0.059l-0.029,0.058l-0.031,0.056l-0.035,0.053l-0.039,0.051l-0.042,0.049l-0.045,0.046l-0.047,0.043l-10.542,8.892l-0.05,0.04l-0.053,0.036l-0.055,0.033l-0.057,0.03l-0.059,0.025l-0.06,0.022l-0.061,0.018l-0.063,0.014l-0.063,0.01l-0.064,0.006l-0.064,0.002l-0.064,-0.003l-0.064,-0.006l-0.063,-0.011l-0.063,-0.014l-0.061,-0.019l-0.06,-0.022l-0.059,-0.026l-0.056,-0.03l-0.055,-0.034l-0.052,-0.036l-0.05,-0.041l-0.048,-0.043l-0.044,-0.046l-0.041,-0.049l-0.039,-0.052l-0.034,-0.054l-0.031,-0.056l-0.028,-0.058l-0.024,-0.059l-0.02,-0.061l-0.016,-0.062l-0.012,-0.063l-0.008,-0.064l-0.003,-0.064l0,-0.064l0.004,-0.064l0.009,-0.063l0.012,-0.063l0.017,-0.062l0.02,-0.061l0.025,-0.059l0.028,-0.058l0.031,-0.055l0.036,-0.054l0.038,-0.051l0.042,-0.049l0.045,-0.046l0.047,-0.043l10.542,-8.892l0.05,-0.04l0.053,-0.036l0.055,-0.033l0.057,-0.03l0.059,-0.025l0.06,-0.022l0.062,-0.018l0.062,-0.014l0.064,-0.01l0.063,-0.006l0.064,-0.002l0.065,0.003Z"/><path d="M268.142,222.593l0.101,0.01l0.099,0.021l0.096,0.031l0.093,0.041l0.088,0.049l0.083,0.059l0.077,0.066l0.069,0.074l22.21,26.154l0.062,0.081l0.053,0.086l0.044,0.091l0.035,0.095l0.025,0.098l0.015,0.101l0.004,0.101l-0.005,0.101l-0.016,0.1l-0.026,0.098l-0.036,0.095l-0.045,0.09l-0.054,0.086l-0.063,0.08l-0.07,0.073l-0.077,0.065l-0.083,0.058l-0.089,0.049l-0.094,0.039l-0.096,0.03l-0.1,0.02l-0.101,0.009l-0.101,0l-0.101,-0.011l-0.099,-0.021l-0.096,-0.031l-0.093,-0.04l-0.088,-0.05l-0.083,-0.058l-0.077,-0.067l-0.069,-0.073l-22.21,-26.155l-0.062,-0.08l-0.053,-0.086l-0.044,-0.091l-0.035,-0.096l-0.025,-0.098l-0.014,-0.1l-0.005,-0.101l0.006,-0.101l0.016,-0.1l0.025,-0.098l0.036,-0.095l0.045,-0.091l0.054,-0.086l0.063,-0.079l0.07,-0.073l0.077,-0.066l0.084,-0.057l0.088,-0.049l0.094,-0.04l0.097,-0.029l0.099,-0.02l0.101,-0.01l0.101,0.001Z"/><path d="M257.987,210.667l0.042,0.002l0.041,0.004l0.041,0.006l0.04,0.007l0.041,0.009l0.04,0.01l0.039,0.013l0.039,0.013l0.039,0.016l0.037,0.017l0.037,0.018l0.036,0.02l0.036,0.022l0.034,0.023l0.033,0.024l0.033,0.026l0.031,0.027l0.03,0.028l0.029,0.03l0.028,0.031l3.703,4.279l0.026,0.031l0.025,0.033l0.024,0.034l0.022,0.035l0.021,0.036l0.019,0.036l0.018,0.038l0.016,0.038l0.015,0.038l0.013,0.039l0.011,0.04l0.01,0.04l0.008,0.041l0.006,0.041l0.005,0.041l0.003,0.041l0.001,0.041l0,0.042l-0.002,0.041l-0.004,0.041l-0.006,0.041l-0.007,0.041l-0.009,0.04l-0.01,0.04l-0.012,0.04l-0.014,0.038l-0.016,0.039l-0.017,0.038l-0.018,0.036l-0.02,0.037l-0.022,0.035l-0.023,0.034l-0.024,0.034l-0.026,0.032l-0.027,0.031l-0.028,0.03l-0.03,0.029l-0.03,0.028l-0.032,0.026l-0.033,0.026l-0.034,0.023l-0.035,0.022l-0.035,0.021l-0.037,0.02l-0.037,0.017l-0.038,0.017l-0.039,0.014l-0.039,0.013l-0.04,0.012l-0.04,0.009l-0.041,0.008l-0.04,0.007l-0.041,0.005l-0.042,0.003l-0.041,0.001l-0.041,-0.001l-0.042,-0.002l-0.041,-0.004l-0.041,-0.005l-0.04,-0.007l-0.041,-0.009l-0.04,-0.011l-0.039,-0.012l-0.039,-0.014l-0.039,-0.015l-0.037,-0.017l-0.037,-0.019l-0.036,-0.02l-0.036,-0.021l-0.034,-0.023l-0.033,-0.025l-0.033,-0.025l-0.031,-0.027l-0.03,-0.029l-0.029,-0.029l-0.028,-0.031l-3.703,-4.279l-0.026,-0.032l-0.025,-0.032l-0.024,-0.034l-0.022,-0.035l-0.021,-0.036l-0.019,-0.036l-0.018,-0.038l-0.016,-0.038l-0.015,-0.038l-0.013,-0.04l-0.011,-0.039l-0.01,-0.041l-0.008,-0.04l-0.006,-0.041l-0.005,-0.041l-0.003,-0.041l-0.001,-0.042l0,-0.041l0.002,-0.041l0.004,-0.041l0.006,-0.041l0.007,-0.041l0.009,-0.04l0.01,-0.04l0.012,-0.04l0.014,-0.039l0.016,-0.038l0.017,-0.038l0.018,-0.037l0.02,-0.036l0.022,-0.035l0.023,-0.035l0.024,-0.033l0.026,-0.032l0.027,-0.032l0.028,-0.03l0.03,-0.029l0.03,-0.027l0.032,-0.027l0.033,-0.025l0.034,-0.023l0.035,-0.023l0.035,-0.021l0.037,-0.019l0.037,-0.018l0.038,-0.016l0.039,-0.014l0.039,-0.013l0.04,-0.012l0.04,-0.01l0.041,-0.008l0.04,-0.006l0.042,-0.005l0.041,-0.003l0.041,-0.001l0.041,0Z"/><path d="M296.857,256.251l0.097,0.013l0.096,0.023l0.093,0.032l0.089,0.04l0.085,0.05l0.079,0.057l0.074,0.065l0.066,0.072l20.694,24.577l0.06,0.079l0.051,0.083l0.043,0.088l0.035,0.092l0.025,0.095l0.015,0.097l0.006,0.098l-0.003,0.098l-0.013,0.097l-0.023,0.096l-0.032,0.093l-0.041,0.089l-0.049,0.085l-0.058,0.079l-0.065,0.074l-0.071,0.067l-0.078,0.059l-0.084,0.051l-0.088,0.044l-0.092,0.034l-0.095,0.025l-0.097,0.015l-0.098,0.006l-0.098,-0.003l-0.097,-0.013l-0.096,-0.023l-0.092,-0.032l-0.09,-0.041l-0.085,-0.049l-0.079,-0.057l-0.074,-0.065l-0.066,-0.072l-20.694,-24.578l-0.06,-0.078l-0.051,-0.083l-0.043,-0.089l-0.035,-0.091l-0.025,-0.095l-0.015,-0.097l-0.006,-0.098l0.003,-0.098l0.013,-0.098l0.023,-0.095l0.032,-0.093l0.041,-0.089l0.049,-0.085l0.058,-0.079l0.065,-0.074l0.071,-0.067l0.079,-0.059l0.083,-0.052l0.088,-0.043l0.092,-0.034l0.095,-0.025l0.097,-0.016l0.098,-0.006l0.098,0.004Z"/><path d="M288.985,319.164l0.098,0.013l0.095,0.022l0.093,0.032l0.09,0.04l0.085,0.049l0.08,0.057l0.073,0.065l0.068,0.072l20.653,24.3l0.059,0.077l0.052,0.084l0.044,0.088l0.034,0.091l0.026,0.095l0.016,0.097l0.006,0.098l-0.003,0.098l-0.012,0.097l-0.023,0.096l-0.031,0.093l-0.04,0.089l-0.049,0.085l-0.058,0.08l-0.064,0.074l-0.072,0.067l-0.078,0.06l-0.083,0.052l-0.088,0.043l-0.092,0.035l-0.094,0.025l-0.097,0.016l-0.098,0.007l-0.098,-0.003l-0.098,-0.013l-0.095,-0.022l-0.093,-0.032l-0.089,-0.04l-0.086,-0.049l-0.079,-0.057l-0.074,-0.065l-0.067,-0.071l-20.653,-24.3l-0.06,-0.078l-0.052,-0.083l-0.044,-0.088l-0.034,-0.092l-0.026,-0.095l-0.016,-0.097l-0.006,-0.098l0.003,-0.098l0.013,-0.097l0.022,-0.096l0.031,-0.093l0.041,-0.089l0.049,-0.085l0.057,-0.08l0.064,-0.074l0.072,-0.067l0.078,-0.06l0.083,-0.052l0.088,-0.043l0.092,-0.035l0.095,-0.025l0.096,-0.016l0.098,-0.007l0.098,0.003Z"/><path d="M316.004,350.367l0.062,0.006l0.06,0.01l0.06,0.014l0.059,0.018l0.058,0.021l0.056,0.025l0.055,0.028l0.053,0.032l0.051,0.034l0.049,0.038l0.046,0.041l0.044,0.043l0.04,0.046l8.127,9.744l0.038,0.049l0.035,0.05l0.032,0.053l0.028,0.055l0.025,0.056l0.022,0.058l0.018,0.059l0.014,0.06l0.01,0.06l0.007,0.062l0.003,0.061l-0.001,0.062l-0.004,0.061l-0.009,0.061l-0.012,0.06l-0.016,0.06l-0.019,0.058l-0.023,0.058l-0.026,0.055l-0.03,0.054l-0.033,0.052l-0.037,0.05l-0.039,0.047l-0.042,0.045l-0.045,0.042l-0.047,0.04l-0.05,0.036l-0.052,0.034l-0.053,0.03l-0.056,0.027l-0.057,0.023l-0.058,0.019l-0.06,0.017l-0.06,0.012l-0.061,0.009l-0.061,0.004l-0.062,0.002l-0.061,-0.003l-0.062,-0.007l-0.06,-0.01l-0.06,-0.014l-0.059,-0.018l-0.058,-0.021l-0.057,-0.025l-0.054,-0.028l-0.053,-0.031l-0.051,-0.035l-0.049,-0.038l-0.046,-0.04l-0.044,-0.044l-0.041,-0.046l-8.126,-9.744l-0.038,-0.048l-0.035,-0.051l-0.032,-0.053l-0.028,-0.054l-0.025,-0.057l-0.022,-0.057l-0.018,-0.059l-0.014,-0.06l-0.011,-0.061l-0.006,-0.061l-0.003,-0.062l0,-0.061l0.005,-0.062l0.008,-0.061l0.013,-0.06l0.015,-0.06l0.02,-0.058l0.023,-0.057l0.026,-0.056l0.03,-0.054l0.033,-0.052l0.037,-0.049l0.039,-0.048l0.042,-0.045l0.045,-0.042l0.047,-0.039l0.05,-0.037l0.051,-0.033l0.054,-0.03l0.056,-0.027l0.057,-0.023l0.058,-0.02l0.059,-0.016l0.061,-0.012l0.061,-0.009l0.061,-0.005l0.062,-0.001l0.061,0.003Z"/><path d="M261.154,285.875l0.097,0.014l0.096,0.023l0.092,0.032l0.089,0.041l0.085,0.05l0.079,0.058l0.074,0.065l0.066,0.072l20.689,24.739l0.059,0.079l0.052,0.083l0.042,0.089l0.034,0.092l0.025,0.095l0.015,0.097l0.006,0.098l-0.004,0.098l-0.013,0.097l-0.023,0.095l-0.032,0.093l-0.042,0.089l-0.049,0.085l-0.058,0.079l-0.065,0.073l-0.072,0.067l-0.079,0.059l-0.083,0.051l-0.089,0.043l-0.092,0.034l-0.095,0.025l-0.097,0.015l-0.098,0.006l-0.098,-0.004l-0.097,-0.014l-0.095,-0.023l-0.093,-0.032l-0.089,-0.041l-0.085,-0.05l-0.079,-0.057l-0.073,-0.066l-0.067,-0.072l-20.689,-24.739l-0.059,-0.078l-0.051,-0.084l-0.043,-0.088l-0.034,-0.092l-0.025,-0.095l-0.015,-0.097l-0.006,-0.098l0.004,-0.098l0.014,-0.098l0.023,-0.095l0.032,-0.093l0.041,-0.089l0.05,-0.084l0.057,-0.08l0.066,-0.073l0.072,-0.067l0.078,-0.059l0.084,-0.051l0.088,-0.043l0.092,-0.034l0.095,-0.025l0.097,-0.015l0.098,-0.006l0.098,0.004Z"/><path d="M232.902,252.092l0.098,0.014l0.095,0.023l0.093,0.032l0.089,0.041l0.084,0.05l0.08,0.058l0.073,0.065l0.067,0.072l21.192,25.342l0.059,0.078l0.052,0.084l0.042,0.088l0.034,0.092l0.025,0.095l0.015,0.097l0.006,0.098l-0.004,0.098l-0.013,0.097l-0.023,0.096l-0.032,0.092l-0.042,0.09l-0.049,0.084l-0.058,0.08l-0.065,0.073l-0.072,0.066l-0.079,0.06l-0.083,0.051l-0.089,0.043l-0.092,0.034l-0.095,0.024l-0.097,0.016l-0.098,0.005l-0.098,-0.004l-0.097,-0.013l-0.095,-0.023l-0.093,-0.032l-0.089,-0.041l-0.085,-0.05l-0.079,-0.058l-0.073,-0.065l-0.067,-0.072l-21.193,-25.342l-0.059,-0.078l-0.051,-0.084l-0.043,-0.088l-0.034,-0.092l-0.024,-0.095l-0.016,-0.097l-0.005,-0.098l0.003,-0.098l0.014,-0.097l0.023,-0.096l0.032,-0.093l0.041,-0.089l0.05,-0.084l0.058,-0.08l0.065,-0.073l0.072,-0.067l0.078,-0.059l0.084,-0.051l0.088,-0.043l0.092,-0.034l0.095,-0.024l0.097,-0.016l0.098,-0.005l0.098,0.003Z"/><path d="M198.463,211.072l0.111,0.016l0.108,0.028l0.105,0.041l0.099,0.051l0.094,0.063l0.085,0.072l0.077,0.082l27.255,32.432l0.067,0.089l0.057,0.097l0.045,0.103l0.034,0.107l0.022,0.11l0.009,0.111l-0.004,0.112l-0.015,0.112l-0.029,0.108l-0.04,0.105l-0.052,0.099l-0.062,0.093l-0.073,0.086l-0.081,0.077l-0.09,0.067l-0.097,0.057l-0.102,0.045l-0.107,0.034l-0.11,0.022l-0.112,0.009l-0.112,-0.004l-0.111,-0.016l-0.109,-0.028l-0.104,-0.04l-0.1,-0.052l-0.093,-0.062l-0.086,-0.073l-0.076,-0.082l-27.255,-32.431l-0.067,-0.09l-0.057,-0.097l-0.046,-0.102l-0.034,-0.107l-0.021,-0.11l-0.009,-0.112l0.003,-0.112l0.016,-0.111l0.028,-0.108l0.041,-0.105l0.051,-0.1l0.063,-0.093l0.072,-0.085l0.082,-0.077l0.09,-0.067l0.097,-0.057l0.102,-0.046l0.107,-0.033l0.11,-0.022l0.112,-0.009l0.112,0.003Z"/><path d="M224.87,252.119l0.068,0.008l0.067,0.013l0.066,0.016l0.065,0.022l0.063,0.026l0.062,0.03l0.059,0.034l0.056,0.038l0.054,0.042l0.051,0.046l0.048,0.049l0.044,0.052l0.041,0.054l0.036,0.058l0.033,0.06l0.029,0.062l0.024,0.064l0.02,0.065l0.015,0.067l0.011,0.067l0.006,0.068l0.002,0.068l-0.004,0.069l-0.007,0.067l-0.013,0.067l-0.017,0.067l-0.021,0.064l-0.026,0.064l-0.03,0.061l-0.034,0.059l-0.039,0.057l-0.042,0.054l-0.045,0.051l-0.049,0.047l-0.052,0.044l-12.104,9.603l-0.055,0.041l-0.058,0.036l-0.06,0.033l-0.062,0.029l-0.063,0.024l-0.066,0.02l-0.066,0.015l-0.068,0.011l-0.068,0.006l-0.068,0.002l-0.068,-0.004l-0.068,-0.007l-0.067,-0.013l-0.066,-0.017l-0.065,-0.021l-0.063,-0.026l-0.062,-0.03l-0.059,-0.034l-0.056,-0.039l-0.054,-0.041l-0.051,-0.046l-0.048,-0.049l-0.044,-0.052l-0.041,-0.055l-0.036,-0.057l-0.033,-0.06l-0.029,-0.062l-0.024,-0.064l-0.02,-0.065l-0.015,-0.067l-0.011,-0.067l-0.006,-0.068l-0.002,-0.069l0.004,-0.068l0.007,-0.068l0.013,-0.067l0.017,-0.066l0.021,-0.065l0.026,-0.063l0.03,-0.061l0.034,-0.059l0.039,-0.057l0.041,-0.054l0.046,-0.051l0.049,-0.048l0.052,-0.044l12.104,-9.602l0.055,-0.041l0.058,-0.037l0.059,-0.032l0.063,-0.029l0.063,-0.024l0.066,-0.02l0.066,-0.015l0.068,-0.011l0.068,-0.006l0.068,-0.002l0.068,0.003Z"/><path d="M261.581,221.323l0.127,0.015l0.125,0.025l0.122,0.036l0.118,0.046l0.115,0.056l0.109,0.066l0.103,0.074l0.097,0.083l0.089,0.091l0.081,0.099l0.072,0.104l0.064,0.111l0.053,0.115l0.044,0.12l0.034,0.123l0.022,0.125l0.013,0.126l0.001,0.128l-0.009,0.127l-0.02,0.126l-0.031,0.123l-0.041,0.121l-0.051,0.116l-0.061,0.112l-0.07,0.106l-0.079,0.1l-0.087,0.093l-0.095,0.085l-27.874,23.023l-0.102,0.077l-0.108,0.068l-0.113,0.059l-0.117,0.049l-0.122,0.038l-0.124,0.028l-0.126,0.018l-0.127,0.007l-0.127,-0.004l-0.127,-0.015l-0.124,-0.025l-0.123,-0.036l-0.118,-0.047l-0.115,-0.056l-0.109,-0.065l-0.103,-0.075l-0.096,-0.083l-0.09,-0.091l-0.081,-0.098l-0.072,-0.105l-0.063,-0.11l-0.054,-0.115l-0.044,-0.12l-0.033,-0.123l-0.023,-0.125l-0.012,-0.127l-0.002,-0.127l0.01,-0.127l0.02,-0.126l0.03,-0.123l0.041,-0.121l0.052,-0.117l0.06,-0.111l0.071,-0.107l0.078,-0.1l0.088,-0.092l0.094,-0.086l27.875,-23.023l0.101,-0.077l0.108,-0.068l0.113,-0.058l0.117,-0.049l0.122,-0.039l0.124,-0.028l0.126,-0.017l0.127,-0.007l0.127,0.004Z"/><path d="M275.058,210.604l0.051,0.006l0.051,0.008l0.05,0.01l0.05,0.013l0.049,0.016l0.048,0.018l0.048,0.021l0.046,0.023l0.044,0.025l0.044,0.028l0.042,0.029l0.04,0.032l0.039,0.034l0.037,0.036l0.035,0.038l0.033,0.04l0.031,0.041l0.029,0.043l0.026,0.044l0.024,0.045l0.022,0.047l0.02,0.047l0.016,0.049l0.015,0.05l0.012,0.05l0.009,0.05l0.007,0.051l0.004,0.052l0.001,0.051l-0.001,0.052l-0.004,0.051l-0.007,0.051l-0.009,0.051l-0.012,0.05l-0.014,0.049l-0.017,0.049l-0.02,0.048l-0.021,0.046l-0.025,0.046l-0.026,0.044l-0.029,0.043l-0.031,0.041l-0.033,0.039l-0.035,0.038l-0.037,0.036l-0.038,0.034l-6.65,5.551l-0.04,0.032l-0.042,0.03l-0.043,0.027l-0.045,0.026l-0.046,0.023l-0.047,0.02l-0.049,0.018l-0.049,0.016l-0.049,0.013l-0.051,0.011l-0.051,0.008l-0.051,0.005l-0.051,0.003l-0.052,0l-0.051,-0.003l-0.051,-0.005l-0.051,-0.008l-0.051,-0.011l-0.05,-0.013l-0.049,-0.015l-0.048,-0.019l-0.047,-0.02l-0.046,-0.023l-0.045,-0.026l-0.043,-0.027l-0.042,-0.03l-0.041,-0.032l-0.038,-0.034l-0.037,-0.036l-0.035,-0.038l-0.033,-0.039l-0.031,-0.041l-0.029,-0.043l-0.027,-0.044l-0.024,-0.046l-0.022,-0.046l-0.019,-0.048l-0.017,-0.049l-0.014,-0.049l-0.012,-0.05l-0.009,-0.051l-0.007,-0.051l-0.004,-0.051l-0.001,-0.052l0.001,-0.051l0.004,-0.052l0.006,-0.051l0.01,-0.05l0.012,-0.05l0.014,-0.05l0.017,-0.048l0.019,-0.048l0.022,-0.047l0.024,-0.045l0.027,-0.044l0.028,-0.043l0.031,-0.041l0.033,-0.04l0.035,-0.038l0.037,-0.036l0.039,-0.034l6.649,-5.55l0.04,-0.032l0.042,-0.03l0.044,-0.028l0.045,-0.025l0.046,-0.023l0.047,-0.021l0.048,-0.018l0.049,-0.016l0.05,-0.013l0.05,-0.01l0.051,-0.008l0.051,-0.005l0.052,-0.003l0.051,0l0.052,0.002Z"/><path d="M324.673,289.103l0.057,0.005l0.057,0.009l0.055,0.012l0.055,0.015l0.055,0.018l0.053,0.022l0.051,0.024l0.05,0.027l0.049,0.03l0.047,0.033l0.045,0.035l0.042,0.038l0.041,0.04l0.038,0.043l6.961,8.211l0.036,0.045l0.033,0.046l0.03,0.048l0.028,0.05l0.024,0.052l0.022,0.053l0.018,0.054l0.016,0.055l0.012,0.056l0.009,0.056l0.006,0.057l0.003,0.057l-0.001,0.057l-0.004,0.057l-0.007,0.057l-0.01,0.056l-0.014,0.055l-0.016,0.055l-0.02,0.053l-0.023,0.053l-0.026,0.051l-0.028,0.049l-0.032,0.048l-0.034,0.046l-0.036,0.044l-0.039,0.041l-0.042,0.04l-0.043,0.037l-0.046,0.034l-0.047,0.032l-0.05,0.029l-0.05,0.026l-0.053,0.023l-0.053,0.02l-0.055,0.017l-0.055,0.014l-0.056,0.011l-0.057,0.007l-0.057,0.004l-0.057,0.002l-0.057,-0.003l-0.057,-0.005l-0.056,-0.009l-0.056,-0.012l-0.055,-0.015l-0.054,-0.018l-0.053,-0.022l-0.052,-0.024l-0.05,-0.027l-0.049,-0.03l-0.046,-0.033l-0.045,-0.035l-0.043,-0.038l-0.041,-0.04l-0.038,-0.043l-6.96,-8.211l-0.036,-0.045l-0.033,-0.046l-0.031,-0.048l-0.027,-0.05l-0.025,-0.052l-0.021,-0.053l-0.019,-0.054l-0.015,-0.055l-0.013,-0.056l-0.009,-0.056l-0.006,-0.057l-0.002,-0.057l0,-0.057l0.004,-0.057l0.007,-0.057l0.01,-0.056l0.014,-0.055l0.017,-0.055l0.019,-0.053l0.023,-0.053l0.026,-0.051l0.029,-0.049l0.031,-0.048l0.034,-0.046l0.037,-0.044l0.039,-0.041l0.041,-0.04l0.044,-0.037l0.045,-0.034l0.048,-0.032l0.049,-0.029l0.051,-0.026l0.052,-0.023l0.054,-0.02l0.054,-0.017l0.055,-0.014l0.057,-0.011l0.056,-0.007l0.057,-0.004l0.057,-0.002l0.057,0.003Z"/><path d="M224.122,314.22l0.097,0.011l0.096,0.021l0.093,0.03l0.09,0.039l0.086,0.048l0.081,0.055l0.075,0.064l0.068,0.071l21.929,25.026l0.061,0.077l0.053,0.082l0.045,0.088l0.036,0.091l0.026,0.094l0.018,0.097l0.008,0.098l-0.002,0.098l-0.011,0.097l-0.021,0.096l-0.03,0.094l-0.039,0.09l-0.048,0.085l-0.055,0.081l-0.064,0.075l-0.07,0.068l-0.077,0.061l-0.083,0.053l-0.087,0.045l-0.091,0.036l-0.095,0.027l-0.096,0.017l-0.098,0.008l-0.098,-0.001l-0.098,-0.011l-0.096,-0.021l-0.093,-0.03l-0.09,-0.039l-0.086,-0.048l-0.081,-0.056l-0.074,-0.063l-0.069,-0.071l-21.928,-25.026l-0.061,-0.077l-0.054,-0.083l-0.044,-0.087l-0.036,-0.091l-0.027,-0.095l-0.018,-0.096l-0.008,-0.098l0.002,-0.098l0.011,-0.098l0.021,-0.096l0.03,-0.093l0.039,-0.09l0.048,-0.086l0.056,-0.081l0.063,-0.074l0.071,-0.069l0.077,-0.061l0.082,-0.053l0.087,-0.044l0.092,-0.037l0.094,-0.026l0.097,-0.018l0.097,-0.008l0.099,0.002Z"/><path d="M252.84,347.506l0.097,0.014l0.096,0.025l0.092,0.033l0.088,0.042l0.084,0.051l0.079,0.059l0.072,0.066l0.066,0.073l19.961,24.52l0.058,0.079l0.05,0.085l0.041,0.089l0.033,0.092l0.024,0.096l0.014,0.097l0.004,0.098l-0.005,0.098l-0.015,0.097l-0.024,0.095l-0.034,0.092l-0.042,0.089l-0.051,0.084l-0.059,0.078l-0.066,0.073l-0.073,0.065l-0.079,0.058l-0.084,0.05l-0.089,0.042l-0.093,0.033l-0.095,0.023l-0.097,0.014l-0.098,0.005l-0.098,-0.006l-0.097,-0.014l-0.095,-0.025l-0.092,-0.033l-0.089,-0.042l-0.084,-0.051l-0.078,-0.059l-0.073,-0.066l-0.066,-0.073l-19.96,-24.52l-0.058,-0.079l-0.05,-0.085l-0.042,-0.089l-0.033,-0.092l-0.023,-0.095l-0.014,-0.098l-0.005,-0.098l0.006,-0.098l0.014,-0.097l0.025,-0.095l0.033,-0.092l0.042,-0.089l0.051,-0.084l0.059,-0.078l0.066,-0.073l0.073,-0.065l0.079,-0.058l0.085,-0.05l0.088,-0.042l0.093,-0.033l0.095,-0.023l0.097,-0.014l0.098,-0.005l0.098,0.006Z"/><path d="M245.461,346.379l0.076,0.011l0.075,0.016l0.073,0.022l0.072,0.027l0.069,0.033l0.066,0.038l0.064,0.043l0.06,0.048l0.056,0.052l0.052,0.057l0.047,0.06l0.043,0.063l0.037,0.067l0.033,0.069l0.027,0.072l0.021,0.074l0.016,0.075l0.01,0.076l0.005,0.076l-0.002,0.077l-0.008,0.076l-0.013,0.075l-0.019,0.075l-0.025,0.072l-0.03,0.07l-0.036,0.068l-0.04,0.065l-0.046,0.062l-0.05,0.058l-0.054,0.054l-0.058,0.05l-14.833,11.696l-0.062,0.045l-0.065,0.04l-0.069,0.035l-0.07,0.03l-0.073,0.024l-0.074,0.019l-0.076,0.013l-0.076,0.007l-0.076,0.001l-0.077,-0.004l-0.076,-0.011l-0.075,-0.016l-0.073,-0.022l-0.072,-0.027l-0.069,-0.033l-0.066,-0.038l-0.064,-0.043l-0.059,-0.048l-0.057,-0.052l-0.051,-0.057l-0.048,-0.06l-0.043,-0.063l-0.037,-0.067l-0.033,-0.069l-0.027,-0.072l-0.021,-0.074l-0.016,-0.075l-0.01,-0.076l-0.004,-0.076l0.001,-0.077l0.008,-0.076l0.013,-0.075l0.019,-0.074l0.025,-0.073l0.03,-0.07l0.036,-0.068l0.04,-0.065l0.046,-0.062l0.05,-0.058l0.054,-0.054l0.058,-0.05l14.833,-11.696l0.062,-0.045l0.066,-0.04l0.068,-0.035l0.07,-0.03l0.073,-0.024l0.074,-0.019l0.076,-0.013l0.076,-0.007l0.077,-0.001l0.076,0.004Z"/><path d="M281.096,317.268l0.103,0.022l0.1,0.031l0.095,0.043l0.091,0.051l0.085,0.062l0.078,0.069l0.071,0.078l0.062,0.084l0.053,0.09l0.043,0.096l0.033,0.099l0.022,0.102l0.011,0.104l0.001,0.105l-0.011,0.104l-0.021,0.103l-0.032,0.099l-0.042,0.096l-0.052,0.091l-0.061,0.085l-0.069,0.078l-0.078,0.071l-28.075,22.974l-0.085,0.062l-0.09,0.053l-0.095,0.043l-0.1,0.033l-0.102,0.022l-0.104,0.011l-0.105,0.001l-0.104,-0.01l-0.102,-0.022l-0.1,-0.032l-0.096,-0.042l-0.091,-0.051l-0.085,-0.062l-0.078,-0.069l-0.07,-0.078l-0.062,-0.084l-0.053,-0.09l-0.043,-0.096l-0.033,-0.099l-0.022,-0.102l-0.012,-0.104l0,-0.105l0.01,-0.104l0.021,-0.103l0.032,-0.099l0.042,-0.096l0.052,-0.091l0.061,-0.085l0.07,-0.078l0.077,-0.071l28.076,-22.974l0.084,-0.062l0.09,-0.053l0.096,-0.043l0.099,-0.033l0.102,-0.022l0.105,-0.011l0.104,-0.001l0.104,0.01Z"/><path d="M271.998,379.194l0.069,0.007l0.069,0.011l0.068,0.016l0.067,0.021l0.065,0.025l0.063,0.03l0.061,0.034l0.058,0.038l0.056,0.043l0.052,0.046l0.049,0.049l0.046,0.053l0.041,0.056l0.038,0.059l0.034,0.061l0.029,0.064l0.025,0.065l0.02,0.067l0.015,0.068l0.011,0.069l0.005,0.069l0.001,0.07l-0.004,0.07l-0.009,0.069l-0.013,0.068l-0.019,0.068l-0.023,0.066l-0.027,0.064l-0.032,0.062l-0.037,0.059l-0.04,0.057l-0.044,0.054l-0.048,0.051l-0.051,0.048l-0.055,0.043l-12.502,9.325l-0.058,0.04l-0.06,0.035l-0.062,0.032l-0.065,0.027l-0.066,0.022l-0.067,0.018l-0.069,0.013l-0.069,0.008l-0.07,0.003l-0.07,-0.001l-0.069,-0.007l-0.069,-0.011l-0.068,-0.016l-0.067,-0.021l-0.065,-0.025l-0.063,-0.03l-0.061,-0.034l-0.058,-0.038l-0.055,-0.043l-0.053,-0.046l-0.049,-0.049l-0.046,-0.053l-0.041,-0.056l-0.038,-0.059l-0.034,-0.061l-0.029,-0.064l-0.024,-0.065l-0.02,-0.067l-0.016,-0.068l-0.01,-0.069l-0.006,-0.069l-0.001,-0.07l0.004,-0.07l0.009,-0.069l0.013,-0.069l0.019,-0.067l0.023,-0.066l0.028,-0.064l0.032,-0.062l0.036,-0.06l0.04,-0.057l0.044,-0.054l0.048,-0.05l0.051,-0.048l0.055,-0.043l12.503,-9.325l0.057,-0.04l0.06,-0.035l0.062,-0.032l0.065,-0.027l0.066,-0.022l0.067,-0.018l0.069,-0.013l0.069,-0.008l0.07,-0.003l0.07,0.001Z"/><path d="M317.532,287.111l0.13,0.019l0.127,0.03l0.125,0.041l0.12,0.052l0.115,0.062l0.109,0.071l0.103,0.081l0.095,0.09l0.088,0.098l0.078,0.105l0.069,0.111l0.059,0.117l0.048,0.121l0.038,0.126l0.026,0.128l0.016,0.13l0.004,0.131l-0.008,0.13l-0.019,0.13l-0.03,0.127l-0.041,0.124l-0.051,0.121l-0.062,0.115l-0.072,0.109l-0.081,0.103l-0.09,0.095l-0.097,0.087l-28.741,23.469l-0.105,0.079l-0.111,0.069l-0.117,0.058l-0.122,0.049l-0.125,0.038l-0.128,0.026l-0.13,0.016l-0.131,0.003l-0.131,-0.007l-0.129,-0.019l-0.127,-0.03l-0.125,-0.041l-0.12,-0.052l-0.115,-0.061l-0.11,-0.072l-0.102,-0.081l-0.096,-0.09l-0.087,-0.098l-0.078,-0.105l-0.069,-0.111l-0.059,-0.117l-0.048,-0.121l-0.038,-0.126l-0.026,-0.128l-0.016,-0.13l-0.004,-0.13l0.008,-0.131l0.019,-0.13l0.03,-0.127l0.041,-0.124l0.051,-0.12l0.062,-0.116l0.072,-0.109l0.081,-0.103l0.09,-0.095l0.097,-0.087l28.741,-23.469l0.105,-0.079l0.111,-0.068l0.117,-0.059l0.122,-0.049l0.125,-0.037l0.128,-0.027l0.13,-0.015l0.131,-0.004l0.13,0.007Z"/><path d="M337.215,271.795l0.071,0.005l0.071,0.011l0.069,0.015l0.069,0.021l0.066,0.025l0.065,0.03l0.063,0.035l0.059,0.039l0.057,0.043l0.054,0.047l0.05,0.051l0.047,0.054l0.042,0.058l0.038,0.06l0.034,0.063l0.029,0.065l0.025,0.067l0.02,0.068l0.014,0.07l0.01,0.071l0.005,0.071l-0.001,0.072l-0.005,0.071l-0.011,0.07l-0.015,0.07l-0.021,0.068l-0.025,0.067l-0.03,0.065l-0.035,0.062l-0.039,0.06l-0.043,0.057l-0.047,0.054l-0.051,0.05l-0.054,0.046l-13.269,10.562l-0.057,0.042l-0.06,0.039l-0.063,0.033l-0.065,0.03l-0.067,0.024l-0.069,0.02l-0.07,0.015l-0.071,0.009l-0.071,0.005l-0.071,0l-0.071,-0.006l-0.071,-0.011l-0.07,-0.015l-0.068,-0.021l-0.067,-0.025l-0.064,-0.03l-0.063,-0.035l-0.06,-0.039l-0.057,-0.043l-0.053,-0.047l-0.05,-0.051l-0.047,-0.054l-0.042,-0.057l-0.039,-0.06l-0.033,-0.063l-0.03,-0.065l-0.024,-0.067l-0.02,-0.069l-0.015,-0.07l-0.009,-0.071l-0.005,-0.071l0,-0.071l0.006,-0.071l0.01,-0.071l0.016,-0.07l0.021,-0.068l0.025,-0.067l0.03,-0.065l0.035,-0.062l0.039,-0.06l0.043,-0.057l0.047,-0.053l0.051,-0.051l0.054,-0.046l13.268,-10.561l0.058,-0.043l0.06,-0.038l0.063,-0.034l0.065,-0.029l0.067,-0.025l0.069,-0.019l0.07,-0.015l0.07,-0.01l0.071,-0.005l0.072,0.001Z"/><g><g><path d="M112.257,81.085l0,53.146c10.95,-4.187 22.152,-7.971 33.57,-11.296l0,21.748c-46.623,7.12 -84.973,17.906 -109.969,30.966l45.292,-56.457l-49.598,-14.578c24.079,-8.977 51.178,-16.895 80.705,-23.529Z" style="fill:none;stroke:#000;stroke-width:4px;"/><path d="M112.406,134.349c11.044,-4.153 21.899,-8.114 33.417,-11.413l0,21.577c-0.378,0.057 -0.756,0.114 -1.133,0.171l-32.284,-10.335Z" style="fill:none;stroke:#000;stroke-width:4px;"/></g><g><path d="M442.122,81.085l0,53.146c-10.95,-4.187 -22.151,-7.971 -33.57,-11.296l0,21.748c46.623,7.12 84.973,17.906 109.969,30.966l-45.292,-56.457l49.598,-14.578c-24.079,-8.977 -51.178,-16.895 -80.705,-23.529Z" style="fill:none;stroke:#000;stroke-width:4px;"/><path d="M441.974,134.349c-11.045,-4.153 -21.9,-8.114 -33.418,-11.413l0,21.577c0.379,0.057 0.756,0.114 1.133,0.171l32.285,-10.335Z" style="fill:none;stroke:#000;stroke-width:4px;"/></g><path d="M111.961,58.635c49.927,-18.856 105.061,-29.319 163.003,-29.319c59.587,0 116.205,11.066 167.244,30.946l0,73.801c-50.424,-19.175 -106.157,-29.808 -164.744,-29.808c-58.885,0 -114.886,10.741 -165.503,30.094l0,-75.714Z" style="fill:none;stroke:#000;stroke-width:5px;"/><g transform="matrix(1.4876,0,0,1.8029,-832.389,-1004.14)"><g transform="matrix(0.672223,0,0,0.554661,190.36,269.166)"><g transform="matrix(0.967407,-0.253227,0.253227,0.967407,-135.92,192.91)"><text x="681.431px" y="624.459px" style="font-family:'Roboto-Bold', 'Roboto';font-weight:700;font-size:46px;fill:none;">E</text></g><g transform="matrix(0.979508,-0.201407,0.201407,0.979508,-109.956,154.945)"><text x="706.456px" y="617.821px" style="font-family:'Roboto-Bold', 'Roboto';font-weight:700;font-size:46px;fill:none;">U</text></g><g transform="matrix(0.989931,-0.141548,0.141548,0.989931,-79.1752,110.351)"><text x="736.09px" y="611.711px" style="font-family:'Roboto-Bold', 'Roboto';font-weight:700;font-size:46px;fill:none;">R</text></g><g transform="matrix(0.996522,-0.0833253,0.0833253,0.996522,-47.9581,65.8718)"><text x="765.184px" y="607.488px" style="font-family:'Roboto-Bold', 'Roboto';font-weight:700;font-size:46px;fill:none;">O</text></g><g transform="matrix(0.999799,-0.0200474,0.0200474,0.999799,-11.9652,16.0951)"><text x="796.789px" y="604.834px" style="font-family:'Roboto-Bold', 'Roboto';font-weight:700;font-size:46px;fill:none;">K</text></g><g transform="matrix(0.999379,0.0352402,-0.0352402,0.999379,21.8034,-28.7091)"><text x="825.318px" y="604.162px" style="font-family:'Roboto-Bold', 'Roboto';font-weight:700;font-size:46px;fill:none;">O</text></g><g transform="matrix(0.995232,0.0975357,-0.0975357,0.995232,63.1241,-80.7115)"><text x="857.096px" y="605.291px" style="font-family:'Roboto-Bold', 'Roboto';font-weight:700;font-size:46px;fill:none;">R</text></g><g transform="matrix(0.987726,0.156197,-0.156197,0.987726,105.858,-130.971)"><text x="886.283px" y="608.076px" style="font-family:'Roboto-Bold', 'Roboto';font-weight:700;font-size:46px;fill:none;">N</text></g><g transform="matrix(0.976698,0.214619,-0.214619,0.976698,153.009,-182.808)"><text x="918.36px" y="613.221px" style="font-family:'Roboto-Bold', 'Roboto';font-weight:700;font-size:46px;fill:none;">E</text></g><g transform="matrix(0.964163,0.265311,-0.265311,0.964163,198.019,-228.308)"><text x="944.119px" y="618.836px" style="font-family:'Roboto-Bold', 'Roboto';font-weight:700;font-size:46px;fill:none;">T</text></g></g><g transform="matrix(0.672223,0,0,0.554661,190.36,269.166)"><g transform="matrix(0.967407,-0.253227,0.253227,0.967407,-135.92,192.91)"><text x="681.431px" y="624.459px" style="font-family:'Roboto-Bold', 'Roboto';font-weight:700;font-size:46px;stroke:#000;stroke-width:1.5px;stroke-linecap:butt;stroke-miterlimit:1.41421;">E</text></g><g transform="matrix(0.979508,-0.201407,0.201407,0.979508,-109.956,154.945)"><text x="706.456px" y="617.821px" style="font-family:'Roboto-Bold', 'Roboto';font-weight:700;font-size:46px;stroke:#000;stroke-width:1.5px;stroke-linecap:butt;stroke-miterlimit:1.41421;">U</text></g><g transform="matrix(0.989931,-0.141548,0.141548,0.989931,-79.1752,110.351)"><text x="736.09px" y="611.711px" style="font-family:'Roboto-Bold', 'Roboto';font-weight:700;font-size:46px;stroke:#000;stroke-width:1.5px;stroke-linecap:butt;stroke-miterlimit:1.41421;">R</text></g><g transform="matrix(0.996522,-0.0833253,0.0833253,0.996522,-47.9581,65.8718)"><text x="765.184px" y="607.488px" style="font-family:'Roboto-Bold', 'Roboto';font-weight:700;font-size:46px;stroke:#000;stroke-width:1.5px;stroke-linecap:butt;stroke-miterlimit:1.41421;">O</text></g><g transform="matrix(0.999799,-0.0200474,0.0200474,0.999799,-11.9652,16.0951)"><text x="796.789px" y="604.834px" style="font-family:'Roboto-Bold', 'Roboto';font-weight:700;font-size:46px;stroke:#000;stroke-width:1.5px;stroke-linecap:butt;stroke-miterlimit:1.41421;">K</text></g><g transform="matrix(0.999379,0.0352402,-0.0352402,0.999379,21.8034,-28.7091)"><text x="825.318px" y="604.162px" style="font-family:'Roboto-Bold', 'Roboto';font-weight:700;font-size:46px;stroke:#000;stroke-width:1.5px;stroke-linecap:butt;stroke-miterlimit:1.41421;">O</text></g><g transform="matrix(0.995232,0.0975357,-0.0975357,0.995232,63.1241,-80.7115)"><text x="857.096px" y="605.291px" style="font-family:'Roboto-Bold', 'Roboto';font-weight:700;font-size:46px;stroke:#000;stroke-width:1.5px;stroke-linecap:butt;stroke-miterlimit:1.41421;">R</text></g><g transform="matrix(0.987726,0.156197,-0.156197,0.987726,105.858,-130.971)"><text x="886.283px" y="608.076px" style="font-family:'Roboto-Bold', 'Roboto';font-weight:700;font-size:46px;stroke:#000;stroke-width:1.5px;stroke-linecap:butt;stroke-miterlimit:1.41421;">N</text></g><g transform="matrix(0.976698,0.214619,-0.214619,0.976698,153.009,-182.808)"><text x="918.36px" y="613.221px" style="font-family:'Roboto-Bold', 'Roboto';font-weight:700;font-size:46px;stroke:#000;stroke-width:1.5px;stroke-linecap:butt;stroke-miterlimit:1.41421;">E</text></g><g transform="matrix(0.964163,0.265311,-0.265311,0.964163,198.019,-228.308)"><text x="944.119px" y="618.836px" style="font-family:'Roboto-Bold', 'Roboto';font-weight:700;font-size:46px;stroke:#000;stroke-width:1.5px;stroke-linecap:butt;stroke-miterlimit:1.41421;">T</text></g></g></g></g><g><g><path d="M111.961,444.578c49.927,18.856 105.061,29.319 163.003,29.319c59.587,0 116.205,-11.066 167.244,-30.946l0,-73.8c-50.424,19.175 -106.157,29.807 -164.744,29.807c-58.885,0 -114.886,-10.74 -165.503,-30.094l0,75.714Z" style="fill:none;stroke:#000;stroke-width:4px;"/><g><path d="M112.257,422.128l0,-53.145c10.95,4.186 22.152,7.97 33.57,11.295l0,-21.748c-46.623,-7.119 -84.973,-17.906 -109.969,-30.965l45.292,56.456l-49.598,14.579c24.079,8.976 51.178,16.895 80.705,23.528Z" style="fill:none;stroke:#000;stroke-width:4px;"/><path d="M112.406,368.864c11.044,4.154 21.899,8.114 33.417,11.413l0,-21.577c-0.378,-0.056 -0.756,-0.113 -1.133,-0.171l-32.284,10.335Z" style="fill:none;stroke:#000;stroke-width:4px;"/></g><g><path d="M442.122,422.128l0,-53.145c-10.95,4.186 -22.151,7.97 -33.57,11.295l0,-21.748c46.623,-7.119 84.973,-17.906 109.969,-30.965l-45.292,56.456l49.598,14.579c-24.079,8.976 -51.178,16.895 -80.705,23.528Z" style="fill:none;stroke:#000;stroke-width:4px;"/><path d="M441.974,368.864c-11.045,4.154 -21.9,8.114 -33.418,11.413l0,-21.577c0.379,-0.056 0.756,-0.113 1.133,-0.171l32.285,10.335Z" style="fill:none;stroke:#000;stroke-width:4px;"/></g></g><g transform="matrix(1.4876,0,0,-1.81499,-832.389,1546.13)"><g transform="matrix(-0.672223,0,0,0.550966,971.161,271.399)"><g transform="matrix(-0.984183,-0.177156,0.177156,-0.984183,770.603,1293.54)"><text x="443.048px" y="612.37px" style="font-family:'Roboto-Bold', 'Roboto';font-weight:700;font-size:46px;fill:none;">P</text></g><g transform="matrix(-0.992983,-0.118255,0.118255,-0.992983,752.615,1258.74)"><text x="413.652px" y="607.041px" style="font-family:'Roboto-Bold', 'Roboto';font-weight:700;font-size:46px;fill:none;">R</text></g><g transform="matrix(-0.996968,-0.0778188,0.0778188,-0.996968,720.66,1235.49)"><text x="384.403px" y="603.703px" style="font-family:'Roboto-Bold', 'Roboto';font-weight:700;font-size:46px;fill:none;">I</text></g><g transform="matrix(-0.999166,-0.040841,0.040841,-0.999166,716.834,1219.75)"><text x="370.876px" y="602.554px" style="font-family:'Roboto-Bold', 'Roboto';font-weight:700;font-size:46px;fill:none;">J</text></g><g transform="matrix(-0.999902,0.0139662,-0.0139662,-0.999902,698.471,1198.13)"><text x="345.052px" y="601.501px" style="font-family:'Roboto-Bold', 'Roboto';font-weight:700;font-size:46px;fill:none;">E</text></g><g transform="matrix(-0.997665,0.0683028,-0.0683028,-0.997665,678.433,1180.35)"><text x="319.037px" y="601.775px" style="font-family:'Roboto-Bold', 'Roboto';font-weight:700;font-size:46px;fill:none;">D</text></g><g transform="matrix(-0.991725,0.128384,-0.128384,-0.991725,653.259,1165.47)"><text x="289.067px" y="603.789px" style="font-family:'Roboto-Bold', 'Roboto';font-weight:700;font-size:46px;fill:none;">O</text></g><g transform="matrix(-0.981692,0.190475,-0.190475,-0.981692,625.741,1155.68)"><text x="257.33px" y="607.914px" style="font-family:'Roboto-Bold', 'Roboto';font-weight:700;font-size:46px;fill:none;">R</text></g></g><g transform="matrix(-0.672223,0,0,0.550966,971.161,271.399)"><g transform="matrix(-0.984183,-0.177156,0.177156,-0.984183,770.603,1293.54)"><text x="443.048px" y="612.37px" style="font-family:'Roboto-Bold', 'Roboto';font-weight:700;font-size:46px;stroke:#000;stroke-width:1.5px;stroke-linecap:butt;stroke-miterlimit:1.41421;">P</text></g><g transform="matrix(-0.992983,-0.118255,0.118255,-0.992983,752.615,1258.74)"><text x="413.652px" y="607.041px" style="font-family:'Roboto-Bold', 'Roboto';font-weight:700;font-size:46px;stroke:#000;stroke-width:1.5px;stroke-linecap:butt;stroke-miterlimit:1.41421;">R</text></g><g transform="matrix(-0.996968,-0.0778188,0.0778188,-0.996968,720.66,1235.49)"><text x="384.403px" y="603.703px" style="font-family:'Roboto-Bold', 'Roboto';font-weight:700;font-size:46px;stroke:#000;stroke-width:1.5px;stroke-linecap:butt;stroke-miterlimit:1.41421;">I</text></g><g transform="matrix(-0.999166,-0.040841,0.040841,-0.999166,716.834,1219.75)"><text x="370.876px" y="602.554px" style="font-family:'Roboto-Bold', 'Roboto';font-weight:700;font-size:46px;stroke:#000;stroke-width:1.5px;stroke-linecap:butt;stroke-miterlimit:1.41421;">J</text></g><g transform="matrix(-0.999902,0.0139662,-0.0139662,-0.999902,698.471,1198.13)"><text x="345.052px" y="601.501px" style="font-family:'Roboto-Bold', 'Roboto';font-weight:700;font-size:46px;stroke:#000;stroke-width:1.5px;stroke-linecap:butt;stroke-miterlimit:1.41421;">E</text></g><g transform="matrix(-0.997665,0.0683028,-0.0683028,-0.997665,678.433,1180.35)"><text x="319.037px" y="601.775px" style="font-family:'Roboto-Bold', 'Roboto';font-weight:700;font-size:46px;stroke:#000;stroke-width:1.5px;stroke-linecap:butt;stroke-miterlimit:1.41421;">D</text></g><g transform="matrix(-0.991725,0.128384,-0.128384,-0.991725,653.259,1165.47)"><text x="289.067px" y="603.789px" style="font-family:'Roboto-Bold', 'Roboto';font-weight:700;font-size:46px;stroke:#000;stroke-width:1.5px;stroke-linecap:butt;stroke-miterlimit:1.41421;">O</text></g><g transform="matrix(-0.981692,0.190475,-0.190475,-0.981692,625.741,1155.68)"><text x="257.33px" y="607.914px" style="font-family:'Roboto-Bold', 'Roboto';font-weight:700;font-size:46px;stroke:#000;stroke-width:1.5px;stroke-linecap:butt;stroke-miterlimit:1.41421;">R</text></g></g></g></g><path d="M97.042,206.257l10.08,21.125l23.207,3.06l-16.977,16.115l4.262,23.016l-20.572,-11.166l-20.573,11.166l4.262,-23.016l-16.976,-16.115l23.206,-3.06l10.081,-21.125Z" style="stroke:#000;stroke-width:2px;stroke-linejoin:miter;"/><path d="M457.042,206.257l10.08,21.125l23.207,3.06l-16.977,16.115l4.262,23.016l-20.572,-11.166l-20.573,11.166l4.262,-23.016l-16.976,-16.115l23.206,-3.06l10.081,-21.125Z" style="fill:#fd6d6d;stroke:#000;stroke-width:2px;stroke-linejoin:miter;"/><path d="M457.042,206.257l10.08,21.125l23.207,3.06l-16.977,16.115l4.262,23.016l-20.572,-11.166l-20.573,11.166l4.262,-23.016l-16.976,-16.115l23.206,-3.06l10.081,-21.125Z" style="stroke:#000;stroke-width:2px;stroke-linejoin:miter;"/></g></svg>