<?xml version="1.0" encoding="UTF-8" standalone="no"?><!DOCTYPE svg PUBLIC "-//W3C//DTD SVG 1.1//EN" "http://www.w3.org/Graphics/SVG/1.1/DTD/svg11.dtd"><svg width="100%" height="100%" viewBox="0 0 404 580" version="1.1" xmlns="http://www.w3.org/2000/svg" xmlns:xlink="http://www.w3.org/1999/xlink" xml:space="preserve" style="fill-rule:evenodd;clip-rule:evenodd;stroke-linejoin:round;stroke-miterlimit:1.41421;"><g id="product4.-dimensions"><path d="M129.587,28.697l0.1,0.032l0.09,0.052l0.078,0.07l0.061,0.085l0.043,0.095l0.021,0.103l0,0.104l-0.051,0.489l-0.05,0.49l-0.05,0.489l-0.049,0.489l-0.048,0.489l-0.047,0.489l-0.045,0.49l-0.044,0.489l-0.044,0.49l-0.044,0.489l-0.042,0.489l-0.04,0.488l-0.039,0.49l-0.04,0.49l-0.039,0.489l-0.037,0.488l-0.036,0.487l-0.034,0.49l-0.036,0.489l-0.033,0.489l-0.033,0.489l-0.031,0.489l-0.032,0.49l-0.029,0.489l-0.03,0.489l-0.028,0.489l-0.027,0.487l-0.026,0.49l-0.025,0.489l-0.025,0.489l-0.024,0.489l-0.023,0.488l-0.022,0.489l-0.022,0.489l-0.02,0.489l-0.019,0.488l-0.019,0.49l-0.018,0.488l-0.016,0.489l-0.017,0.489l-0.016,0.488l-0.014,0.489l-0.014,0.488l-0.012,0.489l-0.013,0.49l-0.011,0.487l-0.011,0.489l-0.009,0.49l-0.01,0.487l-0.007,0.489l-0.007,0.488l-0.008,0.49l-0.004,0.487l-0.006,0.489l-0.004,0.49l-0.004,0.487l-0.002,0.49l-0.003,0.488l-0.002,0.976l0.002,0.977l0.005,0.977l0.006,0.977l0.011,0.977l0.012,0.978l0.016,0.976l0.019,0.976l0.02,0.978l0.024,0.976l0.026,0.976l0.03,0.977l0.031,0.977l0.035,0.976l0.037,0.977l0.039,0.976l0.041,0.977l0.045,0.976l0.047,0.977l0.049,0.976l0.051,0.976l0.053,0.977l0.057,0.976l0.057,0.976l0.061,0.977l0.063,0.976l0.064,0.976l0.067,0.976l0.069,0.976l0.071,0.977l0.073,0.976l0.075,0.976l0.077,0.976l0.078,0.976l0.081,0.976l-0.002,0.104l-0.024,0.102l-0.044,0.095l-0.064,0.083l-0.079,0.068l-0.091,0.051l-0.101,0.03l-0.104,0.008l-0.103,-0.013l-0.099,-0.034l-0.089,-0.054l-0.077,-0.072l-0.059,-0.086l-0.041,-0.096l-0.019,-0.103l-0.082,-0.978l-0.078,-0.978l-0.077,-0.978l-0.075,-0.977l-0.074,-0.979l-0.07,-0.979l-0.069,-0.978l-0.068,-0.978l-0.064,-0.978l-0.063,-0.978l-0.061,-0.98l-0.058,-0.978l-0.056,-0.978l-0.053,-0.98l-0.052,-0.978l-0.049,-0.978l-0.047,-0.979l-0.045,-0.979l-0.041,-0.98l-0.039,-0.978l-0.038,-0.979l-0.034,-0.979l-0.032,-0.98l-0.029,-0.979l-0.027,-0.979l-0.024,-0.98l-0.02,-0.98l-0.019,-0.978l-0.015,-0.98l-0.013,-0.98l-0.011,-0.98l-0.006,-0.98l-0.005,-0.98l-0.002,-0.98l0.002,-0.98l0.003,-0.489l0.002,-0.491l0.004,-0.489l0.004,-0.491l0.006,-0.491l0.005,-0.489l0.007,-0.491l0.007,-0.489l0.008,-0.491l0.009,-0.489l0.009,-0.491l0.011,-0.491l0.011,-0.489l0.013,-0.491l0.012,-0.491l0.014,-0.489l0.015,-0.491l0.015,-0.492l0.018,-0.488l0.015,-0.491l0.019,-0.492l0.019,-0.49l0.019,-0.489l0.02,-0.492l0.022,-0.491l0.022,-0.49l0.024,-0.49l0.023,-0.49l0.025,-0.491l0.025,-0.491l0.027,-0.491l0.027,-0.489l0.028,-0.492l0.03,-0.491l0.029,-0.491l0.032,-0.49l0.031,-0.491l0.033,-0.491l0.033,-0.492l0.036,-0.49l0.035,-0.491l0.036,-0.49l0.037,-0.491l0.04,-0.491l0.039,-0.49l0.039,-0.491l0.041,-0.492l0.042,-0.491l0.044,-0.491l0.044,-0.49l0.044,-0.491l0.045,-0.493l0.047,-0.492l0.049,-0.49l0.049,-0.491l0.05,-0.491l0.05,-0.491l0.052,-0.491l0.022,-0.102l0.042,-0.095l0.062,-0.085l0.077,-0.07l0.091,-0.052l0.099,-0.032l0.104,-0.011l0.104,0.011Z" style="fill:#9e9595;"/><path d="M276.969,33.689l0.096,0.019l0.091,0.038l0.081,0.055l0.069,0.069l0.054,0.082l0.037,0.09l0.019,0.097l0.075,0.793l0.073,0.797l0.068,0.798l0.067,0.8l0.062,0.802l0.062,0.803l0.113,1.611l0.054,0.809l0.097,1.622l0.046,0.814l0.04,0.816l0.041,0.815l0.037,0.818l0.036,0.821l0.032,0.82l0.029,0.824l0.027,0.824l0.025,0.825l0.024,0.829l0.019,0.828l0.019,0.832l0.013,0.831l0.014,0.833l0.01,0.835l0.011,0.836l0.006,0.839l0.002,0.838l0.003,0.84l0,0.842l-0.003,0.844l-0.005,0.843l-0.006,0.847l-0.008,0.847l-0.01,0.849l-0.014,0.85l-0.016,0.851l-0.016,0.853l-0.019,0.854l-0.022,0.855l-0.024,0.856l-0.024,0.856l-0.027,0.86l-0.03,0.86l-0.029,0.86l-0.033,0.863l-0.035,0.863l-0.035,0.865l-0.04,0.865l-0.038,0.867l-0.043,0.868l-0.043,0.868l-0.043,0.871l-0.048,0.872l-0.049,0.871l-0.048,0.872l-0.051,0.875l-0.054,0.876l-0.057,0.875l-0.054,0.878l-0.059,0.878l-0.059,0.88l-0.062,0.88l-0.016,0.097l-0.035,0.091l-0.052,0.083l-0.068,0.071l-0.08,0.057l-0.089,0.04l-0.096,0.022l-0.098,0.003l-0.096,-0.017l-0.092,-0.035l-0.083,-0.052l-0.071,-0.067l-0.057,-0.08l-0.04,-0.09l-0.022,-0.095l-0.002,-0.098l0.061,-0.879l0.059,-0.878l0.06,-0.876l0.053,-0.876l0.057,-0.875l0.053,-0.873l0.051,-0.872l0.049,-0.871l0.048,-0.871l0.049,-0.868l0.042,-0.869l0.044,-0.867l0.042,-0.866l0.038,-0.865l0.04,-0.864l0.035,-0.862l0.035,-0.861l0.032,-0.86l0.03,-0.859l0.03,-0.858l0.026,-0.857l0.025,-0.854l0.024,-0.854l0.021,-0.853l0.019,-0.851l0.016,-0.851l0.016,-0.849l0.014,-0.847l0.01,-0.846l0.008,-0.844l0.006,-0.845l0.005,-0.842l0.003,-0.84l0,-0.839l-0.003,-0.838l-0.002,-0.837l-0.006,-0.834l-0.011,-0.834l-0.01,-0.832l-0.014,-0.832l-0.013,-0.828l-0.019,-0.828l-0.019,-0.825l-0.024,-0.825l-0.024,-0.824l-0.027,-0.821l-0.029,-0.82l-0.033,-0.817l-0.035,-0.817l-0.037,-0.815l-0.04,-0.814l-0.041,-0.812l-0.045,-0.809l-0.049,-0.809l-0.048,-0.808l-0.053,-0.804l-0.057,-0.803l-0.056,-0.802l-0.062,-0.8l-0.062,-0.798l-0.067,-0.797l-0.067,-0.795l-0.072,-0.792l-0.075,-0.791l0,-0.098l0.019,-0.096l0.038,-0.09l0.055,-0.081l0.069,-0.07l0.082,-0.054l0.091,-0.037l0.096,-0.019l0.098,0.001Z" style="fill:#9e9595;"/><path d="M341.336,86.182l0.716,0l0.723,0.003l0.725,0.004l0.724,0.002l0.733,0.005l0.735,0.004l0.739,0.007l0.744,0.007l0.747,0.009l0.749,0.009l0.754,0.009l0.758,0.009l0.765,0.012l0.767,0.014l0.77,0.013l0.778,0.014l0.78,0.016l0.784,0.016l0.789,0.016l0.795,0.018l0.799,0.02l0.804,0.021l0.807,0.02l0.815,0.023l0.818,0.025l0.823,0.023l0.829,0.027l0.834,0.027l0.839,0.028l0.844,0.029l0.85,0.03l0.856,0.031l0.86,0.035l0.865,0.034l0.873,0.034l0.879,0.036l0.882,0.039l0.889,0.039l0.896,0.04l0.9,0.041l0.908,0.044l0.914,0.045l0.921,0.046l0.925,0.047l0.932,0.048l0.937,0.05l0.155,0.025l0.146,0.056l0.132,0.086l0.11,0.111l0.086,0.131l0.056,0.147l0.024,0.154l-0.008,0.157l-0.041,0.151l-0.071,0.14l-0.099,0.122l-0.122,0.098l-0.14,0.071l-0.151,0.041l-0.157,0.008l-0.935,-0.05l-0.931,-0.048l-0.924,-0.047l-0.919,-0.046l-0.913,-0.045l-0.905,-0.043l-0.899,-0.041l-0.894,-0.041l-0.887,-0.039l-0.881,-0.038l-0.875,-0.036l-0.872,-0.034l-0.866,-0.035l-0.858,-0.034l-0.852,-0.031l-0.849,-0.03l-0.842,-0.029l-0.837,-0.028l-0.834,-0.027l-0.825,-0.027l-0.822,-0.023l-0.817,-0.025l-0.812,-0.022l-0.805,-0.021l-0.805,-0.02l-0.796,-0.021l-0.791,-0.018l-0.787,-0.016l-0.784,-0.016l-0.778,-0.015l-0.776,-0.014l-0.77,-0.014l-0.765,-0.013l-0.761,-0.012l-0.756,-0.009l-0.754,-0.009l-0.75,-0.009l-0.744,-0.009l-0.741,-0.007l-0.738,-0.007l-0.732,-0.004l-0.731,-0.005l-0.724,-0.002l-0.725,-0.004l-0.718,-0.003l-0.715,0l-1.421,-0.002l-1.407,0.002l-1.395,0.007l-1.386,0.007l-1.372,0.009l-1.362,0.014l-1.35,0.013l-1.342,0.018l-1.332,0.018l-1.323,0.021l-1.314,0.023l-1.308,0.025l-1.301,0.027l-1.294,0.027l-1.288,0.027l-1.282,0.03l-1.278,0.032l-1.274,0.031l-1.27,0.034l-1.265,0.032l-1.262,0.034l-2.521,0.071l-2.515,0.07l-2.515,0.073l-2.518,0.07l-2.526,0.068l-1.269,0.035l-1.27,0.031l-1.275,0.032l-1.28,0.032l-1.287,0.03l-1.291,0.027l-1.295,0.027l-1.305,0.027l-1.31,0.023l-1.32,0.023l-0.156,-0.014l-0.15,-0.046l-0.137,-0.076l-0.119,-0.103l-0.094,-0.125l-0.066,-0.142l-0.036,-0.153l-0.002,-0.157l0.03,-0.153l0.061,-0.145l0.09,-0.128l0.115,-0.107l0.134,-0.081l0.148,-0.051l0.156,-0.019l1.32,-0.023l1.307,-0.022l1.303,-0.028l1.294,-0.027l1.29,-0.027l1.284,-0.03l1.279,-0.031l1.274,-0.032l1.269,-0.032l1.267,-0.034l2.526,-0.068l2.517,-0.071l2.514,-0.072l2.516,-0.071l2.522,-0.07l1.264,-0.034l1.265,-0.032l1.27,-0.034l1.275,-0.032l1.28,-0.032l1.285,-0.029l1.289,-0.028l1.295,-0.027l1.302,-0.027l1.31,-0.025l1.317,-0.023l1.326,-0.02l1.334,-0.019l1.344,-0.018l1.353,-0.013l1.364,-0.014l1.377,-0.009l1.386,-0.007l1.399,-0.007l1.411,-0.002l1.422,0.002Z" style="fill:#9e9595;"/><path d="M330.489,482.253l1.109,0.004l1.096,0.005l1.083,0.008l1.069,0.007l1.059,0.011l1.045,0.013l1.033,0.012l1.02,0.015l1.008,0.018l0.992,0.018l0.981,0.02l0.967,0.022l0.955,0.024l0.943,0.025l0.927,0.028l0.913,0.027l0.903,0.031l0.886,0.033l0.875,0.035l0.858,0.034l0.847,0.038l0.833,0.039l0.818,0.042l0.804,0.044l0.79,0.043l0.778,0.048l0.761,0.047l0.749,0.051l0.734,0.052l0.72,0.054l0.356,0.028l0.348,0.029l0.346,0.027l0.346,0.03l0.339,0.031l0.336,0.029l0.334,0.031l0.326,0.031l0.327,0.031l0.321,0.033l0.316,0.031l0.318,0.034l0.308,0.034l0.307,0.033l0.303,0.035l0.302,0.035l0.294,0.036l0.29,0.035l0.29,0.037l0.285,0.037l0.28,0.038l0.276,0.037l0.276,0.039l0.269,0.04l0.263,0.039l0.263,0.04l0.256,0.041l0.256,0.04l0.251,0.043l0.246,0.042l0.245,0.043l0.237,0.044l0.233,0.042l0.236,0.045l0.226,0.046l0.222,0.044l0.223,0.047l0.214,0.046l0.213,0.047l0.21,0.049l0.203,0.048l0.204,0.049l0.198,0.051l0.191,0.05l0.187,0.05l0.188,0.051l0.182,0.053l0.177,0.052l0.174,0.053l0.17,0.054l0.169,0.055l0.165,0.057l0.156,0.056l0.155,0.055l0.155,0.06l0.146,0.059l0.17,0.096l0.14,0.137l0.1,0.169l0.052,0.188l0.002,0.196l-0.049,0.19l-0.096,0.17l-0.137,0.14l-0.169,0.1l-0.188,0.052l-0.196,0.002l-0.19,-0.049l-0.134,-0.054l-0.129,-0.049l-0.14,-0.05l-0.145,-0.053l-0.145,-0.049l-0.151,-0.05l-0.154,-0.049l-0.161,-0.049l-0.169,-0.049l-0.167,-0.049l-0.172,-0.047l-0.18,-0.048l-0.184,-0.048l-0.184,-0.048l-0.189,-0.045l-0.197,-0.047l-0.198,-0.046l-0.202,-0.044l-0.207,-0.045l-0.211,-0.044l-0.218,-0.043l-0.221,-0.045l-0.22,-0.042l-0.228,-0.042l-0.233,-0.043l-0.235,-0.041l-0.242,-0.041l-0.243,-0.042l-0.246,-0.039l-0.253,-0.04l-0.255,-0.039l-0.26,-0.038l-0.266,-0.04l-0.263,-0.037l-0.273,-0.036l-0.277,-0.038l-0.278,-0.036l-0.282,-0.036l-0.288,-0.035l-0.292,-0.036l-0.295,-0.034l-0.297,-0.034l-0.305,-0.033l-0.306,-0.034l-0.308,-0.032l-0.314,-0.031l-0.319,-0.033l-0.321,-0.031l-0.325,-0.03l-0.328,-0.031l-0.334,-0.029l-0.337,-0.031l-0.338,-0.029l-0.345,-0.027l-0.347,-0.029l-0.35,-0.027l-0.714,-0.054l-0.728,-0.051l-0.743,-0.051l-0.756,-0.047l-0.773,-0.047l-0.785,-0.044l-0.801,-0.043l-0.812,-0.042l-0.829,-0.038l-0.842,-0.038l-0.854,-0.035l-0.872,-0.034l-0.883,-0.033l-0.897,-0.031l-0.91,-0.027l-0.925,-0.027l-0.939,-0.026l-0.951,-0.023l-0.965,-0.022l-0.977,-0.02l-0.99,-0.018l-1.005,-0.018l-1.016,-0.015l-1.031,-0.013l-1.044,-0.012l-1.054,-0.011l-1.067,-0.007l-1.082,-0.008l-1.094,-0.005l-1.107,-0.004l-1.117,-0.003l-1.13,0l-1.144,0.001l-1.156,0.002l-1.167,0.004l-1.18,0.005l-1.19,0.008l-1.204,0.009l-1.214,0.009l-1.227,0.012l-1.24,0.013l-1.249,0.015l-1.261,0.016l-1.275,0.018l-1.284,0.018l-1.296,0.02l-1.307,0.022l-1.318,0.024l-1.33,0.025l-1.34,0.026l-1.353,0.027l-1.361,0.029l-1.374,0.031l-1.384,0.031l-1.394,0.033l-1.406,0.034l-1.415,0.037l-1.425,0.036l-1.437,0.038l-1.447,0.04l-1.457,0.042l-1.468,0.042l-1.476,0.044l-1.488,0.045l-1.497,0.045l-1.507,0.048l-1.517,0.049l-1.528,0.049l-1.535,0.053l-1.546,0.051l-1.554,0.054l-1.566,0.055l-1.574,0.056l-1.584,0.056l-1.593,0.059l-1.6,0.06l-1.612,0.062l-1.621,0.061l-1.628,0.062l-1.638,0.064l-1.646,0.065l-1.655,0.068l-3.336,0.136l-3.37,0.14l-3.403,0.144l-3.436,0.149l-3.469,0.153l-3.499,0.158l-3.533,0.16l-3.561,0.166l-3.591,0.169l-0.195,-0.017l-0.184,-0.066l-0.161,-0.112l-0.126,-0.149l-0.084,-0.177l-0.034,-0.193l0.016,-0.195l0.066,-0.184l0.112,-0.161l0.15,-0.127l0.177,-0.083l0.193,-0.035l3.591,-0.169l3.562,-0.165l3.534,-0.16l3.5,-0.159l3.47,-0.153l3.437,-0.149l3.405,-0.144l3.371,-0.14l3.337,-0.136l1.656,-0.067l1.647,-0.066l1.64,-0.064l1.628,-0.062l1.621,-0.061l1.612,-0.062l1.602,-0.06l1.594,-0.059l1.585,-0.056l1.574,-0.056l1.566,-0.055l1.556,-0.055l1.547,-0.05l1.536,-0.053l1.529,-0.049l1.517,-0.05l1.509,-0.047l1.497,-0.045l1.489,-0.046l1.478,-0.043l1.468,-0.042l1.458,-0.042l1.449,-0.04l1.437,-0.038l1.427,-0.037l1.416,-0.036l1.407,-0.035l1.396,-0.033l1.385,-0.031l1.374,-0.03l1.363,-0.03l1.354,-0.027l1.342,-0.025l1.33,-0.026l1.32,-0.024l1.309,-0.021l1.298,-0.02l1.284,-0.019l1.276,-0.018l1.264,-0.016l1.25,-0.015l1.242,-0.012l1.229,-0.013l1.216,-0.009l1.205,-0.009l1.192,-0.008l1.182,-0.005l1.169,-0.004l1.158,-0.002l1.145,-0.001l1.133,0l1.12,0.003Z" style="fill:#9e9595;"/><path d="M294.155,46.292l0.298,0.096l0.272,0.157l0.233,0.21l0.184,0.254l0.128,0.286l0.065,0.307l0,0.314l-0.065,0.306l-0.128,0.287l-0.184,0.254l-0.233,0.209l-0.272,0.157l-0.298,0.097l-0.312,0.033l-181.779,0l-0.312,-0.033l-0.298,-0.097l-0.272,-0.157l-0.233,-0.209l-0.184,-0.254l-0.128,-0.287l-0.065,-0.306l0,-0.314l0.065,-0.307l0.128,-0.286l0.184,-0.254l0.233,-0.21l0.272,-0.157l0.298,-0.096l0.312,-0.033l181.779,0l0.312,0.033Z" style="fill:#9e9595;"/><path d="M349.796,78.419l0.286,0.128l0.254,0.184l0.21,0.233l0.157,0.272l0.096,0.298l0.033,0.312l0,168.742l-0.033,0.312l-0.096,0.298l-0.157,0.272l-0.21,0.233l-0.254,0.184l-0.286,0.128l-0.307,0.065l-0.314,0l-0.306,-0.065l-0.287,-0.128l-0.253,-0.184l-0.21,-0.233l-0.157,-0.272l-0.097,-0.298l-0.033,-0.312l0,-168.742l0.033,-0.312l0.097,-0.298l0.157,-0.272l0.21,-0.233l0.253,-0.184l0.287,-0.128l0.306,-0.065l0.314,0l0.307,0.065Z" style="fill:#9e9595;"/><path d="M349.795,341.352l0.286,0.127l0.254,0.185l0.21,0.233l0.156,0.271l0.097,0.299l0.033,0.311l0,177.864l-0.033,0.312l-0.097,0.298l-0.156,0.272l-0.21,0.233l-0.254,0.184l-0.286,0.128l-0.307,0.065l-0.314,0l-0.306,-0.065l-0.287,-0.128l-0.254,-0.184l-0.209,-0.233l-0.157,-0.272l-0.097,-0.298l-0.033,-0.312l0,-177.864l0.033,-0.311l0.097,-0.299l0.157,-0.271l0.209,-0.233l0.254,-0.185l0.287,-0.127l0.306,-0.065l0.314,0l0.307,0.065Z" style="fill:#9e9595;"/><text x="157.137px" y="40.604px" style="font-family:'BradleyHandITC', 'Bradley Hand ITC', cursive;font-size:34px;fill:#9e9595;">4,2cm</text><text x="311.223px" y="309.087px" style="font-family:'BradleyHandITC', 'Bradley Hand ITC', cursive;font-size:34px;fill:#9e9595;">11cm</text></g></svg>