<?xml version="1.0" encoding="UTF-8" standalone="no"?><!DOCTYPE svg PUBLIC "-//W3C//DTD SVG 1.1//EN" "http://www.w3.org/Graphics/SVG/1.1/DTD/svg11.dtd"><svg width="100%" height="100%" viewBox="0 0 404 580" version="1.1" xmlns="http://www.w3.org/2000/svg" xmlns:xlink="http://www.w3.org/1999/xlink" xml:space="preserve" style="fill-rule:evenodd;clip-rule:evenodd;stroke-linejoin:round;stroke-miterlimit:1.41421;"><g id="product3.-dimensions"><path d="M133.089,27.9l0.099,0.033l0.09,0.052l0.078,0.07l0.062,0.085l0.042,0.095l0.022,0.102l0,0.105l-0.052,0.489l-0.05,0.489l-0.05,0.49l-0.048,0.488l-0.047,0.489l-0.047,0.49l-0.045,0.489l-0.046,0.489l-0.043,0.488l-0.043,0.49l-0.042,0.489l-0.041,0.489l-0.04,0.489l-0.039,0.489l-0.038,0.489l-0.037,0.489l-0.036,0.49l-0.036,0.489l-0.034,0.489l-0.035,0.489l-0.031,0.489l-0.033,0.489l-0.03,0.489l-0.031,0.49l-0.028,0.487l-0.028,0.49l-0.028,0.489l-0.027,0.488l-0.025,0.489l-0.025,0.49l-0.023,0.487l-0.024,0.49l-0.022,0.488l-0.02,0.489l-0.02,0.489l-0.021,0.489l-0.018,0.488l-0.017,0.49l-0.018,0.487l-0.015,0.49l-0.016,0.489l-0.014,0.488l-0.014,0.49l-0.014,0.488l-0.011,0.488l-0.013,0.489l-0.009,0.488l-0.009,0.489l-0.01,0.489l-0.008,0.488l-0.007,0.489l-0.007,0.489l-0.006,0.488l-0.005,0.489l-0.004,0.488l-0.003,0.489l-0.003,0.488l-0.002,0.489l-0.002,0.977l0.002,0.977l0.003,0.977l0.008,0.977l0.009,0.977l0.013,0.977l0.015,0.976l0.019,0.977l0.022,0.977l0.024,0.977l0.026,0.976l0.028,0.977l0.033,0.976l0.033,0.977l0.037,0.977l0.04,0.976l0.042,0.977l0.044,0.976l0.046,0.975l0.049,0.978l0.051,0.975l0.055,0.978l0.055,0.975l0.119,1.952l0.062,0.977l0.132,1.953l0.069,0.975l0.143,1.952l0.076,0.976l0.076,0.977l0.16,1.953l-0.003,0.105l-0.024,0.102l-0.044,0.094l-0.064,0.083l-0.079,0.068l-0.092,0.051l-0.1,0.03l-0.104,0.008l-0.104,-0.013l-0.098,-0.035l-0.09,-0.054l-0.076,-0.072l-0.059,-0.086l-0.041,-0.096l-0.019,-0.103l-0.08,-0.977l-0.08,-0.978l-0.076,-0.98l-0.076,-0.978l-0.072,-0.977l-0.072,-0.978l-0.069,-0.979l-0.066,-0.977l-0.065,-0.978l-0.063,-0.98l-0.06,-0.978l-0.059,-0.978l-0.055,-0.978l-0.055,-0.98l-0.052,-0.978l-0.048,-0.98l-0.047,-0.978l-0.044,-0.978l-0.043,-0.98l-0.039,-0.978l-0.037,-0.98l-0.033,-0.98l-0.033,-0.978l-0.029,-0.98l-0.026,-0.978l-0.024,-0.98l-0.022,-0.98l-0.018,-0.98l-0.016,-0.978l-0.013,-0.98l-0.009,-0.98l-0.008,-0.98l-0.003,-0.98l-0.002,-0.98l0.002,-0.98l0.002,-0.491l0.003,-0.489l0.003,-0.491l0.005,-0.489l0.004,-0.491l0.006,-0.49l0.007,-0.49l0.008,-0.491l0.007,-0.489l0.01,-0.491l0.009,-0.489l0.01,-0.491l0.012,-0.491l0.011,-0.49l0.014,-0.491l0.014,-0.49l0.015,-0.489l0.015,-0.491l0.016,-0.491l0.017,-0.489l0.017,-0.491l0.019,-0.492l0.021,-0.491l0.02,-0.488l0.02,-0.491l0.022,-0.492l0.024,-0.491l0.023,-0.489l0.025,-0.491l0.026,-0.49l0.026,-0.492l0.029,-0.491l0.028,-0.49l0.028,-0.49l0.031,-0.491l0.03,-0.491l0.033,-0.49l0.031,-0.491l0.035,-0.492l0.034,-0.491l0.037,-0.491l0.036,-0.49l0.037,-0.491l0.038,-0.491l0.039,-0.492l0.041,-0.491l0.041,-0.49l0.042,-0.491l0.042,-0.491l0.044,-0.492l0.046,-0.49l0.045,-0.491l0.047,-0.491l0.047,-0.491l0.049,-0.492l0.05,-0.49l0.05,-0.491l0.052,-0.491l0.022,-0.102l0.042,-0.096l0.062,-0.084l0.078,-0.07l0.09,-0.052l0.1,-0.033l0.104,-0.011l0.104,0.011Z" style="fill:#9e9595;"/><path d="M292.475,27.891l0.096,0.02l0.09,0.038l0.081,0.055l0.069,0.069l0.054,0.082l0.037,0.091l0.018,0.096l0.073,0.794l0.072,0.795l0.071,0.799l0.064,0.8l0.065,0.802l0.059,0.803l0.059,0.806l0.054,0.806l0.054,0.808l0.051,0.81l0.046,0.813l0.046,0.813l0.043,0.816l0.038,0.816l0.038,0.818l0.035,0.82l0.032,0.821l0.03,0.823l0.027,0.824l0.027,0.826l0.021,0.829l0.019,0.828l0.019,0.83l0.016,0.831l0.013,0.834l0.011,0.836l0.008,0.836l0.006,0.837l0.005,0.84l0,1.682l-0.003,0.842l-0.002,0.845l-0.008,0.847l-0.008,0.847l-0.011,0.848l-0.014,0.85l-0.016,0.851l-0.016,0.852l-0.019,0.855l-0.021,0.855l-0.022,0.855l-0.027,0.858l-0.027,0.858l-0.027,0.861l-0.032,0.861l-0.032,0.862l-0.035,0.863l-0.035,0.864l-0.038,0.866l-0.04,0.867l-0.041,0.868l-0.043,0.869l-0.046,0.87l-0.045,0.871l-0.049,0.873l-0.051,0.872l-0.051,0.875l-0.054,0.874l-0.054,0.876l-0.056,0.879l-0.06,0.877l-0.059,0.879l-0.059,0.879l-0.016,0.096l-0.035,0.092l-0.052,0.083l-0.067,0.071l-0.08,0.057l-0.089,0.041l-0.095,0.022l-0.098,0.003l-0.097,-0.016l-0.092,-0.035l-0.083,-0.052l-0.071,-0.067l-0.057,-0.08l-0.041,-0.089l-0.022,-0.096l-0.003,-0.098l0.059,-0.878l0.06,-0.879l0.059,-0.876l0.056,-0.875l0.054,-0.875l0.054,-0.873l0.051,-0.873l0.051,-0.871l0.048,-0.87l0.046,-0.869l0.045,-0.869l0.043,-0.866l0.041,-0.867l0.04,-0.865l0.038,-0.863l0.034,-0.862l0.035,-0.862l0.033,-0.861l0.032,-0.857l0.027,-0.858l0.027,-0.858l0.026,-0.855l0.022,-0.852l0.021,-0.853l0.019,-0.853l0.016,-0.85l0.016,-0.849l0.014,-0.847l0.011,-0.845l0.008,-0.845l0.008,-0.845l0.002,-0.841l0.003,-0.841l0,-1.677l-0.005,-0.836l-0.006,-0.836l-0.008,-0.833l-0.01,-0.832l-0.014,-0.831l-0.016,-0.828l-0.019,-0.829l-0.019,-0.826l-0.021,-0.824l-0.027,-0.823l-0.027,-0.822l-0.029,-0.82l-0.032,-0.817l-0.035,-0.817l-0.038,-0.815l-0.038,-0.814l-0.042,-0.811l-0.046,-0.811l-0.046,-0.809l-0.051,-0.805l-0.053,-0.806l-0.054,-0.803l-0.059,-0.802l-0.059,-0.8l-0.065,-0.798l-0.064,-0.797l-0.07,-0.793l-0.072,-0.794l-0.073,-0.793l0.001,-0.098l0.02,-0.096l0.038,-0.091l0.055,-0.081l0.07,-0.069l0.082,-0.054l0.09,-0.036l0.097,-0.019l0.098,0.001Z" style="fill:#9e9595;"/><path d="M352.271,88.511l0.801,0.001l0.802,0.002l0.808,0.003l0.812,0.004l0.814,0.004l0.819,0.005l0.825,0.006l0.829,0.008l0.831,0.007l0.838,0.009l0.841,0.01l0.845,0.01l0.852,0.012l0.854,0.012l0.862,0.013l0.865,0.014l0.871,0.015l0.875,0.017l0.879,0.017l0.885,0.018l0.893,0.019l0.895,0.021l0.901,0.021l0.908,0.023l0.912,0.024l0.918,0.024l0.926,0.027l0.928,0.026l0.936,0.028l0.941,0.029l0.948,0.031l0.954,0.032l0.961,0.033l0.966,0.034l0.971,0.035l0.978,0.037l0.984,0.037l0.995,0.039l0.996,0.041l1.007,0.042l1.012,0.043l1.016,0.044l1.027,0.046l1.033,0.047l1.039,0.049l1.046,0.049l0.166,0.027l0.156,0.063l0.138,0.096l0.113,0.124l0.082,0.146l0.048,0.161l0.011,0.168l-0.026,0.166l-0.063,0.155l-0.096,0.138l-0.124,0.113l-0.147,0.083l-0.161,0.048l-0.167,0.011l-1.047,-0.05l-1.038,-0.049l-1.03,-0.047l-1.026,-0.045l-1.015,-0.045l-1.01,-0.043l-1.005,-0.042l-0.995,-0.04l-0.992,-0.039l-0.983,-0.037l-0.977,-0.037l-0.97,-0.035l-0.965,-0.034l-0.959,-0.033l-0.952,-0.032l-0.947,-0.03l-0.939,-0.029l-0.934,-0.028l-0.927,-0.027l-0.924,-0.026l-0.916,-0.024l-0.912,-0.025l-0.906,-0.022l-0.899,-0.022l-0.893,-0.02l-0.891,-0.019l-0.884,-0.018l-0.879,-0.018l-0.873,-0.016l-0.868,-0.015l-0.863,-0.014l-0.861,-0.013l-0.853,-0.012l-0.85,-0.012l-0.844,-0.01l-0.84,-0.01l-0.835,-0.009l-0.831,-0.008l-0.828,-0.007l-0.822,-0.006l-0.817,-0.005l-0.813,-0.004l-0.81,-0.004l-0.808,-0.003l-0.8,-0.002l-0.8,-0.001l-1.585,-0.002l-1.569,0.003l-1.557,0.005l-1.545,0.008l-1.531,0.01l-1.517,0.012l-1.509,0.015l-1.496,0.017l-1.487,0.019l-1.476,0.02l-1.465,0.023l-1.459,0.025l-1.451,0.026l-1.444,0.027l-1.436,0.028l-1.431,0.031l-1.425,0.03l-1.419,0.033l-1.416,0.033l-1.413,0.033l-1.409,0.034l-2.812,0.07l-2.804,0.071l-2.805,0.071l-2.808,0.071l-2.818,0.068l-1.414,0.034l-1.417,0.033l-1.422,0.032l-1.428,0.03l-1.434,0.029l-1.438,0.03l-1.447,0.026l-1.455,0.026l-1.461,0.024l-1.47,0.022l-0.167,-0.016l-0.159,-0.053l-0.144,-0.087l-0.12,-0.117l-0.092,-0.141l-0.058,-0.157l-0.021,-0.167l0.016,-0.167l0.053,-0.159l0.087,-0.144l0.117,-0.12l0.141,-0.092l0.158,-0.058l0.166,-0.021l1.469,-0.023l1.459,-0.024l1.454,-0.026l1.445,-0.026l1.436,-0.029l1.434,-0.029l1.426,-0.031l1.421,-0.031l1.415,-0.033l1.414,-0.035l2.817,-0.068l2.807,-0.071l2.805,-0.071l2.805,-0.071l2.813,-0.069l1.409,-0.035l1.414,-0.033l1.417,-0.033l1.419,-0.033l1.427,-0.03l1.433,-0.03l1.437,-0.028l1.445,-0.028l1.453,-0.025l1.46,-0.026l1.468,-0.023l1.478,-0.02l1.489,-0.019l1.498,-0.016l1.511,-0.016l1.519,-0.012l1.535,-0.01l1.546,-0.008l1.56,-0.005l1.572,-0.003l1.588,0.002Z" style="fill:#9e9595;"/><path d="M345.753,477.582l1.107,0.004l1.096,0.005l1.084,0.006l1.071,0.009l1.058,0.011l1.046,0.011l1.031,0.014l1.019,0.015l1.009,0.016l0.993,0.02l0.981,0.02l0.968,0.022l0.953,0.024l0.941,0.025l0.928,0.026l0.916,0.029l0.901,0.031l0.887,0.033l0.873,0.033l0.86,0.036l0.845,0.039l0.834,0.038l0.817,0.042l0.805,0.042l0.793,0.045l0.775,0.048l0.763,0.047l0.747,0.051l0.734,0.052l0.719,0.054l0.354,0.028l0.352,0.027l0.348,0.03l0.341,0.029l0.341,0.029l0.338,0.031l0.331,0.031l0.329,0.031l0.323,0.031l0.322,0.031l0.32,0.034l0.312,0.032l0.313,0.033l0.307,0.035l0.303,0.035l0.297,0.035l0.297,0.035l0.292,0.037l0.287,0.036l0.286,0.037l0.279,0.038l0.277,0.037l0.275,0.039l0.269,0.04l0.264,0.039l0.264,0.04l0.257,0.041l0.255,0.04l0.252,0.043l0.244,0.042l0.242,0.042l0.239,0.043l0.238,0.045l0.23,0.044l0.23,0.045l0.223,0.046l0.219,0.046l0.215,0.046l0.213,0.047l0.21,0.049l0.203,0.048l0.203,0.049l0.195,0.05l0.194,0.049l0.191,0.053l0.184,0.05l0.185,0.053l0.176,0.053l0.172,0.052l0.173,0.054l0.168,0.056l0.163,0.056l0.157,0.056l0.153,0.055l0.155,0.059l0.142,0.056l0.172,0.095l0.14,0.136l0.101,0.168l0.054,0.189l0.003,0.195l-0.047,0.19l-0.095,0.171l-0.136,0.141l-0.168,0.101l-0.189,0.054l-0.195,0.003l-0.19,-0.048l-0.134,-0.052l-0.132,-0.051l-0.142,-0.05l-0.146,-0.053l-0.146,-0.05l-0.148,-0.049l-0.154,-0.048l-0.163,-0.05l-0.166,-0.049l-0.168,-0.049l-0.177,-0.048l-0.177,-0.049l-0.18,-0.045l-0.187,-0.049l-0.189,-0.045l-0.198,-0.047l-0.197,-0.046l-0.202,-0.044l-0.208,-0.045l-0.214,-0.045l-0.213,-0.044l-0.218,-0.043l-0.224,-0.043l-0.228,-0.042l-0.23,-0.041l-0.239,-0.042l-0.24,-0.041l-0.242,-0.041l-0.247,-0.04l-0.253,-0.039l-0.256,-0.04l-0.26,-0.038l-0.266,-0.04l-0.263,-0.037l-0.273,-0.036l-0.277,-0.038l-0.279,-0.036l-0.284,-0.036l-0.286,-0.036l-0.289,-0.034l-0.296,-0.035l-0.3,-0.034l-0.301,-0.035l-0.306,-0.032l-0.31,-0.033l-0.314,-0.032l-0.317,-0.031l-0.321,-0.031l-0.327,-0.03l-0.33,-0.031l-0.332,-0.031l-0.336,-0.029l-0.34,-0.029l-0.342,-0.029l-0.347,-0.027l-0.352,-0.027l-0.714,-0.054l-0.729,-0.051l-0.741,-0.051l-0.758,-0.047l-0.771,-0.047l-0.786,-0.045l-0.8,-0.042l-0.813,-0.042l-0.829,-0.038l-0.843,-0.038l-0.854,-0.036l-0.869,-0.033l-0.885,-0.033l-0.897,-0.031l-0.91,-0.029l-0.925,-0.025l-0.939,-0.026l-0.95,-0.023l-0.964,-0.022l-0.98,-0.02l-0.99,-0.02l-1.004,-0.016l-1.017,-0.015l-1.029,-0.014l-1.042,-0.011l-1.057,-0.011l-1.067,-0.009l-1.082,-0.006l-1.094,-0.005l-1.105,-0.004l-1.12,-0.003l-2.273,0l-1.154,0.003l-1.169,0.004l-1.178,0.005l-1.192,0.008l-1.204,0.009l-1.214,0.009l-1.227,0.013l-1.239,0.012l-1.25,0.015l-1.262,0.016l-1.273,0.017l-1.285,0.02l-1.297,0.02l-1.307,0.021l-1.318,0.024l-1.329,0.024l-1.34,0.027l-1.351,0.027l-1.364,0.029l-1.373,0.031l-1.384,0.031l-1.395,0.033l-1.403,0.034l-1.417,0.037l-1.426,0.036l-1.436,0.038l-1.448,0.04l-1.456,0.042l-1.468,0.042l-1.477,0.044l-1.487,0.045l-1.497,0.046l-1.508,0.047l-1.517,0.049l-1.526,0.049l-1.536,0.051l-1.546,0.053l-1.555,0.054l-1.566,0.055l-1.573,0.056l-1.584,0.057l-1.591,0.058l-1.603,0.06l-1.611,0.06l-1.619,0.062l-1.63,0.063l-1.637,0.064l-1.647,0.065l-1.655,0.068l-3.336,0.134l-3.371,0.142l-3.403,0.144l-3.436,0.149l-3.468,0.153l-3.5,0.156l-3.53,0.162l-3.564,0.166l-3.591,0.167l-0.195,-0.016l-0.184,-0.067l-0.161,-0.112l-0.126,-0.149l-0.083,-0.178l-0.035,-0.192l0.017,-0.195l0.066,-0.185l0.112,-0.16l0.15,-0.127l0.177,-0.083l0.192,-0.034l3.592,-0.168l3.564,-0.165l3.531,-0.162l3.501,-0.157l3.47,-0.153l3.437,-0.149l3.404,-0.143l3.372,-0.142l3.337,-0.135l1.656,-0.067l1.648,-0.066l1.638,-0.064l1.63,-0.063l1.62,-0.062l1.612,-0.06l1.603,-0.06l1.593,-0.058l1.584,-0.057l1.574,-0.056l1.567,-0.055l1.556,-0.054l1.547,-0.053l1.538,-0.051l1.526,-0.049l1.518,-0.049l1.508,-0.048l1.498,-0.045l1.488,-0.046l1.478,-0.043l1.469,-0.042l1.457,-0.042l1.449,-0.04l1.438,-0.038l1.427,-0.037l1.417,-0.036l1.405,-0.035l1.397,-0.033l1.384,-0.03l1.374,-0.031l1.365,-0.03l1.353,-0.027l1.341,-0.027l1.331,-0.024l1.319,-0.023l1.309,-0.022l1.298,-0.02l1.287,-0.02l1.274,-0.017l1.263,-0.016l1.253,-0.015l1.239,-0.012l1.229,-0.013l1.216,-0.009l1.205,-0.009l1.195,-0.008l1.18,-0.005l1.17,-0.004l1.156,-0.003l2.279,0l1.121,0.003Z" style="fill:#9e9595;"/><path d="M305.657,37.495l0.298,0.097l0.272,0.157l0.233,0.21l0.184,0.254l0.128,0.286l0.065,0.307l0,0.313l-0.065,0.307l-0.128,0.287l-0.184,0.253l-0.233,0.21l-0.272,0.157l-0.298,0.097l-0.312,0.033l-181.779,0l-0.312,-0.033l-0.298,-0.097l-0.272,-0.157l-0.233,-0.21l-0.184,-0.253l-0.128,-0.287l-0.065,-0.307l0,-0.313l0.065,-0.307l0.128,-0.286l0.184,-0.254l0.233,-0.21l0.272,-0.157l0.298,-0.097l0.312,-0.032l181.779,0l0.312,0.032Z" style="fill:#9e9595;"/><path d="M365.059,80.747l0.286,0.128l0.254,0.184l0.21,0.233l0.156,0.272l0.097,0.298l0.033,0.312l0,168.742l-0.033,0.312l-0.097,0.298l-0.156,0.272l-0.21,0.233l-0.254,0.184l-0.286,0.128l-0.307,0.065l-0.314,0l-0.306,-0.065l-0.287,-0.128l-0.254,-0.184l-0.209,-0.233l-0.157,-0.272l-0.097,-0.298l-0.033,-0.312l0,-168.742l0.033,-0.312l0.097,-0.298l0.157,-0.272l0.209,-0.233l0.254,-0.184l0.287,-0.128l0.306,-0.065l0.314,0l0.307,0.065Z" style="fill:#9e9595;"/><path d="M365.059,343.68l0.286,0.128l0.254,0.184l0.21,0.233l0.156,0.271l0.097,0.299l0.033,0.312l0,177.863l-0.033,0.312l-0.097,0.298l-0.156,0.272l-0.21,0.233l-0.254,0.184l-0.286,0.128l-0.307,0.065l-0.314,0l-0.306,-0.065l-0.287,-0.128l-0.254,-0.184l-0.209,-0.233l-0.157,-0.272l-0.097,-0.298l-0.033,-0.312l0,-177.863l0.033,-0.312l0.097,-0.299l0.157,-0.271l0.209,-0.233l0.254,-0.184l0.287,-0.128l0.306,-0.065l0.314,0l0.307,0.065Z" style="fill:#9e9595;"/><text x="168.639px" y="31.808px" style="font-family:'BradleyHandITC', 'Bradley Hand ITC', cursive;font-size:34px;fill:#9e9595;">4,2cm</text><text x="326.486px" y="311.416px" style="font-family:'BradleyHandITC', 'Bradley Hand ITC', cursive;font-size:34px;fill:#9e9595;">11cm</text></g></svg>