<?xml version="1.0" encoding="UTF-8" standalone="no"?><!DOCTYPE svg PUBLIC "-//W3C//DTD SVG 1.1//EN" "http://www.w3.org/Graphics/SVG/1.1/DTD/svg11.dtd"><svg width="100%" height="100%" viewBox="0 0 404 580" version="1.1" xmlns="http://www.w3.org/2000/svg" xmlns:xlink="http://www.w3.org/1999/xlink" xml:space="preserve" style="fill-rule:evenodd;clip-rule:evenodd;stroke-linejoin:round;stroke-miterlimit:1.41421;"><g id="product1.-dimensions"><path d="M124.35,29.027l0.102,0.047l0.089,0.068l0.071,0.086l0.051,0.1l0.027,0.109l0.002,0.111l-0.051,0.551l-0.051,0.55l-0.049,0.55l-0.049,0.549l-0.048,0.549l-0.045,0.55l-0.046,0.552l-0.046,0.55l-0.044,0.549l-0.042,0.55l-0.042,0.55l-0.04,0.549l-0.041,0.55l-0.038,0.55l-0.039,0.55l-0.037,0.549l-0.037,0.55l-0.035,0.548l-0.035,0.55l-0.033,0.549l-0.032,0.55l-0.032,0.55l-0.031,0.55l-0.03,0.55l-0.03,0.549l-0.028,0.549l-0.026,0.548l-0.027,0.551l-0.026,0.55l-0.025,0.549l-0.023,0.549l-0.022,0.549l-0.023,0.55l-0.021,0.55l-0.021,0.55l-0.02,0.547l-0.017,0.55l-0.02,0.55l-0.015,0.549l-0.016,0.549l-0.016,0.55l-0.016,0.549l-0.012,0.548l-0.014,0.551l-0.012,0.549l-0.011,0.548l-0.011,0.55l-0.01,0.55l-0.009,0.547l-0.007,0.55l-0.007,0.549l-0.007,0.55l-0.005,0.549l-0.005,0.549l-0.006,0.55l-0.003,0.547l-0.002,0.55l-0.002,0.548l-0.002,1.099l0,1.097l0.006,1.098l0.007,1.099l0.009,1.098l0.014,1.097l0.015,1.099l0.018,1.096l0.021,1.098l0.025,1.098l0.026,1.099l0.028,1.096l0.032,1.098l0.035,1.096l0.037,1.099l0.038,1.096l0.043,1.098l0.044,1.097l0.047,1.098l0.049,1.097l0.051,1.098l0.053,1.096l0.056,1.097l0.058,1.096l0.062,1.099l0.061,1.097l0.065,1.096l0.067,1.097l0.068,1.096l0.073,1.099l0.072,1.096l0.075,1.097l0.155,2.194l0.081,1.097l-0.005,0.111l-0.029,0.109l-0.052,0.099l-0.073,0.084l-0.09,0.067l-0.103,0.044l-0.11,0.021l-0.112,-0.004l-0.108,-0.029l-0.099,-0.053l-0.085,-0.073l-0.066,-0.09l-0.045,-0.103l-0.021,-0.11l-0.081,-1.098l-0.077,-1.099l-0.077,-1.098l-0.076,-1.098l-0.072,-1.099l-0.072,-1.1l-0.069,-1.099l-0.067,-1.098l-0.065,-1.099l-0.062,-1.098l-0.061,-1.1l-0.059,-1.099l-0.056,-1.099l-0.053,-1.099l-0.051,-1.1l-0.049,-1.098l-0.048,-1.101l-0.044,-1.099l-0.042,-1.1l-0.039,-1.099l-0.037,-1.1l-0.035,-1.099l-0.031,-1.101l-0.029,-1.099l-0.026,-1.1l-0.025,-1.1l-0.021,-1.101l-0.017,-1.099l-0.016,-1.1l-0.014,-1.101l-0.009,-1.101l-0.007,-1.1l-0.006,-1.101l0,-1.101l0.002,-1.1l0.002,-0.549l0.002,-0.552l0.003,-0.55l0.006,-0.551l0.005,-0.549l0.005,-0.552l0.007,-0.551l0.007,-0.549l0.007,-0.551l0.009,-0.551l0.011,-0.551l0.01,-0.55l0.011,-0.55l0.012,-0.552l0.014,-0.551l0.013,-0.549l0.015,-0.552l0.016,-0.551l0.016,-0.549l0.016,-0.552l0.019,-0.551l0.018,-0.551l0.019,-0.55l0.021,-0.552l0.022,-0.551l0.022,-0.551l0.023,-0.549l0.023,-0.551l0.025,-0.553l0.026,-0.551l0.027,-0.55l0.026,-0.55l0.028,-0.552l0.03,-0.552l0.03,-0.551l0.032,-0.551l0.032,-0.551l0.031,-0.551l0.034,-0.552l0.035,-0.552l0.035,-0.549l0.037,-0.552l0.037,-0.551l0.039,-0.551l0.039,-0.552l0.04,-0.551l0.041,-0.551l0.042,-0.552l0.042,-0.551l0.045,-0.552l0.045,-0.551l0.046,-0.553l0.046,-0.551l0.047,-0.552l0.05,-0.552l0.049,-0.551l0.051,-0.551l0.051,-0.551l0.023,-0.109l0.047,-0.102l0.068,-0.089l0.086,-0.072l0.1,-0.05l0.108,-0.027l0.112,-0.003l0.11,0.023Z" style="fill:#9e9595;"/><path d="M292.744,29.015l0.099,0.034l0.089,0.054l0.077,0.072l0.059,0.085l0.041,0.097l0.019,0.102l0.076,0.893l0.071,0.895l0.07,0.897l0.065,0.899l0.064,0.901l0.06,0.902l0.059,0.904l0.055,0.907l0.053,0.908l0.05,0.91l0.048,0.913l0.044,0.913l0.042,0.915l0.041,0.919l0.037,0.919l0.034,0.92l0.034,0.924l0.029,0.925l0.027,0.926l0.026,0.927l0.022,0.93l0.02,0.932l0.018,0.933l0.015,0.935l0.014,0.937l0.01,0.938l0.009,0.94l0.007,0.941l0.003,0.943l0.003,0.944l-0.002,0.946l-0.001,0.947l-0.005,0.949l-0.008,0.95l-0.009,0.953l-0.01,0.953l-0.012,0.955l-0.015,0.957l-0.019,0.957l-0.018,0.959l-0.021,0.961l-0.023,0.963l-0.025,0.964l-0.028,0.965l-0.028,0.966l-0.031,0.967l-0.033,0.97l-0.033,0.969l-0.036,0.972l-0.038,0.972l-0.041,0.975l-0.041,0.975l-0.044,0.976l-0.044,0.978l-0.047,0.979l-0.048,0.98l-0.05,0.981l-0.051,0.983l-0.053,0.983l-0.055,0.985l-0.057,0.986l-0.058,0.986l-0.059,0.988l-0.062,0.989l-0.017,0.103l-0.039,0.097l-0.057,0.087l-0.075,0.073l-0.088,0.056l-0.098,0.037l-0.104,0.015l-0.104,-0.006l-0.101,-0.028l-0.092,-0.049l-0.081,-0.066l-0.065,-0.082l-0.046,-0.094l-0.026,-0.101l-0.005,-0.105l0.062,-0.987l0.059,-0.986l0.057,-0.985l0.058,-0.985l0.054,-0.983l0.053,-0.981l0.051,-0.982l0.05,-0.979l0.049,-0.978l0.046,-0.977l0.044,-0.977l0.044,-0.974l0.041,-0.974l0.041,-0.973l0.037,-0.971l0.036,-0.969l0.034,-0.968l0.033,-0.968l0.03,-0.964l0.029,-0.965l0.027,-0.964l0.026,-0.962l0.022,-0.96l0.021,-0.958l0.019,-0.958l0.018,-0.956l0.015,-0.953l0.012,-0.953l0.01,-0.951l0.009,-0.951l0.008,-0.948l0.005,-0.946l0.001,-0.946l0.002,-0.943l-0.003,-0.942l-0.003,-0.941l-0.006,-0.938l-0.01,-0.938l-0.01,-0.935l-0.014,-0.935l-0.015,-0.933l-0.018,-0.929l-0.02,-0.93l-0.022,-0.926l-0.026,-0.926l-0.027,-0.924l-0.029,-0.922l-0.033,-0.92l-0.035,-0.918l-0.036,-0.916l-0.041,-0.915l-0.042,-0.914l-0.044,-0.909l-0.048,-0.91l-0.05,-0.907l-0.052,-0.906l-0.055,-0.903l-0.059,-0.901l-0.06,-0.899l-0.063,-0.898l-0.065,-0.896l-0.07,-0.893l-0.07,-0.892l-0.076,-0.89l0.002,-0.105l0.024,-0.101l0.044,-0.095l0.064,-0.083l0.079,-0.069l0.091,-0.05l0.1,-0.03l0.104,-0.009l0.104,0.013Z" style="fill:#9e9595;"/><path d="M352.918,98.043l0.804,0.002l0.806,0.003l0.812,0.004l0.816,0.005l0.819,0.005l0.824,0.006l0.83,0.007l0.831,0.008l0.837,0.008l0.842,0.01l0.845,0.01l0.852,0.012l0.855,0.012l0.859,0.014l0.865,0.014l0.873,0.016l0.874,0.016l0.88,0.017l0.886,0.019l0.889,0.019l0.898,0.02l0.901,0.021l0.907,0.023l0.913,0.023l0.918,0.025l0.923,0.026l0.931,0.026l0.936,0.028l0.941,0.031l0.948,0.03l0.953,0.032l0.959,0.032l0.966,0.034l0.974,0.035l0.979,0.037l0.984,0.038l0.991,0.039l0.999,0.041l1.004,0.042l1.012,0.043l1.019,0.044l1.025,0.046l1.034,0.047l1.04,0.048l1.044,0.049l0.166,0.027l0.156,0.063l0.137,0.096l0.113,0.124l0.083,0.146l0.048,0.161l0.011,0.168l-0.027,0.166l-0.063,0.156l-0.096,0.137l-0.124,0.113l-0.146,0.083l-0.161,0.048l-0.168,0.011l-1.043,-0.05l-1.039,-0.048l-1.033,-0.047l-1.023,-0.045l-1.017,-0.044l-1.011,-0.044l-1.002,-0.041l-0.998,-0.041l-0.99,-0.039l-0.982,-0.038l-0.977,-0.037l-0.973,-0.035l-0.964,-0.034l-0.957,-0.032l-0.952,-0.032l-0.947,-0.03l-0.939,-0.03l-0.934,-0.028l-0.929,-0.027l-0.922,-0.025l-0.916,-0.025l-0.911,-0.023l-0.907,-0.023l-0.899,-0.022l-0.896,-0.02l-0.889,-0.019l-0.883,-0.019l-0.878,-0.016l-0.874,-0.017l-0.87,-0.015l-0.864,-0.014l-0.858,-0.014l-0.853,-0.012l-0.85,-0.012l-0.844,-0.01l-0.84,-0.01l-0.835,-0.008l-0.831,-0.008l-0.827,-0.007l-0.823,-0.006l-0.818,-0.005l-0.815,-0.005l-0.81,-0.004l-0.805,-0.003l-0.803,-0.002l-0.797,-0.001l-1.585,0l-1.572,0.002l-1.554,0.005l-1.545,0.008l-1.532,0.01l-1.519,0.011l-1.506,0.016l-1.496,0.016l-1.486,0.019l-1.477,0.021l-1.466,0.023l-1.459,0.024l-1.45,0.026l-1.444,0.028l-1.436,0.029l-1.431,0.029l-1.425,0.031l-1.421,0.032l-1.416,0.033l-1.411,0.034l-1.409,0.034l-2.812,0.07l-2.804,0.071l-2.805,0.071l-2.808,0.071l-2.818,0.068l-1.415,0.033l-1.416,0.033l-1.422,0.032l-1.427,0.03l-1.435,0.031l-1.44,0.028l-1.445,0.028l-1.455,0.025l-1.463,0.024l-1.471,0.022l-0.167,-0.017l-0.159,-0.053l-0.144,-0.087l-0.12,-0.117l-0.092,-0.141l-0.057,-0.158l-0.022,-0.166l0.017,-0.168l0.053,-0.159l0.087,-0.143l0.117,-0.121l0.141,-0.091l0.158,-0.058l0.166,-0.021l1.469,-0.022l1.461,-0.024l1.453,-0.025l1.444,-0.028l1.438,-0.028l1.434,-0.03l1.426,-0.031l1.421,-0.031l1.416,-0.033l1.413,-0.033l2.817,-0.069l2.807,-0.071l2.805,-0.071l2.805,-0.07l2.813,-0.07l1.409,-0.034l1.411,-0.035l1.417,-0.033l1.422,-0.031l1.427,-0.032l1.433,-0.029l1.437,-0.029l1.445,-0.028l1.453,-0.025l1.46,-0.025l1.468,-0.022l1.478,-0.022l1.489,-0.019l1.498,-0.016l1.509,-0.016l1.522,-0.011l1.534,-0.01l1.546,-0.008l1.557,-0.005l1.575,-0.002l1.587,0l0.8,0.001Z" style="fill:#9e9595;"/><path d="M252.072,499.28l3.561,0.165l3.533,0.16l3.499,0.157l3.469,0.155l3.436,0.147l3.403,0.145l3.37,0.14l3.336,0.137l1.655,0.065l1.648,0.066l1.637,0.065l1.629,0.062l1.619,0.062l1.612,0.062l1.602,0.058l1.592,0.058l1.584,0.058l1.573,0.057l1.565,0.054l1.555,0.053l1.546,0.053l1.537,0.051l1.526,0.051l1.517,0.049l1.507,0.047l1.497,0.046l1.488,0.045l1.476,0.044l1.468,0.041l1.456,0.042l1.448,0.038l1.437,0.039l1.426,0.038l1.416,0.036l1.404,0.033l1.395,0.034l1.383,0.031l1.374,0.031l1.363,0.029l1.351,0.028l1.34,0.025l1.33,0.026l1.318,0.023l1.307,0.022l1.296,0.02l1.286,0.018l1.273,0.018l1.261,0.017l1.251,0.014l1.238,0.013l1.227,0.011l1.215,0.011l1.203,0.009l1.192,0.007l1.178,0.006l1.169,0.003l1.154,0.002l1.143,0.002l1.131,-0.002l1.12,-0.002l1.104,-0.003l1.094,-0.006l1.081,-0.007l1.069,-0.009l1.056,-0.009l1.043,-0.013l1.028,-0.013l1.017,-0.016l1.005,-0.016l0.99,-0.019l0.979,-0.02l0.965,-0.021l0.949,-0.024l0.939,-0.025l0.924,-0.028l0.912,-0.029l0.897,-0.029l0.883,-0.032l0.871,-0.035l0.854,-0.034l0.842,-0.038l0.83,-0.04l0.812,-0.04l0.8,-0.044l0.787,-0.043l0.771,-0.047l0.757,-0.048l0.741,-0.05l0.729,-0.053l0.715,-0.052l0.349,-0.028l0.347,-0.028l0.345,-0.029l0.339,-0.029l0.338,-0.03l0.332,-0.028l0.329,-0.031l0.326,-0.031l0.319,-0.031l0.318,-0.032l0.315,-0.033l0.31,-0.032l0.309,-0.033l0.3,-0.032l0.297,-0.035l0.295,-0.034l0.292,-0.036l0.288,-0.034l0.28,-0.036l0.28,-0.038l0.277,-0.036l0.271,-0.038l0.268,-0.038l0.266,-0.038l0.257,-0.037l0.255,-0.04l0.252,-0.039l0.249,-0.042l0.245,-0.039l0.238,-0.042l0.235,-0.041l0.23,-0.042l0.229,-0.044l0.227,-0.043l0.219,-0.043l0.215,-0.043l0.211,-0.044l0.204,-0.044l0.205,-0.047l0.201,-0.044l0.191,-0.046l0.192,-0.048l0.187,-0.046l0.181,-0.047l0.18,-0.048l0.173,-0.048l0.168,-0.048l0.166,-0.05l0.159,-0.048l0.155,-0.05l0.152,-0.051l0.149,-0.051l0.142,-0.049l0.138,-0.051l0.136,-0.052l0.134,-0.053l0.19,-0.047l0.196,0.003l0.188,0.054l0.168,0.101l0.136,0.14l0.095,0.172l0.048,0.189l-0.004,0.196l-0.053,0.188l-0.101,0.168l-0.141,0.136l-0.171,0.096l-0.143,0.056l-0.151,0.057l-0.157,0.058l-0.16,0.056l-0.16,0.055l-0.164,0.055l-0.173,0.055l-0.176,0.054l-0.176,0.052l-0.185,0.054l-0.187,0.051l-0.187,0.05l-0.194,0.051l-0.195,0.048l-0.201,0.05l-0.209,0.05l-0.207,0.046l-0.21,0.048l-0.217,0.046l-0.223,0.047l-0.224,0.045l-0.225,0.044l-0.232,0.044l-0.233,0.044l-0.24,0.045l-0.245,0.042l-0.246,0.043l-0.25,0.04l-0.253,0.043l-0.261,0.04l-0.262,0.041l-0.266,0.039l-0.269,0.038l-0.27,0.039l-0.279,0.038l-0.28,0.037l-0.283,0.038l-0.291,0.037l-0.291,0.035l-0.294,0.037l-0.302,0.035l-0.303,0.034l-0.307,0.034l-0.31,0.032l-0.312,0.033l-0.318,0.033l-0.323,0.033l-0.325,0.031l-0.328,0.031l-0.334,0.032l-0.338,0.029l-0.338,0.029l-0.341,0.029l-0.347,0.029l-0.352,0.03l-0.356,0.027l-0.719,0.053l-0.733,0.053l-0.748,0.051l-0.763,0.048l-0.776,0.047l-0.792,0.044l-0.804,0.044l-0.818,0.04l-0.832,0.04l-0.847,0.038l-0.859,0.035l-0.873,0.035l-0.889,0.032l-0.9,0.03l-0.915,0.029l-0.927,0.027l-0.943,0.026l-0.953,0.023l-0.967,0.022l-0.983,0.02l-0.993,0.018l-1.006,0.017l-1.021,0.016l-1.031,0.013l-1.045,0.013l-1.059,0.009l-1.07,0.009l-1.084,0.007l-1.096,0.006l-1.108,0.003l-1.121,0.002l-1.133,0.002l-1.145,-0.002l-1.156,-0.002l-1.171,-0.003l-1.18,-0.006l-1.194,-0.007l-1.206,-0.009l-1.215,-0.011l-1.229,-0.011l-1.24,-0.013l-1.252,-0.014l-1.264,-0.017l-1.274,-0.018l-1.286,-0.018l-1.298,-0.02l-1.309,-0.022l-1.32,-0.024l-1.33,-0.025l-1.342,-0.026l-1.352,-0.027l-1.365,-0.029l-1.374,-0.031l-1.385,-0.031l-1.396,-0.034l-1.405,-0.033l-1.418,-0.037l-1.427,-0.038l-1.437,-0.038l-1.449,-0.038l-1.458,-0.042l-1.468,-0.042l-1.478,-0.044l-1.489,-0.045l-1.497,-0.046l-1.509,-0.047l-1.518,-0.049l-1.526,-0.051l-1.538,-0.051l-1.547,-0.053l-1.555,-0.053l-1.567,-0.054l-1.575,-0.057l-1.584,-0.058l-1.592,-0.058l-1.603,-0.058l-1.613,-0.062l-1.619,-0.062l-1.631,-0.062l-1.638,-0.065l-1.648,-0.066l-1.655,-0.065l-3.338,-0.137l-3.371,-0.14l-3.404,-0.146l-3.438,-0.147l-3.47,-0.155l-3.5,-0.156l-3.533,-0.16l-3.563,-0.166l-3.591,-0.169l-0.193,-0.035l-0.177,-0.083l-0.15,-0.126l-0.112,-0.161l-0.066,-0.184l-0.016,-0.195l0.034,-0.193l0.084,-0.177l0.126,-0.15l0.161,-0.112l0.184,-0.066l0.195,-0.016l3.591,0.169Z" style="fill:#9e9595;"/><path d="M318.917,38.613l0.317,0.111l0.284,0.178l0.238,0.238l0.179,0.284l0.11,0.317l0.038,0.334l-0.038,0.334l-0.11,0.317l-0.179,0.284l-0.238,0.238l-0.284,0.179l-0.317,0.111l-0.334,0.037l-207.818,0l-0.333,-0.037l-0.317,-0.111l-0.285,-0.179l-0.237,-0.238l-0.179,-0.284l-0.111,-0.317l-0.038,-0.334l0.038,-0.334l0.111,-0.317l0.179,-0.284l0.237,-0.238l0.285,-0.178l0.317,-0.111l0.333,-0.038l207.818,0l0.334,0.038Z" style="fill:#9e9595;"/><path d="M368.906,79.279l0.286,0.128l0.254,0.184l0.21,0.233l0.157,0.272l0.097,0.298l0.032,0.312l0,168.742l-0.032,0.312l-0.097,0.298l-0.157,0.272l-0.21,0.233l-0.254,0.184l-0.286,0.128l-0.307,0.065l-0.313,0l-0.307,-0.065l-0.287,-0.128l-0.253,-0.184l-0.21,-0.233l-0.157,-0.272l-0.097,-0.298l-0.033,-0.312l0,-168.742l0.033,-0.312l0.097,-0.298l0.157,-0.272l0.21,-0.233l0.253,-0.184l0.287,-0.128l0.307,-0.065l0.313,0l0.307,0.065Z" style="fill:#9e9595;"/><path d="M368.905,342.212l0.286,0.127l0.254,0.185l0.21,0.233l0.157,0.271l0.097,0.298l0.032,0.312l0,177.864l-0.032,0.312l-0.097,0.298l-0.157,0.272l-0.21,0.233l-0.254,0.184l-0.286,0.128l-0.307,0.065l-0.313,0l-0.307,-0.065l-0.287,-0.128l-0.253,-0.184l-0.21,-0.233l-0.157,-0.272l-0.097,-0.298l-0.033,-0.312l0,-177.864l0.033,-0.312l0.097,-0.298l0.157,-0.271l0.21,-0.233l0.253,-0.185l0.287,-0.127l0.307,-0.065l0.313,0l0.307,0.065Z" style="fill:#9e9595;"/><text x="175.849px" y="32.921px" style="font-family:'BradleyHandITC', 'Bradley Hand ITC', cursive;font-size:34px;fill:#9e9595;">5cm</text><text x="329.904px" y="309.947px" style="font-family:'BradleyHandITC', 'Bradley Hand ITC', cursive;font-size:34px;fill:#9e9595;">13cm</text></g></svg>