<?xml version="1.0" encoding="UTF-8" standalone="no"?><!DOCTYPE svg PUBLIC "-//W3C//DTD SVG 1.1//EN" "http://www.w3.org/Graphics/SVG/1.1/DTD/svg11.dtd"><svg width="100%" height="100%" viewBox="0 0 404 580" version="1.1" xmlns="http://www.w3.org/2000/svg" xmlns:xlink="http://www.w3.org/1999/xlink" xml:space="preserve" style="fill-rule:evenodd;clip-rule:evenodd;stroke-linejoin:round;stroke-miterlimit:1.41421;"><g id="product5.-dimensions"><path d="M85.754,25.818l0.1,0.032l0.09,0.053l0.078,0.07l0.061,0.084l0.043,0.096l0.022,0.102l0,0.105l-0.052,0.49l-0.052,0.489l-0.05,0.49l-0.048,0.488l-0.047,0.49l-0.047,0.489l-0.045,0.489l-0.045,0.489l-0.044,0.489l-0.042,0.489l-0.043,0.489l-0.04,0.49l-0.041,0.489l-0.039,0.488l-0.037,0.49l-0.038,0.489l-0.036,0.489l-0.036,0.489l-0.034,0.489l-0.033,0.489l-0.033,0.49l-0.033,0.487l-0.029,0.488l-0.03,0.49l-0.03,0.49l-0.028,0.488l-0.026,0.489l-0.027,0.49l-0.026,0.487l-0.024,0.489l-0.025,0.49l-0.022,0.488l-0.022,0.49l-0.022,0.488l-0.02,0.489l-0.02,0.489l-0.019,0.489l-0.017,0.488l-0.017,0.489l-0.016,0.489l-0.016,0.488l-0.014,0.489l-0.014,0.489l-0.012,0.488l-0.013,0.489l-0.011,0.489l-0.011,0.488l-0.009,0.489l-0.009,0.489l-0.008,0.488l-0.008,0.489l-0.006,0.488l-0.007,0.489l-0.004,0.488l-0.005,0.489l-0.003,0.489l-0.003,0.488l-0.002,0.489l-0.001,0.977l0.001,0.978l0.003,0.976l0.008,0.976l0.01,0.977l0.012,0.977l0.016,0.977l0.019,0.977l0.021,0.976l0.024,0.977l0.026,0.977l0.029,0.977l0.032,0.976l0.035,0.977l0.036,0.976l0.039,0.977l0.042,0.976l0.044,0.977l0.047,0.975l0.05,0.978l0.05,0.976l0.055,0.976l0.054,0.977l0.119,1.952l0.063,0.975l0.065,0.976l0.066,0.978l0.141,1.951l0.147,1.952l0.156,1.952l0.082,0.976l-0.003,0.105l-0.024,0.102l-0.044,0.094l-0.063,0.083l-0.08,0.069l-0.091,0.05l-0.1,0.03l-0.104,0.009l-0.104,-0.013l-0.099,-0.035l-0.089,-0.054l-0.076,-0.072l-0.06,-0.085l-0.04,-0.097l-0.02,-0.103l-0.081,-0.977l-0.079,-0.978l-0.078,-0.978l-0.074,-0.978l-0.073,-0.978l-0.071,-0.978l-0.071,-0.978l-0.065,-0.98l-0.066,-0.977l-0.063,-0.979l-0.059,-0.978l-0.06,-0.978l-0.055,-0.98l-0.055,-0.978l-0.05,-0.978l-0.05,-0.979l-0.047,-0.979l-0.044,-0.979l-0.042,-0.979l-0.039,-0.98l-0.037,-0.978l-0.034,-0.979l-0.033,-0.979l-0.028,-0.98l-0.027,-0.979l-0.023,-0.98l-0.022,-0.978l-0.019,-0.98l-0.016,-0.981l-0.012,-0.98l-0.01,-0.979l-0.008,-0.979l-0.003,-0.98l-0.001,-0.98l0.001,-0.979l0.002,-0.492l0.003,-0.489l0.003,-0.491l0.005,-0.491l0.005,-0.489l0.006,-0.491l0.006,-0.489l0.008,-0.491l0.008,-0.489l0.009,-0.491l0.01,-0.491l0.011,-0.489l0.011,-0.491l0.012,-0.491l0.013,-0.489l0.014,-0.491l0.014,-0.491l0.016,-0.489l0.015,-0.491l0.017,-0.491l0.018,-0.489l0.019,-0.492l0.02,-0.49l0.02,-0.491l0.022,-0.49l0.022,-0.49l0.022,-0.491l0.025,-0.491l0.024,-0.491l0.027,-0.49l0.026,-0.49l0.027,-0.491l0.028,-0.491l0.03,-0.491l0.03,-0.49l0.029,-0.492l0.033,-0.49l0.033,-0.49l0.033,-0.491l0.035,-0.491l0.036,-0.491l0.036,-0.491l0.038,-0.491l0.037,-0.491l0.039,-0.491l0.041,-0.491l0.041,-0.491l0.042,-0.491l0.043,-0.491l0.044,-0.491l0.045,-0.491l0.046,-0.491l0.047,-0.491l0.047,-0.491l0.048,-0.491l0.051,-0.493l0.051,-0.491l0.052,-0.49l0.022,-0.103l0.042,-0.095l0.062,-0.085l0.078,-0.069l0.09,-0.053l0.1,-0.032l0.104,-0.011l0.103,0.011Z" style="fill:#9e9595;"/><path d="M272.159,17.763l0.108,0.029l0.1,0.052l0.085,0.073l0.066,0.09l0.046,0.102l0.021,0.11l0.074,0.957l0.072,0.96l0.068,0.961l0.067,0.964l0.063,0.966l0.062,0.967l0.113,1.941l0.052,0.975l0.05,0.975l0.047,0.979l0.046,0.98l0.042,0.982l0.039,0.984l0.037,0.985l0.036,0.988l0.033,0.989l0.029,0.991l0.027,0.993l0.025,0.995l0.022,0.998l0.022,0.998l0.017,1.002l0.015,1.001l0.013,1.004l0.011,1.006l0.008,1.008l0.007,1.009l0.005,1.011l0.001,1.013l0,1.014l-0.003,1.016l-0.005,1.017l-0.006,1.02l-0.008,1.021l-0.012,1.022l-0.013,1.024l-0.016,1.025l-0.016,1.027l-0.02,1.03l-0.021,1.03l-0.022,1.03l-0.025,1.034l-0.027,1.035l-0.029,1.037l-0.031,1.036l-0.033,1.04l-0.034,1.04l-0.036,1.041l-0.038,1.043l-0.039,1.045l-0.043,1.046l-0.042,1.046l-0.045,1.05l-0.047,1.049l-0.049,1.051l-0.048,1.051l-0.052,1.055l-0.054,1.054l-0.055,1.056l-0.055,1.057l-0.059,1.058l-0.06,1.06l-0.06,1.059l-0.018,0.11l-0.043,0.104l-0.065,0.091l-0.084,0.075l-0.098,0.054l-0.107,0.031l-0.112,0.006l-0.11,-0.019l-0.104,-0.043l-0.091,-0.065l-0.075,-0.083l-0.054,-0.098l-0.031,-0.108l-0.006,-0.112l0.06,-1.058l0.06,-1.06l0.058,-1.055l0.055,-1.056l0.055,-1.055l0.054,-1.053l0.052,-1.053l0.048,-1.049l0.049,-1.05l0.047,-1.048l0.045,-1.048l0.042,-1.044l0.042,-1.045l0.039,-1.043l0.039,-1.041l0.036,-1.04l0.034,-1.038l0.032,-1.038l0.031,-1.035l0.029,-1.035l0.028,-1.033l0.024,-1.031l0.023,-1.029l0.021,-1.028l0.019,-1.028l0.016,-1.026l0.016,-1.023l0.013,-1.022l0.012,-1.02l0.008,-1.018l0.006,-1.019l0.005,-1.015l0.003,-1.014l0,-1.012l-0.001,-1.01l-0.005,-1.008l-0.007,-1.008l-0.008,-1.005l-0.011,-1.004l-0.013,-1.002l-0.015,-0.999l-0.017,-0.999l-0.021,-0.995l-0.023,-0.996l-0.024,-0.992l-0.028,-0.991l-0.029,-0.989l-0.032,-0.986l-0.036,-0.985l-0.037,-0.983l-0.039,-0.981l-0.042,-0.979l-0.045,-0.978l-0.047,-0.976l-0.051,-0.973l-0.051,-0.971l-0.057,-0.968l-0.057,-0.968l-0.061,-0.964l-0.063,-0.963l-0.067,-0.961l-0.068,-0.959l-0.071,-0.956l-0.074,-0.955l0.004,-0.112l0.028,-0.108l0.052,-0.1l0.073,-0.085l0.09,-0.066l0.102,-0.045l0.11,-0.022l0.112,0.004Z" style="fill:#9e9595;"/><path d="M325.415,93.535l0.716,0l0.723,0.002l0.722,0.004l0.727,0.003l0.733,0.004l0.735,0.005l0.739,0.007l0.742,0.006l0.748,0.009l0.75,0.01l0.752,0.009l0.76,0.009l0.763,0.011l0.769,0.014l0.77,0.013l0.776,0.014l0.78,0.016l0.783,0.016l0.792,0.016l0.795,0.018l0.798,0.02l0.802,0.021l0.81,0.02l0.815,0.023l0.818,0.025l0.823,0.023l0.829,0.027l0.833,0.027l0.84,0.028l0.843,0.029l0.851,0.03l0.856,0.032l0.859,0.034l0.866,0.034l0.871,0.034l0.878,0.036l0.885,0.039l0.889,0.039l0.895,0.041l0.901,0.041l0.908,0.043l0.914,0.045l0.918,0.046l0.926,0.048l0.932,0.047l0.939,0.05l0.154,0.025l0.147,0.056l0.131,0.086l0.111,0.111l0.085,0.131l0.056,0.147l0.025,0.155l-0.009,0.156l-0.04,0.152l-0.072,0.139l-0.098,0.122l-0.122,0.099l-0.14,0.071l-0.152,0.04l-0.156,0.008l-0.938,-0.05l-0.93,-0.047l-0.924,-0.048l-0.918,-0.045l-0.912,-0.046l-0.905,-0.043l-0.899,-0.041l-0.894,-0.041l-0.888,-0.038l-0.883,-0.039l-0.875,-0.036l-0.869,-0.034l-0.866,-0.034l-0.858,-0.034l-0.852,-0.032l-0.849,-0.03l-0.842,-0.029l-0.837,-0.027l-0.834,-0.028l-0.825,-0.027l-0.822,-0.022l-0.818,-0.025l-0.811,-0.023l-0.808,-0.021l-0.802,-0.02l-0.796,-0.02l-0.791,-0.019l-0.79,-0.015l-0.784,-0.016l-0.778,-0.016l-0.774,-0.014l-0.77,-0.013l-0.767,-0.014l-0.758,-0.011l-0.758,-0.009l-0.752,-0.01l-0.75,-0.009l-0.746,-0.009l-0.74,-0.007l-0.737,-0.006l-0.733,-0.005l-0.73,-0.004l-0.727,-0.003l-0.722,-0.004l-0.718,-0.002l-0.715,0l-1.422,-0.003l-1.408,0.003l-1.396,0.006l-1.383,0.007l-1.372,0.009l-1.362,0.014l-1.351,0.013l-1.341,0.019l-1.333,0.018l-1.323,0.02l-1.316,0.023l-1.307,0.025l-1.299,0.027l-1.295,0.027l-1.289,0.028l-1.283,0.029l-1.276,0.032l-1.273,0.032l-1.27,0.034l-1.265,0.032l-1.265,0.034l-2.518,0.07l-2.515,0.073l-2.516,0.07l-2.519,0.071l-2.525,0.068l-1.268,0.034l-1.273,0.032l-1.274,0.031l-1.28,0.032l-1.285,0.03l-1.291,0.027l-1.298,0.027l-1.303,0.028l-1.312,0.022l-1.318,0.023l-0.156,-0.014l-0.15,-0.045l-0.137,-0.076l-0.118,-0.103l-0.094,-0.126l-0.067,-0.142l-0.035,-0.152l-0.003,-0.157l0.03,-0.154l0.062,-0.144l0.09,-0.129l0.114,-0.107l0.135,-0.081l0.148,-0.051l0.156,-0.019l1.317,-0.022l1.31,-0.023l1.3,-0.027l1.297,-0.028l1.29,-0.027l1.282,-0.029l1.278,-0.032l1.275,-0.032l1.271,-0.032l1.267,-0.034l2.524,-0.068l2.519,-0.07l2.514,-0.071l2.515,-0.072l2.52,-0.071l1.266,-0.034l1.266,-0.032l1.27,-0.034l1.275,-0.032l1.278,-0.031l1.285,-0.03l1.291,-0.027l1.295,-0.028l1.3,-0.027l1.31,-0.025l1.319,-0.023l1.326,-0.02l1.334,-0.018l1.344,-0.018l1.353,-0.014l1.364,-0.014l1.376,-0.009l1.385,-0.007l1.398,-0.006l1.413,-0.003l1.423,0.003Z" style="fill:#9e9595;"/><path d="M308.322,484.982l1.079,0.003l1.067,0.005l1.055,0.008l1.041,0.008l1.029,0.011l1.018,0.011l1.006,0.014l0.993,0.016l0.98,0.016l0.967,0.017l0.954,0.022l0.942,0.021l0.93,0.025l0.916,0.025l0.903,0.026l0.89,0.029l0.879,0.032l0.861,0.032l0.852,0.033l0.837,0.036l0.823,0.037l0.813,0.039l0.795,0.043l0.783,0.042l0.769,0.045l0.758,0.046l0.741,0.05l0.728,0.05l0.716,0.051l0.699,0.055l0.346,0.027l0.34,0.028l0.339,0.029l0.334,0.03l0.33,0.029l0.331,0.03l0.323,0.032l0.318,0.03l0.317,0.032l0.313,0.032l0.31,0.033l0.305,0.033l0.3,0.032l0.303,0.035l0.293,0.035l0.292,0.034l0.289,0.036l0.285,0.036l0.281,0.037l0.276,0.038l0.272,0.037l0.27,0.038l0.265,0.039l0.262,0.037l0.262,0.04l0.255,0.042l0.247,0.04l0.249,0.04l0.245,0.043l0.24,0.041l0.239,0.044l0.23,0.043l0.23,0.043l0.227,0.045l0.22,0.045l0.219,0.046l0.217,0.047l0.209,0.047l0.205,0.046l0.204,0.048l0.201,0.049l0.195,0.049l0.194,0.05l0.185,0.05l0.183,0.049l0.187,0.053l0.177,0.053l0.173,0.053l0.169,0.054l0.163,0.052l0.164,0.055l0.164,0.058l0.153,0.057l0.151,0.055l0.148,0.059l0.137,0.056l0.171,0.096l0.14,0.137l0.099,0.169l0.053,0.188l0.002,0.196l-0.049,0.19l-0.096,0.17l-0.137,0.14l-0.169,0.099l-0.188,0.053l-0.196,0.002l-0.19,-0.049l-0.135,-0.054l-0.128,-0.051l-0.136,-0.051l-0.142,-0.052l-0.136,-0.049l-0.147,-0.048l-0.153,-0.05l-0.157,-0.049l-0.164,-0.05l-0.162,-0.049l-0.164,-0.047l-0.175,-0.047l-0.179,-0.048l-0.178,-0.046l-0.188,-0.047l-0.188,-0.046l-0.193,-0.045l-0.199,-0.045l-0.202,-0.046l-0.204,-0.044l-0.209,-0.043l-0.216,-0.044l-0.216,-0.043l-0.22,-0.042l-0.226,-0.042l-0.228,-0.042l-0.236,-0.04l-0.236,-0.042l-0.24,-0.038l-0.249,-0.041l-0.247,-0.04l-0.248,-0.038l-0.259,-0.037l-0.263,-0.039l-0.261,-0.036l-0.27,-0.037l-0.273,-0.037l-0.274,-0.037l-0.278,-0.035l-0.282,-0.035l-0.289,-0.033l-0.291,-0.036l-0.292,-0.033l-0.299,-0.031l-0.303,-0.034l-0.304,-0.031l-0.31,-0.032l-0.313,-0.032l-0.316,-0.03l-0.321,-0.032l-0.321,-0.029l-0.329,-0.029l-0.332,-0.03l-0.334,-0.028l-0.336,-0.028l-0.341,-0.026l-0.696,-0.055l-0.708,-0.051l-0.724,-0.05l-0.736,-0.049l-0.751,-0.046l-0.764,-0.044l-0.78,-0.042l-0.791,-0.043l-0.806,-0.039l-0.819,-0.037l-0.832,-0.035l-0.848,-0.033l-0.859,-0.032l-0.875,-0.032l-0.885,-0.028l-0.899,-0.027l-0.915,-0.025l-0.926,-0.024l-0.938,-0.022l-0.951,-0.021l-0.963,-0.017l-0.979,-0.016l-0.99,-0.016l-1.002,-0.014l-1.015,-0.011l-1.028,-0.011l-1.039,-0.009l-1.052,-0.007l-1.065,-0.005l-1.077,-0.003l-1.088,-0.004l-1.1,0l-1.113,0.002l-1.126,0.002l-1.135,0.003l-1.148,0.005l-1.159,0.007l-1.171,0.009l-1.182,0.011l-1.195,0.012l-1.207,0.013l-1.216,0.014l-1.228,0.016l-1.24,0.017l-1.25,0.02l-1.261,0.019l-1.272,0.023l-1.284,0.023l-1.293,0.025l-1.305,0.027l-1.317,0.026l-1.325,0.03l-1.337,0.03l-1.347,0.032l-1.357,0.032l-1.368,0.036l-1.377,0.035l-1.388,0.037l-1.399,0.039l-1.409,0.039l-1.417,0.041l-1.429,0.042l-1.437,0.044l-1.448,0.045l-1.457,0.046l-1.468,0.048l-1.476,0.047l-1.486,0.052l-1.495,0.051l-1.505,0.051l-1.513,0.053l-1.524,0.055l-1.532,0.057l-1.542,0.057l-1.55,0.058l-1.558,0.06l-1.569,0.06l-1.577,0.062l-1.584,0.064l-1.596,0.064l-1.602,0.065l-1.611,0.066l-3.247,0.136l-3.28,0.142l-3.313,0.143l-3.344,0.149l-3.376,0.154l-3.407,0.158l-3.438,0.159l-3.467,0.166l-3.495,0.169l-0.195,-0.017l-0.184,-0.066l-0.161,-0.111l-0.127,-0.15l-0.083,-0.177l-0.035,-0.193l0.016,-0.195l0.066,-0.184l0.112,-0.161l0.149,-0.126l0.177,-0.084l0.193,-0.035l3.495,-0.168l3.468,-0.166l3.44,-0.16l3.407,-0.157l3.377,-0.155l3.346,-0.148l3.314,-0.144l3.282,-0.141l3.248,-0.137l1.612,-0.065l1.603,-0.066l1.595,-0.064l1.586,-0.063l1.578,-0.062l1.569,-0.061l1.559,-0.06l1.552,-0.058l1.542,-0.057l1.532,-0.057l1.525,-0.055l1.515,-0.053l1.506,-0.051l1.494,-0.051l1.488,-0.052l1.478,-0.048l1.468,-0.047l1.458,-0.047l1.449,-0.044l1.438,-0.044l1.43,-0.043l1.419,-0.04l1.41,-0.039l1.399,-0.039l1.389,-0.037l1.378,-0.036l1.37,-0.035l1.359,-0.032l1.348,-0.032l1.337,-0.03l1.327,-0.03l1.319,-0.027l1.305,-0.027l1.295,-0.024l1.285,-0.023l1.274,-0.023l1.263,-0.02l1.251,-0.019l1.242,-0.018l1.23,-0.016l1.217,-0.014l1.209,-0.013l1.195,-0.012l1.184,-0.011l1.174,-0.009l1.161,-0.007l1.15,-0.005l1.138,-0.003l1.127,-0.002l1.114,-0.002l1.103,0l1.091,0.004Z" style="fill:#9e9595;"/><path d="M313.915,37.757l0.338,0.129l0.297,0.205l0.24,0.271l0.168,0.32l0.087,0.351l0,0.362l-0.087,0.351l-0.168,0.32l-0.24,0.271l-0.297,0.205l-0.338,0.128l-0.359,0.044l-241.818,0l-0.359,-0.044l-0.338,-0.128l-0.297,-0.205l-0.24,-0.271l-0.168,-0.32l-0.087,-0.351l0,-0.362l0.087,-0.351l0.168,-0.32l0.24,-0.271l0.297,-0.205l0.338,-0.129l0.359,-0.043l241.818,0l0.359,0.043Z" style="fill:#9e9595;"/><path d="M333.872,82.771l0.286,0.128l0.254,0.184l0.21,0.233l0.157,0.272l0.097,0.298l0.032,0.312l0,185.083l-0.032,0.311l-0.097,0.299l-0.157,0.271l-0.21,0.233l-0.254,0.185l-0.286,0.127l-0.307,0.065l-0.313,0l-0.307,-0.065l-0.287,-0.127l-0.253,-0.185l-0.21,-0.233l-0.157,-0.271l-0.097,-0.299l-0.033,-0.311l0,-185.083l0.033,-0.312l0.097,-0.298l0.157,-0.272l0.21,-0.233l0.253,-0.184l0.287,-0.128l0.307,-0.065l0.313,0l0.307,0.065Z" style="fill:#9e9595;"/><path d="M333.873,348.703l0.287,0.128l0.254,0.184l0.209,0.233l0.157,0.272l0.097,0.298l0.033,0.312l0,177.863l-0.033,0.312l-0.097,0.298l-0.157,0.272l-0.209,0.233l-0.254,0.184l-0.287,0.128l-0.306,0.065l-0.314,0l-0.307,-0.065l-0.286,-0.128l-0.254,-0.184l-0.21,-0.233l-0.156,-0.272l-0.097,-0.298l-0.033,-0.312l0,-177.863l0.033,-0.312l0.097,-0.298l0.156,-0.272l0.21,-0.233l0.254,-0.184l0.286,-0.128l0.307,-0.065l0.314,0l0.306,0.065Z" style="fill:#9e9595;"/><text x="144.405px" y="26.143px" style="font-family:'BradleyHandITC', 'Bradley Hand ITC', cursive;font-size:34px;fill:#9e9595;">6cm</text><text x="295.3px" y="316.439px" style="font-family:'BradleyHandITC', 'Bradley Hand ITC', cursive;font-size:34px;fill:#9e9595;">13,5cm</text></g></svg>