<?xml version="1.0" encoding="UTF-8" standalone="no"?><!DOCTYPE svg PUBLIC "-//W3C//DTD SVG 1.1//EN" "http://www.w3.org/Graphics/SVG/1.1/DTD/svg11.dtd"><svg width="100%" height="100%" viewBox="0 0 909 291" version="1.1" xmlns="http://www.w3.org/2000/svg" xmlns:xlink="http://www.w3.org/1999/xlink" xml:space="preserve" style="fill-rule:evenodd;clip-rule:evenodd;stroke-linejoin:round;stroke-miterlimit:1.41421;"><path d="M28.063,3.088c-2.6,1.5 -4.6,3.9 -6.4,7.5c-2.3,4.8 -2.5,6.2 -2.1,13.3l0.5,8l-3.6,1c-6.1,1.6 -11.1,5.8 -13.7,11.3c-4.4,9.5 -2.4,19 4.7,22.9c7.4,4.1 24.1,-0.1 41.3,-10.4c4.3,-2.7 8.2,-4.8 8.5,-4.8c0.3,0 2.1,0.9 4,2.1l3.3,2l-5.1,2.5c-9.3,4.7 -14.1,13.2 -14.1,24.9c0,8.6 2.3,11.5 9,11.5c5.1,0 8.7,-2.1 18.4,-10.7c4.9,-4.4 9.7,-6.4 13.5,-5.7c3.2,0.7 6.7,5.2 21.1,26.9c19.6,29.5 33.4,45.3 48.1,54.8c13.7,8.9 21,11.6 51.9,18.6c24,5.5 29.9,7.4 38.8,12.9c9.4,5.6 18,13.9 32.5,31.1c7.2,8.6 16,18.4 19.5,21.9c16.2,16.1 35.1,25.7 59.7,30.2c4.9,0.9 6.3,1.5 5,2c-4.9,1.8 -21.3,3.4 -34.5,3.4c-26.6,0 -37.7,-5 -65,-29.3c-24.5,-21.9 -33.4,-25.6 -66.5,-28.1c-17,-1.2 -25.8,-2.8 -34.2,-6.2c-12.8,-5.2 -19.8,-11.4 -53.5,-46.8c-11.9,-12.6 -13.5,-14.6 -12.3,-16c0.7,-0.8 3,-5 5.1,-9.3c6.5,-13.7 5.8,-26.4 -1.6,-30.2c-6.8,-3.5 -15.2,-0.7 -19.4,6.5c-2.8,4.6 -2.9,16.9 -0.2,21.8c1,1.9 1.6,3.6 1.3,3.8c-0.2,0.2 -2.8,-0.6 -5.8,-1.9c-3,-1.3 -6.5,-2.9 -7.9,-3.4c-1.9,-0.8 -3,-2.5 -4.4,-6.9c-4,-13.1 -9.5,-19.4 -16.7,-19.4c-4.6,0 -7.9,1.9 -10.7,6c-2,3 -2.3,4.4 -1.9,10c0.2,3.6 0.7,7.2 1.1,8.1c0.5,1.2 -0.1,1.9 -2.2,2.8c-6.2,2.6 -10.2,8.9 -10.2,16.1c0,7.9 4.1,12 11.8,12c5.1,0 15.4,-5.2 25,-12.5c6.8,-5.2 7.4,-5.5 9.8,-4.2l2.6,1.3l-3.6,2.8c-5.4,4.1 -7.6,9.2 -7.6,17.6c0,5.7 0.4,7.4 2,9c4.2,4.2 10,2 17.7,-6.8c5.5,-6.3 9.4,-8.4 12.9,-7.2c1.1,0.5 6.1,5.2 10.9,10.7c15.7,17.3 32.8,33.8 40.2,38.7c13.9,9.1 23.4,11.6 52.9,14.1c29.8,2.5 35.3,5 60.6,27.5c13,11.7 24.9,20 33.8,23.6c11.9,4.8 18.2,5.8 37.5,5.8c20.5,0 33.9,-1.9 56.1,-8c10.4,-2.9 15.7,-3.7 27.4,-4.4c8,-0.5 20.5,-1.7 27.7,-2.6c12.4,-1.5 14.2,-1.5 27.5,0.1c7.9,0.9 20.4,2 27.8,2.5c10.8,0.6 16.6,1.5 29,4.8c28.3,7.3 49.3,9.6 68.8,7.3c21.2,-2.5 35.1,-9.5 55.9,-28.4c24.2,-21.9 31.6,-25.6 55.3,-27.7c33.8,-3 39.7,-4.2 52.1,-10.6c10.4,-5.5 21.8,-15.3 37.2,-32.2c16.7,-18.2 21.3,-22.6 23.4,-21.8c0.8,0.3 1.9,0.6 2.5,0.6c0.6,0 4.5,3.6 8.7,8c6.9,7.1 8.1,8 11.3,8c5.3,0 7.8,-3.5 7.8,-10.9c0,-7.6 -3.5,-15 -8.6,-18.1l-3.8,-2.4l3.3,-1.3c3.1,-1.3 3.4,-1.2 7.9,2.6c10.3,8.6 21.3,14.1 28.1,14.1c13.5,0 14.8,-20.8 1.7,-27.2l-4.4,-2.1l1.5,-3.6c1.9,-4.4 1.2,-12.8 -1.3,-16.6c-3.6,-5.5 -11.3,-7.1 -17.1,-3.6c-3.8,2.4 -7.5,8.4 -10.3,17.2l-2.2,6.6l-6.6,2.7c-10.8,4.4 -10.4,4.4 -8.4,0.5c1,-2.2 1.8,-6.4 2,-11.4c0.2,-6.9 -0.1,-8.6 -2,-11.9c-3.1,-5.3 -8,-7.8 -14.1,-7.3c-9.1,0.8 -12.8,7.3 -10.7,18.8c1,6 5.8,17.4 9.2,22.1c1.1,1.5 -0.2,3.1 -9.4,12.5c-5.8,5.9 -14.8,15.6 -20.1,21.4c-5.2,5.8 -12.6,13 -16.4,16.1c-16.7,13.6 -25.9,16.8 -54.4,18.8c-32.8,2.4 -41.7,6.2 -67.2,28.9c-26.7,23.6 -37.4,28.4 -64.2,28.5c-12.7,0.1 -29,-1.6 -33.9,-3.4c-1.3,-0.4 0.9,-1.2 6.8,-2.4c31.2,-6.2 47.7,-17.1 75.1,-49.6c28.1,-33.4 35.4,-37.9 75,-46.5c36.7,-8 50.3,-14.9 69.3,-35c8.4,-8.9 13.2,-15.3 33.6,-45.2c6.4,-9.4 12.4,-17.7 13.2,-18.4c0.8,-0.6 3.2,-1.2 5.4,-1.2c4,0 7.7,2.2 14.5,8.4c8.7,7.9 16.5,10.1 21.6,6c2.2,-1.7 2.4,-2.7 2.4,-9.8c-0.1,-5.7 -0.6,-9 -2.1,-12.4c-2.6,-5.5 -8.4,-11.4 -13,-13.1c-1.9,-0.7 -3.4,-1.5 -3.4,-1.8c0,-0.3 1.5,-1.4 3.4,-2.4l3.3,-1.8l8.9,5.1c11,6.3 23.1,11.1 30,11.8c13.5,1.4 20.9,-7.7 17,-21.1c-1.9,-6.6 -8.2,-12.7 -15,-14.6l-4.4,-1.2l1,-3.6c1.4,-5.2 0.4,-13.5 -2.4,-18.4c-3.3,-6 -7.9,-8.8 -14.2,-8.8c-11.4,0 -17.2,8.1 -20.7,29l-1.2,7.5l-4.6,2.2c-2.5,1.2 -7,3.8 -10,5.8c-5,3.3 -5.3,3.4 -4.7,1.3c3.4,-12 2.7,-22.9 -2.1,-30.6c-8.2,-13.3 -28.6,-11.9 -32.4,2.2c-2.5,9.4 5.1,28.6 15.8,39.8l3.6,3.7l-1.9,2.4c-1.1,1.4 -4,5.1 -6.5,8.3c-2.6,3.3 -10.4,14.4 -17.4,24.9c-18.9,28.2 -27.6,38.7 -38.8,47.3c-13.4,10.4 -24.4,14.8 -51.9,20.7c-29.1,6.4 -39,10.2 -52.9,20.7c-7.7,5.8 -13.5,12 -36,38.2c-24.1,28.2 -46.9,38.7 -86.9,40.1l-13.5,0.5l10.1,-3.4c12.6,-4.3 24.1,-10 32.1,-16.1c10.1,-7.5 14.8,-13.8 32.7,-43.4c2.8,-4.7 8.4,-11.9 12.4,-16.2c8.3,-8.8 13.6,-11.9 33.7,-19.9c19.5,-7.7 28,-12.5 36.1,-20.3c11.8,-11.2 18.7,-22.5 33.9,-55.9c3.1,-7 6.5,-13.4 7.5,-14.3c2.7,-2.5 7.2,-2.1 12.6,1c13.5,7.7 16.8,8.4 20.4,3.8c2.7,-3.5 2.1,-8.6 -1.9,-15.7c-2.6,-4.7 -7.4,-8.3 -13.5,-10.1c-1.7,-0.5 -1.6,-0.7 0.8,-2.6l2.7,-2.1l6.2,2.5c7.6,3 19.2,5.7 24.7,5.7c11,0 16.1,-8.9 11,-19.1c-2.4,-4.6 -6.8,-7.6 -12.5,-8.4l-4,-0.7l-0.1,-5.3c-0.3,-9.6 -6.1,-16.5 -13.9,-16.5c-5.3,0 -9,2.4 -11.4,7.3c-1.9,4 -2.3,6.6 -3,21.2c-0.1,1.3 -2.8,4.2 -6.8,7.6l-6.8,5.5l0,-7.6c0,-13.9 -7.1,-22.6 -17.8,-21.7c-9.6,0.8 -14,7.6 -11.2,17.2c1.8,6.2 8.5,15.7 14.8,21l4.6,3.8l-4,7.3c-2.2,4 -7.6,15.1 -12,24.6c-10.7,23.3 -15.8,31.7 -25.4,41.4c-9.2,9.3 -15.3,13 -33.8,20.3c-30.8,12.3 -38.5,18.4 -52.7,41.6c-19.1,31.2 -26,39.2 -40.8,46.8c-23.6,12.2 -51.5,16.2 -100.7,14.4c-22.9,-0.8 -47.9,-6.9 -63.5,-15.4c-9.4,-5.2 -21,-17.4 -29,-30.7c-23.2,-38.4 -28.2,-43.1 -59.4,-55.6c-17.1,-6.9 -21.3,-9 -29.2,-14.6c-11.2,-7.9 -20,-20.6 -31.2,-44.9c-4,-8.8 -9.6,-20.4 -12.5,-25.8l-5.1,-9.8l2.5,-1.6c8.5,-5.7 17.9,-20.2 17.9,-27.5c0,-8.3 -6.1,-13.5 -14.8,-12.5c-5.9,0.6 -9.1,3.2 -12.4,9.7c-2.3,4.4 -2.8,6.7 -2.8,12.8l0,7.5l-4.3,-4c-2.4,-2.2 -5.5,-4.8 -6.8,-5.7c-2.3,-1.4 -2.5,-2.3 -2.8,-9.8c-0.3,-10.9 -1.6,-15.5 -5.6,-19.5c-2.7,-2.7 -4.1,-3.3 -7.6,-3.3c-8.7,0 -14.8,7.1 -14.9,17.1c0,4.6 -0.1,4.7 -3.7,5.3c-10.3,1.6 -16.9,11.4 -14,20.5c2.7,8.2 14.1,9.1 33.2,2.6c10.2,-3.5 10.8,-3.5 12.6,-1.9c2.6,2.4 2.4,3.1 -1.3,3.8c-10.2,2 -18.9,19.5 -12.8,25.6c3.1,3.1 7.7,2.5 15.1,-1.9c14.2,-8.2 16.4,-7.6 22.8,6c18.3,39.3 23.6,48.4 34.1,59c8.5,8.5 16.9,13.3 38.1,21.9c19.8,8 24.5,10.6 31.3,16.9c6,5.7 11.1,12.8 21.1,29.6c17.9,29.9 29.2,39.3 59,49.1l10,3.3l-7.1,0c-17.4,0.2 -39.7,-3.6 -52.9,-8.8c-16.3,-6.6 -27.9,-16.2 -48.5,-40.6c-29.7,-35 -39,-40.7 -81.2,-49.9c-33.5,-7.4 -45.5,-13.2 -61.9,-30.2c-9.1,-9.6 -16.3,-19 -29.9,-39.4c-10.8,-16.2 -20.6,-29.6 -23.3,-31.9c-1.4,-1.1 -1.1,-1.9 3.2,-7.1c13.2,-15.8 18.7,-34.4 12.9,-43c-6.5,-9.5 -21.9,-9.3 -29.3,0.4c-5.9,7.7 -7.3,22.6 -3,32.8c0.4,1.1 -2.1,0 -7.5,-3.2c-4.5,-2.7 -9,-5.2 -10,-5.5c-1.8,-0.6 -2.2,-1.9 -4,-12.5c-1.9,-11.4 -6,-19.6 -11.4,-22.9c-4.5,-2.8 -11.9,-2.8 -16.9,0.1Z" style="fill:#b9b9b9;fill-rule:nonzero;"/></svg>