<?xml version="1.0" encoding="UTF-8" standalone="no"?><!DOCTYPE svg PUBLIC "-//W3C//DTD SVG 1.1//EN" "http://www.w3.org/Graphics/SVG/1.1/DTD/svg11.dtd"><svg width="100%" height="100%" viewBox="0 0 951 659" version="1.1" xmlns="http://www.w3.org/2000/svg" xmlns:xlink="http://www.w3.org/1999/xlink" xml:space="preserve" style="fill-rule:evenodd;clip-rule:evenodd;stroke-linecap:round;stroke-linejoin:round;stroke-miterlimit:1.5;"><g id="fifth.-pattern"><path d="M617.309,96.927c275.457,8.967 265.971,186.965 282.985,248.035c120.051,430.909 -414.733,293.882 -686.054,281.652c-280.66,-12.651 -138.644,-490.684 -39.619,-531.018c215.949,-87.958 156.296,-7.992 442.688,1.331Z" style="fill:none;stroke:#c6a687;stroke-width:4px;"/><path d="M610.685,109.751c261.811,8.522 252.794,177.703 268.966,235.747c114.104,409.562 -394.187,279.324 -652.068,267.7c-266.757,-12.024 -131.776,-466.376 -37.656,-504.712c205.251,-83.601 148.553,-7.596 420.758,1.265Z" style="fill:none;stroke:#c6a687;stroke-width:5.5px;"/><path d="M608.394,114.184c257.094,8.369 248.24,174.501 264.12,231.5c112.048,402.182 -387.084,274.29 -640.318,262.876c-261.95,-11.808 -129.401,-457.972 -36.978,-495.617c201.553,-82.095 145.877,-7.46 413.176,1.241Z" style="fill:none;stroke:#c6a687;stroke-width:1px;stroke-dasharray:12,12,0,0;"/><path id="_5" d="M96.694,613.297l9.428,9.428c1.025,1.039 1.025,2.733 0,3.772l-3.772,3.772l3.772,3.772c0.5,0.5 0.781,1.179 0.781,1.886c0,1.463 -1.204,2.667 -2.667,2.667c-0.707,0 -1.386,-0.281 -1.886,-0.781l-3.77,-3.774l-3.772,3.772c-1.039,1.025 -2.733,1.025 -3.772,0l-9.426,-9.428c-4.034,-4.044 -4.07,-10.502 -0.27,-14.68c0.065,-0.149 0.156,-0.284 0.27,-0.4c4.141,-4.127 10.94,-4.13 15.084,-0.006l0,0Zm-13.2,13.2l9.428,9.428l11.314,-11.314l-9.428,-9.428c-1.5,-1.5 -3.536,-2.343 -5.657,-2.343c-4.389,0 -8,3.611 -8,8c0,2.121 0.843,4.157 2.343,5.657l0,0Zm1.912,-9.454c0.245,-0.22 0.563,-0.343 0.893,-0.343c0.731,0 1.334,0.603 1.334,1.334c0,0.343 -0.132,0.673 -0.369,0.921c-0.505,0.497 -0.79,1.177 -0.79,1.886c0,0.709 0.285,1.389 0.79,1.886l0.026,0.026c0.22,0.245 0.343,0.563 0.343,0.893c0,0.731 -0.603,1.334 -1.334,1.334c-0.343,0 -0.673,-0.132 -0.921,-0.369c-2.058,-2.074 -2.058,-5.468 0,-7.542l0.028,-0.026l0,0Z" style="fill:none;stroke:#c6a687;stroke-width:1px;stroke-linecap:butt;stroke-miterlimit:1.41421;"/><path id="_51" d="M949.906,310.686c0.202,0.302 0.309,0.658 0.309,1.02c0,0.615 -0.307,1.19 -0.819,1.531l-5.971,3.98c1.871,2.17 1.761,5.454 -0.251,7.493c-0.343,0.351 -0.814,0.549 -1.305,0.552c-1.674,0.943 -3.668,1.153 -5.312,0.303l-19.421,15.332c-1.454,1.153 -3.562,1.033 -4.877,-0.276l-10.976,-10.977c-1.311,-1.314 -1.429,-3.425 -0.276,-4.878l15.32,-19.436c-0.846,-1.655 -0.639,-3.638 0.304,-5.312c0.003,-0.491 0.201,-0.961 0.551,-1.305c2.146,-2.123 5.654,-2.123 7.8,0c2.86,-2.838 7.541,-2.838 10.401,0l6.5,6.501c2.168,2.168 7.323,4.854 7.323,4.854c0.285,0.144 0.528,0.357 0.706,0.623l-0.006,-0.005l0,0Zm-10.632,-2.874l-6.501,-6.506c-0.685,-0.696 -1.623,-1.09 -2.6,-1.09c-0.978,0 -1.916,0.394 -2.601,1.09l2.637,2.637c0.303,0.337 0.473,0.776 0.473,1.231c0,1.008 -0.832,1.84 -1.84,1.84c-0.473,0 -0.928,-0.182 -1.27,-0.509l-3.696,-3.696c-0.164,-0.117 -0.307,-0.261 -0.425,-0.425l-1.081,-1.081c-0.347,-0.364 -0.829,-0.571 -1.332,-0.571c-1.009,0 -1.839,0.83 -1.839,1.84c0,0.503 0.206,0.984 0.57,1.332l10.401,10.4c0.713,0.713 0.713,1.888 0,2.601l-1.299,1.299c-0.364,0.348 -0.571,0.829 -0.571,1.332c0,1.01 0.83,1.84 1.84,1.84c0.503,0 0.984,-0.207 1.332,-0.571l1.299,-1.299c0.713,-0.713 1.888,-0.713 2.601,0l2.6,2.601c0.348,0.364 0.829,0.571 1.332,0.571c1.01,0 1.84,-0.83 1.84,-1.84c0,-0.503 -0.207,-0.984 -0.571,-1.332l-1.012,-1.012c-0.239,-0.149 -0.439,-0.349 -0.588,-0.588l-6.2,-6.2l-0.035,-0.036c-0.304,-0.337 -0.473,-0.776 -0.473,-1.231c0,-1.008 0.831,-1.84 1.839,-1.84c0.473,0 0.928,0.182 1.27,0.509l5.434,5.434l4.015,-2.676c-1.762,-1.02 -3.894,-2.399 -5.549,-4.054Zm-22.103,3.9l0,2.601l2.601,0l0,-2.601l-2.601,0Zm0,5.201l0,2.601l2.601,0l0,-2.601l-2.601,0Zm-5.201,0l0,2.601l2.601,0l0,-2.601l-2.601,0Zm5.201,5.202l0,2.601l2.601,0l0,-2.601l-2.601,0Zm-5.201,0l0,2.601l2.601,0l0,-2.601l-2.601,0Zm-5.202,0l0,2.601l2.601,0l0,-2.601l-2.601,0Zm5.202,5.202l0,2.6l2.601,0l0,-2.6l-2.601,0Zm-5.202,0l0,2.6l2.601,0l0,-2.6l-2.601,0Z" style="fill:none;stroke:#c6a687;stroke-width:1px;stroke-linecap:butt;stroke-miterlimit:1.41421;"/><path id="_52" d="M249.114,1.112c0.462,0.095 0.887,0.325 1.219,0.66c0.562,0.568 0.805,1.38 0.644,2.163l-1.872,9.139c3.714,0.292 6.617,3.425 6.625,7.149c0.003,0.638 -0.249,1.251 -0.7,1.703c-0.683,2.403 -2.332,4.421 -4.627,5.141l-3.905,31.93c-0.287,2.394 -2.344,4.213 -4.755,4.207l-20.181,-0.092c-2.412,-0.015 -4.453,-1.856 -4.719,-4.253l-3.637,-31.966c-2.296,-0.753 -3.92,-2.774 -4.581,-5.183c-0.447,-0.455 -0.693,-1.071 -0.684,-1.709c0.038,-3.924 3.277,-7.135 7.202,-7.137c0.044,-5.238 4.366,-9.521 9.604,-9.517l11.951,0.054c3.985,0.018 11.203,-2.218 11.203,-2.218c0.395,-0.129 0.815,-0.153 1.223,-0.07l-0.01,-0.001l0,0Zm-12.448,7.076l-11.956,-0.06c-1.27,-0.016 -2.496,0.48 -3.399,1.374c-0.902,0.895 -1.409,2.116 -1.404,3.386l4.847,0.022c0.589,0.034 1.147,0.284 1.564,0.704c0.922,0.931 0.915,2.46 -0.016,3.382c-0.436,0.433 -1.023,0.682 -1.638,0.693l-6.795,-0.031c-0.258,0.042 -0.522,0.041 -0.78,-0.004l-1.988,-0.009c-0.654,-0.018 -1.288,0.232 -1.753,0.692c-0.932,0.924 -0.939,2.45 -0.015,3.382c0.461,0.465 1.092,0.72 1.746,0.708l19.121,0.087c1.311,0.006 2.386,1.09 2.38,2.401l-0.011,2.388c-0.018,0.654 0.231,1.288 0.692,1.753c0.924,0.932 2.45,0.939 3.382,0.015c0.465,-0.46 0.72,-1.092 0.708,-1.746l0.01,-2.388c0.006,-1.311 1.091,-2.386 2.402,-2.38l4.781,0.022c0.654,0.018 1.288,-0.231 1.753,-0.692c0.932,-0.924 0.939,-2.45 0.015,-3.382c-0.46,-0.465 -1.092,-0.72 -1.746,-0.708l-1.861,-0.008c-0.356,0.081 -0.724,0.079 -1.08,-0.005l-11.398,-0.052l-0.066,0c-0.589,-0.034 -1.147,-0.284 -1.564,-0.704c-0.922,-0.931 -0.915,-2.46 0.016,-3.382c0.436,-0.433 1.023,-0.682 1.638,-0.693l9.989,0.046l1.26,-6.145c-2.561,0.67 -5.792,1.348 -8.834,1.334Zm-16.841,23.826l2.38,2.402l2.401,-2.38l-2.38,-2.402l-2.401,2.38Zm4.76,4.803l2.38,2.402l2.401,-2.38l-2.38,-2.402l-2.401,2.38Zm-4.804,4.76l2.38,2.402l2.402,-2.38l-2.38,-2.402l-2.402,2.38Zm9.563,0.043l2.38,2.402l2.402,-2.38l-2.38,-2.402l-2.402,2.38Zm-4.803,4.76l2.38,2.402l2.402,-2.38l-2.38,-2.402l-2.402,2.38Zm-4.803,4.76l2.38,2.401l2.401,-2.379l-2.379,-2.402l-2.402,2.38Zm9.563,0.043l2.38,2.402l2.401,-2.38l-2.379,-2.402l-2.402,2.38Zm-4.803,4.76l2.38,2.402l2.401,-2.38l-2.38,-2.402l-2.401,2.38Z" style="fill:none;stroke:#c6a687;stroke-width:1px;stroke-linecap:butt;stroke-miterlimit:1.41421;"/><path id="_53" d="M100.109,112.906c0.243,0.246 0.407,0.56 0.472,0.9c0.111,0.575 -0.074,1.169 -0.492,1.58l-4.876,4.799c2.142,1.696 2.629,4.79 1.111,7.061c-0.258,0.389 -0.663,0.66 -1.122,0.751c-1.398,1.183 -3.227,1.738 -4.919,1.238l-15.431,17.843c-1.153,1.341 -3.149,1.607 -4.615,0.618l-12.249,-8.306c-1.463,-0.995 -1.953,-2.951 -1.134,-4.519l10.853,-20.949c-1.09,-1.397 -1.252,-3.291 -0.67,-5.028c-0.085,-0.46 0.016,-0.936 0.282,-1.32c1.628,-2.374 4.913,-3.004 7.303,-1.401c2.168,-3.171 6.55,-4.012 9.738,-1.868l7.254,4.918c2.419,1.641 7.728,3.23 7.728,3.23c0.293,0.083 0.559,0.24 0.773,0.457l-0.006,-0.004l0,0Zm-10.471,-0.781l-7.255,-4.924c-0.767,-0.529 -1.716,-0.729 -2.631,-0.553c-0.916,0.175 -1.723,0.712 -2.24,1.487l2.943,1.995c0.344,0.262 0.582,0.642 0.664,1.068c0.181,0.944 -0.448,1.872 -1.392,2.053c-0.443,0.085 -0.902,-0.004 -1.281,-0.249l-4.124,-2.796c-0.175,-0.08 -0.335,-0.189 -0.474,-0.321l-1.206,-0.818c-0.391,-0.279 -0.879,-0.386 -1.35,-0.296c-0.945,0.182 -1.573,1.108 -1.392,2.053c0.09,0.471 0.371,0.885 0.774,1.145l11.606,7.87c0.795,0.539 1.006,1.639 0.467,2.435l-0.983,1.449c-0.278,0.391 -0.386,0.879 -0.295,1.35c0.181,0.945 1.107,1.573 2.053,1.392c0.471,-0.09 0.884,-0.371 1.144,-0.774l0.983,-1.449c0.54,-0.796 1.64,-1.007 2.435,-0.468l2.903,1.968c0.39,0.279 0.878,0.386 1.349,0.296c0.945,-0.182 1.574,-1.108 1.392,-2.053c-0.09,-0.471 -0.37,-0.885 -0.773,-1.145l-1.13,-0.766c-0.25,-0.096 -0.473,-0.248 -0.656,-0.444l-6.918,-4.692l-0.04,-0.027c-0.345,-0.262 -0.583,-0.642 -0.664,-1.068c-0.181,-0.944 0.448,-1.872 1.392,-2.053c0.443,-0.085 0.901,0.004 1.28,0.249l6.063,4.111l3.28,-3.226c-1.834,-0.639 -4.078,-1.547 -5.924,-2.799Zm-19.994,7.621l0.467,2.435l2.435,-0.467l-0.467,-2.435l-2.435,0.467Zm0.934,4.87l0.467,2.435l2.435,-0.467l-0.467,-2.435l-2.435,0.467Zm-4.87,0.934l0.467,2.436l2.435,-0.468l-0.467,-2.435l-2.435,0.467Zm5.804,3.936l0.467,2.436l2.436,-0.468l-0.468,-2.435l-2.435,0.467Zm-4.87,0.935l0.467,2.435l2.435,-0.467l-0.467,-2.435l-2.435,0.467Zm-4.87,0.934l0.467,2.435l2.435,-0.467l-0.467,-2.435l-2.435,0.467Zm5.804,3.936l0.468,2.435l2.435,-0.467l-0.468,-2.435l-2.435,0.467Zm-4.87,0.934l0.467,2.435l2.435,-0.467l-0.467,-2.435l-2.435,0.467Z" style="fill:none;stroke:#c6a687;stroke-width:1px;stroke-linecap:butt;stroke-miterlimit:1.41421;"/><path id="_54" d="M464.851,18.406c0.252,-0.399 0.617,-0.715 1.048,-0.908c0.73,-0.326 1.575,-0.265 2.251,0.161l7.889,4.979c1.585,-3.372 5.541,-4.982 9.028,-3.675c0.598,0.222 1.083,0.675 1.346,1.257c2.007,1.487 3.313,3.743 3.176,6.144l28.494,14.927c2.139,1.115 3.114,3.681 2.258,5.935l-7.212,18.848c-0.865,2.252 -3.308,3.512 -5.645,2.914l-31.192,-7.884c-1.515,1.882 -3.979,2.688 -6.466,2.455c-0.584,0.257 -1.247,0.271 -1.841,0.037c-3.658,-1.421 -5.517,-5.585 -4.134,-9.258c-4.885,-1.891 -7.366,-7.446 -5.513,-12.346l4.271,-11.162c1.424,-3.722 1.88,-11.265 1.88,-11.265c0.019,-0.415 0.144,-0.816 0.366,-1.168l-0.004,0.009l0,0Zm2.225,14.144l-4.278,11.165c-0.463,1.183 -0.432,2.504 0.086,3.665c0.518,1.16 1.482,2.065 2.672,2.509l1.732,-4.527c0.24,-0.539 0.671,-0.973 1.211,-1.214c1.196,-0.534 2.624,0.012 3.159,1.208c0.25,0.562 0.275,1.199 0.069,1.778l-2.428,6.346c-0.052,0.257 -0.146,0.503 -0.279,0.729l-0.71,1.856c-0.248,0.606 -0.239,1.287 0.028,1.884c0.535,1.198 1.961,1.744 3.159,1.209c0.597,-0.267 1.059,-0.768 1.278,-1.384l6.833,-17.859c0.468,-1.224 1.863,-1.847 3.087,-1.378l2.231,0.853c0.605,0.248 1.286,0.239 1.884,-0.028c1.198,-0.535 1.743,-1.961 1.208,-3.159c-0.267,-0.598 -0.767,-1.059 -1.384,-1.279l-2.23,-0.853c-1.224,-0.468 -1.847,-1.863 -1.379,-3.087l1.709,-4.466c0.248,-0.606 0.238,-1.287 -0.029,-1.884c-0.535,-1.198 -1.96,-1.744 -3.158,-1.209c-0.598,0.267 -1.06,0.768 -1.279,1.384l-0.665,1.738c-0.05,0.362 -0.182,0.706 -0.386,1.009l-4.073,10.646l-0.024,0.062c-0.24,0.539 -0.67,0.973 -1.211,1.214c-1.196,0.534 -2.624,-0.012 -3.158,-1.209c-0.251,-0.561 -0.276,-1.198 -0.07,-1.777l3.57,-9.329l-5.304,-3.349c-0.278,2.633 -0.784,5.894 -1.871,8.736Zm16.345,24.169l3.087,-1.379l-1.379,-3.087l-3.087,1.379l1.379,3.087Zm6.174,-2.757l3.087,-1.379l-1.378,-3.087l-3.087,1.379l1.378,3.087Zm2.757,6.174l3.088,-1.378l-1.379,-3.088l-3.087,1.379l1.378,3.087Zm3.418,-8.931l3.087,-1.379l-1.379,-3.087l-3.087,1.378l1.379,3.088Zm2.757,6.174l3.087,-1.379l-1.379,-3.087l-3.087,1.379l1.379,3.087Zm2.757,6.174l3.087,-1.378l-1.378,-3.087l-3.088,1.378l1.379,3.087Zm3.417,-8.931l3.087,-1.379l-1.378,-3.087l-3.087,1.379l1.378,3.087Zm2.757,6.174l3.088,-1.378l-1.379,-3.088l-3.087,1.379l1.378,3.087Z" style="fill:none;stroke:#c6a687;stroke-width:1px;stroke-linecap:butt;stroke-miterlimit:1.41421;"/><path id="_55" d="M90.198,191.31l0.303,0.302c0.353,0.337 0.552,0.803 0.552,1.29c0,0.979 -0.805,1.784 -1.784,1.784c-0.505,0 -0.987,-0.214 -1.325,-0.59l-1.26,-1.259c-0.691,-0.692 -0.691,-1.831 0,-2.522c1.672,-1.672 2.612,-3.941 2.612,-6.303c0,-4.89 -4.025,-8.915 -8.915,-8.915c-2.362,0 -4.631,0.94 -6.303,2.612c-0.691,0.691 -1.83,0.691 -2.521,0l-1.26,-1.26l-0.059,-0.04c-0.353,-0.337 -0.552,-0.804 -0.552,-1.29c0,-0.979 0.805,-1.784 1.784,-1.784c0.505,0 0.986,0.214 1.325,0.59l0.267,0.267c4.878,-3.602 11.721,-3.407 16.134,1.006c4.412,4.412 4.605,11.231 1.002,16.112l0,0Zm-13.611,-3.525c0.691,0.691 0.691,1.831 0,2.522l-1.268,1.257c-0.315,0.331 -0.492,0.773 -0.492,1.23c0,0.979 0.805,1.783 1.784,1.783c0.457,0 0.898,-0.176 1.23,-0.492l1.259,-1.259c0.692,-0.691 1.831,-0.691 2.522,0l4.394,4.391c0.334,0.334 0.521,0.789 0.521,1.261c0,0.73 -0.446,1.389 -1.123,1.659l-23.105,9.165c-2.431,0.964 -5.228,0.096 -6.685,-2.076c-1.07,-1.58 -1.153,-3.636 -0.45,-5.412l9.058,-22.856c0.269,-0.678 0.928,-1.126 1.658,-1.126c0.472,0 0.925,0.188 1.259,0.521l9.438,9.432Z" style="fill:none;stroke:#c6a687;stroke-width:1px;stroke-linecap:butt;stroke-miterlimit:1.41421;"/><path id="_56" d="M803.78,96.468l0.353,-0.33c0.395,-0.387 0.93,-0.595 1.48,-0.577c1.107,0.037 1.988,0.977 1.951,2.084c-0.019,0.572 -0.278,1.108 -0.716,1.477l-1.471,1.377c-0.808,0.756 -2.096,0.714 -2.852,-0.094c-1.828,-1.952 -4.36,-3.099 -7.032,-3.187c-5.53,-0.182 -10.231,4.22 -10.413,9.75c-0.088,2.672 0.89,5.273 2.719,7.226c0.756,0.807 0.713,2.096 -0.094,2.852l-1.472,1.377l-0.047,0.065c-0.394,0.387 -0.93,0.595 -1.48,0.577c-1.107,-0.036 -1.987,-0.977 -1.951,-2.084c0.019,-0.571 0.279,-1.108 0.716,-1.476l0.313,-0.293c-3.893,-5.65 -3.418,-13.383 1.737,-18.209c5.154,-4.826 12.874,-4.79 18.259,-0.535l0,0Zm-4.492,15.264c0.807,-0.757 2.096,-0.714 2.852,0.093l1.374,1.481c0.364,0.369 0.856,0.585 1.373,0.602c1.107,0.036 2.047,-0.844 2.084,-1.951c0.017,-0.517 -0.166,-1.023 -0.511,-1.409l-1.378,-1.472c-0.756,-0.807 -0.713,-2.096 0.094,-2.852l5.13,-4.806c0.39,-0.365 0.911,-0.56 1.445,-0.543c0.826,0.028 1.555,0.557 1.835,1.332l9.505,26.472c1,2.785 -0.085,5.917 -2.595,7.484c-1.828,1.151 -4.156,1.169 -6.139,0.307l-25.512,-11.094c-0.757,-0.329 -1.239,-1.091 -1.212,-1.917c0.018,-0.534 0.248,-1.039 0.637,-1.405l11.018,-10.322Z" style="fill:none;stroke:#c6a687;stroke-width:1px;stroke-linecap:butt;stroke-miterlimit:1.41421;"/><path id="_57" d="M31.625,252.559l0.483,-0.001c0.552,-0.014 1.085,0.199 1.476,0.587c0.784,0.782 0.787,2.07 0.006,2.855c-0.404,0.405 -0.96,0.62 -1.531,0.591l-2.016,0.004c-1.106,0.003 -2.02,-0.907 -2.022,-2.013c-0.005,-2.675 -1.074,-5.241 -2.968,-7.127c-3.921,-3.905 -10.362,-3.891 -14.266,0.029c-1.887,1.895 -2.945,4.464 -2.939,7.139c0.002,1.106 -0.908,2.02 -2.014,2.022l-2.016,0.004l-0.079,0.015c-0.552,0.014 -1.085,-0.199 -1.475,-0.587c-0.785,-0.782 -0.788,-2.07 -0.006,-2.855c0.403,-0.405 0.959,-0.62 1.531,-0.591l0.428,-0.001c1.006,-6.787 6.627,-12.118 13.688,-12.133c7.062,-0.014 12.683,5.276 13.72,12.062l0,0Zm-13.695,8.099c1.106,-0.002 2.019,0.907 2.022,2.014l-0.005,2.019c0.014,0.518 0.227,1.012 0.594,1.377c0.784,0.782 2.072,0.779 2.854,-0.006c0.365,-0.366 0.576,-0.861 0.588,-1.379l-0.004,-2.015c-0.003,-1.107 0.907,-2.02 2.013,-2.022l7.029,-0.017c0.535,-0.001 1.049,0.212 1.428,0.589c0.585,0.583 0.757,1.467 0.433,2.225l-11.101,25.843c-1.168,2.719 -4.098,4.269 -7.002,3.704c-2.122,-0.405 -3.837,-1.98 -4.699,-3.962l-11.093,-25.513c-0.329,-0.757 -0.162,-1.643 0.421,-2.228c0.377,-0.379 0.89,-0.592 1.424,-0.594l15.098,-0.035Z" style="fill:none;stroke:#c6a687;stroke-width:1px;stroke-linecap:butt;stroke-miterlimit:1.41421;"/><path id="_58" d="M631.552,67.754l0.281,0.394c0.331,0.442 0.466,1 0.375,1.543c-0.183,1.093 -1.232,1.84 -2.324,1.657c-0.564,-0.094 -1.061,-0.423 -1.369,-0.905l-1.17,-1.641c-0.642,-0.901 -0.429,-2.173 0.471,-2.815c2.178,-1.553 3.651,-3.909 4.093,-6.546c0.914,-5.457 -2.825,-10.701 -8.282,-11.615c-2.637,-0.442 -5.345,0.183 -7.523,1.736c-0.901,0.642 -2.172,0.429 -2.814,-0.472l-1.171,-1.641l-0.058,-0.056c-0.331,-0.442 -0.466,-1 -0.375,-1.543c0.183,-1.092 1.232,-1.84 2.324,-1.657c0.564,0.094 1.061,0.423 1.369,0.906l0.248,0.348c6.117,-3.108 13.718,-1.611 17.818,4.138c4.099,5.749 3.039,13.396 -1.893,18.169l0,0Zm-14.532,-6.478c0.642,0.901 0.429,2.172 -0.472,2.815l-1.649,1.165c-0.414,0.311 -0.694,0.771 -0.779,1.281c-0.183,1.093 0.565,2.141 1.657,2.324c0.51,0.086 1.036,-0.029 1.465,-0.319l1.641,-1.17c0.901,-0.642 2.172,-0.429 2.814,0.471l4.083,5.722c0.311,0.436 0.435,0.978 0.346,1.505c-0.136,0.815 -0.758,1.467 -1.563,1.642l-27.499,5.908c-2.894,0.622 -5.853,-0.869 -7.074,-3.565c-0.898,-1.964 -0.606,-4.275 0.511,-6.125l14.381,-23.815c0.426,-0.706 1.246,-1.083 2.06,-0.947c0.527,0.089 0.998,0.384 1.309,0.818l8.769,12.29Z" style="fill:none;stroke:#c6a687;stroke-width:1px;stroke-linecap:butt;stroke-miterlimit:1.41421;"/></g></svg>