<?xml version="1.0" encoding="UTF-8" standalone="no"?><!DOCTYPE svg PUBLIC "-//W3C//DTD SVG 1.1//EN" "http://www.w3.org/Graphics/SVG/1.1/DTD/svg11.dtd"><svg width="100%" height="100%" viewBox="0 0 727 615" version="1.1" xmlns="http://www.w3.org/2000/svg" xmlns:xlink="http://www.w3.org/1999/xlink" xml:space="preserve" style="fill-rule:evenodd;clip-rule:evenodd;stroke-linecap:round;stroke-linejoin:round;stroke-miterlimit:1.5;"><g id="first.-pattern"><path d="M506.839,34.749c217.783,7.287 197.098,186.389 193.863,237.801c-30.957,492.081 -312.237,238.824 -526.751,228.886c-221.896,-10.281 -109.615,-296.517 -31.323,-329.295c170.735,-71.48 137.783,-144.968 364.211,-137.392Z" style="fill:none;stroke:#c6a687;stroke-width:7px;"/><path d="M513.888,20.891c232.541,7.78 206.282,193.208 202.828,248.104c-33.055,525.426 -327.802,257.002 -556.852,246.39c-236.933,-10.977 -117.043,-316.61 -33.446,-351.608c182.304,-76.324 145.698,-150.976 387.47,-142.886Z" style="fill:none;stroke:#c6a687;stroke-width:1.5px;stroke-dasharray:22.5,27,0,0;"/><path d="M499.332,49.83c209.003,6.993 185.402,173.651 182.298,222.99c-29.709,472.242 -294.622,230.988 -500.487,221.451c-212.95,-9.867 -105.196,-284.562 -30.061,-316.018c163.852,-68.598 130.951,-135.694 348.25,-128.423Z" style="fill:none;stroke:#c6a687;stroke-width:1.5px;stroke-dasharray:18,18,0,0;"/><path id="_1" d="M325.269,591.644l0.35,0.324c0.407,0.361 0.652,0.876 0.68,1.426c0.055,1.106 -0.784,2.063 -1.86,2.12c-0.556,0.029 -1.097,-0.184 -1.49,-0.589l-1.456,-1.35c-0.8,-0.741 -0.864,-2.029 -0.143,-2.85c1.743,-1.986 2.648,-4.605 2.514,-7.275c-0.277,-5.526 -4.93,-9.84 -10.306,-9.555c-2.598,0.137 -5.039,1.332 -6.782,3.318c-0.721,0.821 -1.973,0.888 -2.773,0.147l-1.456,-1.35l-0.067,-0.042c-0.407,-0.361 -0.652,-0.876 -0.68,-1.426c-0.055,-1.106 0.784,-2.063 1.86,-2.12c0.556,-0.029 1.097,0.184 1.49,0.589l0.31,0.287c5.158,-4.355 12.693,-4.532 17.794,0.197c5.101,4.73 5.699,12.425 2.015,18.149l0,0Zm-15.164,-3.19c0.799,0.741 0.863,2.028 0.142,2.85l-1.322,1.494c-0.328,0.393 -0.497,0.902 -0.471,1.419c0.055,1.106 0.986,1.969 2.062,1.912c0.503,-0.027 0.978,-0.252 1.324,-0.628l1.314,-1.497c0.721,-0.821 1.973,-0.888 2.772,-0.147l5.08,4.707c0.386,0.358 0.618,0.861 0.644,1.394c0.042,0.825 -0.412,1.596 -1.14,1.941l-24.884,11.702c-2.618,1.231 -5.743,0.413 -7.468,-1.956c-1.265,-1.724 -1.473,-4.043 -0.8,-6.091l8.663,-26.357c0.257,-0.781 0.957,-1.326 1.759,-1.368c0.519,-0.028 1.028,0.159 1.415,0.516l10.91,10.109Z" style="fill:none;stroke:#c6a687;stroke-width:1px;stroke-linecap:butt;stroke-miterlimit:1.41421;"/><path id="_11" d="M97.997,127.038l-0.181,-0.289c-0.214,-0.326 -0.288,-0.727 -0.207,-1.111c0.163,-0.77 0.914,-1.265 1.663,-1.097c0.387,0.086 0.72,0.337 0.916,0.691l0.754,1.207c0.414,0.663 0.224,1.559 -0.42,1.985c-1.559,1.028 -2.657,2.653 -3.051,4.512c-0.816,3.848 1.594,7.706 5.338,8.544c1.809,0.405 3.703,0.055 5.261,-0.974c0.645,-0.425 1.517,-0.23 1.931,0.433l0.754,1.207l0.039,0.041c0.214,0.326 0.288,0.728 0.207,1.111c-0.163,0.77 -0.914,1.265 -1.663,1.097c-0.387,-0.086 -0.72,-0.337 -0.916,-0.691l-0.16,-0.256c-4.336,1.998 -9.543,0.671 -12.185,-3.558c-2.642,-4.229 -1.652,-9.629 1.92,-12.852l0,0Zm9.834,5.108c-0.414,-0.662 -0.224,-1.559 0.421,-1.984l1.18,-0.772c0.297,-0.207 0.505,-0.524 0.582,-0.884c0.163,-0.77 -0.319,-1.542 -1.068,-1.709c-0.351,-0.079 -0.718,-0.016 -1.024,0.176l-1.175,0.775c-0.644,0.426 -1.517,0.23 -1.931,-0.432l-2.631,-4.209c-0.2,-0.321 -0.268,-0.711 -0.189,-1.082c0.122,-0.575 0.574,-1.017 1.137,-1.113l19.219,-3.25c2.022,-0.342 4.019,0.82 4.772,2.779c0.556,1.427 0.276,3.06 -0.559,4.337l-10.748,16.434c-0.319,0.487 -0.898,0.727 -1.457,0.602c-0.361,-0.081 -0.677,-0.308 -0.877,-0.627l-5.652,-9.041Z" style="fill:#c6a687;fill-rule:nonzero;"/><path id="_12" d="M255.437,14.03c0.195,0.302 0.3,0.658 0.3,1.021c0,0.615 -0.299,1.19 -0.797,1.53l-5.809,3.98c1.821,2.171 1.713,5.454 -0.244,7.494c-0.334,0.35 -0.792,0.549 -1.269,0.551c-1.629,0.944 -3.569,1.153 -5.168,0.304l-18.896,15.332c-1.414,1.152 -3.465,1.032 -4.744,-0.276l-10.679,-10.977c-1.274,-1.314 -1.39,-3.426 -0.268,-4.879l14.905,-19.436c-0.824,-1.655 -0.622,-3.638 0.295,-5.312c0.003,-0.491 0.196,-0.961 0.537,-1.304c2.087,-2.124 5.501,-2.124 7.588,0c2.783,-2.838 7.336,-2.838 10.119,0l6.324,6.5c2.109,2.168 7.124,4.854 7.124,4.854c0.278,0.144 0.514,0.358 0.687,0.624l-0.005,-0.006l0,0Zm-10.344,-2.874l-6.325,-6.506c-0.666,-0.696 -1.579,-1.089 -2.53,-1.089c-0.951,0 -1.864,0.393 -2.53,1.089l2.565,2.637c0.295,0.338 0.46,0.776 0.46,1.231c0,1.008 -0.809,1.84 -1.79,1.84c-0.46,0 -0.903,-0.182 -1.235,-0.509l-3.596,-3.696c-0.159,-0.117 -0.299,-0.26 -0.413,-0.424l-1.052,-1.081c-0.338,-0.365 -0.806,-0.571 -1.296,-0.571c-0.982,0 -1.79,0.83 -1.79,1.839c0,0.504 0.202,0.985 0.556,1.332l10.118,10.401c0.694,0.713 0.694,1.888 0,2.601l-1.263,1.299c-0.355,0.347 -0.556,0.828 -0.556,1.332c0,1.009 0.808,1.839 1.79,1.839c0.489,0 0.958,-0.207 1.296,-0.571l1.264,-1.299c0.693,-0.713 1.836,-0.713 2.53,0l2.53,2.601c0.338,0.364 0.807,0.571 1.296,0.571c0.982,0 1.79,-0.83 1.79,-1.839c0,-0.504 -0.201,-0.985 -0.555,-1.333l-0.985,-1.012c-0.232,-0.149 -0.427,-0.349 -0.572,-0.587l-6.032,-6.2l-0.035,-0.036c-0.295,-0.338 -0.46,-0.776 -0.46,-1.232c0,-1.008 0.809,-1.839 1.79,-1.839c0.46,0 0.903,0.182 1.236,0.509l5.286,5.433l3.906,-2.675c-1.714,-1.021 -3.788,-2.4 -5.398,-4.055Zm-21.504,3.9l0,2.601l2.531,0l0,-2.601l-2.531,0Zm0,5.202l0,2.601l2.531,0l0,-2.601l-2.531,0Zm-5.06,0l0,2.601l2.53,0l0,-2.601l-2.53,0Zm5.06,5.201l0,2.601l2.531,0l0,-2.601l-2.531,0Zm-5.06,0l0,2.601l2.53,0l0,-2.601l-2.53,0Zm-5.061,0l0,2.601l2.53,0l0,-2.601l-2.53,0Zm5.061,5.202l0,2.601l2.53,0l0,-2.601l-2.53,0Zm-5.061,0l0,2.601l2.53,0l0,-2.601l-2.53,0Z" style="fill:#c6a687;fill-rule:nonzero;"/><path id="_13" d="M61.447,529.988c0.45,0.095 0.863,0.325 1.186,0.66c0.547,0.568 0.783,1.38 0.627,2.163l-1.822,9.139c3.614,0.292 6.438,3.425 6.446,7.149c0.003,0.638 -0.242,1.251 -0.681,1.703c-0.664,2.403 -2.269,4.421 -4.502,5.141l-3.799,31.929c-0.279,2.395 -2.28,4.214 -4.626,4.208l-19.633,-0.092c-2.347,-0.015 -4.333,-1.856 -4.592,-4.253l-3.539,-31.966c-2.233,-0.753 -3.813,-2.774 -4.456,-5.183c-0.435,-0.456 -0.675,-1.072 -0.666,-1.709c0.037,-3.925 3.189,-7.135 7.007,-7.137c0.043,-5.238 4.248,-9.521 9.344,-9.517l11.627,0.054c3.877,0.018 10.899,-2.218 10.899,-2.218c0.385,-0.129 0.793,-0.154 1.19,-0.071l-0.01,0l0,0Zm-12.11,7.076l-11.632,-0.06c-1.236,-0.016 -2.428,0.479 -3.307,1.374c-0.878,0.895 -1.37,2.116 -1.366,3.386l4.716,0.022c0.573,0.034 1.116,0.284 1.521,0.704c0.897,0.931 0.891,2.46 -0.015,3.382c-0.425,0.433 -0.996,0.681 -1.594,0.693l-6.61,-0.031c-0.252,0.042 -0.509,0.04 -0.76,-0.004l-1.934,-0.009c-0.636,-0.018 -1.252,0.231 -1.705,0.692c-0.906,0.924 -0.913,2.45 -0.015,3.382c0.448,0.465 1.063,0.72 1.699,0.708l18.603,0.086c1.275,0.006 2.321,1.091 2.315,2.402l-0.011,2.388c-0.017,0.654 0.225,1.288 0.673,1.753c0.899,0.932 2.384,0.939 3.291,0.015c0.452,-0.46 0.7,-1.092 0.688,-1.746l0.011,-2.388c0.006,-1.311 1.061,-2.386 2.336,-2.38l4.652,0.022c0.636,0.018 1.253,-0.232 1.705,-0.692c0.907,-0.924 0.914,-2.45 0.015,-3.382c-0.448,-0.465 -1.062,-0.72 -1.699,-0.708l-1.81,-0.008c-0.347,0.08 -0.705,0.079 -1.051,-0.005l-11.089,-0.052l-0.064,0c-0.574,-0.035 -1.117,-0.284 -1.522,-0.705c-0.897,-0.93 -0.89,-2.459 0.015,-3.382c0.425,-0.432 0.996,-0.681 1.594,-0.692l9.718,0.045l1.226,-6.144c-2.491,0.67 -5.634,1.347 -8.594,1.334Zm-16.385,23.826l2.316,2.401l2.336,-2.379l-2.315,-2.402l-2.337,2.38Zm4.631,4.803l2.315,2.402l2.337,-2.38l-2.316,-2.402l-2.336,2.38Zm-4.673,4.76l2.315,2.401l2.337,-2.379l-2.316,-2.402l-2.336,2.38Zm9.304,0.043l2.315,2.402l2.336,-2.38l-2.315,-2.402l-2.336,2.38Zm-4.673,4.76l2.315,2.402l2.336,-2.38l-2.315,-2.402l-2.336,2.38Zm-4.673,4.76l2.315,2.401l2.337,-2.38l-2.316,-2.401l-2.336,2.38Zm9.303,0.043l2.316,2.402l2.336,-2.38l-2.315,-2.402l-2.337,2.38Zm-4.673,4.76l2.316,2.402l2.336,-2.38l-2.315,-2.402l-2.337,2.38Z" style="fill:none;stroke:#c6a687;stroke-width:1px;stroke-linecap:butt;stroke-miterlimit:1.41421;"/><path id="_14" d="M13.75,188.397c0.282,-0.189 0.612,-0.289 0.949,-0.286c0.57,0.004 1.101,0.302 1.413,0.792l3.649,5.722c2.026,-1.768 5.071,-1.639 6.948,0.295c0.322,0.33 0.503,0.779 0.502,1.247c0.863,1.603 1.043,3.506 0.243,5.067l14.08,18.629c1.059,1.394 0.932,3.404 -0.291,4.647l-10.26,10.383c-1.229,1.239 -3.188,1.336 -4.528,0.227l-17.915,-14.751c-1.541,0.795 -3.379,0.583 -4.925,-0.328c-0.455,-0.006 -0.89,-0.199 -1.206,-0.536c-1.954,-2.061 -1.929,-5.406 0.056,-7.435c-2.611,-2.748 -2.577,-7.21 0.076,-9.916l6.076,-6.149c2.026,-2.05 4.555,-6.944 4.555,-6.944c0.135,-0.271 0.335,-0.501 0.583,-0.669l-0.005,0.005l0,0Zm-2.742,10.115l-6.082,6.149c-0.651,0.648 -1.022,1.539 -1.029,2.471c-0.007,0.932 0.351,1.829 0.992,2.488l2.464,-2.494c0.316,-0.287 0.724,-0.445 1.146,-0.442c0.935,0.008 1.7,0.806 1.693,1.768c-0.004,0.45 -0.176,0.883 -0.481,1.207l-3.455,3.495c-0.11,0.156 -0.244,0.292 -0.397,0.402l-1.01,1.023c-0.341,0.328 -0.536,0.786 -0.54,1.265c-0.007,0.963 0.757,1.76 1.693,1.768c0.467,0.004 0.915,-0.19 1.24,-0.534l9.722,-9.838c0.666,-0.675 1.756,-0.666 2.412,0.019l1.195,1.248c0.32,0.35 0.765,0.55 1.232,0.554c0.936,0.008 1.712,-0.778 1.719,-1.74c0.004,-0.48 -0.185,-0.94 -0.52,-1.274l-1.195,-1.248c-0.656,-0.685 -0.648,-1.805 0.019,-2.48l2.431,-2.46c0.34,-0.328 0.535,-0.786 0.539,-1.265c0.007,-0.963 -0.757,-1.76 -1.693,-1.768c-0.467,-0.004 -0.915,0.19 -1.24,0.534l-0.946,0.958c-0.14,0.226 -0.327,0.415 -0.549,0.556l-5.795,5.864l-0.034,0.034c-0.315,0.287 -0.723,0.445 -1.145,0.442c-0.935,-0.008 -1.701,-0.806 -1.693,-1.767c0.003,-0.451 0.175,-0.884 0.481,-1.207l5.078,-5.14l-2.452,-3.848c-0.959,1.673 -2.254,3.695 -3.8,5.26Zm3.457,21.1l2.412,0.02l0.019,-2.48l-2.412,-0.019l-0.019,2.479Zm4.824,0.039l2.413,0.019l0.019,-2.479l-2.413,-0.019l-0.019,2.479Zm-0.037,4.959l2.412,0.019l0.019,-2.479l-2.412,-0.02l-0.019,2.48Zm4.862,-4.92l2.412,0.019l0.019,-2.48l-2.412,-0.019l-0.019,2.48Zm-0.038,4.958l2.413,0.02l0.018,-2.48l-2.412,-0.019l-0.019,2.479Zm-0.037,4.959l2.412,0.02l0.019,-2.48l-2.412,-0.019l-0.019,2.479Zm4.862,-4.92l2.412,0.019l0.019,-2.479l-2.412,-0.019l-0.019,2.479Zm-0.038,4.959l2.412,0.019l0.019,-2.479l-2.412,-0.019l-0.019,2.479Z" style="fill:none;stroke:#c6a687;stroke-width:1px;stroke-linecap:butt;stroke-miterlimit:1.41421;"/></g></svg>