<?xml version="1.0" encoding="UTF-8" standalone="no"?><!DOCTYPE svg PUBLIC "-//W3C//DTD SVG 1.1//EN" "http://www.w3.org/Graphics/SVG/1.1/DTD/svg11.dtd"><svg width="100%" height="100%" viewBox="0 0 872 672" version="1.1" xmlns="http://www.w3.org/2000/svg" xmlns:xlink="http://www.w3.org/1999/xlink" xml:space="preserve" style="fill-rule:evenodd;clip-rule:evenodd;stroke-linecap:round;stroke-linejoin:round;stroke-miterlimit:1.5;"><g id="fourth.-pattern"><path d="M554.172,82.45c223.851,7.287 218.686,202.325 215.362,253.736c-31.82,492.081 -337.035,238.825 -557.526,228.886c-228.08,-10.28 -112.67,-296.517 -32.196,-329.294c175.492,-71.48 141.622,-160.904 374.36,-153.328Z" style="fill:none;stroke:#c6a687;stroke-width:4.75px;"/><path d="M567.827,53.214c247.389,8.053 241.681,223.598 238.007,280.416c-35.166,543.823 -372.474,263.937 -616.149,252.953c-252.062,-11.362 -124.517,-327.695 -35.582,-363.919c193.945,-78.996 156.513,-177.823 413.724,-169.45Z" style="fill:none;stroke:#c6a687;stroke-width:6px;"/><path d="M563.887,61.649c240.598,7.832 235.047,217.461 231.473,272.718c-34.2,528.895 -362.248,256.692 -599.235,246.01c-245.142,-11.05 -121.098,-318.7 -34.605,-353.93c188.622,-76.827 152.217,-172.941 402.367,-164.798Z" style="fill:none;stroke:#c6a687;stroke-width:1px;stroke-dasharray:12,12,0,0;"/><path id="_4" d="M824.967,195.076l9.428,9.428c1.025,1.039 1.025,2.733 0,3.772l-3.772,3.772l3.772,3.772c0.5,0.5 0.781,1.179 0.781,1.886c0,1.463 -1.204,2.667 -2.667,2.667c-0.707,0 -1.386,-0.281 -1.886,-0.781l-3.77,-3.774l-3.772,3.772c-1.039,1.025 -2.733,1.025 -3.772,0l-9.426,-9.428c-4.034,-4.044 -4.07,-10.502 -0.27,-14.68c0.065,-0.149 0.156,-0.284 0.27,-0.4c4.141,-4.127 10.94,-4.13 15.084,-0.006l0,0Zm-13.2,13.2l9.428,9.428l11.314,-11.314l-9.428,-9.428c-1.5,-1.5 -3.536,-2.343 -5.657,-2.343c-4.389,0 -8,3.611 -8,8c0,2.121 0.843,4.157 2.343,5.657l0,0Zm1.912,-9.454c0.245,-0.22 0.563,-0.343 0.893,-0.343c0.731,0 1.334,0.603 1.334,1.334c0,0.343 -0.132,0.673 -0.369,0.921c-0.505,0.497 -0.79,1.177 -0.79,1.886c0,0.709 0.285,1.389 0.79,1.886l0.026,0.026c0.22,0.245 0.343,0.563 0.343,0.893c0,0.731 -0.603,1.334 -1.334,1.334c-0.343,0 -0.673,-0.132 -0.921,-0.369c-2.058,-2.074 -2.058,-5.468 0,-7.542l0.028,-0.026l0,0Z" style="fill:#ead6b8;fill-rule:nonzero;stroke:#c6a687;stroke-width:1px;stroke-linecap:butt;stroke-miterlimit:1.41421;"/><path id="_41" d="M870.684,320.263c0.201,0.302 0.309,0.657 0.309,1.02c0,0.615 -0.308,1.19 -0.819,1.531l-5.971,3.98c1.871,2.17 1.761,5.454 -0.251,7.493c-0.344,0.35 -0.814,0.549 -1.305,0.552c-1.674,0.943 -3.668,1.153 -5.312,0.303l-19.422,15.332c-1.453,1.153 -3.562,1.033 -4.876,-0.276l-10.977,-10.977c-1.31,-1.314 -1.428,-3.425 -0.276,-4.879l15.321,-19.435c-0.847,-1.655 -0.64,-3.638 0.303,-5.312c0.003,-0.491 0.202,-0.961 0.552,-1.305c2.146,-2.123 5.654,-2.123 7.8,0c2.86,-2.838 7.54,-2.838 10.4,0l6.501,6.501c2.168,2.168 7.322,4.854 7.322,4.854c0.286,0.143 0.528,0.357 0.706,0.623l-0.005,-0.005l0,0Zm-10.632,-2.874l-6.501,-6.506c-0.685,-0.697 -1.623,-1.09 -2.601,-1.09c-0.977,0 -1.915,0.393 -2.6,1.09l2.636,2.636c0.304,0.338 0.473,0.777 0.473,1.232c0,1.008 -0.831,1.839 -1.839,1.839c-0.473,0 -0.929,-0.182 -1.27,-0.508l-3.696,-3.696c-0.164,-0.117 -0.308,-0.261 -0.425,-0.425l-1.081,-1.081c-0.348,-0.364 -0.829,-0.571 -1.332,-0.571c-1.01,0 -1.84,0.83 -1.84,1.84c0,0.503 0.207,0.984 0.571,1.332l10.401,10.4c0.712,0.713 0.712,1.888 0,2.601l-1.299,1.299c-0.365,0.348 -0.571,0.829 -0.571,1.332c0,1.01 0.83,1.84 1.839,1.84c0.504,0 0.985,-0.207 1.332,-0.571l1.299,-1.299c0.713,-0.713 1.888,-0.713 2.601,0l2.601,2.601c0.347,0.364 0.829,0.571 1.332,0.571c1.01,0 1.84,-0.831 1.84,-1.84c0,-0.503 -0.207,-0.985 -0.571,-1.332l-1.012,-1.012c-0.239,-0.149 -0.439,-0.349 -0.588,-0.588l-6.2,-6.2l-0.036,-0.036c-0.303,-0.338 -0.473,-0.776 -0.473,-1.231c0,-1.008 0.832,-1.84 1.84,-1.84c0.473,0 0.928,0.182 1.27,0.509l5.433,5.433l4.016,-2.675c-1.763,-1.02 -3.894,-2.399 -5.549,-4.054Zm-22.103,3.9l0,2.6l2.601,0l0,-2.6l-2.601,0Zm0,5.201l0,2.601l2.601,0l0,-2.601l-2.601,0Zm-5.202,0l0,2.601l2.601,0l0,-2.601l-2.601,0Zm5.202,5.202l0,2.601l2.601,0l0,-2.601l-2.601,0Zm-5.202,0l0,2.601l2.601,0l0,-2.601l-2.601,0Zm-5.201,0l0,2.601l2.601,0l0,-2.601l-2.601,0Zm5.201,5.201l0,2.601l2.601,0l0,-2.601l-2.601,0Zm-5.201,0l0,2.601l2.601,0l0,-2.601l-2.601,0Z" style="fill:none;stroke:#c6a687;stroke-width:1px;stroke-linecap:butt;stroke-miterlimit:1.41421;"/><path id="_42" d="M163.47,139.036c0.462,0.095 0.887,0.325 1.219,0.66c0.562,0.568 0.805,1.38 0.644,2.163l-1.872,9.138c3.714,0.292 6.617,3.425 6.625,7.15c0.004,0.637 -0.249,1.251 -0.7,1.703c-0.682,2.403 -2.332,4.421 -4.627,5.141l-3.905,31.929c-0.287,2.395 -2.344,4.213 -4.755,4.207l-20.181,-0.091c-2.412,-0.015 -4.453,-1.856 -4.719,-4.253l-3.637,-31.966c-2.296,-0.754 -3.92,-2.774 -4.581,-5.183c-0.446,-0.456 -0.693,-1.072 -0.684,-1.709c0.038,-3.925 3.277,-7.135 7.202,-7.138c0.044,-5.237 4.366,-9.52 9.604,-9.517l11.951,0.055c3.985,0.018 11.203,-2.218 11.203,-2.218c0.395,-0.129 0.815,-0.154 1.223,-0.071l-0.01,0l0,0Zm-12.448,7.075l-11.956,-0.059c-1.27,-0.016 -2.496,0.479 -3.399,1.374c-0.902,0.894 -1.409,2.115 -1.404,3.386l4.847,0.022c0.589,0.034 1.147,0.284 1.564,0.704c0.922,0.931 0.915,2.459 -0.016,3.382c-0.436,0.433 -1.023,0.681 -1.638,0.692l-6.794,-0.031c-0.259,0.042 -0.523,0.041 -0.781,-0.003l-1.988,-0.009c-0.654,-0.018 -1.288,0.231 -1.752,0.692c-0.933,0.923 -0.939,2.449 -0.016,3.382c0.461,0.464 1.092,0.719 1.746,0.707l19.121,0.087c1.311,0.006 2.386,1.091 2.38,2.402l-0.011,2.388c-0.018,0.654 0.231,1.288 0.692,1.752c0.924,0.932 2.45,0.939 3.382,0.016c0.465,-0.461 0.72,-1.092 0.708,-1.746l0.01,-2.389c0.006,-1.31 1.091,-2.385 2.402,-2.379l4.782,0.021c0.654,0.018 1.287,-0.231 1.752,-0.692c0.932,-0.923 0.939,-2.449 0.015,-3.382c-0.46,-0.464 -1.092,-0.719 -1.746,-0.707l-1.861,-0.009c-0.356,0.081 -0.724,0.079 -1.08,-0.005l-11.398,-0.051l-0.066,-0.001c-0.589,-0.034 -1.147,-0.284 -1.564,-0.704c-0.922,-0.931 -0.915,-2.46 0.016,-3.382c0.437,-0.433 1.023,-0.681 1.638,-0.692l9.989,0.045l1.26,-6.145c-2.561,0.671 -5.792,1.348 -8.834,1.334Zm-16.841,23.826l2.38,2.402l2.401,-2.38l-2.379,-2.401l-2.402,2.379Zm4.76,4.804l2.38,2.401l2.401,-2.38l-2.38,-2.401l-2.401,2.38Zm-4.803,4.759l2.379,2.402l2.402,-2.38l-2.38,-2.401l-2.401,2.379Zm9.562,0.044l2.38,2.401l2.402,-2.379l-2.38,-2.402l-2.402,2.38Zm-4.803,4.76l2.38,2.401l2.402,-2.38l-2.38,-2.401l-2.402,2.38Zm-4.803,4.759l2.38,2.402l2.402,-2.38l-2.38,-2.402l-2.402,2.38Zm9.563,0.044l2.38,2.401l2.402,-2.38l-2.38,-2.401l-2.402,2.38Zm-4.803,4.76l2.38,2.401l2.401,-2.38l-2.38,-2.401l-2.401,2.38Z" style="fill:none;stroke:#c6a687;stroke-width:1px;stroke-linecap:butt;stroke-miterlimit:1.41421;"/><path id="_43" d="M78.583,282.53c0.243,0.247 0.408,0.561 0.473,0.9c0.11,0.576 -0.074,1.17 -0.492,1.581l-4.876,4.798c2.142,1.697 2.628,4.791 1.111,7.062c-0.259,0.389 -0.663,0.66 -1.122,0.75c-1.398,1.184 -3.228,1.739 -4.919,1.239l-15.431,17.843c-1.154,1.341 -3.15,1.607 -4.615,0.618l-12.249,-8.306c-1.463,-0.995 -1.953,-2.951 -1.135,-4.519l10.854,-20.949c-1.09,-1.397 -1.253,-3.291 -0.67,-5.028c-0.086,-0.46 0.016,-0.936 0.282,-1.321c1.627,-2.373 4.912,-3.004 7.303,-1.401c2.168,-3.171 6.55,-4.011 9.737,-1.868l7.255,4.919c2.419,1.64 7.727,3.23 7.727,3.23c0.293,0.083 0.559,0.239 0.773,0.456l-0.006,-0.004l0,0Zm-10.471,-0.781l-7.255,-4.924c-0.767,-0.529 -1.715,-0.728 -2.631,-0.553c-0.915,0.176 -1.722,0.712 -2.239,1.488l2.942,1.995c0.345,0.261 0.583,0.642 0.664,1.068c0.181,0.944 -0.448,1.871 -1.392,2.053c-0.442,0.084 -0.901,-0.004 -1.28,-0.249l-4.124,-2.796c-0.175,-0.081 -0.335,-0.189 -0.474,-0.322l-1.207,-0.818c-0.39,-0.278 -0.878,-0.385 -1.35,-0.295c-0.945,0.181 -1.573,1.108 -1.391,2.053c0.09,0.471 0.37,0.885 0.773,1.145l11.606,7.869c0.796,0.54 1.007,1.64 0.467,2.435l-0.982,1.45c-0.279,0.391 -0.386,0.879 -0.296,1.35c0.182,0.945 1.108,1.573 2.053,1.392c0.471,-0.091 0.885,-0.371 1.145,-0.774l0.983,-1.45c0.539,-0.795 1.639,-1.006 2.435,-0.467l2.902,1.968c0.391,0.279 0.879,0.386 1.35,0.295c0.945,-0.181 1.573,-1.107 1.392,-2.052c-0.091,-0.472 -0.371,-0.885 -0.774,-1.145l-1.129,-0.766c-0.251,-0.097 -0.474,-0.248 -0.656,-0.444l-6.919,-4.692l-0.04,-0.027c-0.344,-0.262 -0.582,-0.642 -0.664,-1.068c-0.181,-0.944 0.448,-1.872 1.392,-2.053c0.443,-0.085 0.902,0.004 1.281,0.248l6.063,4.112l3.279,-3.226c-1.833,-0.639 -4.077,-1.548 -5.924,-2.8Zm-19.994,7.622l0.467,2.435l2.436,-0.467l-0.468,-2.435l-2.435,0.467Zm0.935,4.87l0.467,2.435l2.435,-0.467l-0.467,-2.435l-2.435,0.467Zm-4.871,0.934l0.467,2.435l2.436,-0.467l-0.468,-2.435l-2.435,0.467Zm5.805,3.936l0.467,2.435l2.435,-0.467l-0.467,-2.435l-2.435,0.467Zm-4.87,0.934l0.467,2.436l2.435,-0.468l-0.467,-2.435l-2.435,0.467Zm-4.871,0.935l0.468,2.435l2.435,-0.467l-0.467,-2.435l-2.436,0.467Zm5.805,3.936l0.467,2.435l2.435,-0.467l-0.467,-2.435l-2.435,0.467Zm-4.87,0.934l0.467,2.435l2.435,-0.467l-0.467,-2.435l-2.435,0.467Z" style="fill:none;stroke:#c6a687;stroke-width:1px;stroke-linecap:butt;stroke-miterlimit:1.41421;"/><path id="_44" d="M840.628,501.938c0.462,0.095 0.887,0.325 1.219,0.66c0.563,0.568 0.805,1.38 0.645,2.163l-1.872,9.139c3.714,0.292 6.616,3.425 6.625,7.149c0.003,0.638 -0.249,1.251 -0.7,1.703c-0.683,2.403 -2.332,4.421 -4.628,5.141l-3.904,31.93c-0.288,2.394 -2.344,4.213 -4.755,4.207l-20.181,-0.092c-2.412,-0.015 -4.454,-1.856 -4.719,-4.253l-3.638,-31.966c-2.296,-0.753 -3.919,-2.774 -4.58,-5.183c-0.447,-0.455 -0.694,-1.071 -0.685,-1.709c0.039,-3.924 3.278,-7.135 7.203,-7.137c0.044,-5.238 4.366,-9.521 9.603,-9.517l11.952,0.054c3.985,0.018 11.203,-2.218 11.203,-2.218c0.395,-0.129 0.815,-0.153 1.222,-0.07l-0.01,-0.001l0,0Zm-12.447,7.076l-11.956,-0.06c-1.271,-0.016 -2.496,0.48 -3.399,1.374c-0.903,0.895 -1.409,2.116 -1.405,3.386l4.848,0.022c0.589,0.034 1.147,0.284 1.563,0.704c0.923,0.931 0.916,2.46 -0.015,3.382c-0.437,0.433 -1.024,0.682 -1.638,0.693l-6.795,-0.031c-0.259,0.042 -0.522,0.041 -0.781,-0.004l-1.987,-0.009c-0.654,-0.018 -1.288,0.232 -1.753,0.692c-0.932,0.924 -0.939,2.45 -0.015,3.382c0.46,0.465 1.092,0.72 1.746,0.708l19.121,0.087c1.31,0.006 2.386,1.09 2.38,2.401l-0.011,2.388c-0.018,0.654 0.231,1.288 0.692,1.753c0.923,0.932 2.449,0.939 3.382,0.015c0.464,-0.46 0.719,-1.092 0.707,-1.746l0.011,-2.388c0.006,-1.311 1.091,-2.386 2.402,-2.38l4.781,0.022c0.654,0.018 1.288,-0.231 1.753,-0.692c0.932,-0.924 0.939,-2.45 0.015,-3.382c-0.461,-0.465 -1.092,-0.72 -1.746,-0.708l-1.861,-0.008c-0.357,0.081 -0.724,0.079 -1.08,-0.005l-11.398,-0.052l-0.066,0c-0.59,-0.034 -1.148,-0.284 -1.564,-0.704c-0.922,-0.931 -0.915,-2.46 0.015,-3.382c0.437,-0.433 1.024,-0.682 1.639,-0.693l9.989,0.046l1.26,-6.145c-2.561,0.67 -5.792,1.348 -8.834,1.334Zm-16.841,23.826l2.379,2.402l2.402,-2.38l-2.38,-2.402l-2.401,2.38Zm4.759,4.803l2.38,2.402l2.402,-2.38l-2.38,-2.402l-2.402,2.38Zm-4.803,4.76l2.38,2.402l2.402,-2.38l-2.38,-2.402l-2.402,2.38Zm9.563,0.043l2.38,2.402l2.402,-2.38l-2.38,-2.402l-2.402,2.38Zm-4.803,4.76l2.38,2.402l2.401,-2.38l-2.38,-2.402l-2.401,2.38Zm-4.803,4.76l2.38,2.401l2.401,-2.379l-2.38,-2.402l-2.401,2.38Zm9.563,0.043l2.38,2.402l2.401,-2.38l-2.38,-2.402l-2.401,2.38Zm-4.804,4.76l2.38,2.402l2.402,-2.38l-2.38,-2.402l-2.402,2.38Z" style="fill:none;stroke:#c6a687;stroke-width:1px;stroke-linecap:butt;stroke-miterlimit:1.41421;"/><path id="_45" d="M267.204,130.863l0.302,0.302c0.353,0.337 0.552,0.804 0.552,1.291c0,0.978 -0.805,1.783 -1.783,1.783c-0.506,0 -0.987,-0.214 -1.325,-0.589l-1.26,-1.26c-0.691,-0.691 -0.691,-1.83 0,-2.522c1.671,-1.671 2.611,-3.94 2.611,-6.303c0,-4.89 -4.024,-8.914 -8.914,-8.914c-2.363,0 -4.632,0.94 -6.303,2.611c-0.691,0.691 -1.831,0.691 -2.522,0l-1.259,-1.259l-0.059,-0.041c-0.353,-0.337 -0.552,-0.803 -0.552,-1.29c0,-0.979 0.805,-1.784 1.783,-1.784c0.506,0 0.987,0.214 1.325,0.59l0.268,0.268c4.877,-3.603 11.721,-3.407 16.133,1.005c4.413,4.412 4.605,11.232 1.003,16.112l0,0Zm-13.612,-3.525c0.692,0.692 0.692,1.831 0,2.522l-1.267,1.257c-0.316,0.332 -0.492,0.773 -0.492,1.23c0,0.979 0.805,1.784 1.783,1.784c0.458,0 0.899,-0.177 1.231,-0.492l1.259,-1.26c0.691,-0.691 1.831,-0.691 2.522,0l4.394,4.391c0.334,0.335 0.521,0.789 0.521,1.261c0,0.73 -0.447,1.389 -1.123,1.66l-23.105,9.164c-2.431,0.964 -5.228,0.096 -6.686,-2.075c-1.069,-1.581 -1.152,-3.637 -0.449,-5.413l9.058,-22.856c0.268,-0.678 0.928,-1.126 1.658,-1.126c0.472,0 0.925,0.189 1.259,0.522l9.437,9.431Z" style="fill:#c6a687;fill-rule:nonzero;"/><path id="_46" d="M57.505,127.566l0.353,-0.331c0.394,-0.386 0.929,-0.594 1.48,-0.576c1.107,0.036 1.987,0.977 1.951,2.083c-0.019,0.572 -0.279,1.109 -0.717,1.477l-1.471,1.378c-0.807,0.756 -2.096,0.714 -2.852,-0.094c-1.828,-1.952 -4.359,-3.1 -7.031,-3.188c-5.531,-0.182 -10.232,4.22 -10.414,9.75c-0.088,2.673 0.891,5.274 2.719,7.226c0.756,0.808 0.714,2.096 -0.094,2.852l-1.471,1.378l-0.048,0.065c-0.394,0.387 -0.929,0.595 -1.48,0.576c-1.107,-0.036 -1.987,-0.976 -1.951,-2.083c0.019,-0.572 0.279,-1.108 0.717,-1.477l0.312,-0.292c-3.892,-5.651 -3.417,-13.383 1.737,-18.209c5.155,-4.826 12.874,-4.791 18.26,-0.535l0,0Zm-4.493,15.263c0.808,-0.756 2.096,-0.714 2.852,0.094l1.375,1.48c0.363,0.369 0.855,0.585 1.373,0.603c1.107,0.036 2.047,-0.844 2.083,-1.951c0.017,-0.518 -0.166,-1.023 -0.511,-1.41l-1.377,-1.471c-0.756,-0.808 -0.714,-2.096 0.094,-2.852l5.129,-4.806c0.391,-0.366 0.912,-0.561 1.446,-0.543c0.825,0.027 1.554,0.557 1.834,1.332l9.506,26.472c1,2.785 -0.086,5.916 -2.596,7.484c-1.827,1.151 -4.156,1.168 -6.138,0.307l-25.513,-11.094c-0.757,-0.33 -1.239,-1.092 -1.212,-1.917c0.018,-0.534 0.248,-1.04 0.637,-1.406l11.018,-10.322Z" style="fill:none;stroke:#c6a687;stroke-width:1px;stroke-linecap:butt;stroke-miterlimit:1.41421;"/><path id="_47" d="M31.514,540.44l0.484,-0.001c0.552,-0.014 1.085,0.199 1.475,0.588c0.785,0.782 0.788,2.07 0.006,2.854c-0.404,0.406 -0.959,0.621 -1.531,0.592l-2.015,0.004c-1.107,0.002 -2.02,-0.907 -2.022,-2.014c-0.006,-2.674 -1.075,-5.24 -2.969,-7.126c-3.92,-3.905 -10.361,-3.892 -14.266,0.029c-1.886,1.894 -2.944,4.464 -2.939,7.139c0.002,1.106 -0.907,2.02 -2.014,2.022l-2.015,0.004l-0.079,0.015c-0.552,0.014 -1.086,-0.199 -1.476,-0.587c-0.785,-0.782 -0.787,-2.07 -0.006,-2.855c0.404,-0.405 0.96,-0.62 1.531,-0.591l0.428,-0.001c1.007,-6.788 6.628,-12.119 13.689,-12.133c7.061,-0.015 12.682,5.276 13.719,12.061l0,0Zm-13.695,8.1c1.106,-0.003 2.02,0.907 2.022,2.013l-0.004,2.02c0.014,0.518 0.226,1.012 0.593,1.377c0.785,0.782 2.073,0.779 2.855,-0.006c0.365,-0.366 0.575,-0.861 0.587,-1.379l-0.004,-2.016c-0.002,-1.106 0.908,-2.019 2.014,-2.022l7.029,-0.016c0.535,-0.001 1.049,0.212 1.427,0.589c0.586,0.583 0.757,1.467 0.434,2.225l-11.102,25.843c-1.168,2.719 -4.097,4.269 -7.002,3.704c-2.121,-0.405 -3.836,-1.98 -4.698,-3.962l-11.094,-25.513c-0.329,-0.757 -0.162,-1.643 0.421,-2.229c0.377,-0.378 0.89,-0.591 1.424,-0.593l15.098,-0.035Z" style="fill:none;stroke:#c6a687;stroke-width:1px;stroke-linecap:butt;stroke-miterlimit:1.41421;"/><path id="_48" d="M582.843,3.805l0.353,-0.33c0.394,-0.387 0.929,-0.595 1.48,-0.577c1.107,0.037 1.987,0.977 1.951,2.084c-0.019,0.572 -0.279,1.108 -0.716,1.477l-1.472,1.377c-0.807,0.756 -2.096,0.714 -2.852,-0.093c-1.828,-1.953 -4.359,-3.1 -7.031,-3.188c-5.53,-0.182 -10.232,4.22 -10.414,9.75c-0.088,2.672 0.891,5.273 2.719,7.226c0.756,0.807 0.714,2.096 -0.094,2.852l-1.471,1.377l-0.048,0.065c-0.394,0.387 -0.929,0.595 -1.479,0.577c-1.107,-0.036 -1.988,-0.977 -1.951,-2.084c0.018,-0.571 0.278,-1.108 0.716,-1.476l0.312,-0.293c-3.892,-5.65 -3.417,-13.383 1.738,-18.209c5.154,-4.826 12.873,-4.79 18.259,-0.535l0,0Zm-4.493,15.264c0.808,-0.756 2.096,-0.714 2.853,0.093l1.374,1.481c0.363,0.369 0.856,0.585 1.373,0.602c1.107,0.036 2.047,-0.844 2.083,-1.951c0.017,-0.517 -0.166,-1.023 -0.51,-1.409l-1.378,-1.472c-0.756,-0.807 -0.714,-2.096 0.094,-2.852l5.129,-4.806c0.391,-0.365 0.912,-0.56 1.446,-0.542c0.826,0.027 1.554,0.556 1.835,1.332l9.505,26.471c1,2.786 -0.086,5.917 -2.596,7.484c-1.827,1.151 -4.156,1.169 -6.138,0.307l-25.513,-11.094c-0.756,-0.329 -1.238,-1.091 -1.211,-1.917c0.017,-0.534 0.247,-1.039 0.636,-1.405l11.018,-10.322Z" style="fill:none;stroke:#c6a687;stroke-width:1px;stroke-linecap:butt;stroke-miterlimit:1.41421;"/></g></svg>