<?xml version="1.0" encoding="UTF-8" standalone="no"?><!DOCTYPE svg PUBLIC "-//W3C//DTD SVG 1.1//EN" "http://www.w3.org/Graphics/SVG/1.1/DTD/svg11.dtd"><svg width="100%" height="100%" viewBox="0 0 404 580" version="1.1" xmlns="http://www.w3.org/2000/svg" xmlns:xlink="http://www.w3.org/1999/xlink" xml:space="preserve" style="fill-rule:evenodd;clip-rule:evenodd;stroke-linejoin:round;stroke-miterlimit:1.41421;"><g id="product2.-dimensions"><path d="M125.283,16.033l0.102,0.046l0.088,0.068l0.072,0.086l0.051,0.1l0.027,0.109l0.002,0.112l-0.051,0.552l-0.051,0.55l-0.049,0.55l-0.049,0.55l-0.048,0.549l-0.047,0.55l-0.046,0.549l-0.044,0.55l-0.044,0.55l-0.042,0.549l-0.042,0.551l-0.042,0.549l-0.039,0.55l-0.04,0.549l-0.037,0.55l-0.039,0.55l-0.035,0.549l-0.035,0.55l-0.035,0.55l-0.033,0.55l-0.034,0.55l-0.031,0.549l-0.03,0.549l-0.03,0.549l-0.03,0.55l-0.028,0.549l-0.026,0.55l-0.027,0.55l-0.026,0.55l-0.025,0.548l-0.024,0.55l-0.023,0.549l-0.021,0.549l-0.021,0.551l-0.021,0.548l-0.02,0.55l-0.019,0.55l-0.018,0.548l-0.017,0.549l-0.016,0.549l-0.014,0.551l-0.016,0.549l-0.014,0.549l-0.012,0.549l-0.012,0.548l-0.011,0.55l-0.01,0.549l-0.011,0.55l-0.009,0.549l-0.007,0.548l-0.009,0.55l-0.005,0.548l-0.007,0.551l-0.005,0.549l-0.004,0.548l-0.003,0.55l-0.004,0.548l-0.001,0.549l-0.002,1.099l0.002,1.098l0.003,1.098l0.007,1.098l0.011,1.098l0.012,1.096l0.016,1.098l0.019,1.098l0.021,1.099l0.023,1.096l0.026,1.098l0.03,1.098l0.032,1.097l0.033,1.098l0.037,1.096l0.04,1.098l0.043,1.097l0.044,1.098l0.045,1.097l0.049,1.097l0.106,2.194l0.056,1.098l0.058,1.097l0.06,1.096l0.063,1.097l0.065,1.098l0.067,1.097l0.069,1.097l0.07,1.096l0.074,1.097l0.151,2.194l0.079,1.096l0.081,1.097l-0.005,0.112l-0.029,0.108l-0.052,0.099l-0.073,0.085l-0.09,0.066l-0.103,0.045l-0.11,0.021l-0.112,-0.005l-0.108,-0.029l-0.099,-0.052l-0.085,-0.073l-0.066,-0.091l-0.045,-0.102l-0.021,-0.11l-0.08,-1.098l-0.08,-1.099l-0.075,-1.099l-0.076,-1.098l-0.074,-1.098l-0.07,-1.099l-0.069,-1.098l-0.067,-1.099l-0.065,-1.1l-0.064,-1.099l-0.059,-1.099l-0.058,-1.098l-0.057,-1.1l-0.053,-1.099l-0.052,-1.098l-0.05,-1.101l-0.046,-1.099l-0.044,-1.1l-0.042,-1.098l-0.04,-1.101l-0.037,-1.099l-0.034,-1.101l-0.031,-1.098l-0.03,-1.101l-0.027,-1.101l-0.023,-1.098l-0.021,-1.101l-0.019,-1.1l-0.016,-1.101l-0.012,-1.099l-0.011,-1.1l-0.007,-1.101l-0.003,-1.101l-0.002,-1.1l0.002,-1.101l0.001,-0.552l0.004,-0.549l0.003,-0.551l0.004,-0.549l0.005,-0.553l0.007,-0.55l0.005,-0.55l0.009,-0.551l0.007,-0.549l0.009,-0.552l0.011,-0.551l0.01,-0.549l0.011,-0.552l0.012,-0.549l0.012,-0.551l0.015,-0.553l0.015,-0.548l0.014,-0.551l0.016,-0.552l0.018,-0.551l0.018,-0.55l0.019,-0.551l0.019,-0.552l0.021,-0.549l0.022,-0.551l0.021,-0.551l0.023,-0.552l0.024,-0.552l0.025,-0.549l0.026,-0.552l0.027,-0.55l0.026,-0.552l0.028,-0.552l0.03,-0.551l0.03,-0.549l0.03,-0.551l0.032,-0.552l0.033,-0.552l0.034,-0.551l0.035,-0.551l0.035,-0.551l0.036,-0.552l0.038,-0.551l0.037,-0.552l0.041,-0.551l0.039,-0.551l0.042,-0.553l0.042,-0.55l0.042,-0.551l0.044,-0.552l0.045,-0.551l0.045,-0.552l0.048,-0.552l0.048,-0.551l0.049,-0.551l0.049,-0.552l0.051,-0.551l0.051,-0.552l0.023,-0.11l0.046,-0.102l0.069,-0.089l0.086,-0.071l0.1,-0.051l0.108,-0.027l0.112,-0.002l0.11,0.023Z" style="fill:#9e9595;"/><path d="M277.678,16.021l0.099,0.035l0.089,0.054l0.076,0.072l0.06,0.085l0.04,0.097l0.02,0.103l0.074,0.892l0.073,0.895l0.068,0.896l0.066,0.899l0.064,0.901l0.061,0.903l0.057,0.903l0.056,0.907l0.053,0.909l0.05,0.91l0.047,0.912l0.045,0.914l0.043,0.915l0.039,0.919l0.038,0.918l0.035,0.921l0.032,0.923l0.03,0.925l0.027,0.926l0.024,0.928l0.023,0.929l0.021,0.933l0.017,0.932l0.016,0.935l0.013,0.937l0.01,0.938l0.009,0.94l0.006,0.941l0.005,0.943l0.001,0.944l0,0.946l-0.003,0.948l-0.004,0.948l-0.006,0.952l-0.009,0.952l-0.011,0.953l-0.014,0.955l-0.015,0.956l-0.016,0.958l-0.02,0.959l-0.021,0.961l-0.023,0.962l-0.024,0.963l-0.027,0.966l-0.029,0.966l-0.03,0.967l-0.034,0.97l-0.034,0.97l-0.037,0.971l-0.038,0.972l-0.039,0.974l-0.041,0.976l-0.044,0.976l-0.045,0.979l-0.047,0.978l-0.047,0.98l-0.05,0.981l-0.053,0.983l-0.053,0.983l-0.054,0.985l-0.056,0.986l-0.057,0.986l-0.061,0.99l-0.06,0.987l-0.018,0.103l-0.038,0.097l-0.058,0.087l-0.074,0.073l-0.088,0.056l-0.098,0.037l-0.104,0.015l-0.104,-0.006l-0.101,-0.028l-0.092,-0.048l-0.081,-0.067l-0.065,-0.081l-0.047,-0.094l-0.026,-0.101l-0.005,-0.105l0.061,-0.987l0.06,-0.987l0.058,-0.985l0.056,-0.984l0.054,-0.983l0.053,-0.982l0.053,-0.982l0.05,-0.978l0.046,-0.979l0.047,-0.977l0.045,-0.977l0.044,-0.974l0.041,-0.974l0.039,-0.972l0.038,-0.971l0.036,-0.97l0.035,-0.968l0.033,-0.968l0.03,-0.964l0.029,-0.965l0.027,-0.963l0.024,-0.962l0.023,-0.96l0.021,-0.959l0.02,-0.957l0.016,-0.956l0.016,-0.954l0.013,-0.953l0.011,-0.951l0.009,-0.949l0.006,-0.95l0.004,-0.946l0.003,-0.945l0,-0.944l-0.001,-0.942l-0.005,-0.94l-0.006,-0.939l-0.009,-0.937l-0.01,-0.937l-0.012,-0.933l-0.017,-0.933l-0.017,-0.93l-0.021,-0.929l-0.022,-0.928l-0.025,-0.925l-0.027,-0.923l-0.03,-0.922l-0.032,-0.921l-0.034,-0.917l-0.038,-0.916l-0.039,-0.916l-0.042,-0.912l-0.046,-0.911l-0.047,-0.91l-0.049,-0.907l-0.053,-0.905l-0.056,-0.904l-0.057,-0.901l-0.061,-0.899l-0.063,-0.898l-0.066,-0.896l-0.068,-0.893l-0.073,-0.891l-0.074,-0.892l0.003,-0.104l0.024,-0.102l0.044,-0.094l0.063,-0.084l0.08,-0.068l0.091,-0.05l0.1,-0.03l0.104,-0.009l0.104,0.013Z" style="fill:#9e9595;"/><path d="M339.578,78.841l0.799,0.001l0.804,0.002l0.806,0.003l0.812,0.004l0.817,0.005l0.818,0.005l0.825,0.006l0.826,0.006l0.835,0.008l0.837,0.009l0.839,0.01l0.847,0.01l0.852,0.012l0.855,0.012l0.86,0.013l0.865,0.015l0.869,0.015l0.877,0.016l0.881,0.017l0.885,0.018l0.89,0.02l0.898,0.021l0.9,0.021l0.908,0.022l0.913,0.024l0.918,0.024l0.923,0.027l0.93,0.026l0.936,0.028l0.941,0.029l0.948,0.031l0.954,0.031l0.959,0.033l0.966,0.035l0.973,0.035l0.979,0.037l0.984,0.038l0.991,0.038l1,0.041l1.004,0.041l1.011,0.044l1.02,0.044l1.025,0.046l1.031,0.048l1.039,0.048l1.047,0.049l0.166,0.027l0.156,0.063l0.138,0.096l0.113,0.124l0.082,0.146l0.048,0.161l0.011,0.168l-0.027,0.166l-0.062,0.155l-0.096,0.138l-0.125,0.113l-0.146,0.083l-0.161,0.048l-0.167,0.011l-1.047,-0.05l-1.038,-0.048l-1.031,-0.048l-1.022,-0.046l-1.018,-0.044l-1.01,-0.043l-1.003,-0.042l-0.997,-0.04l-0.99,-0.038l-0.983,-0.038l-0.977,-0.037l-0.972,-0.035l-0.965,-0.034l-0.957,-0.033l-0.952,-0.032l-0.946,-0.03l-0.94,-0.03l-0.934,-0.027l-0.929,-0.027l-0.922,-0.027l-0.916,-0.024l-0.911,-0.024l-0.906,-0.021l-0.899,-0.022l-0.897,-0.02l-0.888,-0.02l-0.883,-0.018l-0.879,-0.018l-0.875,-0.015l-0.87,-0.015l-0.863,-0.015l-0.857,-0.013l-0.854,-0.012l-0.85,-0.012l-0.846,-0.01l-0.838,-0.01l-0.835,-0.009l-0.833,-0.008l-0.825,-0.006l-0.823,-0.006l-0.818,-0.005l-0.815,-0.005l-0.81,-0.004l-0.805,-0.003l-0.803,-0.002l-0.797,-0.001l-1.585,-0.002l-1.572,0.003l-1.557,0.005l-1.541,0.007l-1.532,0.011l-1.519,0.012l-1.507,0.015l-1.496,0.017l-1.486,0.019l-1.476,0.021l-1.467,0.023l-1.458,0.024l-1.451,0.026l-1.444,0.027l-1.438,0.028l-1.431,0.031l-1.423,0.031l-1.421,0.032l-1.416,0.033l-1.411,0.033l-1.408,0.034l-2.812,0.07l-2.805,0.072l-2.805,0.071l-2.81,0.07l-2.816,0.069l-1.414,0.033l-1.417,0.033l-1.422,0.032l-1.43,0.03l-1.432,0.031l-1.44,0.028l-1.445,0.026l-1.455,0.027l-1.463,0.024l-1.47,0.021l-0.168,-0.016l-0.159,-0.053l-0.143,-0.087l-0.121,-0.117l-0.091,-0.141l-0.058,-0.158l-0.021,-0.167l0.016,-0.167l0.053,-0.159l0.087,-0.143l0.117,-0.121l0.141,-0.091l0.158,-0.058l0.167,-0.021l1.468,-0.022l1.461,-0.024l1.454,-0.027l1.444,-0.026l1.438,-0.028l1.431,-0.03l1.428,-0.031l1.421,-0.031l1.416,-0.033l1.413,-0.033l2.815,-0.07l2.809,-0.07l2.805,-0.071l2.805,-0.072l2.813,-0.07l1.409,-0.034l1.412,-0.033l1.417,-0.033l1.422,-0.031l1.424,-0.032l1.433,-0.03l1.439,-0.028l1.445,-0.028l1.453,-0.026l1.46,-0.024l1.468,-0.022l1.478,-0.022l1.489,-0.019l1.499,-0.017l1.508,-0.015l1.522,-0.012l1.534,-0.011l1.544,-0.007l1.56,-0.005l1.575,-0.003l1.587,0.002Z" style="fill:#9e9595;"/><path d="M238.531,468.079l3.562,0.164l3.531,0.162l3.501,0.156l3.469,0.153l3.436,0.149l3.403,0.146l3.37,0.14l3.336,0.136l1.655,0.066l1.646,0.065l1.639,0.064l1.627,0.063l1.621,0.062l1.609,0.06l1.603,0.06l1.593,0.058l1.582,0.059l1.575,0.054l1.565,0.057l1.556,0.052l1.546,0.053l1.535,0.051l1.528,0.049l1.517,0.049l1.506,0.047l1.498,0.048l1.487,0.043l1.477,0.044l1.468,0.044l1.456,0.04l1.446,0.04l1.437,0.038l1.427,0.038l1.415,0.035l1.406,0.034l1.395,0.033l1.383,0.033l1.373,0.029l1.362,0.029l1.351,0.027l1.342,0.027l1.329,0.024l1.318,0.024l1.307,0.021l1.297,0.02l1.284,0.02l1.272,0.019l1.261,0.014l1.252,0.015l1.238,0.014l1.227,0.011l1.216,0.011l1.203,0.007l1.191,0.008l1.18,0.005l1.167,0.004l1.156,0.003l2.274,0l1.117,-0.001l1.107,-0.004l1.092,-0.006l1.081,-0.007l1.069,-0.009l1.056,-0.011l1.043,-0.011l1.03,-0.014l1.018,-0.015l1.002,-0.016l0.991,-0.018l0.977,-0.022l0.965,-0.022l0.953,-0.024l0.937,-0.023l0.925,-0.027l0.91,-0.029l0.896,-0.031l0.885,-0.033l0.87,-0.033l0.856,-0.036l0.842,-0.036l0.827,-0.04l0.815,-0.042l0.8,-0.042l0.785,-0.045l0.772,-0.045l0.756,-0.049l0.743,-0.049l0.728,-0.053l0.713,-0.054l0.352,-0.027l0.347,-0.027l0.343,-0.029l0.341,-0.029l0.336,-0.029l0.334,-0.031l0.328,-0.029l0.323,-0.031l0.323,-0.032l0.319,-0.031l0.312,-0.032l0.312,-0.033l0.304,-0.033l0.303,-0.034l0.299,-0.034l0.295,-0.035l0.292,-0.034l0.285,-0.036l0.285,-0.036l0.28,-0.036l0.275,-0.036l0.269,-0.038l0.269,-0.038l0.262,-0.037l0.26,-0.04l0.256,-0.039l0.253,-0.04l0.247,-0.04l0.243,-0.041l0.242,-0.041l0.236,-0.042l0.232,-0.041l0.225,-0.042l0.226,-0.044l0.218,-0.042l0.214,-0.044l0.213,-0.045l0.21,-0.045l0.201,-0.044l0.198,-0.046l0.196,-0.047l0.192,-0.046l0.186,-0.046l0.18,-0.047l0.176,-0.047l0.176,-0.05l0.169,-0.048l0.16,-0.047l0.163,-0.052l0.159,-0.049l0.151,-0.05l0.148,-0.05l0.142,-0.05l0.136,-0.05l0.135,-0.052l0.135,-0.054l0.19,-0.047l0.196,0.003l0.188,0.054l0.168,0.101l0.136,0.141l0.095,0.171l0.048,0.19l-0.004,0.195l-0.054,0.189l-0.1,0.168l-0.141,0.136l-0.171,0.095l-0.142,0.056l-0.149,0.057l-0.158,0.059l-0.16,0.056l-0.161,0.054l-0.17,0.056l-0.168,0.053l-0.172,0.054l-0.182,0.054l-0.18,0.051l-0.185,0.052l-0.19,0.051l-0.195,0.051l-0.2,0.049l-0.197,0.048l-0.204,0.048l-0.21,0.049l-0.214,0.047l-0.215,0.046l-0.217,0.046l-0.226,0.046l-0.229,0.045l-0.23,0.044l-0.236,0.045l-0.242,0.043l-0.24,0.042l-0.246,0.042l-0.252,0.043l-0.255,0.04l-0.256,0.041l-0.261,0.04l-0.268,0.041l-0.269,0.038l-0.273,0.039l-0.276,0.038l-0.282,0.037l-0.284,0.037l-0.286,0.036l-0.293,0.037l-0.299,0.035l-0.297,0.035l-0.301,0.035l-0.309,0.035l-0.311,0.033l-0.313,0.032l-0.318,0.033l-0.321,0.032l-0.325,0.032l-0.332,0.032l-0.33,0.029l-0.336,0.031l-0.341,0.029l-0.343,0.029l-0.348,0.03l-0.352,0.027l-0.353,0.028l-0.717,0.054l-0.735,0.053l-0.749,0.05l-0.761,0.049l-0.778,0.046l-0.79,0.045l-0.805,0.042l-0.818,0.042l-0.833,0.04l-0.846,0.037l-0.861,0.036l-0.873,0.033l-0.887,0.033l-0.901,0.031l-0.913,0.029l-0.93,0.027l-0.941,0.024l-0.954,0.024l-0.967,0.022l-0.98,0.021l-0.996,0.019l-1.005,0.016l-1.02,0.015l-1.033,0.014l-1.046,0.011l-1.057,0.011l-1.071,0.009l-1.084,0.007l-1.095,0.006l-1.109,0.004l-1.12,0.001l-2.277,0l-1.159,-0.003l-1.168,-0.004l-1.182,-0.005l-1.192,-0.008l-1.205,-0.007l-1.219,-0.011l-1.229,-0.011l-1.239,-0.014l-1.252,-0.015l-1.263,-0.015l-1.275,-0.018l-1.285,-0.02l-1.298,-0.02l-1.309,-0.022l-1.319,-0.023l-1.331,-0.024l-1.343,-0.027l-1.352,-0.028l-1.363,-0.029l-1.375,-0.029l-1.385,-0.033l-1.395,-0.032l-1.407,-0.035l-1.416,-0.034l-1.429,-0.039l-1.438,-0.038l-1.446,-0.04l-1.458,-0.04l-1.469,-0.044l-1.477,-0.043l-1.489,-0.044l-1.5,-0.047l-1.506,-0.048l-1.518,-0.049l-1.528,-0.049l-1.536,-0.051l-1.547,-0.053l-1.558,-0.052l-1.565,-0.057l-1.575,-0.054l-1.584,-0.059l-1.594,-0.058l-1.603,-0.06l-1.61,-0.06l-1.621,-0.062l-1.629,-0.063l-1.639,-0.064l-1.647,-0.066l-1.656,-0.065l-3.337,-0.137l-3.372,-0.14l-3.404,-0.145l-3.437,-0.15l-3.47,-0.152l-3.502,-0.157l-3.532,-0.162l-3.562,-0.164l-3.594,-0.169l-0.192,-0.034l-0.177,-0.084l-0.15,-0.126l-0.112,-0.161l-0.066,-0.184l-0.016,-0.195l0.034,-0.193l0.084,-0.177l0.126,-0.15l0.161,-0.111l0.184,-0.067l0.195,-0.016l3.592,0.169Z" style="fill:#9e9595;"/><path d="M324.848,25.619l0.317,0.111l0.284,0.179l0.238,0.237l0.179,0.285l0.111,0.317l0.037,0.333l-0.037,0.334l-0.111,0.317l-0.179,0.285l-0.238,0.237l-0.284,0.179l-0.317,0.111l-0.334,0.037l-207.817,0l-0.334,-0.037l-0.317,-0.111l-0.285,-0.179l-0.237,-0.237l-0.179,-0.285l-0.111,-0.317l-0.037,-0.334l0.037,-0.333l0.111,-0.317l0.179,-0.285l0.237,-0.237l0.285,-0.179l0.317,-0.111l0.334,-0.038l207.817,0l0.334,0.038Z" style="fill:#9e9595;"/><path d="M356.365,60.077l0.287,0.127l0.253,0.185l0.21,0.233l0.157,0.271l0.097,0.298l0.033,0.312l0,168.743l-0.033,0.312l-0.097,0.298l-0.157,0.271l-0.21,0.233l-0.253,0.185l-0.287,0.127l-0.306,0.066l-0.314,0l-0.307,-0.066l-0.286,-0.127l-0.254,-0.185l-0.21,-0.233l-0.157,-0.271l-0.096,-0.298l-0.033,-0.312l0,-168.743l0.033,-0.312l0.096,-0.298l0.157,-0.271l0.21,-0.233l0.254,-0.185l0.286,-0.127l0.307,-0.065l0.314,0l0.306,0.065Z" style="fill:#9e9595;"/><path d="M356.365,323.01l0.286,0.128l0.254,0.184l0.21,0.233l0.157,0.272l0.096,0.298l0.033,0.312l0,177.864l-0.033,0.312l-0.096,0.298l-0.157,0.271l-0.21,0.233l-0.254,0.185l-0.286,0.127l-0.307,0.065l-0.314,0l-0.306,-0.065l-0.287,-0.127l-0.253,-0.185l-0.21,-0.233l-0.157,-0.271l-0.097,-0.298l-0.033,-0.312l0,-177.864l0.033,-0.312l0.097,-0.298l0.157,-0.272l0.21,-0.233l0.253,-0.184l0.287,-0.128l0.306,-0.065l0.314,0l0.307,0.065Z" style="fill:#9e9595;"/><text x="157.782px" y="19.928px" style="font-family:'BradleyHandITC', 'Bradley Hand ITC', cursive;font-size:34px;fill:#9e9595;">4,5cm</text><text x="317.363px" y="290.746px" style="font-family:'BradleyHandITC', 'Bradley Hand ITC', cursive;font-size:34px;fill:#9e9595;">12cm</text></g></svg>