<?xml version="1.0" encoding="UTF-8" standalone="no"?><!DOCTYPE svg PUBLIC "-//W3C//DTD SVG 1.1//EN" "http://www.w3.org/Graphics/SVG/1.1/DTD/svg11.dtd"><svg width="100%" height="100%" viewBox="0 0 955 634" version="1.1" xmlns="http://www.w3.org/2000/svg" xmlns:xlink="http://www.w3.org/1999/xlink" xml:space="preserve" style="fill-rule:evenodd;clip-rule:evenodd;stroke-linecap:round;stroke-linejoin:round;stroke-miterlimit:1.5;"><g id="second.-pattern"><path d="M595.913,16.685c276.206,8.991 290.824,222.713 315.455,281.315c129.803,308.818 -362.169,329.487 -634.228,317.224c-281.423,-12.685 -220.059,-408.131 -133.196,-441.116c218.58,-83.002 164.799,-166.771 451.969,-157.423Z" style="fill:none;stroke:#c6a687;stroke-width:1px;stroke-dasharray:12,12,0,0;"/><path d="M593.221,25.285c268.293,8.733 282.491,216.332 306.417,273.255c126.085,299.972 -351.794,320.049 -616.059,308.137c-273.36,-12.321 -213.754,-396.439 -129.38,-428.479c212.319,-80.624 160.078,-161.993 439.022,-152.913Z" style="fill:none;stroke:#c6a687;stroke-width:1.5px;stroke-dasharray:45,45,0,0;"/><path d="M600.202,2.989c288.807,9.401 304.092,232.874 329.847,294.149c135.725,322.909 -378.694,344.521 -663.165,331.698c-294.262,-13.263 -230.099,-426.752 -139.273,-461.242c228.553,-86.789 172.318,-174.379 472.591,-164.605Z" style="fill:none;stroke:#c6a687;stroke-width:4px;"/><path id="_2" d="M309.622,16.557l-2.512,13.095c-0.285,1.431 -1.687,2.382 -3.122,2.117l-5.239,-1.005l-1.005,5.239c-0.133,0.694 -0.537,1.308 -1.122,1.705c-1.211,0.821 -2.883,0.5 -3.704,-0.711c-0.397,-0.585 -0.546,-1.305 -0.413,-1.999l1.008,-5.238l-5.239,-1.005c-1.431,-0.285 -2.382,-1.687 -2.117,-3.122l2.513,-13.093c1.083,-5.608 6.407,-9.263 11.998,-8.463c0.16,-0.029 0.323,-0.03 0.483,-0.001c5.739,1.111 9.558,6.737 8.471,12.481l0,0Zm-18.334,-3.516l-2.511,13.094l15.714,3.014l2.511,-13.094c0.4,-2.084 -0.045,-4.242 -1.236,-5.997c-2.463,-3.633 -7.478,-4.595 -11.111,-2.131c-1.755,1.19 -2.967,3.03 -3.367,5.114l0,0Zm8.898,-3.724c0.319,0.079 0.6,0.274 0.785,0.547c0.41,0.605 0.249,1.442 -0.356,1.852c-0.283,0.193 -0.631,0.269 -0.969,0.212c-0.695,-0.139 -1.417,0.007 -2.004,0.405c-0.587,0.398 -0.99,1.015 -1.118,1.712l-0.007,0.036c-0.079,0.32 -0.273,0.6 -0.546,0.785c-0.605,0.411 -1.443,0.25 -1.853,-0.355c-0.193,-0.284 -0.269,-0.631 -0.212,-0.969c0.562,-2.868 3.371,-4.773 6.243,-4.233l0.037,0.008l0,0Z" style="fill:none;stroke:#c6a687;stroke-width:1px;stroke-linecap:butt;stroke-miterlimit:1.41421;"/><path id="_21" d="M126.428,33.812c0.234,-0.107 0.495,-0.143 0.749,-0.102c0.431,0.068 0.8,0.348 0.981,0.745l2.121,4.628c1.73,-1.068 4.018,-0.624 5.222,1.014c0.207,0.279 0.293,0.631 0.24,0.975c0.474,1.279 0.398,2.699 -0.381,3.756l8.57,15.321c0.645,1.148 0.326,2.612 -0.738,3.386l-8.918,6.463c-1.067,0.771 -2.56,0.618 -3.449,-0.352l-11.904,-12.907c-1.254,0.408 -2.62,0.041 -3.688,-0.807c-0.343,-0.056 -0.651,-0.248 -0.852,-0.532c-1.248,-1.741 -0.856,-4.199 0.872,-5.464c-1.669,-2.322 -1.145,-5.601 1.163,-7.287l5.281,-3.828c1.761,-1.276 4.22,-4.587 4.22,-4.587c0.132,-0.184 0.309,-0.33 0.515,-0.425l-0.004,0.003l0,0Zm-3.202,7.128l-5.286,3.827c-0.564,0.402 -0.944,1.015 -1.054,1.7c-0.109,0.685 0.062,1.386 0.473,1.944l2.142,-1.553c0.271,-0.174 0.597,-0.244 0.916,-0.193c0.706,0.112 1.195,0.788 1.083,1.494c-0.053,0.332 -0.232,0.63 -0.499,0.833l-3.002,2.176c-0.101,0.102 -0.217,0.187 -0.345,0.25l-0.879,0.637c-0.294,0.203 -0.492,0.517 -0.549,0.869c-0.112,0.708 0.376,1.382 1.084,1.495c0.352,0.056 0.713,-0.035 0.997,-0.251l8.449,-6.124c0.58,-0.42 1.403,-0.288 1.822,0.291l0.765,1.055c0.203,0.294 0.517,0.493 0.87,0.549c0.707,0.113 1.381,-0.376 1.494,-1.083c0.057,-0.353 -0.035,-0.713 -0.251,-0.997l-0.765,-1.055c-0.419,-0.58 -0.288,-1.403 0.291,-1.823l2.113,-1.531c0.294,-0.203 0.493,-0.517 0.549,-0.869c0.113,-0.708 -0.376,-1.382 -1.083,-1.495c-0.353,-0.056 -0.713,0.035 -0.997,0.251l-0.823,0.596c-0.131,0.15 -0.293,0.268 -0.477,0.346l-5.037,3.65l-0.029,0.022c-0.271,0.174 -0.597,0.244 -0.916,0.193c-0.706,-0.112 -1.195,-0.788 -1.083,-1.494c0.053,-0.332 0.232,-0.63 0.499,-0.833l4.414,-3.199l-1.425,-3.113c-0.912,1.121 -2.117,2.46 -3.461,3.435Zm0.261,15.921l1.822,0.291l0.291,-1.822l-1.823,-0.291l-0.29,1.822Zm3.644,0.582l1.822,0.291l0.291,-1.823l-1.822,-0.29l-0.291,1.822Zm-0.582,3.644l1.822,0.291l0.291,-1.822l-1.822,-0.291l-0.291,1.822Zm4.226,-3.063l1.822,0.291l0.291,-1.822l-1.822,-0.291l-0.291,1.822Zm-0.581,3.645l1.822,0.29l0.291,-1.822l-1.823,-0.291l-0.29,1.823Zm-0.582,3.644l1.822,0.291l0.291,-1.822l-1.822,-0.291l-0.291,1.822Zm4.226,-3.063l1.822,0.291l0.291,-1.822l-1.822,-0.291l-0.291,1.822Zm-0.582,3.645l1.823,0.29l0.29,-1.822l-1.822,-0.291l-0.291,1.823Z" style="fill:none;stroke:#c6a687;stroke-width:1px;stroke-linecap:butt;stroke-miterlimit:1.41421;"/><path id="_22" d="M75.565,100.162c0.305,0.009 0.601,0.107 0.85,0.283c0.422,0.298 0.667,0.788 0.653,1.304l-0.165,6.026c2.396,-0.232 4.595,1.436 5.019,3.805c0.073,0.405 -0.018,0.824 -0.254,1.162c-0.165,1.606 -0.988,3.075 -2.368,3.791l1.102,20.756c0.086,1.556 -1.019,2.944 -2.553,3.211l-12.852,2.208c-1.537,0.262 -3.042,-0.68 -3.481,-2.176l-5.904,-19.932c-1.546,-0.221 -2.806,-1.325 -3.497,-2.783c-0.336,-0.24 -0.562,-0.604 -0.628,-1.011c-0.416,-2.502 1.285,-4.908 3.782,-5.351c-0.56,-3.337 1.709,-6.548 5.042,-7.134l7.611,-1.308c2.538,-0.436 6.88,-2.669 6.88,-2.669c0.236,-0.127 0.501,-0.19 0.769,-0.183l-0.006,0.001l0,0Zm-7.126,5.901l-7.614,1.305c-0.81,0.132 -1.535,0.585 -2.009,1.256c-0.474,0.67 -0.659,1.504 -0.513,2.312l3.087,-0.531c0.379,-0.044 0.762,0.052 1.074,0.273c0.691,0.489 0.859,1.462 0.37,2.154c-0.23,0.324 -0.575,0.548 -0.965,0.624l-4.327,0.744c-0.16,0.055 -0.328,0.084 -0.497,0.085l-1.266,0.218c-0.418,0.062 -0.793,0.291 -1.037,0.637c-0.49,0.692 -0.323,1.664 0.37,2.153c0.345,0.244 0.775,0.336 1.19,0.255l12.177,-2.093c0.835,-0.143 1.641,0.427 1.784,1.261l0.261,1.521c0.062,0.418 0.292,0.794 0.637,1.038c0.693,0.489 1.665,0.322 2.154,-0.37c0.244,-0.346 0.336,-0.776 0.254,-1.191l-0.261,-1.521c-0.143,-0.835 0.426,-1.641 1.261,-1.784l3.045,-0.523c0.418,-0.062 0.793,-0.292 1.037,-0.637c0.49,-0.693 0.323,-1.665 -0.37,-2.154c-0.345,-0.244 -0.775,-0.335 -1.19,-0.254l-1.185,0.203c-0.218,0.092 -0.452,0.132 -0.688,0.119l-7.259,1.247l-0.042,0.007c-0.379,0.044 -0.762,-0.052 -1.074,-0.272c-0.692,-0.489 -0.859,-1.463 -0.37,-2.154c0.229,-0.325 0.575,-0.549 0.965,-0.625l6.361,-1.093l0.111,-4.051c-1.554,0.714 -3.533,1.508 -5.471,1.841Zm-8.04,17.052l1.784,1.261l1.261,-1.784l-1.784,-1.261l-1.261,1.784Zm3.568,2.522l1.784,1.261l1.261,-1.784l-1.784,-1.261l-1.261,1.784Zm-2.522,3.568l1.784,1.261l1.261,-1.784l-1.784,-1.261l-1.261,1.784Zm6.09,-1.046l1.784,1.261l1.261,-1.784l-1.784,-1.261l-1.261,1.784Zm-2.522,3.568l1.784,1.261l1.261,-1.784l-1.784,-1.261l-1.261,1.784Zm-2.521,3.568l1.784,1.261l1.261,-1.784l-1.785,-1.261l-1.26,1.784Zm6.089,-1.046l1.785,1.261l1.26,-1.785l-1.784,-1.26l-1.261,1.784Zm-2.521,3.568l1.784,1.261l1.261,-1.784l-1.784,-1.261l-1.261,1.784Z" style="fill:none;stroke:#c6a687;stroke-width:1px;stroke-linecap:butt;stroke-miterlimit:1.41421;"/><path id="_23" d="M134.908,103.302l0.353,-0.331c0.394,-0.387 0.929,-0.595 1.48,-0.576c1.106,0.036 1.987,0.976 1.95,2.083c-0.018,0.572 -0.278,1.108 -0.716,1.477l-1.471,1.378c-0.808,0.756 -2.096,0.713 -2.852,-0.094c-1.828,-1.953 -4.359,-3.1 -7.032,-3.188c-5.53,-0.182 -10.231,4.22 -10.413,9.75c-0.088,2.672 0.891,5.273 2.719,7.226c0.756,0.807 0.714,2.096 -0.094,2.852l-1.471,1.378l-0.048,0.065c-0.394,0.386 -0.929,0.594 -1.48,0.576c-1.107,-0.036 -1.987,-0.977 -1.951,-2.083c0.019,-0.572 0.279,-1.109 0.716,-1.477l0.313,-0.293c-3.893,-5.65 -3.417,-13.382 1.737,-18.209c5.155,-4.826 12.874,-4.79 18.26,-0.534l0,0Zm-4.493,15.263c0.808,-0.756 2.096,-0.714 2.852,0.094l1.375,1.48c0.363,0.369 0.855,0.585 1.372,0.602c1.107,0.037 2.048,-0.844 2.084,-1.951c0.017,-0.517 -0.166,-1.022 -0.511,-1.409l-1.377,-1.472c-0.756,-0.807 -0.714,-2.096 0.094,-2.852l5.129,-4.805c0.391,-0.366 0.912,-0.561 1.445,-0.543c0.826,0.027 1.555,0.556 1.835,1.332l9.506,26.472c0.999,2.785 -0.086,5.916 -2.596,7.484c-1.827,1.151 -4.156,1.168 -6.138,0.306l-25.513,-11.094c-0.757,-0.329 -1.239,-1.091 -1.212,-1.917c0.018,-0.534 0.248,-1.039 0.637,-1.405l11.018,-10.322Z" style="fill:none;stroke:#c6a687;stroke-width:1px;stroke-linecap:butt;stroke-miterlimit:1.41421;"/><path id="_24" d="M61.16,28.134l0.04,-0.482c0.033,-0.551 0.29,-1.064 0.71,-1.42c0.845,-0.716 2.129,-0.61 2.845,0.235c0.37,0.436 0.537,1.008 0.46,1.575l-0.166,2.009c-0.091,1.102 -1.074,1.936 -2.177,1.845c-2.666,-0.221 -5.312,0.628 -7.352,2.356c-4.221,3.577 -4.752,9.996 -1.175,14.217c1.728,2.04 4.2,3.311 6.865,3.532c1.103,0.091 1.936,1.074 1.845,2.177l-0.166,2.009l0.009,0.08c-0.033,0.551 -0.29,1.064 -0.71,1.42c-0.845,0.716 -2.129,0.61 -2.845,-0.235c-0.37,-0.436 -0.537,-1.008 -0.46,-1.575l0.035,-0.427c-6.678,-1.576 -11.516,-7.626 -10.934,-14.664c0.582,-7.037 6.328,-12.191 13.176,-12.652l0,0Zm6.915,14.33c0.091,-1.102 1.074,-1.936 2.177,-1.845l2.012,0.175c0.517,0.03 1.027,-0.14 1.422,-0.475c0.845,-0.716 0.951,-2 0.235,-2.845c-0.334,-0.394 -0.809,-0.646 -1.324,-0.702l-2.009,-0.166c-1.103,-0.091 -1.936,-1.074 -1.845,-2.177l0.577,-7.005c0.044,-0.533 0.3,-1.027 0.707,-1.373c0.63,-0.534 1.526,-0.63 2.254,-0.244l24.814,13.244c2.611,1.393 3.908,4.443 3.099,7.289c-0.582,2.08 -2.297,3.656 -4.344,4.348l-26.359,8.9c-0.781,0.264 -1.65,0.022 -2.184,-0.608c-0.346,-0.407 -0.515,-0.937 -0.472,-1.469l1.24,-15.047Z" style="fill:none;stroke:#c6a687;stroke-width:1px;stroke-linecap:butt;stroke-miterlimit:1.41421;"/><path id="_25" d="M225.56,55.048l0.57,0.317c0.659,0.346 1.147,0.948 1.351,1.662c0.41,1.437 -0.434,2.955 -1.87,3.365c-0.742,0.212 -1.538,0.1 -2.192,-0.31l-2.377,-1.321c-1.304,-0.725 -1.781,-2.397 -1.056,-3.701c1.753,-3.153 2.181,-6.877 1.191,-10.345c-2.048,-7.177 -9.642,-11.397 -16.818,-9.348c-3.468,0.99 -6.404,3.32 -8.157,6.473c-0.725,1.304 -2.397,1.782 -3.701,1.057l-2.376,-1.321l-0.104,-0.034c-0.659,-0.347 -1.147,-0.948 -1.351,-1.663c-0.41,-1.436 0.434,-2.955 1.871,-3.365c0.742,-0.212 1.538,-0.099 2.192,0.31l0.504,0.281c5.65,-7.331 15.775,-9.911 24.1,-5.284c8.325,4.627 11.465,14.555 8.223,23.227l0,0Zm-21.454,0.53c1.304,0.725 1.781,2.397 1.056,3.701l-1.334,2.376c-0.324,0.619 -0.398,1.34 -0.206,2.012c0.41,1.436 1.928,2.28 3.365,1.87c0.671,-0.191 1.245,-0.635 1.599,-1.237l1.321,-2.377c0.725,-1.304 2.397,-1.781 3.701,-1.056l8.289,4.603c0.63,0.351 1.095,0.94 1.293,1.632c0.306,1.072 -0.073,2.226 -0.953,2.906l-30.071,23.132c-3.164,2.433 -7.633,2.332 -10.681,-0.245c-2.233,-1.871 -3.216,-4.855 -2.928,-7.755l3.717,-37.341c0.11,-1.108 0.89,-2.041 1.962,-2.347c0.692,-0.198 1.437,-0.111 2.067,0.237l17.803,9.889Z" style="fill:none;stroke:#c6a687;stroke-width:1px;stroke-linecap:butt;stroke-miterlimit:1.41421;"/><path id="_26" d="M51.116,478.757c0.201,0.302 0.309,0.658 0.309,1.02c0,0.615 -0.308,1.191 -0.819,1.531l-5.972,3.98c1.872,2.171 1.761,5.454 -0.251,7.493c-0.343,0.351 -0.813,0.549 -1.304,0.552c-1.674,0.943 -3.668,1.153 -5.312,0.303l-19.422,15.332c-1.453,1.153 -3.562,1.033 -4.876,-0.276l-10.977,-10.976c-1.31,-1.315 -1.429,-3.426 -0.276,-4.879l15.321,-19.436c-0.847,-1.655 -0.64,-3.638 0.303,-5.312c0.003,-0.491 0.202,-0.961 0.552,-1.305c2.146,-2.123 5.654,-2.123 7.8,0c2.86,-2.838 7.54,-2.838 10.4,0l6.501,6.501c2.168,2.168 7.322,4.854 7.322,4.854c0.286,0.144 0.528,0.357 0.706,0.624l-0.005,-0.006l0,0Zm-10.632,-2.874l-6.501,-6.506c-0.685,-0.696 -1.623,-1.089 -2.601,-1.089c-0.977,0 -1.915,0.393 -2.601,1.089l2.637,2.637c0.303,0.338 0.473,0.776 0.473,1.231c0,1.008 -0.831,1.84 -1.84,1.84c-0.473,0 -0.928,-0.182 -1.27,-0.509l-3.695,-3.696c-0.164,-0.117 -0.308,-0.261 -0.425,-0.425l-1.081,-1.081c-0.348,-0.364 -0.829,-0.571 -1.332,-0.571c-1.01,0 -1.84,0.831 -1.84,1.84c0,0.503 0.207,0.985 0.571,1.332l10.4,10.401c0.713,0.712 0.713,1.887 0,2.6l-1.299,1.299c-0.364,0.348 -0.57,0.829 -0.57,1.332c0,1.01 0.83,1.84 1.839,1.84c0.503,0 0.985,-0.207 1.332,-0.571l1.299,-1.299c0.713,-0.713 1.888,-0.713 2.601,0l2.601,2.601c0.347,0.364 0.829,0.571 1.332,0.571c1.009,0 1.84,-0.83 1.84,-1.84c0,-0.503 -0.207,-0.984 -0.571,-1.332l-1.013,-1.012c-0.238,-0.149 -0.438,-0.349 -0.587,-0.588l-6.2,-6.2l-0.036,-0.035c-0.303,-0.338 -0.473,-0.777 -0.473,-1.232c0,-1.008 0.832,-1.839 1.84,-1.839c0.473,0 0.928,0.182 1.27,0.508l5.433,5.434l4.016,-2.676c-1.763,-1.02 -3.895,-2.399 -5.549,-4.054Zm-22.103,3.9l0,2.601l2.601,0l0,-2.601l-2.601,0Zm0,5.202l0,2.6l2.601,0l0,-2.6l-2.601,0Zm-5.202,0l0,2.6l2.601,0l0,-2.6l-2.601,0Zm5.202,5.201l0,2.601l2.601,0l0,-2.601l-2.601,0Zm-5.202,0l0,2.601l2.601,0l0,-2.601l-2.601,0Zm-5.201,0l0,2.601l2.601,0l0,-2.601l-2.601,0Zm5.201,5.202l0,2.601l2.601,0l0,-2.601l-2.601,0Zm-5.201,0l0,2.601l2.601,0l0,-2.601l-2.601,0Z" style="fill:none;stroke:#c6a687;stroke-width:1px;stroke-linecap:butt;stroke-miterlimit:1.41421;"/></g></svg>