<?xml version="1.0" encoding="UTF-8" standalone="no"?><!DOCTYPE svg PUBLIC "-//W3C//DTD SVG 1.1//EN" "http://www.w3.org/Graphics/SVG/1.1/DTD/svg11.dtd"><svg width="100%" height="100%" viewBox="0 0 833 648" version="1.1" xmlns="http://www.w3.org/2000/svg" xmlns:xlink="http://www.w3.org/1999/xlink" xml:space="preserve" style="fill-rule:evenodd;clip-rule:evenodd;stroke-linecap:round;stroke-linejoin:round;stroke-miterlimit:1.5;"><g id="third.-pattern"><path d="M438.126,31.77c234.609,7.637 357.216,168.221 353.731,222.104c-33.349,515.728 -331.317,269.908 -562.405,259.492c-239.04,-10.775 -201.473,-329.22 -117.132,-363.573c183.926,-74.915 81.883,-125.963 325.806,-118.023Z" style="fill:none;stroke:#c6a687;stroke-width:2px;"/><path d="M440.089,2.357c259.776,8.457 395.535,186.267 391.677,245.929c-36.926,571.053 -366.859,298.862 -622.736,287.329c-264.683,-11.931 -223.085,-364.536 -129.697,-402.574c203.656,-82.951 90.667,-139.476 360.756,-130.684Z" style="fill:none;stroke:#c6a687;stroke-width:1px;stroke-dasharray:10,10,0,0;"/><path d="M439.123,16.834c247.389,8.053 376.675,177.385 373,234.202c-35.165,543.823 -349.366,284.612 -593.041,273.628c-252.062,-11.362 -212.448,-347.154 -123.513,-383.378c193.945,-78.996 86.343,-132.825 343.554,-124.452Z" style="fill:none;stroke:#c6a687;stroke-width:4px;"/><path id="_3" d="M23.505,429.859l0.353,-0.331c0.394,-0.386 0.929,-0.594 1.48,-0.576c1.107,0.036 1.987,0.977 1.951,2.084c-0.019,0.571 -0.279,1.108 -0.717,1.476l-1.471,1.378c-0.807,0.756 -2.096,0.714 -2.852,-0.094c-1.828,-1.952 -4.359,-3.1 -7.031,-3.188c-5.531,-0.182 -10.232,4.22 -10.414,9.751c-0.088,2.672 0.891,5.273 2.719,7.225c0.756,0.808 0.714,2.096 -0.094,2.852l-1.471,1.378l-0.048,0.065c-0.394,0.387 -0.929,0.595 -1.48,0.577c-1.107,-0.037 -1.987,-0.977 -1.951,-2.084c0.019,-0.572 0.279,-1.108 0.717,-1.477l0.312,-0.292c-3.892,-5.651 -3.417,-13.383 1.737,-18.209c5.155,-4.826 12.874,-4.79 18.26,-0.535l0,0Zm-4.493,15.263c0.808,-0.756 2.096,-0.714 2.852,0.094l1.375,1.48c0.363,0.37 0.855,0.586 1.373,0.603c1.107,0.036 2.047,-0.844 2.083,-1.951c0.017,-0.518 -0.166,-1.023 -0.511,-1.41l-1.377,-1.471c-0.756,-0.808 -0.714,-2.096 0.094,-2.852l5.129,-4.806c0.391,-0.366 0.912,-0.56 1.446,-0.543c0.825,0.027 1.554,0.557 1.834,1.332l9.506,26.472c1,2.785 -0.086,5.916 -2.596,7.484c-1.827,1.151 -4.156,1.168 -6.138,0.307l-25.513,-11.094c-0.757,-0.329 -1.239,-1.092 -1.212,-1.917c0.018,-0.534 0.248,-1.04 0.637,-1.405l11.018,-10.323Z" style="fill:none;stroke:#c6a687;stroke-width:1px;stroke-linecap:butt;stroke-miterlimit:1.41421;"/><path id="_31" d="M404.424,602.334l0.353,-0.331c0.394,-0.386 0.929,-0.594 1.48,-0.576c1.107,0.036 1.987,0.977 1.951,2.084c-0.019,0.571 -0.279,1.108 -0.716,1.476l-1.472,1.378c-0.807,0.756 -2.096,0.714 -2.852,-0.094c-1.828,-1.952 -4.359,-3.1 -7.031,-3.188c-5.53,-0.182 -10.232,4.22 -10.414,9.751c-0.088,2.672 0.891,5.273 2.719,7.225c0.756,0.808 0.714,2.096 -0.094,2.852l-1.471,1.378l-0.048,0.065c-0.394,0.387 -0.929,0.595 -1.48,0.576c-1.106,-0.036 -1.987,-0.976 -1.95,-2.083c0.018,-0.572 0.278,-1.108 0.716,-1.477l0.312,-0.292c-3.892,-5.651 -3.417,-13.383 1.737,-18.209c5.155,-4.826 12.874,-4.791 18.26,-0.535l0,0Zm-4.493,15.263c0.808,-0.756 2.096,-0.714 2.852,0.094l1.375,1.48c0.363,0.37 0.855,0.586 1.373,0.603c1.107,0.036 2.047,-0.844 2.083,-1.951c0.017,-0.518 -0.166,-1.023 -0.51,-1.41l-1.378,-1.471c-0.756,-0.808 -0.714,-2.096 0.094,-2.852l5.129,-4.806c0.391,-0.366 0.912,-0.561 1.446,-0.543c0.825,0.027 1.554,0.557 1.835,1.332l9.505,26.472c1,2.785 -0.086,5.916 -2.596,7.484c-1.827,1.151 -4.156,1.168 -6.138,0.307l-25.513,-11.094c-0.757,-0.33 -1.239,-1.092 -1.211,-1.917c0.017,-0.534 0.247,-1.04 0.636,-1.406l11.018,-10.322Z" style="fill:none;stroke:#c6a687;stroke-width:1px;stroke-linecap:butt;stroke-miterlimit:1.41421;"/><path id="_32" d="M747.802,606.825l0.484,-0.001c0.552,-0.014 1.085,0.199 1.475,0.587c0.785,0.782 0.788,2.07 0.006,2.855c-0.404,0.405 -0.959,0.62 -1.531,0.591l-2.015,0.004c-1.107,0.003 -2.02,-0.907 -2.022,-2.013c-0.006,-2.675 -1.075,-5.24 -2.969,-7.127c-3.92,-3.904 -10.361,-3.891 -14.266,0.029c-1.886,1.895 -2.944,4.465 -2.939,7.139c0.002,1.107 -0.907,2.02 -2.013,2.022l-2.016,0.004l-0.079,0.015c-0.552,0.014 -1.086,-0.198 -1.476,-0.587c-0.784,-0.782 -0.787,-2.07 -0.006,-2.855c0.404,-0.405 0.96,-0.62 1.531,-0.591l0.428,-0.001c1.007,-6.787 6.628,-12.118 13.689,-12.133c7.061,-0.014 12.682,5.277 13.719,12.062l0,0Zm-13.695,8.099c1.106,-0.002 2.02,0.907 2.022,2.014l-0.004,2.02c0.014,0.517 0.226,1.011 0.593,1.376c0.785,0.782 2.073,0.779 2.855,-0.005c0.365,-0.367 0.576,-0.862 0.587,-1.38l-0.004,-2.015c-0.002,-1.107 0.908,-2.02 2.014,-2.022l7.029,-0.017c0.535,-0.001 1.049,0.212 1.427,0.589c0.586,0.583 0.757,1.467 0.434,2.225l-11.102,25.844c-1.168,2.718 -4.097,4.268 -7.002,3.703c-2.121,-0.404 -3.836,-1.98 -4.698,-3.962l-11.094,-25.513c-0.329,-0.757 -0.162,-1.643 0.421,-2.228c0.377,-0.379 0.89,-0.592 1.424,-0.594l15.098,-0.035Z" style="fill:#c6a687;fill-rule:nonzero;"/><path id="_33" d="M50.624,125.45c0.202,0.302 0.309,0.658 0.309,1.02c0,0.615 -0.307,1.19 -0.819,1.531l-5.971,3.98c1.871,2.17 1.761,5.454 -0.251,7.493c-0.343,0.351 -0.814,0.549 -1.304,0.552c-1.675,0.943 -3.669,1.153 -5.312,0.303l-19.422,15.332c-1.454,1.153 -3.562,1.033 -4.876,-0.276l-10.977,-10.977c-1.31,-1.314 -1.429,-3.425 -0.276,-4.878l15.321,-19.436c-0.847,-1.655 -0.64,-3.638 0.303,-5.312c0.003,-0.491 0.201,-0.961 0.552,-1.305c2.145,-2.123 5.654,-2.123 7.799,0c2.86,-2.838 7.541,-2.838 10.401,0l6.5,6.501c2.168,2.168 7.323,4.854 7.323,4.854c0.285,0.144 0.528,0.357 0.706,0.623l-0.006,-0.005l0,0Zm-10.632,-2.874l-6.5,-6.506c-0.686,-0.696 -1.623,-1.089 -2.601,-1.089c-0.978,0 -1.916,0.393 -2.601,1.089l2.637,2.637c0.303,0.337 0.473,0.776 0.473,1.231c0,1.008 -0.832,1.84 -1.84,1.84c-0.473,0 -0.928,-0.182 -1.27,-0.509l-3.696,-3.696c-0.164,-0.117 -0.307,-0.261 -0.424,-0.425l-1.082,-1.081c-0.347,-0.364 -0.828,-0.571 -1.332,-0.571c-1.009,0 -1.839,0.83 -1.839,1.84c0,0.503 0.207,0.984 0.571,1.332l10.4,10.4c0.713,0.713 0.713,1.888 0,2.601l-1.299,1.299c-0.364,0.348 -0.571,0.829 -0.571,1.332c0,1.01 0.83,1.84 1.84,1.84c0.503,0 0.984,-0.207 1.332,-0.571l1.299,-1.299c0.713,-0.713 1.888,-0.713 2.601,0l2.6,2.601c0.348,0.364 0.829,0.571 1.333,0.571c1.009,0 1.839,-0.83 1.839,-1.84c0,-0.503 -0.207,-0.984 -0.571,-1.332l-1.012,-1.012c-0.238,-0.149 -0.438,-0.349 -0.587,-0.588l-6.2,-6.2l-0.036,-0.035c-0.304,-0.338 -0.473,-0.777 -0.473,-1.232c0,-1.008 0.831,-1.839 1.839,-1.839c0.473,0 0.928,0.182 1.27,0.508l5.434,5.434l4.015,-2.676c-1.762,-1.02 -3.894,-2.399 -5.549,-4.054Zm-22.102,3.9l0,2.601l2.6,0l0,-2.601l-2.6,0Zm0,5.202l0,2.6l2.6,0l0,-2.6l-2.6,0Zm-5.202,0l0,2.6l2.601,0l0,-2.6l-2.601,0Zm5.202,5.201l0,2.601l2.6,0l0,-2.601l-2.6,0Zm-5.202,0l0,2.601l2.601,0l0,-2.601l-2.601,0Zm-5.202,0l0,2.601l2.601,0l0,-2.601l-2.601,0Zm5.202,5.202l0,2.601l2.601,0l0,-2.601l-2.601,0Zm-5.202,0l0,2.601l2.601,0l0,-2.601l-2.601,0Z" style="fill:none;stroke:#c6a687;stroke-width:1px;stroke-linecap:butt;stroke-miterlimit:1.41421;"/><path id="_34" d="M205.48,537.102c0.462,0.094 0.887,0.324 1.219,0.659c0.562,0.568 0.805,1.381 0.644,2.163l-1.872,9.139c3.714,0.292 6.617,3.425 6.625,7.149c0.004,0.638 -0.249,1.252 -0.7,1.704c-0.682,2.402 -2.332,4.421 -4.627,5.14l-3.905,31.93c-0.287,2.394 -2.344,4.213 -4.755,4.207l-20.181,-0.092c-2.412,-0.014 -4.453,-1.855 -4.719,-4.252l-3.637,-31.967c-2.296,-0.753 -3.92,-2.773 -4.581,-5.182c-0.446,-0.456 -0.693,-1.072 -0.684,-1.71c0.038,-3.924 3.277,-7.134 7.202,-7.137c0.044,-5.238 4.366,-9.52 9.604,-9.517l11.951,0.055c3.985,0.018 11.203,-2.219 11.203,-2.219c0.395,-0.128 0.815,-0.153 1.223,-0.07l-0.01,0l0,0Zm-12.448,7.075l-11.956,-0.059c-1.27,-0.016 -2.496,0.479 -3.398,1.374c-0.903,0.894 -1.41,2.115 -1.405,3.385l4.847,0.022c0.59,0.035 1.147,0.284 1.564,0.705c0.922,0.931 0.915,2.459 -0.016,3.382c-0.436,0.433 -1.023,0.681 -1.638,0.692l-6.794,-0.031c-0.259,0.042 -0.523,0.041 -0.781,-0.003l-1.988,-0.009c-0.654,-0.019 -1.288,0.231 -1.752,0.691c-0.932,0.924 -0.939,2.45 -0.016,3.382c0.461,0.465 1.092,0.72 1.746,0.708l19.121,0.087c1.311,0.006 2.386,1.091 2.38,2.401l-0.011,2.389c-0.018,0.654 0.231,1.287 0.692,1.752c0.924,0.932 2.45,0.939 3.382,0.016c0.465,-0.461 0.72,-1.092 0.708,-1.747l0.011,-2.388c0.006,-1.311 1.09,-2.386 2.401,-2.38l4.782,0.022c0.654,0.018 1.287,-0.231 1.752,-0.692c0.932,-0.923 0.939,-2.45 0.015,-3.382c-0.46,-0.465 -1.091,-0.72 -1.746,-0.707l-1.861,-0.009c-0.356,0.081 -0.724,0.079 -1.08,-0.005l-11.398,-0.052l-0.066,0c-0.589,-0.034 -1.147,-0.284 -1.564,-0.704c-0.922,-0.931 -0.915,-2.46 0.016,-3.382c0.437,-0.433 1.023,-0.681 1.638,-0.692l9.989,0.045l1.26,-6.145c-2.561,0.67 -5.791,1.348 -8.834,1.334Zm-16.841,23.826l2.38,2.402l2.402,-2.38l-2.38,-2.402l-2.402,2.38Zm4.76,4.803l2.38,2.402l2.401,-2.38l-2.38,-2.401l-2.401,2.379Zm-4.803,4.76l2.379,2.402l2.402,-2.38l-2.38,-2.402l-2.401,2.38Zm9.563,0.044l2.379,2.401l2.402,-2.38l-2.38,-2.401l-2.401,2.38Zm-4.804,4.759l2.38,2.402l2.402,-2.38l-2.38,-2.401l-2.402,2.379Zm-4.803,4.76l2.38,2.402l2.402,-2.38l-2.38,-2.402l-2.402,2.38Zm9.563,0.044l2.38,2.401l2.402,-2.38l-2.38,-2.401l-2.402,2.38Zm-4.803,4.759l2.38,2.402l2.401,-2.38l-2.379,-2.402l-2.402,2.38Z" style="fill:none;stroke:#c6a687;stroke-width:1px;stroke-linecap:butt;stroke-miterlimit:1.41421;"/><path id="_35" d="M829.007,480.255c0.243,0.246 0.408,0.56 0.473,0.9c0.11,0.576 -0.074,1.169 -0.492,1.58l-4.876,4.799c2.142,1.696 2.628,4.79 1.111,7.061c-0.259,0.39 -0.663,0.66 -1.122,0.751c-1.398,1.184 -3.228,1.738 -4.919,1.238l-15.431,17.844c-1.154,1.34 -3.15,1.606 -4.615,0.617l-12.249,-8.306c-1.463,-0.995 -1.953,-2.95 -1.135,-4.518l10.854,-20.95c-1.09,-1.397 -1.253,-3.291 -0.67,-5.028c-0.086,-0.46 0.015,-0.936 0.282,-1.32c1.627,-2.374 4.912,-3.004 7.303,-1.401c2.168,-3.171 6.55,-4.012 9.737,-1.868l7.255,4.919c2.419,1.64 7.727,3.229 7.727,3.229c0.293,0.083 0.559,0.24 0.773,0.457l-0.006,-0.004l0,0Zm-10.471,-0.781l-7.255,-4.924c-0.767,-0.529 -1.715,-0.729 -2.631,-0.553c-0.915,0.176 -1.722,0.712 -2.239,1.487l2.942,1.995c0.345,0.262 0.583,0.642 0.664,1.068c0.181,0.944 -0.448,1.872 -1.392,2.053c-0.443,0.085 -0.901,-0.004 -1.28,-0.248l-4.124,-2.797c-0.175,-0.08 -0.335,-0.188 -0.474,-0.321l-1.207,-0.818c-0.391,-0.279 -0.878,-0.386 -1.35,-0.295c-0.945,0.181 -1.573,1.107 -1.392,2.052c0.091,0.472 0.371,0.885 0.774,1.145l11.606,7.87c0.796,0.539 1.007,1.639 0.467,2.435l-0.983,1.45c-0.278,0.39 -0.385,0.878 -0.295,1.349c0.182,0.945 1.108,1.574 2.053,1.392c0.471,-0.09 0.885,-0.37 1.145,-0.773l0.983,-1.45c0.539,-0.796 1.639,-1.007 2.435,-0.467l2.902,1.968c0.391,0.278 0.879,0.385 1.35,0.295c0.945,-0.181 1.573,-1.108 1.392,-2.053c-0.091,-0.471 -0.371,-0.885 -0.774,-1.145l-1.13,-0.765c-0.25,-0.097 -0.473,-0.248 -0.655,-0.445l-6.919,-4.691l-0.04,-0.027c-0.344,-0.262 -0.582,-0.642 -0.664,-1.068c-0.181,-0.944 0.448,-1.872 1.392,-2.053c0.443,-0.085 0.902,0.003 1.281,0.248l6.063,4.111l3.279,-3.226c-1.833,-0.639 -4.077,-1.547 -5.924,-2.799Zm-19.994,7.621l0.467,2.435l2.435,-0.467l-0.467,-2.435l-2.435,0.467Zm0.935,4.87l0.467,2.436l2.435,-0.468l-0.467,-2.435l-2.435,0.467Zm-4.871,0.935l0.467,2.435l2.436,-0.467l-0.468,-2.435l-2.435,0.467Zm5.805,3.936l0.467,2.435l2.435,-0.467l-0.467,-2.435l-2.435,0.467Zm-4.87,0.934l0.467,2.435l2.435,-0.467l-0.467,-2.435l-2.435,0.467Zm-4.871,0.934l0.468,2.435l2.435,-0.467l-0.468,-2.435l-2.435,0.467Zm5.805,3.936l0.467,2.435l2.435,-0.467l-0.467,-2.435l-2.435,0.467Zm-4.87,0.935l0.467,2.435l2.435,-0.468l-0.467,-2.435l-2.435,0.468Z" style="fill:none;stroke:#c6a687;stroke-width:1px;stroke-linecap:butt;stroke-miterlimit:1.41421;"/></g></svg>