<?xml version="1.0" encoding="UTF-8" standalone="no"?><!DOCTYPE svg PUBLIC "-//W3C//DTD SVG 1.1//EN" "http://www.w3.org/Graphics/SVG/1.1/DTD/svg11.dtd"><svg width="100%" height="100%" viewBox="0 0 455 609" version="1.1" xmlns="http://www.w3.org/2000/svg" xmlns:xlink="http://www.w3.org/1999/xlink" xml:space="preserve" style="fill-rule:evenodd;clip-rule:evenodd;stroke-linecap:round;stroke-linejoin:round;stroke-miterlimit:1.5;"><g id="product.-3.-dimensions"><g><path d="M312.528,167.163l65.24,0" style="fill:none;stroke:#fff;stroke-width:1.5px;"/><path d="M145.38,159.317l0,-83.946" style="fill:none;stroke:#fff;stroke-width:1.5px;"/><path d="M154.932,158.657l0,-41.973" style="fill:none;stroke:#fff;stroke-width:1.5px;"/><path d="M300.053,74.711l0,83.946" style="fill:none;stroke:#fff;stroke-width:1.5px;"/><path d="M289.964,116.684l0,41.973" style="fill:none;stroke:#fff;stroke-width:1.5px;"/><path d="M312.333,80.285l0.298,0.097l0.272,0.157l0.233,0.21l0.184,0.253l0.127,0.287l0.066,0.306l0,0.314l-0.066,0.307l-0.127,0.286l-0.184,0.254l-0.233,0.21l-0.272,0.157l-0.298,0.096l-0.312,0.033l-180.069,0l-0.311,-0.033l-0.299,-0.096l-0.271,-0.157l-0.233,-0.21l-0.185,-0.254l-0.127,-0.286l-0.065,-0.307l0,-0.314l0.065,-0.306l0.127,-0.287l0.185,-0.253l0.233,-0.21l0.271,-0.157l0.299,-0.097l0.311,-0.033l180.069,0l0.312,0.033Z" style="fill:#fff;"/><path d="M355.438,154.451l0.286,0.127l0.254,0.184l0.21,0.233l0.156,0.272l0.097,0.298l0.033,0.312l0,168.743l-0.033,0.311l-0.097,0.299l-0.156,0.271l-0.21,0.233l-0.254,0.185l-0.286,0.127l-0.307,0.065l-0.314,0l-0.306,-0.065l-0.287,-0.127l-0.254,-0.185l-0.209,-0.233l-0.157,-0.271l-0.097,-0.299l-0.033,-0.311l0,-168.743l0.033,-0.312l0.097,-0.298l0.157,-0.272l0.209,-0.233l0.254,-0.184l0.287,-0.127l0.306,-0.066l0.314,0l0.307,0.066Z" style="fill:#fff;"/><path d="M355.266,408.211l0.282,0.085l0.259,0.139l0.227,0.187l0.187,0.227l0.139,0.259l0.085,0.282l0.029,0.292l0,160.368l-0.029,0.293l-0.085,0.281l-0.139,0.26l-0.187,0.227l-0.227,0.187l-0.259,0.138l-0.282,0.086l-0.292,0.028l-0.293,-0.028l-0.281,-0.086l-0.26,-0.138l-0.227,-0.187l-0.186,-0.227l-0.139,-0.26l-0.085,-0.281l-0.029,-0.293l0,-160.368l0.029,-0.292l0.085,-0.282l0.139,-0.259l0.186,-0.227l0.227,-0.187l0.26,-0.139l0.281,-0.085l0.293,-0.029l0.292,0.029Z" style="fill:#fff;"/><g transform="matrix(2.62547,0,0,2.62547,-69412.8,-53176.9)"><text x="26551.8px" y="20394.6px" style="font-family:'BradleyHandITC', 'Bradley Hand ITC', cursive;font-size:12.95px;fill:none;">127mm</text><text x="26551.8px" y="20394.6px" style="font-family:'BradleyHandITC', 'Bradley Hand ITC', cursive;font-size:12.95px;fill:none;stroke:#fff;stroke-width:0.38px;stroke-linecap:butt;stroke-miterlimit:1.41421;">127mm</text></g><g transform="matrix(2.62547,0,0,2.62547,-69536.7,-53422.2)"><text x="26551.8px" y="20394.6px" style="font-family:'BradleyHandITC', 'Bradley Hand ITC', cursive;font-size:12.95px;fill:none;">44mm</text><text x="26551.8px" y="20394.6px" style="font-family:'BradleyHandITC', 'Bradley Hand ITC', cursive;font-size:12.95px;fill:none;stroke:#fff;stroke-width:0.38px;stroke-linecap:butt;stroke-miterlimit:1.41421;">44mm</text></g><g transform="matrix(2.62547,0,0,2.62547,-69547.5,-53480.2)"><text x="26551.8px" y="20394.6px" style="font-family:'BradleyHandITC', 'Bradley Hand ITC', cursive;font-size:12.95px;fill:none;">50,5mm</text><text x="26551.8px" y="20394.6px" style="font-family:'BradleyHandITC', 'Bradley Hand ITC', cursive;font-size:12.95px;fill:none;stroke:#fff;stroke-width:0.38px;stroke-linecap:butt;stroke-miterlimit:1.41421;">50,5mm</text></g><path d="M155.929,206.094c8.71,58.18 42.121,284.098 51.168,342.434c0.419,2.699 1.593,5.747 3.113,7.579c1.471,1.772 3.835,3.556 6.009,3.409c2.174,-0.147 5.497,-2.157 7.036,-4.289c1.538,-2.131 1.664,-5.623 2.198,-8.5c10.94,-58.949 52.46,-286.954 63.442,-345.19c0.302,-1.601 2.04,-2.965 2.448,-4.228c0.344,-1.062 -0.111,-2.27 0,-3.35c0.11,-1.06 0.461,-2.081 0.67,-3.127c0.242,-1.209 0.056,-2.996 0.782,-4.131c0.726,-1.136 2.746,-1.75 3.573,-2.68c0.714,-0.802 1.313,-1.833 1.393,-2.904c0.232,-3.099 5.039,-14.29 0,-15.693c-11.695,-3.255 -46.745,-3.537 -70.167,-3.838c-24.896,-0.32 -65.547,-0.524 -79.213,1.919c-4.279,0.765 -2.698,9.509 -2.786,12.737c-0.063,2.334 1.333,4.827 2.262,6.63c0.816,1.583 2.608,2.554 3.315,4.188c0.844,1.948 1.134,5.438 1.745,7.502c0.496,1.678 1.477,3.193 1.919,4.886c0.502,1.922 0.76,4.426 1.093,6.646Z" style="fill:none;stroke:#fff;stroke-width:3px;"/><path d="M162.746,203.351c7.821,54.61 37.822,266.666 45.945,321.422c0.376,2.533 1.431,5.395 2.796,7.114c1.321,1.663 3.443,3.337 5.396,3.2c1.952,-0.138 4.935,-2.025 6.317,-4.026c1.381,-2 1.494,-5.278 1.974,-7.979c9.823,-55.331 47.106,-269.346 56.966,-324.008c0.271,-1.502 1.832,-2.783 2.199,-3.969c0.308,-0.997 -0.1,-2.131 0,-3.144c0.098,-0.995 0.414,-1.954 0.601,-2.935c0.218,-1.135 0.051,-2.812 0.702,-3.878c0.652,-1.066 2.466,-1.642 3.209,-2.515c0.64,-0.753 1.178,-1.721 1.25,-2.726c0.209,-2.909 4.525,-13.413 0,-14.73c-10.501,-3.055 -41.973,-3.32 -63.004,-3.603c-22.356,-0.3 -58.858,-0.491 -71.129,1.802c-3.842,0.717 -2.423,8.925 -2.501,11.955c-0.057,2.191 1.196,4.531 2.031,6.223c0.732,1.486 2.342,2.397 2.977,3.931c0.757,1.829 1.018,5.104 1.566,7.042c0.446,1.575 1.327,2.997 1.724,4.586c0.45,1.804 0.682,4.154 0.981,6.238Z" style="fill:none;stroke:#fff;stroke-width:1px;stroke-dasharray:10,10,0,0;"/></g><path d="M231.82,559.524l140.928,0" style="fill:none;stroke:#fff;stroke-width:1.5px;"/></g></svg>