<?xml version="1.0" encoding="UTF-8" standalone="no"?><!DOCTYPE svg PUBLIC "-//W3C//DTD SVG 1.1//EN" "http://www.w3.org/Graphics/SVG/1.1/DTD/svg11.dtd"><svg width="100%" height="100%" viewBox="0 0 455 609" version="1.1" xmlns="http://www.w3.org/2000/svg" xmlns:xlink="http://www.w3.org/1999/xlink" xml:space="preserve" style="fill-rule:evenodd;clip-rule:evenodd;stroke-linecap:round;stroke-linejoin:round;stroke-miterlimit:1.5;"><g id="product.-2.-dimensions"><g><path d="M318.658,162.348l65.24,0" style="fill:none;stroke:#fff;stroke-width:1.5px;"/><path d="M151.51,154.502l0,-83.946" style="fill:none;stroke:#fff;stroke-width:1.5px;"/><path d="M161.062,153.842l0,-41.973" style="fill:none;stroke:#fff;stroke-width:1.5px;"/><path d="M306.183,69.896l0,83.946" style="fill:none;stroke:#fff;stroke-width:1.5px;"/><path d="M296.094,111.869l0,41.973" style="fill:none;stroke:#fff;stroke-width:1.5px;"/><path d="M318.463,75.47l0.298,0.097l0.271,0.157l0.233,0.21l0.185,0.253l0.127,0.287l0.065,0.306l0,0.314l-0.065,0.307l-0.127,0.286l-0.185,0.254l-0.233,0.21l-0.271,0.157l-0.298,0.097l-0.312,0.032l-180.069,0l-0.312,-0.032l-0.298,-0.097l-0.271,-0.157l-0.233,-0.21l-0.185,-0.254l-0.127,-0.286l-0.065,-0.307l0,-0.314l0.065,-0.306l0.127,-0.287l0.185,-0.253l0.233,-0.21l0.271,-0.157l0.298,-0.097l0.312,-0.033l180.069,0l0.312,0.033Z" style="fill:#fff;"/><path d="M361.568,149.636l0.286,0.127l0.254,0.185l0.21,0.233l0.156,0.271l0.097,0.298l0.033,0.312l0,168.743l-0.033,0.312l-0.097,0.298l-0.156,0.271l-0.21,0.233l-0.254,0.185l-0.286,0.127l-0.307,0.065l-0.314,0l-0.307,-0.065l-0.286,-0.127l-0.254,-0.185l-0.21,-0.233l-0.156,-0.271l-0.097,-0.298l-0.033,-0.312l0,-168.743l0.033,-0.312l0.097,-0.298l0.156,-0.271l0.21,-0.233l0.254,-0.185l0.286,-0.127l0.307,-0.065l0.314,0l0.307,0.065Z" style="fill:#fff;"/><path d="M361.397,403.396l0.281,0.086l0.259,0.138l0.228,0.187l0.186,0.227l0.139,0.259l0.085,0.282l0.029,0.292l0,160.369l-0.029,0.292l-0.085,0.282l-0.139,0.259l-0.186,0.227l-0.228,0.187l-0.259,0.138l-0.281,0.086l-0.293,0.029l-0.293,-0.029l-0.281,-0.086l-0.259,-0.138l-0.228,-0.187l-0.186,-0.227l-0.139,-0.259l-0.085,-0.282l-0.029,-0.292l0,-160.369l0.029,-0.292l0.085,-0.282l0.139,-0.259l0.186,-0.227l0.228,-0.187l0.259,-0.138l0.281,-0.086l0.293,-0.029l0.293,0.029Z" style="fill:#fff;"/><g transform="matrix(2.62547,0,0,2.62547,-69406.7,-53181.7)"><text x="26551.8px" y="20394.6px" style="font-family:'BradleyHandITC', 'Bradley Hand ITC', cursive;font-size:12.95px;fill:none;">133mm</text><text x="26551.8px" y="20394.6px" style="font-family:'BradleyHandITC', 'Bradley Hand ITC', cursive;font-size:12.95px;fill:none;stroke:#fff;stroke-width:0.38px;stroke-linecap:butt;stroke-miterlimit:1.41421;">133mm</text></g><g transform="matrix(2.62547,0,0,2.62547,-69530.6,-53427.1)"><text x="26551.8px" y="20394.6px" style="font-family:'BradleyHandITC', 'Bradley Hand ITC', cursive;font-size:12.95px;fill:none;">37mm</text><text x="26551.8px" y="20394.6px" style="font-family:'BradleyHandITC', 'Bradley Hand ITC', cursive;font-size:12.95px;fill:none;stroke:#fff;stroke-width:0.38px;stroke-linecap:butt;stroke-miterlimit:1.41421;">37mm</text></g><g transform="matrix(2.62547,0,0,2.62547,-69526.7,-53485)"><text x="26551.8px" y="20394.6px" style="font-family:'BradleyHandITC', 'Bradley Hand ITC', cursive;font-size:12.95px;fill:none;">50mm</text><text x="26551.8px" y="20394.6px" style="font-family:'BradleyHandITC', 'Bradley Hand ITC', cursive;font-size:12.95px;fill:none;stroke:#fff;stroke-width:0.38px;stroke-linecap:butt;stroke-miterlimit:1.41421;">50mm</text></g><path d="M162.059,201.279c8.71,58.18 42.121,284.099 51.168,342.434c0.419,2.699 1.593,5.748 3.113,7.579c1.471,1.772 3.836,3.556 6.01,3.409c2.174,-0.146 5.496,-2.157 7.035,-4.288c1.538,-2.132 1.664,-5.623 2.198,-8.501c10.94,-58.949 52.46,-286.954 63.442,-345.19c0.302,-1.6 2.04,-2.965 2.448,-4.228c0.344,-1.062 -0.111,-2.27 0,-3.35c0.11,-1.06 0.461,-2.081 0.67,-3.126c0.242,-1.21 0.056,-2.997 0.782,-4.132c0.726,-1.135 2.746,-1.75 3.573,-2.68c0.714,-0.802 1.313,-1.833 1.393,-2.903c0.232,-3.1 5.039,-14.291 0,-15.694c-11.695,-3.255 -46.745,-3.537 -70.166,-3.838c-24.897,-0.32 -65.548,-0.524 -79.214,1.919c-4.279,0.765 -2.698,9.509 -2.785,12.737c-0.064,2.334 1.332,4.827 2.261,6.63c0.816,1.583 2.608,2.554 3.315,4.188c0.844,1.948 1.134,5.438 1.745,7.502c0.496,1.678 1.477,3.193 1.919,4.886c0.502,1.922 0.76,4.426 1.093,6.646Z" style="fill:none;stroke:#fff;stroke-width:3px;"/><path d="M168.876,198.536c7.821,54.61 37.822,266.666 45.945,321.422c0.376,2.533 1.431,5.395 2.796,7.114c1.321,1.663 3.444,3.337 5.396,3.2c1.952,-0.138 4.935,-2.025 6.317,-4.026c1.382,-2 1.494,-5.278 1.974,-7.979c9.823,-55.331 47.106,-269.345 56.967,-324.008c0.271,-1.502 1.831,-2.783 2.198,-3.968c0.308,-0.998 -0.1,-2.132 0,-3.145c0.098,-0.995 0.414,-1.954 0.601,-2.935c0.218,-1.135 0.051,-2.812 0.702,-3.878c0.652,-1.065 2.466,-1.642 3.209,-2.515c0.64,-0.753 1.178,-1.721 1.25,-2.726c0.209,-2.909 4.525,-13.413 0,-14.73c-10.501,-3.055 -41.973,-3.32 -63.004,-3.603c-22.356,-0.3 -58.857,-0.491 -71.129,1.802c-3.842,0.717 -2.423,8.925 -2.501,11.955c-0.057,2.191 1.196,4.531 2.031,6.224c0.732,1.485 2.342,2.397 2.977,3.93c0.757,1.829 1.018,5.104 1.566,7.042c0.446,1.575 1.327,2.997 1.724,4.586c0.45,1.804 0.682,4.154 0.981,6.238Z" style="fill:none;stroke:#fff;stroke-width:1px;stroke-dasharray:10,10,0,0;"/></g><path d="M237.95,554.71l140.928,0" style="fill:none;stroke:#fff;stroke-width:1.5px;"/></g></svg>