<?xml version="1.0" encoding="UTF-8" standalone="no"?><!DOCTYPE svg PUBLIC "-//W3C//DTD SVG 1.1//EN" "http://www.w3.org/Graphics/SVG/1.1/DTD/svg11.dtd"><svg width="100%" height="100%" viewBox="0 0 455 609" version="1.1" xmlns="http://www.w3.org/2000/svg" xmlns:xlink="http://www.w3.org/1999/xlink" xml:space="preserve" style="fill-rule:evenodd;clip-rule:evenodd;stroke-linecap:round;stroke-linejoin:round;stroke-miterlimit:1.5;"><g id="product.-5.-dimensions"><path d="M319.967,145.505l65.24,0" style="fill:none;stroke:#fff;stroke-width:1.5px;"/><path d="M132.819,140.659l0,-76.37" style="fill:none;stroke:#fff;stroke-width:1.5px;"/><path d="M321.492,64.289l0,73.71" style="fill:none;stroke:#fff;stroke-width:1.5px;"/><path d="M331.708,69.946l0.317,0.111l0.285,0.179l0.237,0.238l0.179,0.284l0.111,0.317l0.037,0.334l-0.037,0.334l-0.111,0.317l-0.179,0.284l-0.237,0.238l-0.285,0.178l-0.317,0.111l-0.334,0.038l-206.64,0l-0.334,-0.038l-0.317,-0.111l-0.284,-0.178l-0.238,-0.238l-0.179,-0.284l-0.111,-0.317l-0.037,-0.334l0.037,-0.334l0.111,-0.317l0.179,-0.284l0.238,-0.238l0.284,-0.179l0.317,-0.111l0.334,-0.037l206.64,0l0.334,0.037Z" style="fill:#fff;"/><path d="M362.876,135.793l0.287,0.127l0.254,0.184l0.209,0.234l0.157,0.271l0.097,0.298l0.033,0.312l0,168.743l-0.033,0.311l-0.097,0.299l-0.157,0.271l-0.209,0.233l-0.254,0.185l-0.287,0.127l-0.306,0.065l-0.314,0l-0.307,-0.065l-0.286,-0.127l-0.254,-0.185l-0.21,-0.233l-0.156,-0.271l-0.097,-0.299l-0.033,-0.311l0,-168.743l0.033,-0.312l0.097,-0.298l0.156,-0.271l0.21,-0.234l0.254,-0.184l0.286,-0.127l0.307,-0.066l0.314,0l0.306,0.066Z" style="fill:#fff;"/><path d="M362.705,392.553l0.282,0.086l0.259,0.138l0.228,0.187l0.186,0.227l0.139,0.259l0.085,0.282l0.029,0.293l0,160.368l-0.029,0.292l-0.085,0.282l-0.139,0.259l-0.186,0.227l-0.228,0.187l-0.259,0.139l-0.282,0.085l-0.292,0.029l-0.293,-0.029l-0.281,-0.085l-0.26,-0.139l-0.227,-0.187l-0.186,-0.227l-0.139,-0.259l-0.085,-0.282l-0.029,-0.292l0,-160.368l0.029,-0.293l0.085,-0.282l0.139,-0.259l0.186,-0.227l0.227,-0.187l0.26,-0.138l0.281,-0.086l0.293,-0.028l0.292,0.028Z" style="fill:#fff;"/><g transform="matrix(2.62547,0,0,2.62547,-69405.4,-53192.6)"><text x="26551.8px" y="20394.6px" style="font-family:'BradleyHandITC', 'Bradley Hand ITC', cursive;font-size:12.95px;fill:none;">160mm</text><text x="26551.8px" y="20394.6px" style="font-family:'BradleyHandITC', 'Bradley Hand ITC', cursive;font-size:12.95px;fill:none;stroke:#fff;stroke-width:0.38px;stroke-linecap:butt;stroke-miterlimit:1.41421;">160mm</text></g><g transform="matrix(2.62547,0,0,2.62547,-69531.3,-53487.8)"><text x="26551.8px" y="20394.6px" style="font-family:'BradleyHandITC', 'Bradley Hand ITC', cursive;font-size:12.95px;fill:none;">70mm</text><text x="26551.8px" y="20394.6px" style="font-family:'BradleyHandITC', 'Bradley Hand ITC', cursive;font-size:12.95px;fill:none;stroke:#fff;stroke-width:0.38px;stroke-linecap:butt;stroke-miterlimit:1.41421;">70mm</text></g><path d="M239.258,543.866l140.929,0" style="fill:none;stroke:#fff;stroke-width:1.5px;"/><path d="M134.165,157.602c13.076,64.625 67.111,312.527 81.834,377.117c0.909,3.991 4.242,10.428 6.5,10.419c2.258,-0.008 5.993,-6.397 7.049,-10.47c16.385,-63.191 76.052,-304.885 91.263,-368.678c1.088,-4.565 2.385,-10.604 0,-14.08c-2.385,-3.475 -9.038,-6.56 -14.311,-6.772c-28.184,-1.128 -126.63,-0.304 -154.789,0c-4.761,0.052 -11.242,-0.25 -14.166,1.827c-2.924,2.077 -4.117,6.99 -3.38,10.637Z" style="fill:none;stroke:#fff;stroke-width:3px;"/><path d="M163.853,297.23c6.537,-13.017 19.612,-39.051 33.829,-53.875c14.217,-14.824 34.702,-24.493 51.475,-35.067c16.007,-10.09 38.386,-21.777 49.165,-28.377c5.442,-3.331 11.761,-8.898 15.509,-11.219c2.121,-1.313 5.36,-2.239 6.98,-2.702" style="fill:none;stroke:#fff;stroke-width:2px;"/><path d="M242.332,212.449c-15.479,-7.017 -46.437,-21.051 -62.406,-28.794c-11.335,-5.496 -25.782,-12.562 -33.409,-17.665c-4.959,-3.318 -9.887,-9.743 -12.352,-12.955" style="fill:none;stroke:#fff;stroke-width:2px;"/></g></svg>