<?xml version="1.0" encoding="UTF-8" standalone="no"?><!DOCTYPE svg PUBLIC "-//W3C//DTD SVG 1.1//EN" "http://www.w3.org/Graphics/SVG/1.1/DTD/svg11.dtd"><svg width="100%" height="100%" viewBox="0 0 455 609" version="1.1" xmlns="http://www.w3.org/2000/svg" xmlns:xlink="http://www.w3.org/1999/xlink" xml:space="preserve" style="fill-rule:evenodd;clip-rule:evenodd;stroke-linecap:round;stroke-miterlimit:7;"><g id="product.-1.-dimensions"><path d="M278.458,139.667l1.251,0.002l1.231,0.002l1.211,0.003l1.19,0.004l1.168,0.005l1.146,0.005l1.123,0.007l1.101,0.007l1.077,0.008l1.053,0.009l1.029,0.01l1.003,0.011l0.979,0.012l0.952,0.013l0.926,0.014l0.899,0.015l0.872,0.016l0.844,0.017l0.815,0.018l0.787,0.02l0.758,0.02l0.727,0.022l0.698,0.022l0.668,0.024l0.641,0.026l0.072,0.003l0.077,0.005l0.077,0.007l0.077,0.008l0.076,0.009l0.076,0.011l0.077,0.013l0.077,0.014l0.075,0.016l0.076,0.017l0.075,0.02l0.074,0.02l0.075,0.024l0.076,0.025l0.075,0.028l0.072,0.028l0.072,0.031l0.076,0.035l0.075,0.037l0.068,0.036l0.072,0.041l0.07,0.043l0.066,0.043l0.07,0.049l0.065,0.049l0.064,0.051l0.065,0.056l0.061,0.056l0.059,0.058l0.058,0.06l0.055,0.061l0.053,0.063l0.048,0.061l0.05,0.066l0.05,0.073l0.041,0.064l0.039,0.065l0.04,0.071l0.038,0.072l0.035,0.073l0.03,0.068l0.029,0.068l0.029,0.075l0.026,0.074l0.022,0.069l0.02,0.07l0.019,0.069l0.017,0.069l0.015,0.07l0.014,0.069l0.013,0.075l0.01,0.069l0.008,0.064l0.008,0.069l0.006,0.074l0.005,0.074l0.006,0.123l0.001,0.135l-0.003,0.131l-0.007,0.131l-0.01,0.131l-0.014,0.127l-0.016,0.129l-0.02,0.129l-0.022,0.128l-0.025,0.128l-0.027,0.127l-0.029,0.127l-0.032,0.128l-0.033,0.125l-0.036,0.128l-0.038,0.129l-0.039,0.128l-0.041,0.129l-0.043,0.129l-0.045,0.129l-0.046,0.13l-0.047,0.13l-0.049,0.129l-0.05,0.132l-0.053,0.133l-0.052,0.131l-0.054,0.132l-0.056,0.133l-0.056,0.134l-0.059,0.136l-0.117,0.266l-0.122,0.271l-0.125,0.272l-0.128,0.273l-0.131,0.274l-0.132,0.275l-0.135,0.275l-0.134,0.274l-0.136,0.275l-0.272,0.548l-0.271,0.544l-0.133,0.269l-0.131,0.267l-0.129,0.265l-0.126,0.261l-0.124,0.259l-0.119,0.254l-0.115,0.25l-0.11,0.246l-0.107,0.243l-0.05,0.116l-0.05,0.116l-0.048,0.115l-0.046,0.114l-0.045,0.112l-0.043,0.109l-0.041,0.108l-0.04,0.107l-0.038,0.102l-0.036,0.103l-0.034,0.1l-0.032,0.096l-0.031,0.097l-0.028,0.09l-0.025,0.089l-0.025,0.088l-0.022,0.084l-0.019,0.079l-0.018,0.077l-0.016,0.075l-0.013,0.069l-0.011,0.064l-0.009,0.063l-0.007,0.059l-0.005,0.051l-0.004,0.054l-0.007,0.126l-0.006,0.133l-0.004,0.133l-0.004,0.135l-0.002,0.133l0,0.134l0,0.134l0.002,0.134l0.003,0.135l0.005,0.135l0.005,0.136l0.007,0.135l0.008,0.135l0.009,0.137l0.01,0.136l0.012,0.137l0.012,0.136l0.014,0.136l0.015,0.137l0.016,0.137l0.017,0.136l0.018,0.139l0.019,0.136l0.02,0.137l0.022,0.139l0.022,0.136l0.023,0.137l0.024,0.139l0.025,0.137l0.027,0.137l0.027,0.139l0.028,0.137l0.029,0.138l0.03,0.137l0.03,0.137l0.032,0.137l0.032,0.137l0.034,0.137l0.034,0.137l0.035,0.138l0.036,0.137l0.036,0.136l0.037,0.137l0.038,0.136l0.039,0.136l0.04,0.136l0.04,0.135l0.04,0.135l0.085,0.271l0.086,0.27l0.089,0.268l0.091,0.267l0.093,0.265l0.095,0.265l0.098,0.262l0.102,0.269l0.072,0.194l0.074,0.205l0.071,0.208l0.07,0.213l0.067,0.214l0.066,0.218l0.064,0.222l0.061,0.223l0.06,0.228l0.058,0.23l0.056,0.233l0.054,0.237l0.053,0.24l0.05,0.242l0.049,0.245l0.047,0.248l0.045,0.251l0.044,0.254l0.042,0.255l0.04,0.259l0.038,0.262l0.037,0.264l0.035,0.267l0.034,0.271l0.031,0.271l0.03,0.275l0.028,0.277l0.027,0.279l0.025,0.282l0.023,0.285l0.021,0.285l0.02,0.289l0.018,0.291l0.017,0.292l0.015,0.295l0.013,0.298l0.012,0.299l0.01,0.3l0.008,0.303l0.007,0.306l0.005,0.306l0.003,0.308l0.002,0.311l0,0.312l-0.002,0.313l-0.003,0.315l-0.005,0.317l-0.006,0.318l-0.009,0.32l-0.009,0.321l-0.012,0.322l-0.013,0.324l-0.015,0.325l-0.016,0.326l-0.018,0.328l-0.02,0.328l-0.021,0.331l-0.023,0.33l-0.025,0.331l-0.026,0.333l-0.028,0.334l-0.03,0.335l-0.031,0.334l-0.033,0.337l-0.035,0.336l-0.036,0.338l-0.038,0.338l-0.039,0.338l-0.042,0.339l-0.043,0.34l-0.044,0.34l-0.047,0.34l-0.047,0.34l-0.05,0.342l-0.052,0.341l-0.052,0.34l-0.055,0.342l-0.057,0.342l-0.057,0.341l-0.06,0.341l-0.061,0.342l-0.064,0.342l-0.065,0.341l-0.066,0.34l-0.068,0.341l-0.07,0.341l-0.071,0.339l-0.074,0.34l-0.075,0.34l-0.076,0.338l-0.079,0.339l-0.08,0.337l-0.082,0.337l-0.083,0.336l-0.085,0.336l-0.087,0.335l-0.089,0.333l-0.091,0.333l-0.092,0.332l-0.094,0.331l-0.095,0.33l-0.098,0.329l-0.099,0.329l-0.101,0.326l-0.103,0.325l-0.104,0.324l-0.106,0.323l-0.108,0.322l-0.11,0.32l-0.112,0.318l-0.113,0.318l-0.115,0.316l-0.117,0.313l-0.119,0.313l-0.12,0.31l-0.123,0.31l-0.124,0.306l-0.126,0.305l-0.127,0.304l-0.131,0.302l-0.131,0.299l-0.133,0.297l-0.135,0.296l-0.138,0.293l-0.139,0.291l-0.14,0.289l-0.143,0.286l-0.144,0.283l-0.142,0.275l-0.143,0.272l-0.145,0.274l-0.147,0.274l-0.149,0.276l-0.151,0.275l-0.153,0.277l-0.155,0.277l-0.157,0.278l-0.159,0.278l-0.16,0.278l-0.162,0.28l-0.163,0.279l-0.165,0.281l-0.168,0.281l-0.168,0.28l-0.17,0.281l-0.171,0.282l-0.173,0.282l-0.174,0.282l-0.176,0.283l-0.177,0.283l-0.178,0.283l-0.18,0.283l-0.18,0.283l-0.182,0.284l-0.183,0.284l-0.184,0.284l-0.185,0.283l-0.186,0.283l-0.188,0.285l-0.188,0.283l-0.188,0.283l-0.191,0.285l-0.382,0.566l-0.385,0.566l-0.388,0.565l-0.39,0.564l-0.393,0.562l-0.393,0.561l-0.396,0.559l-0.397,0.557l-0.397,0.554l-0.398,0.552l-0.398,0.549l-0.398,0.546l-0.398,0.543l-0.397,0.539l-0.395,0.535l-0.394,0.532l-0.393,0.527l-0.391,0.523l-0.389,0.518l-0.385,0.513l-0.383,0.509l-0.755,0.999l-0.741,0.976l-0.722,0.95l-0.701,0.922l-0.678,0.893l-0.652,0.862l-0.315,0.418l-0.308,0.409l-0.301,0.401l-0.292,0.391l-0.284,0.382l-0.275,0.372l-0.266,0.362l-0.256,0.351l-0.247,0.342l-0.236,0.329l-0.226,0.319l-0.215,0.307l-0.203,0.294l-0.197,0.29l-0.114,0.166l-0.12,0.171l-0.121,0.169l-0.123,0.167l-0.122,0.164l-0.122,0.163l-0.24,0.318l-0.238,0.315l-0.115,0.154l-0.113,0.152l-0.11,0.151l-0.106,0.15l-0.103,0.147l-0.101,0.148l-0.046,0.07l-0.047,0.073l-0.046,0.071l-0.044,0.07l-0.043,0.071l-0.042,0.069l-0.04,0.068l-0.04,0.07l-0.038,0.068l-0.035,0.065l-0.035,0.068l-0.034,0.066l-0.032,0.066l-0.031,0.064l-0.028,0.064l-0.028,0.063l-0.025,0.06l-0.025,0.063l-0.023,0.062l-0.02,0.057l-0.02,0.061l-0.019,0.059l-0.016,0.055l-0.015,0.057l-0.014,0.056l-0.012,0.055l-0.01,0.055l-0.01,0.054l-0.007,0.053l-0.006,0.05l-0.006,0.053l-0.003,0.054l-0.001,0.006l0,0.007l0,0.007l0.001,0.012l0,0.013l0.001,0.013l0.002,0.014l0.001,0.01l0.002,0.015l0.003,0.02l0.004,0.022l0.004,0.016l0.004,0.022l0.006,0.023l0.006,0.023l0.006,0.024l0.007,0.023l0.007,0.024l0.021,0.061l0.022,0.06l0.025,0.065l0.027,0.065l0.031,0.071l0.034,0.073l0.037,0.076l0.04,0.079l0.042,0.081l0.045,0.083l0.048,0.085l0.051,0.09l0.051,0.089l0.054,0.09l0.055,0.092l0.117,0.193l0.123,0.197l0.126,0.203l0.129,0.209l0.129,0.211l0.067,0.111l0.066,0.111l0.064,0.111l0.064,0.112l0.065,0.116l0.064,0.118l0.063,0.118l0.06,0.119l0.06,0.122l0.06,0.125l0.056,0.126l0.056,0.13l0.051,0.13l0.05,0.133l0.048,0.137l0.042,0.134l0.023,0.078l0.019,0.069l0.019,0.073l0.018,0.076l0.016,0.07l0.015,0.074l0.014,0.077l0.014,0.079l0.011,0.079l0.01,0.075l0.008,0.079l0.007,0.079l0.005,0.08l0.004,0.084l0.001,0.08l0,0.085l-0.002,0.084l-0.004,0.085l-0.007,0.084l-0.009,0.085l-0.01,0.084l-0.013,0.083l-0.017,0.093l-0.017,0.082l-0.02,0.083l-0.024,0.091l-0.026,0.088l-0.028,0.086l-0.033,0.09l-0.038,0.095l-0.04,0.09l-0.042,0.087l-0.045,0.087l-0.048,0.085l-0.048,0.081l-0.051,0.078l-0.052,0.077l-0.053,0.074l-0.054,0.071l-0.056,0.069l-0.058,0.069l-0.058,0.066l-0.057,0.062l-0.058,0.061l-0.061,0.061l-0.062,0.061l-0.062,0.057l-0.059,0.054l-0.062,0.054l-0.065,0.055l-0.063,0.052l-0.063,0.049l-0.064,0.05l-0.068,0.052l-0.125,0.092l-0.132,0.091l-0.131,0.089l-0.134,0.086l-0.134,0.083l-0.135,0.082l-0.134,0.079l-0.136,0.079l-0.137,0.077l-0.137,0.076l-0.138,0.075l-0.271,0.146l-0.271,0.144l-0.268,0.142l-0.264,0.141l-0.129,0.07l-0.128,0.07l-0.124,0.07l-0.124,0.07l-0.12,0.069l-0.118,0.07l-0.115,0.069l-0.111,0.07l-0.108,0.069l-0.103,0.069l-0.101,0.069l-0.095,0.068l-0.095,0.071l-0.041,0.031l-0.041,0.033l-0.042,0.033l-0.041,0.034l-0.04,0.034l-0.037,0.032l-0.034,0.031l-0.036,0.033l-0.035,0.033l-0.032,0.031l-0.032,0.032l-0.028,0.029l-0.029,0.031l-0.028,0.032l-0.023,0.026l-0.025,0.03l-0.023,0.029l-0.021,0.028l-0.02,0.027l-0.019,0.027l-0.019,0.027l-0.017,0.026l-0.014,0.024l-0.014,0.023l-0.014,0.026l-0.012,0.023l-0.011,0.023l-0.01,0.023l-0.009,0.021l-0.008,0.021l-0.009,0.024l-0.007,0.021l-0.005,0.019l-0.007,0.025l-0.005,0.02l-0.004,0.021l-0.005,0.025l-0.005,0.031l-0.154,1.127l-0.161,1.187l-0.164,1.235l-0.169,1.282l-0.173,1.328l-0.177,1.374l-0.181,1.418l-0.185,1.463l-0.19,1.505l-0.192,1.548l-0.197,1.59l-0.2,1.631l-0.204,1.67l-0.208,1.71l-0.211,1.749l-0.214,1.786l-0.218,1.824l-0.222,1.859l-0.224,1.895l-0.227,1.93l-0.231,1.964l-0.234,1.998l-0.237,2.029l-0.239,2.062l-0.488,4.215l-0.499,4.333l-0.509,4.444l-0.519,4.55l-0.528,4.65l-0.537,4.743l-0.545,4.831l-0.554,4.912l-0.56,4.987l-0.567,5.056l-1.152,10.296l-1.174,10.501l-1.189,10.655l-1.202,10.763l-1.21,10.821l-0.607,5.417l-0.608,5.414l-0.607,5.404l-0.607,5.388l-0.606,5.367l-0.604,5.339l-0.603,5.305l-0.599,5.265l-0.597,5.218l-0.593,5.167l-0.588,5.109l-0.584,5.044l-0.29,2.497l-0.289,2.478l-0.288,2.459l-0.286,2.439l-0.284,2.418l-0.283,2.397l-0.281,2.375l-0.279,2.352l-0.277,2.329l-0.276,2.304l-0.273,2.279l-0.272,2.253l-0.269,2.227l-0.268,2.199l-0.265,2.171l-0.263,2.142l-0.261,2.112l-0.258,2.082l-0.255,2.051l-0.254,2.018l-0.25,1.986l-0.248,1.953l-0.245,1.919l-0.243,1.883l-0.24,1.848l-0.236,1.811l-0.234,1.775l-0.231,1.736l-0.227,1.698l-0.225,1.658l-0.221,1.617l-0.218,1.577l-0.215,1.536l-0.211,1.493l-0.208,1.449l-0.204,1.406l-0.2,1.361l-0.099,0.664l-0.099,0.652l-0.097,0.641l-0.096,0.629l-0.095,0.617l-0.095,0.609l-0.038,0.24l-0.042,0.244l-0.044,0.245l-0.047,0.247l-0.049,0.248l-0.052,0.25l-0.054,0.252l-0.056,0.252l-0.059,0.254l-0.061,0.255l-0.064,0.256l-0.065,0.258l-0.068,0.259l-0.07,0.259l-0.071,0.26l-0.075,0.263l-0.076,0.263l-0.078,0.262l-0.08,0.265l-0.083,0.265l-0.084,0.266l-0.086,0.266l-0.088,0.267l-0.089,0.268l-0.092,0.267l-0.093,0.269l-0.096,0.27l-0.097,0.269l-0.098,0.269l-0.1,0.27l-0.102,0.27l-0.103,0.271l-0.106,0.27l-0.106,0.27l-0.108,0.271l-0.11,0.27l-0.111,0.27l-0.112,0.269l-0.114,0.271l-0.115,0.27l-0.117,0.268l-0.117,0.269l-0.12,0.269l-0.12,0.267l-0.121,0.267l-0.123,0.267l-0.125,0.267l-0.124,0.264l-0.126,0.264l-0.128,0.265l-0.128,0.263l-0.129,0.261l-0.131,0.261l-0.131,0.26l-0.132,0.258l-0.133,0.258l-0.134,0.256l-0.134,0.255l-0.136,0.255l-0.136,0.251l-0.138,0.251l-0.138,0.25l-0.138,0.248l-0.139,0.246l-0.14,0.245l-0.141,0.243l-0.141,0.241l-0.142,0.239l-0.141,0.238l-0.143,0.236l-0.143,0.233l-0.144,0.232l-0.144,0.229l-0.145,0.228l-0.145,0.225l-0.145,0.223l-0.145,0.22l-0.147,0.219l-0.146,0.216l-0.146,0.213l-0.147,0.211l-0.147,0.208l-0.147,0.206l-0.148,0.204l-0.147,0.2l-0.148,0.198l-0.148,0.195l-0.148,0.192l-0.148,0.189l-0.148,0.186l-0.149,0.184l-0.148,0.179l-0.148,0.178l-0.149,0.174l-0.149,0.171l-0.148,0.167l-0.149,0.164l-0.149,0.161l-0.149,0.158l-0.148,0.153l-0.15,0.152l-0.15,0.148l-0.148,0.142l-0.149,0.14l-0.151,0.137l-0.149,0.133l-0.152,0.13l-0.15,0.124l-0.15,0.121l-0.149,0.115l-0.079,0.06l-0.077,0.057l-0.076,0.055l-0.077,0.054l-0.075,0.053l-0.077,0.052l-0.078,0.052l-0.076,0.049l-0.077,0.049l-0.079,0.048l-0.079,0.048l-0.078,0.045l-0.079,0.045l-0.078,0.043l-0.079,0.042l-0.08,0.041l-0.08,0.04l-0.081,0.038l-0.082,0.038l-0.082,0.036l-0.079,0.034l-0.082,0.033l-0.085,0.033l-0.085,0.031l-0.082,0.028l-0.084,0.028l-0.086,0.026l-0.086,0.024l-0.087,0.023l-0.087,0.021l-0.087,0.019l-0.088,0.018l-0.089,0.015l-0.09,0.014l-0.091,0.011l-0.092,0.01l-0.129,0.01l-0.133,0.006l-0.133,0.001l-0.133,-0.003l-0.132,-0.008l-0.13,-0.011l-0.13,-0.016l-0.129,-0.019l-0.128,-0.023l-0.128,-0.028l-0.124,-0.03l-0.125,-0.034l-0.123,-0.038l-0.121,-0.041l-0.121,-0.044l-0.119,-0.047l-0.118,-0.051l-0.115,-0.052l-0.115,-0.056l-0.113,-0.058l-0.112,-0.061l-0.111,-0.063l-0.108,-0.066l-0.108,-0.067l-0.106,-0.07l-0.107,-0.073l-0.104,-0.074l-0.103,-0.076l-0.103,-0.079l-0.101,-0.081l-0.101,-0.083l-0.098,-0.083l-0.098,-0.086l-0.098,-0.088l-0.096,-0.089l-0.096,-0.092l-0.095,-0.093l-0.095,-0.095l-0.093,-0.097l-0.093,-0.098l-0.093,-0.1l-0.09,-0.1l-0.091,-0.103l-0.092,-0.106l-0.089,-0.105l-0.089,-0.108l-0.09,-0.11l-0.087,-0.11l-0.088,-0.112l-0.087,-0.114l-0.087,-0.115l-0.087,-0.117l-0.085,-0.118l-0.085,-0.118l-0.085,-0.12l-0.085,-0.123l-0.084,-0.124l-0.084,-0.124l-0.083,-0.127l-0.083,-0.127l-0.082,-0.127l-0.083,-0.13l-0.082,-0.132l-0.081,-0.131l-0.082,-0.134l-0.08,-0.134l-0.08,-0.135l-0.081,-0.138l-0.079,-0.138l-0.08,-0.139l-0.079,-0.14l-0.08,-0.143l-0.155,-0.284l-0.156,-0.289l-0.154,-0.294l-0.153,-0.297l-0.152,-0.301l-0.15,-0.304l-0.149,-0.308l-0.148,-0.31l-0.147,-0.314l-0.145,-0.316l-0.145,-0.319l-0.143,-0.322l-0.141,-0.323l-0.141,-0.326l-0.139,-0.328l-0.138,-0.33l-0.137,-0.331l-0.135,-0.333l-0.135,-0.334l-0.132,-0.335l-0.132,-0.336l-0.13,-0.337l-0.128,-0.337l-0.128,-0.338l-0.126,-0.339l-0.124,-0.338l-0.123,-0.338l-0.123,-0.339l-0.109,-0.309l-0.108,-0.308l-0.106,-0.308l-0.106,-0.308l-0.105,-0.309l-0.103,-0.31l-0.103,-0.309l-0.101,-0.31l-0.1,-0.309l-0.1,-0.311l-0.098,-0.31l-0.097,-0.311l-0.096,-0.312l-0.096,-0.311l-0.094,-0.313l-0.093,-0.312l-0.092,-0.312l-0.09,-0.313l-0.09,-0.313l-0.089,-0.313l-0.088,-0.314l-0.086,-0.314l-0.086,-0.315l-0.084,-0.314l-0.084,-0.315l-0.082,-0.315l-0.081,-0.316l-0.08,-0.315l-0.079,-0.316l-0.078,-0.316l-0.077,-0.316l-0.076,-0.317l-0.075,-0.317l-0.074,-0.317l-0.073,-0.317l-0.071,-0.318l-0.071,-0.318l-0.069,-0.318l-0.069,-0.319l-0.067,-0.318l-0.066,-0.319l-0.066,-0.319l-0.064,-0.32l-0.063,-0.319l-0.062,-0.32l-0.06,-0.32l-0.06,-0.32l-0.059,-0.321l-0.057,-0.32l-0.057,-0.321l-0.055,-0.321l-0.055,-0.321l-0.053,-0.322l-0.052,-0.321l-0.051,-0.322l-0.05,-0.323l-0.049,-0.322l-0.048,-0.322l-0.047,-0.323l-0.045,-0.323l-0.045,-0.322l-0.044,-0.324l-0.042,-0.323l-0.041,-0.322l-34.237,-271.313l-0.099,-0.083l-0.183,-0.153l-0.191,-0.161l-0.198,-0.169l-0.202,-0.175l-0.208,-0.181l-0.212,-0.187l-0.215,-0.194l-0.218,-0.199l-0.219,-0.204l-0.112,-0.105l-0.11,-0.106l-0.111,-0.107l-0.11,-0.107l-0.111,-0.109l-0.11,-0.111l-0.111,-0.111l-0.11,-0.113l-0.109,-0.114l-0.109,-0.114l-0.108,-0.116l-0.109,-0.118l-0.106,-0.118l-0.106,-0.119l-0.105,-0.12l-0.104,-0.121l-0.103,-0.122l-0.102,-0.123l-0.1,-0.124l-0.099,-0.126l-0.097,-0.126l-0.096,-0.127l-0.095,-0.13l-0.092,-0.128l-0.09,-0.13l-0.089,-0.132l-0.087,-0.134l-0.083,-0.132l-0.083,-0.136l-0.079,-0.137l-0.077,-0.138l-0.075,-0.139l-0.071,-0.14l-0.069,-0.142l-0.066,-0.145l-0.06,-0.139l-0.032,-0.078l-0.029,-0.074l-0.027,-0.072l-0.029,-0.078l-0.026,-0.075l-0.025,-0.075l-0.024,-0.076l-0.024,-0.08l-0.025,-0.088l-0.023,-0.09l-0.021,-0.09l-0.018,-0.091l-0.017,-0.094l-0.014,-0.088l-0.012,-0.088l-0.01,-0.092l-0.008,-0.088l-0.007,-0.088l-0.004,-0.089l-0.003,-0.089l-0.001,-0.088l0.001,-0.085l0.002,-0.085l0.004,-0.088l0.006,-0.085l0.006,-0.081l0.008,-0.085l0.009,-0.081l0.01,-0.081l0.012,-0.085l0.012,-0.08l0.014,-0.081l0.015,-0.081l0.016,-0.083l0.033,-0.152l0.036,-0.152l0.04,-0.153l0.042,-0.15l0.044,-0.148l0.047,-0.147l0.048,-0.144l0.05,-0.144l0.05,-0.141l0.052,-0.138l0.052,-0.138l0.053,-0.138l0.054,-0.136l0.107,-0.264l0.211,-0.513l0.101,-0.25l0.048,-0.119l0.046,-0.119l0.046,-0.119l0.044,-0.117l0.042,-0.114l0.039,-0.11l0.037,-0.11l0.035,-0.107l0.032,-0.104l0.03,-0.105l0.027,-0.099l0.025,-0.096l0.022,-0.097l0.009,-0.042l0.009,-0.043l0.008,-0.043l0.008,-0.049l0.007,-0.043l0.006,-0.038l0.005,-0.041l0.005,-0.038l0.004,-0.041l0.003,-0.037l0.003,-0.037l0.002,-0.04l0.001,-0.032l0.001,-0.035l0,-0.032l-0.001,-0.032l-0.001,-0.034l-0.002,-0.031l-0.002,-0.031l-0.003,-0.03l-0.003,-0.027l-0.003,-0.026l-0.005,-0.03l-0.005,-0.026l-0.004,-0.023l-0.006,-0.026l-0.007,-0.026l-0.006,-0.023l-0.008,-0.027l-0.008,-0.024l-0.008,-0.023l-0.01,-0.025l-0.008,-0.021l-0.012,-0.026l-0.019,-0.041l-0.02,-0.042l-0.022,-0.042l-0.023,-0.045l-0.025,-0.044l-0.026,-0.047l-0.028,-0.046l-0.029,-0.048l-0.03,-0.048l-0.031,-0.047l-0.033,-0.049l-0.036,-0.052l-0.036,-0.052l-0.036,-0.05l-0.039,-0.052l-0.042,-0.055l-0.041,-0.053l-0.042,-0.052l-0.045,-0.055l-0.046,-0.056l-0.048,-0.056l-0.045,-0.053l-0.102,-0.115l-0.106,-0.116l-0.11,-0.117l-0.114,-0.118l-0.119,-0.12l-0.123,-0.121l-0.128,-0.123l-0.131,-0.124l-0.135,-0.124l-0.139,-0.127l-0.142,-0.127l-0.145,-0.129l-0.148,-0.129l-0.15,-0.13l-0.154,-0.132l-0.157,-0.133l-0.157,-0.132l-0.324,-0.271l-0.33,-0.274l-0.676,-0.56l-0.345,-0.286l-0.344,-0.29l-0.174,-0.148l-0.173,-0.148l-0.173,-0.15l-0.173,-0.151l-0.173,-0.152l-0.172,-0.154l-0.171,-0.155l-0.17,-0.156l-0.169,-0.157l-0.168,-0.16l-0.166,-0.16l-0.166,-0.164l-0.162,-0.164l-0.162,-0.166l-0.159,-0.167l-0.157,-0.17l-0.153,-0.169l-0.079,-0.089l-0.075,-0.087l-0.076,-0.088l-0.074,-0.089l-0.073,-0.088l-0.073,-0.089l-0.073,-0.091l-0.072,-0.091l-0.07,-0.09l-0.07,-0.092l-0.069,-0.092l-0.068,-0.094l-0.067,-0.093l-0.064,-0.091l-0.427,-0.616l-0.449,-0.652l-0.473,-0.691l-0.495,-0.727l-0.515,-0.761l-0.532,-0.792l-0.549,-0.821l-0.281,-0.422l-0.283,-0.427l-0.287,-0.435l-0.29,-0.44l-0.292,-0.445l-0.296,-0.452l-0.297,-0.456l-0.299,-0.461l-0.302,-0.466l-0.302,-0.47l-0.305,-0.474l-0.305,-0.479l-0.307,-0.481l-0.307,-0.485l-0.308,-0.487l-0.308,-0.491l-0.309,-0.493l-0.308,-0.495l-0.308,-0.497l-0.307,-0.499l-0.306,-0.499l-0.305,-0.502l-0.304,-0.501l-0.303,-0.502l-0.301,-0.503l-0.299,-0.503l-0.297,-0.502l-0.295,-0.502l-0.292,-0.501l-0.289,-0.499l-0.286,-0.499l-0.283,-0.496l-0.28,-0.495l-0.276,-0.493l-0.271,-0.49l-0.269,-0.488l-0.263,-0.485l-0.259,-0.482l-0.254,-0.478l-0.25,-0.475l-0.244,-0.47l-0.238,-0.466l-0.118,-0.232l-0.116,-0.23l-0.114,-0.23l-0.113,-0.227l-0.111,-0.228l-0.11,-0.225l-0.108,-0.223l-0.107,-0.224l-0.105,-0.222l-0.103,-0.22l-0.102,-0.219l-0.1,-0.217l-0.099,-0.217l-0.096,-0.214l-0.095,-0.212l-0.093,-0.212l-0.155,-0.358l-0.154,-0.36l-0.153,-0.363l-0.152,-0.365l-0.15,-0.366l-0.15,-0.368l-0.147,-0.371l-0.146,-0.372l-0.145,-0.374l-0.143,-0.375l-0.142,-0.377l-0.14,-0.379l-0.139,-0.38l-0.137,-0.381l-0.135,-0.383l-0.134,-0.384l-0.131,-0.385l-0.13,-0.387l-0.128,-0.387l-0.126,-0.387l-0.124,-0.39l-0.122,-0.389l-0.12,-0.39l-0.118,-0.391l-0.116,-0.392l-0.114,-0.392l-0.111,-0.393l-0.11,-0.392l-0.107,-0.394l-0.104,-0.393l-0.102,-0.393l-0.1,-0.393l-0.098,-0.394l-0.095,-0.393l-0.092,-0.393l-0.089,-0.393l-0.088,-0.392l-0.084,-0.393l-0.082,-0.391l-0.079,-0.392l-0.076,-0.391l-0.073,-0.39l-0.07,-0.389l-0.068,-0.388l-0.064,-0.388l-0.061,-0.386l-0.059,-0.386l-0.055,-0.385l-0.052,-0.382l-0.049,-0.382l-0.023,-0.192l-0.022,-0.19l-0.022,-0.19l-0.02,-0.189l-0.02,-0.19l-0.019,-0.189l-0.018,-0.188l-0.018,-0.188l-0.016,-0.188l-0.015,-0.188l-0.015,-0.186l-0.014,-0.186l-0.013,-0.188l-0.012,-0.184l-0.011,-0.185l-0.01,-0.185l-0.009,-0.184l-0.009,-0.185l-0.007,-0.184l-0.006,-0.182l-0.006,-0.183l-0.005,-0.181l-0.003,-0.181l-0.003,-0.182l-0.001,-0.18l-0.001,-0.179l0,-0.18l0.001,-0.182l0.003,-0.18l0.006,-0.182l0.008,-0.181l0.01,-0.181l0.012,-0.182l0.015,-0.18l0.016,-0.181l0.02,-0.181l0.02,-0.179l0.023,-0.18l0.026,-0.18l0.027,-0.179l0.028,-0.179l0.031,-0.179l0.033,-0.178l0.034,-0.178l0.036,-0.178l0.037,-0.176l0.04,-0.179l0.041,-0.176l0.042,-0.176l0.044,-0.177l0.045,-0.174l0.047,-0.177l0.048,-0.175l0.05,-0.175l0.05,-0.174l0.052,-0.173l0.054,-0.175l0.054,-0.173l0.055,-0.172l0.057,-0.175l0.058,-0.172l0.058,-0.17l0.06,-0.173l0.061,-0.172l0.061,-0.171l0.063,-0.17l0.062,-0.169l0.064,-0.17l0.065,-0.171l0.066,-0.17l0.133,-0.336l0.135,-0.336l0.137,-0.334l0.139,-0.332l0.14,-0.331l0.143,-0.33l0.143,-0.328l0.143,-0.326l0.144,-0.325l0.288,-0.641l0.286,-0.636l0.283,-0.627l0.139,-0.311l0.137,-0.307l0.134,-0.305l0.133,-0.304l0.13,-0.301l0.127,-0.298l0.123,-0.295l0.12,-0.293l0.117,-0.29l0.113,-0.288l0.054,-0.141l0.053,-0.141l0.052,-0.14l0.052,-0.141l0.05,-0.138l0.048,-0.138l0.048,-0.138l0.046,-0.135l0.045,-0.136l0.043,-0.135l0.042,-0.133l0.041,-0.133l0.039,-0.13l0.038,-0.13l0.036,-0.131l0.035,-0.129l0.034,-0.127l0.031,-0.126l0.03,-0.125l0.029,-0.123l0.027,-0.124l0.025,-0.123l0.023,-0.118l0.022,-0.12l0.021,-0.119l0.018,-0.116l0.017,-0.116l0.015,-0.114l0.013,-0.112l0.011,-0.111l0.01,-0.112l0.008,-0.109l0.006,-0.108l0.005,-0.106l0.003,-0.104l0,-0.103l0,-0.031l-0.001,-0.035l-0.001,-0.032l-0.002,-0.032l-0.002,-0.032l-0.004,-0.038l-0.004,-0.038l-0.004,-0.034l-0.006,-0.04l-0.006,-0.039l-0.006,-0.041l-0.008,-0.041l-0.007,-0.037l-0.009,-0.042l-0.01,-0.047l-0.01,-0.043l-0.011,-0.043l-0.011,-0.042l-0.027,-0.098l-0.028,-0.094l-0.032,-0.099l-0.035,-0.101l-0.037,-0.102l-0.041,-0.105l-0.044,-0.108l-0.046,-0.11l-0.049,-0.11l-0.053,-0.114l-0.055,-0.116l-0.058,-0.116l-0.06,-0.119l-0.063,-0.119l-0.065,-0.121l-0.067,-0.122l-0.071,-0.124l-0.071,-0.124l-0.075,-0.126l-0.076,-0.126l-0.079,-0.127l-0.081,-0.13l-0.082,-0.129l-0.083,-0.128l-0.086,-0.131l-0.089,-0.132l-0.089,-0.132l-0.09,-0.131l-0.092,-0.133l-0.094,-0.134l-0.093,-0.132l-0.096,-0.133l-0.096,-0.133l-0.198,-0.27l-0.199,-0.268l-0.203,-0.268l-0.205,-0.268l-0.206,-0.268l-0.207,-0.266l-0.207,-0.264l-0.415,-0.527l-0.407,-0.517l-0.2,-0.255l-0.197,-0.252l-0.193,-0.249l-0.19,-0.246l-0.184,-0.243l-0.179,-0.24l-0.172,-0.235l-0.086,-0.119l-0.082,-0.116l-0.081,-0.115l-0.079,-0.114l-0.078,-0.115l-0.075,-0.113l-0.074,-0.112l-0.072,-0.113l-0.07,-0.112l-0.068,-0.111l-0.066,-0.111l-0.064,-0.112l-0.061,-0.11l-0.059,-0.111l-0.057,-0.112l-0.055,-0.114l-0.052,-0.114l-0.05,-0.114l-0.046,-0.118l-0.043,-0.119l-0.042,-0.125l-0.033,-0.119l-0.018,-0.068l-0.016,-0.07l-0.015,-0.071l-0.012,-0.067l-0.011,-0.067l-0.01,-0.069l-0.008,-0.076l-0.006,-0.085l-0.003,-0.073l-0.002,-0.073l0.002,-0.09l0.005,-0.084l0.007,-0.077l0.012,-0.094l0.016,-0.087l0.019,-0.088l0.026,-0.096l0.026,-0.081l0.034,-0.095l0.041,-0.095l0.041,-0.087l0.046,-0.084l0.054,-0.089l0.059,-0.086l0.06,-0.081l0.068,-0.079l0.064,-0.069l0.075,-0.073l0.074,-0.065l0.072,-0.058l0.08,-0.059l0.08,-0.053l0.074,-0.045l0.077,-0.043l0.084,-0.042l0.079,-0.035l0.076,-0.032l0.08,-0.03l0.078,-0.026l0.077,-0.023l0.075,-0.021l0.076,-0.018l0.078,-0.017l0.075,-0.014l0.073,-0.011l0.075,-0.011l0.074,-0.009l0.075,-0.007l0.075,-0.006l0.073,-0.004l0.074,-0.003l0.075,-0.002l0.074,0l0.076,0l0.074,0.002l0.069,0.002l0.651,0.026l0.676,0.024l0.707,0.024l0.737,0.022l0.767,0.021l0.798,0.019l0.826,0.019l0.855,0.018l0.882,0.016l0.911,0.016l0.937,0.014l0.963,0.014l0.99,0.012l1.015,0.012l1.04,0.01l1.064,0.01l1.088,0.009l1.112,0.008l1.134,0.007l1.157,0.006l1.179,0.005l1.199,0.004l1.221,0.004l1.242,0.003l1.26,0.002l1.281,0.001l2.617,0.001l2.688,-0.002l2.755,-0.005l2.819,-0.007l2.878,-0.01l2.934,-0.012l2.985,-0.014l3.032,-0.015l3.076,-0.017l3.115,-0.019l3.15,-0.021l3.182,-0.021l3.209,-0.023l6.485,-0.047l6.546,-0.051l6.576,-0.051l6.574,-0.052l6.539,-0.051l6.474,-0.048l3.203,-0.023l3.173,-0.022l3.142,-0.02l3.104,-0.02l3.065,-0.018l3.02,-0.016l2.972,-0.014l2.919,-0.012l2.864,-0.011l2.802,-0.008l2.739,-0.005l2.67,-0.004l2.598,0l1.271,0.001Zm-3.867,2.999l-2.667,0.004l-2.736,0.005l-2.801,0.008l-2.861,0.011l-2.918,0.012l-2.969,0.014l-3.019,0.016l-3.064,0.018l-3.103,0.02l-3.141,0.02l-3.172,0.022l-3.202,0.023l-6.473,0.048l-6.539,0.051l-6.573,0.052l-6.577,0.051l-6.547,0.05l-6.485,0.048l-3.21,0.023l-3.183,0.021l-3.152,0.021l-3.116,0.018l-3.077,0.018l-3.034,0.015l-2.986,0.014l-2.936,0.012l-2.88,0.01l-2.821,0.007l-2.758,0.005l-2.691,0.002l-2.62,-0.001l-1.283,-0.001l-1.262,-0.002l-1.244,-0.003l-1.223,-0.004l-1.202,-0.004l-1.181,-0.005l-1.159,-0.006l-1.137,-0.007l-1.114,-0.008l-1.092,-0.009l-1.067,-0.01l-1.043,-0.01l-1.019,-0.012l-0.994,-0.012l-0.967,-0.014l-0.942,-0.015l-0.915,-0.015l-0.889,-0.017l-0.86,-0.018l-0.833,-0.019l-0.804,-0.019l-0.775,-0.022l-0.746,-0.022l-0.715,-0.023l-0.503,-0.019l0.017,0.026l0.061,0.092l0.064,0.093l0.066,0.097l0.07,0.1l0.072,0.101l0.073,0.101l0.157,0.214l0.164,0.22l0.172,0.226l0.179,0.234l0.186,0.239l0.191,0.245l0.197,0.25l0.406,0.516l0.417,0.53l0.213,0.272l0.214,0.275l0.214,0.277l0.214,0.28l0.214,0.284l0.212,0.285l0.21,0.286l0.105,0.145l0.104,0.145l0.104,0.146l0.102,0.146l0.101,0.145l0.1,0.147l0.1,0.147l0.097,0.146l0.097,0.148l0.097,0.149l0.094,0.148l0.092,0.147l0.092,0.148l0.09,0.15l0.089,0.149l0.087,0.15l0.084,0.149l0.083,0.15l0.082,0.151l0.078,0.151l0.077,0.149l0.075,0.152l0.072,0.151l0.069,0.151l0.069,0.153l0.065,0.154l0.062,0.153l0.059,0.154l0.057,0.155l0.053,0.154l0.051,0.155l0.047,0.158l0.042,0.153l0.022,0.082l0.019,0.08l0.019,0.08l0.017,0.076l0.017,0.08l0.016,0.084l0.014,0.08l0.013,0.08l0.013,0.08l0.011,0.08l0.01,0.084l0.008,0.08l0.008,0.08l0.006,0.084l0.005,0.084l0.004,0.084l0.002,0.08l0.001,0.083l-0.002,0.155l-0.004,0.155l-0.006,0.156l-0.009,0.154l-0.012,0.154l-0.013,0.153l-0.016,0.155l-0.018,0.156l-0.02,0.154l-0.023,0.154l-0.024,0.155l-0.027,0.154l-0.028,0.154l-0.03,0.156l-0.032,0.153l-0.034,0.154l-0.035,0.155l-0.037,0.154l-0.039,0.155l-0.041,0.155l-0.042,0.154l-0.043,0.153l-0.044,0.155l-0.047,0.156l-0.047,0.154l-0.049,0.155l-0.05,0.155l-0.051,0.154l-0.053,0.155l-0.054,0.155l-0.054,0.155l-0.056,0.156l-0.057,0.155l-0.058,0.156l-0.059,0.156l-0.06,0.156l-0.122,0.311l-0.125,0.312l-0.128,0.312l-0.131,0.314l-0.134,0.314l-0.135,0.313l-0.137,0.314l-0.14,0.315l-0.14,0.316l-0.141,0.315l-0.284,0.631l-0.285,0.633l-0.285,0.635l-0.14,0.316l-0.14,0.317l-0.138,0.316l-0.136,0.316l-0.134,0.317l-0.133,0.316l-0.13,0.316l-0.126,0.315l-0.125,0.316l-0.06,0.156l-0.06,0.156l-0.059,0.157l-0.058,0.158l-0.057,0.156l-0.057,0.157l-0.055,0.155l-0.054,0.155l-0.053,0.157l-0.052,0.156l-0.05,0.153l-0.05,0.156l-0.049,0.155l-0.047,0.153l-0.046,0.154l-0.045,0.155l-0.043,0.153l-0.042,0.152l-0.041,0.152l-0.039,0.153l-0.038,0.152l-0.036,0.152l-0.036,0.151l-0.033,0.149l-0.032,0.152l-0.03,0.15l-0.029,0.148l-0.027,0.15l-0.025,0.148l-0.024,0.148l-0.023,0.148l-0.02,0.146l-0.019,0.146l-0.017,0.148l-0.015,0.145l-0.013,0.144l-0.012,0.145l-0.01,0.144l-0.008,0.144l-0.006,0.143l-0.005,0.142l-0.002,0.144l-0.001,0.159l0,0.163l0,0.164l0.002,0.164l0.002,0.165l0.004,0.166l0.004,0.166l0.005,0.168l0.006,0.168l0.007,0.169l0.007,0.168l0.009,0.17l0.009,0.17l0.011,0.171l0.011,0.173l0.011,0.171l0.013,0.173l0.014,0.174l0.014,0.174l0.015,0.174l0.017,0.175l0.017,0.176l0.017,0.176l0.019,0.176l0.019,0.178l0.02,0.177l0.021,0.179l0.021,0.177l0.047,0.359l0.048,0.361l0.052,0.362l0.055,0.363l0.058,0.365l0.061,0.366l0.064,0.368l0.066,0.369l0.07,0.37l0.072,0.371l0.075,0.371l0.078,0.373l0.08,0.374l0.083,0.374l0.086,0.375l0.088,0.376l0.09,0.375l0.094,0.376l0.095,0.377l0.098,0.376l0.1,0.377l0.103,0.377l0.105,0.377l0.107,0.376l0.109,0.376l0.111,0.376l0.114,0.376l0.115,0.376l0.117,0.374l0.12,0.374l0.121,0.374l0.123,0.372l0.125,0.371l0.127,0.371l0.128,0.37l0.13,0.368l0.132,0.367l0.134,0.366l0.135,0.365l0.136,0.363l0.138,0.362l0.14,0.36l0.14,0.358l0.142,0.357l0.144,0.354l0.145,0.353l0.145,0.351l0.148,0.348l0.148,0.347l0.149,0.344l0.087,0.198l0.09,0.202l0.092,0.203l0.093,0.204l0.095,0.207l0.096,0.208l0.099,0.211l0.1,0.211l0.102,0.213l0.105,0.215l0.105,0.217l0.107,0.218l0.109,0.22l0.11,0.22l0.112,0.223l0.113,0.223l0.231,0.452l0.237,0.456l0.242,0.461l0.247,0.465l0.253,0.47l0.257,0.473l0.262,0.476l0.266,0.481l0.27,0.482l0.274,0.485l0.278,0.488l0.281,0.49l0.285,0.491l0.287,0.493l0.289,0.493l0.293,0.495l0.295,0.495l0.296,0.496l0.299,0.495l0.3,0.495l0.302,0.495l0.302,0.494l0.304,0.493l0.304,0.49l0.305,0.49l0.304,0.488l0.305,0.485l0.305,0.482l0.304,0.48l0.304,0.477l0.302,0.473l0.302,0.47l0.3,0.466l0.298,0.461l0.297,0.457l0.295,0.452l0.292,0.447l0.29,0.442l0.287,0.436l0.284,0.43l0.281,0.424l0.278,0.418l0.544,0.815l0.528,0.785l0.51,0.754l0.49,0.719l0.469,0.684l0.444,0.646l0.418,0.602l0.05,0.072l0.051,0.071l0.051,0.07l0.053,0.07l0.053,0.07l0.055,0.071l0.055,0.07l0.056,0.069l0.057,0.071l0.06,0.071l0.059,0.07l0.06,0.071l0.062,0.07l0.06,0.068l0.129,0.144l0.132,0.142l0.134,0.141l0.138,0.142l0.14,0.142l0.143,0.141l0.146,0.141l0.149,0.141l0.151,0.141l0.154,0.142l0.156,0.14l0.157,0.141l0.159,0.14l0.161,0.141l0.163,0.14l0.163,0.14l0.165,0.14l0.333,0.28l0.335,0.279l0.674,0.558l0.336,0.279l0.333,0.278l0.167,0.14l0.164,0.14l0.163,0.14l0.163,0.14l0.161,0.142l0.16,0.141l0.158,0.142l0.156,0.141l0.154,0.143l0.152,0.144l0.15,0.144l0.148,0.145l0.145,0.146l0.143,0.148l0.14,0.149l0.136,0.149l0.132,0.149l0.068,0.08l0.064,0.075l0.064,0.077l0.063,0.077l0.063,0.08l0.062,0.079l0.059,0.078l0.06,0.08l0.059,0.082l0.057,0.08l0.056,0.08l0.055,0.083l0.055,0.085l0.053,0.084l0.052,0.085l0.051,0.085l0.049,0.086l0.048,0.088l0.046,0.087l0.046,0.09l0.043,0.09l0.043,0.092l0.039,0.088l0.038,0.093l0.034,0.09l0.032,0.091l0.03,0.093l0.027,0.089l0.026,0.093l0.023,0.091l0.021,0.091l0.019,0.095l0.017,0.092l0.014,0.088l0.012,0.093l0.011,0.092l0.008,0.09l0.007,0.089l0.004,0.089l0.003,0.086l0.002,0.09l0,0.09l-0.002,0.086l-0.003,0.089l-0.005,0.083l-0.006,0.086l-0.008,0.086l-0.008,0.082l-0.01,0.086l-0.011,0.082l-0.013,0.085l-0.013,0.082l-0.013,0.076l-0.015,0.081l-0.017,0.082l-0.017,0.084l-0.036,0.153l-0.039,0.156l-0.042,0.153l-0.043,0.148l-0.046,0.15l-0.048,0.148l-0.049,0.144l-0.052,0.145l-0.052,0.142l-0.052,0.139l-0.052,0.137l-0.054,0.138l-0.055,0.137l-0.107,0.263l-0.21,0.511l-0.099,0.246l-0.047,0.119l-0.046,0.117l-0.043,0.115l-0.043,0.115l-0.04,0.111l-0.037,0.108l-0.036,0.106l-0.032,0.103l-0.03,0.101l-0.028,0.098l-0.024,0.094l-0.022,0.093l-0.021,0.093l-0.007,0.038l-0.008,0.041l-0.006,0.04l-0.007,0.04l-0.005,0.036l-0.004,0.039l-0.005,0.039l-0.003,0.035l-0.003,0.038l-0.002,0.034l-0.001,0.029l-0.001,0.033l-0.001,0.033l0.001,0.028l0,0.028l0.002,0.028l0.002,0.027l0.002,0.027l0.003,0.023l0.004,0.027l0.004,0.026l0.003,0.019l0.005,0.022l0.005,0.022l0.005,0.022l0.007,0.023l0.01,0.032l0.011,0.036l0.012,0.036l0.013,0.038l0.012,0.034l0.016,0.04l0.015,0.038l0.014,0.034l0.037,0.087l0.037,0.081l0.041,0.084l0.044,0.087l0.047,0.088l0.05,0.089l0.052,0.09l0.056,0.092l0.06,0.095l0.061,0.094l0.063,0.094l0.068,0.097l0.069,0.098l0.071,0.097l0.074,0.098l0.076,0.099l0.079,0.099l0.08,0.099l0.082,0.099l0.084,0.1l0.086,0.1l0.087,0.1l0.09,0.1l0.09,0.1l0.091,0.099l0.093,0.099l0.094,0.1l0.095,0.098l0.096,0.099l0.096,0.097l0.097,0.097l0.099,0.097l0.099,0.097l0.098,0.095l0.099,0.094l0.098,0.093l0.201,0.186l0.198,0.182l0.198,0.178l0.196,0.173l0.193,0.169l0.19,0.164l0.185,0.157l0.181,0.153l0.176,0.148l0.168,0.14l0.318,0.264l0.37,0.454l0.01,0.034l0.034,0.039l0.185,0.555l34.303,271.833l0.04,0.315l0.041,0.314l0.042,0.312l0.044,0.313l0.044,0.313l0.045,0.313l0.047,0.312l0.047,0.313l0.048,0.311l0.05,0.312l0.05,0.312l0.052,0.311l0.053,0.311l0.053,0.311l0.055,0.311l0.056,0.311l0.057,0.31l0.058,0.311l0.059,0.31l0.06,0.309l0.061,0.31l0.062,0.31l0.063,0.308l0.064,0.309l0.065,0.309l0.067,0.309l0.067,0.308l0.068,0.308l0.07,0.308l0.07,0.307l0.071,0.307l0.073,0.307l0.074,0.307l0.074,0.307l0.076,0.306l0.077,0.306l0.077,0.306l0.079,0.306l0.08,0.305l0.08,0.305l0.082,0.305l0.083,0.304l0.084,0.304l0.085,0.304l0.086,0.304l0.087,0.303l0.088,0.303l0.089,0.303l0.09,0.303l0.091,0.301l0.092,0.302l0.094,0.302l0.094,0.301l0.095,0.302l0.096,0.3l0.098,0.301l0.098,0.3l0.099,0.3l0.1,0.299l0.102,0.299l0.102,0.299l0.103,0.298l0.105,0.298l0.105,0.297l0.118,0.326l0.119,0.329l0.121,0.328l0.122,0.327l0.123,0.327l0.124,0.326l0.126,0.325l0.127,0.324l0.127,0.323l0.129,0.321l0.13,0.319l0.131,0.318l0.132,0.316l0.133,0.312l0.134,0.311l0.135,0.308l0.135,0.305l0.137,0.302l0.137,0.299l0.139,0.295l0.139,0.292l0.139,0.287l0.14,0.284l0.141,0.279l0.142,0.276l0.142,0.27l0.142,0.265l0.144,0.262l0.071,0.128l0.072,0.127l0.071,0.125l0.072,0.124l0.072,0.122l0.072,0.122l0.072,0.12l0.072,0.118l0.073,0.118l0.071,0.114l0.072,0.113l0.073,0.114l0.072,0.11l0.071,0.108l0.072,0.108l0.072,0.105l0.071,0.103l0.072,0.102l0.073,0.101l0.071,0.098l0.071,0.096l0.071,0.094l0.071,0.093l0.072,0.091l0.071,0.089l0.069,0.086l0.071,0.085l0.07,0.083l0.069,0.08l0.069,0.078l0.07,0.078l0.068,0.073l0.069,0.072l0.067,0.07l0.067,0.068l0.067,0.065l0.066,0.063l0.066,0.062l0.065,0.058l0.064,0.056l0.065,0.055l0.062,0.051l0.062,0.05l0.061,0.046l0.061,0.045l0.06,0.043l0.058,0.04l0.058,0.038l0.057,0.035l0.056,0.034l0.053,0.031l0.054,0.029l0.051,0.027l0.05,0.024l0.051,0.023l0.048,0.02l0.047,0.019l0.044,0.016l0.045,0.015l0.044,0.014l0.041,0.011l0.042,0.01l0.039,0.009l0.038,0.006l0.038,0.006l0.037,0.005l0.037,0.003l0.034,0.002l0.034,0.001l0.035,-0.001l0.033,-0.001l0.038,-0.003l0.018,-0.002l0.02,-0.003l0.021,-0.003l0.024,-0.004l0.025,-0.005l0.026,-0.006l0.027,-0.006l0.029,-0.008l0.029,-0.008l0.03,-0.009l0.033,-0.011l0.035,-0.012l0.033,-0.012l0.034,-0.013l0.037,-0.015l0.04,-0.017l0.039,-0.017l0.038,-0.018l0.041,-0.019l0.042,-0.021l0.042,-0.022l0.044,-0.024l0.046,-0.024l0.044,-0.026l0.047,-0.027l0.046,-0.028l0.047,-0.028l0.049,-0.031l0.051,-0.033l0.048,-0.032l0.051,-0.035l0.053,-0.036l0.051,-0.037l0.054,-0.038l0.051,-0.039l0.051,-0.038l0.112,-0.087l0.112,-0.09l0.114,-0.094l0.114,-0.098l0.117,-0.104l0.118,-0.107l0.119,-0.113l0.123,-0.118l0.122,-0.12l0.123,-0.125l0.127,-0.13l0.126,-0.134l0.126,-0.137l0.128,-0.141l0.13,-0.146l0.13,-0.149l0.13,-0.153l0.132,-0.157l0.132,-0.16l0.133,-0.164l0.132,-0.167l0.134,-0.171l0.134,-0.174l0.134,-0.177l0.135,-0.18l0.135,-0.184l0.135,-0.186l0.136,-0.19l0.136,-0.192l0.135,-0.195l0.137,-0.198l0.136,-0.201l0.135,-0.203l0.136,-0.206l0.136,-0.209l0.136,-0.211l0.135,-0.213l0.136,-0.216l0.135,-0.217l0.135,-0.221l0.134,-0.222l0.135,-0.224l0.134,-0.226l0.133,-0.228l0.133,-0.23l0.133,-0.232l0.132,-0.234l0.131,-0.236l0.131,-0.236l0.13,-0.238l0.13,-0.241l0.129,-0.241l0.128,-0.243l0.128,-0.244l0.126,-0.245l0.126,-0.247l0.126,-0.248l0.124,-0.248l0.123,-0.25l0.122,-0.25l0.121,-0.251l0.121,-0.253l0.119,-0.253l0.119,-0.254l0.116,-0.254l0.116,-0.255l0.115,-0.255l0.114,-0.255l0.112,-0.257l0.111,-0.257l0.11,-0.256l0.108,-0.256l0.107,-0.258l0.106,-0.257l0.104,-0.257l0.103,-0.257l0.101,-0.257l0.1,-0.256l0.098,-0.256l0.096,-0.256l0.095,-0.256l0.093,-0.255l0.092,-0.255l0.09,-0.253l0.088,-0.254l0.086,-0.253l0.084,-0.251l0.083,-0.251l0.081,-0.25l0.079,-0.25l0.077,-0.247l0.074,-0.247l0.074,-0.247l0.071,-0.244l0.068,-0.242l0.067,-0.242l0.065,-0.24l0.062,-0.239l0.06,-0.237l0.059,-0.236l0.056,-0.234l0.053,-0.231l0.052,-0.23l0.049,-0.227l0.046,-0.226l0.045,-0.225l0.041,-0.221l0.04,-0.22l0.037,-0.217l0.035,-0.217l0.093,-0.598l0.095,-0.613l0.095,-0.626l0.097,-0.637l0.098,-0.649l0.098,-0.659l0.2,-1.355l0.203,-1.4l0.207,-1.445l0.211,-1.487l0.213,-1.531l0.218,-1.572l0.22,-1.614l0.225,-1.654l0.227,-1.694l0.23,-1.733l0.233,-1.771l0.236,-1.808l0.24,-1.845l0.242,-1.881l0.245,-1.916l0.247,-1.95l0.251,-1.984l0.253,-2.017l0.255,-2.048l0.258,-2.08l0.26,-2.111l0.263,-2.14l0.265,-2.169l0.268,-2.198l0.269,-2.225l0.271,-2.251l0.274,-2.278l0.275,-2.303l0.277,-2.327l0.279,-2.351l0.281,-2.374l0.283,-2.396l0.284,-2.417l0.286,-2.438l0.287,-2.458l0.289,-2.477l0.29,-2.495l0.583,-5.043l0.589,-5.107l0.593,-5.166l0.596,-5.218l0.6,-5.263l0.602,-5.304l0.604,-5.338l0.606,-5.366l0.607,-5.387l0.607,-5.404l0.607,-5.413l0.607,-5.417l1.211,-10.82l1.202,-10.763l1.189,-10.655l1.173,-10.501l1.153,-10.297l0.567,-5.057l0.56,-4.988l0.554,-4.913l0.545,-4.831l0.537,-4.744l0.528,-4.651l0.519,-4.552l0.51,-4.446l0.499,-4.334l0.488,-4.217l0.24,-2.063l0.236,-2.03l0.234,-1.999l0.231,-1.965l0.228,-1.932l0.224,-1.896l0.222,-1.862l0.218,-1.825l0.215,-1.788l0.211,-1.75l0.208,-1.712l0.204,-1.673l0.201,-1.633l0.197,-1.592l0.193,-1.551l0.189,-1.509l0.186,-1.465l0.181,-1.422l0.178,-1.377l0.173,-1.333l0.17,-1.286l0.165,-1.24l0.161,-1.192l0.158,-1.155l0.015,-0.099l0.019,-0.102l0.022,-0.106l0.026,-0.105l0.027,-0.098l0.03,-0.103l0.034,-0.1l0.034,-0.095l0.038,-0.097l0.04,-0.096l0.043,-0.093l0.044,-0.091l0.046,-0.09l0.047,-0.086l0.05,-0.087l0.053,-0.085l0.053,-0.082l0.053,-0.08l0.056,-0.078l0.057,-0.078l0.058,-0.076l0.059,-0.073l0.06,-0.072l0.063,-0.073l0.062,-0.068l0.062,-0.068l0.065,-0.067l0.064,-0.065l0.066,-0.064l0.065,-0.061l0.065,-0.06l0.069,-0.062l0.069,-0.06l0.067,-0.057l0.068,-0.056l0.068,-0.055l0.071,-0.056l0.073,-0.056l0.137,-0.102l0.141,-0.101l0.143,-0.098l0.144,-0.095l0.144,-0.093l0.144,-0.09l0.144,-0.087l0.145,-0.086l0.144,-0.083l0.143,-0.081l0.144,-0.08l0.142,-0.078l0.141,-0.077l0.278,-0.149l0.273,-0.144l0.264,-0.14l0.255,-0.138l0.121,-0.066l0.119,-0.066l0.114,-0.064l0.111,-0.064l0.108,-0.064l0.102,-0.062l0.098,-0.06l0.092,-0.06l0.087,-0.058l0.08,-0.056l0.08,-0.058l0.031,-0.024l0.033,-0.026l0.034,-0.026l0.029,-0.025l0.027,-0.023l0.026,-0.023l0.028,-0.024l0.022,-0.022l0.02,-0.019l0.018,-0.018l0.019,-0.02l0.018,-0.019l0.013,-0.015l0.011,-0.013l0.011,-0.014l0.01,-0.013l0.008,-0.01l0.005,-0.009l0.005,-0.007l0.004,-0.006l0.001,-0.002l0.001,-0.001l0.001,-0.006l0.001,-0.004l0.001,-0.001l0.002,-0.011l0.003,-0.011l0,-0.001l0.001,-0.01l0.002,-0.01l0.001,-0.01l0.001,-0.01l0,-0.011l0,-0.011l0,-0.01l0,-0.016l0,-0.012l-0.001,-0.016l-0.002,-0.017l-0.002,-0.018l-0.003,-0.022l-0.002,-0.019l-0.003,-0.018l-0.004,-0.02l-0.005,-0.024l-0.007,-0.029l-0.005,-0.021l-0.006,-0.026l-0.008,-0.029l-0.006,-0.021l-0.021,-0.064l-0.021,-0.061l-0.025,-0.067l-0.028,-0.069l-0.03,-0.071l-0.033,-0.075l-0.036,-0.076l-0.04,-0.08l-0.042,-0.083l-0.045,-0.084l-0.045,-0.084l-0.049,-0.088l-0.052,-0.091l-0.054,-0.092l-0.055,-0.092l-0.055,-0.092l-0.119,-0.196l-0.123,-0.198l-0.127,-0.203l-0.128,-0.208l-0.129,-0.211l-0.066,-0.11l-0.065,-0.11l-0.065,-0.112l-0.062,-0.11l-0.064,-0.115l-0.063,-0.115l-0.062,-0.118l-0.059,-0.119l-0.059,-0.121l-0.057,-0.123l-0.056,-0.125l-0.053,-0.129l-0.051,-0.129l-0.048,-0.132l-0.043,-0.131l-0.022,-0.073l-0.022,-0.071l-0.019,-0.072l-0.018,-0.071l-0.017,-0.072l-0.017,-0.072l-0.015,-0.078l-0.013,-0.072l-0.012,-0.073l-0.011,-0.078l-0.01,-0.083l-0.008,-0.079l-0.006,-0.078l-0.004,-0.08l-0.002,-0.079l-0.001,-0.084l0.002,-0.084l0.004,-0.084l0.009,-0.127l0.012,-0.127l0.015,-0.128l0.019,-0.126l0.021,-0.123l0.024,-0.122l0.026,-0.122l0.029,-0.119l0.032,-0.118l0.034,-0.12l0.036,-0.115l0.037,-0.112l0.041,-0.115l0.042,-0.111l0.042,-0.108l0.047,-0.111l0.046,-0.107l0.048,-0.106l0.05,-0.105l0.05,-0.103l0.052,-0.102l0.053,-0.101l0.055,-0.101l0.055,-0.099l0.055,-0.097l0.057,-0.098l0.058,-0.096l0.058,-0.094l0.059,-0.095l0.06,-0.093l0.06,-0.091l0.062,-0.094l0.12,-0.177l0.124,-0.177l0.124,-0.174l0.124,-0.171l0.124,-0.168l0.124,-0.166l0.243,-0.321l0.238,-0.315l0.114,-0.153l0.112,-0.15l0.108,-0.148l0.104,-0.144l0.101,-0.143l0.1,-0.148l0.201,-0.294l0.215,-0.313l0.226,-0.321l0.235,-0.332l0.245,-0.342l0.253,-0.35l0.263,-0.361l0.272,-0.37l0.28,-0.379l0.288,-0.387l0.296,-0.397l0.304,-0.405l0.311,-0.413l0.318,-0.421l0.655,-0.865l0.679,-0.895l0.702,-0.923l0.721,-0.949l0.738,-0.973l0.752,-0.995l0.381,-0.506l0.383,-0.51l0.386,-0.515l0.388,-0.519l0.39,-0.523l0.391,-0.527l0.392,-0.531l0.393,-0.534l0.394,-0.537l0.393,-0.54l0.394,-0.543l0.393,-0.545l0.393,-0.548l0.391,-0.549l0.39,-0.551l0.388,-0.553l0.386,-0.553l0.384,-0.555l0.381,-0.555l0.379,-0.556l0.375,-0.556l0.186,-0.277l0.185,-0.279l0.184,-0.278l0.183,-0.277l0.182,-0.277l0.182,-0.278l0.18,-0.278l0.178,-0.276l0.177,-0.277l0.177,-0.276l0.175,-0.277l0.174,-0.275l0.172,-0.275l0.17,-0.275l0.17,-0.275l0.168,-0.274l0.166,-0.272l0.165,-0.273l0.163,-0.273l0.161,-0.271l0.16,-0.271l0.158,-0.27l0.156,-0.27l0.155,-0.268l0.152,-0.268l0.151,-0.267l0.149,-0.266l0.146,-0.265l0.145,-0.265l0.143,-0.263l0.14,-0.262l0.139,-0.262l0.136,-0.26l0.134,-0.257l0.133,-0.262l0.132,-0.264l0.13,-0.267l0.128,-0.269l0.127,-0.271l0.125,-0.274l0.124,-0.276l0.122,-0.279l0.121,-0.28l0.119,-0.283l0.118,-0.285l0.116,-0.288l0.115,-0.289l0.113,-0.291l0.111,-0.293l0.11,-0.295l0.108,-0.297l0.107,-0.298l0.105,-0.301l0.104,-0.303l0.102,-0.303l0.1,-0.305l0.099,-0.307l0.097,-0.308l0.096,-0.31l0.094,-0.311l0.093,-0.312l0.09,-0.314l0.09,-0.315l0.087,-0.315l0.087,-0.317l0.084,-0.318l0.083,-0.319l0.081,-0.32l0.08,-0.321l0.078,-0.321l0.077,-0.323l0.075,-0.322l0.073,-0.324l0.072,-0.325l0.069,-0.324l0.069,-0.326l0.067,-0.325l0.065,-0.326l0.064,-0.327l0.062,-0.327l0.06,-0.327l0.059,-0.327l0.057,-0.327l0.056,-0.328l0.054,-0.327l0.052,-0.327l0.051,-0.328l0.049,-0.327l0.048,-0.326l0.046,-0.327l0.044,-0.327l0.043,-0.326l0.041,-0.326l0.04,-0.324l0.038,-0.325l0.036,-0.324l0.035,-0.323l0.033,-0.323l0.032,-0.322l0.029,-0.322l0.029,-0.32l0.027,-0.319l0.025,-0.319l0.023,-0.317l0.023,-0.317l0.02,-0.315l0.019,-0.314l0.017,-0.313l0.016,-0.312l0.014,-0.311l0.012,-0.309l0.012,-0.307l0.009,-0.306l0.008,-0.305l0.006,-0.303l0.005,-0.301l0.002,-0.3l0.002,-0.298l0,-0.296l-0.002,-0.294l-0.003,-0.292l-0.005,-0.291l-0.006,-0.287l-0.008,-0.286l-0.009,-0.285l-0.011,-0.282l-0.012,-0.278l-0.015,-0.277l-0.015,-0.276l-0.017,-0.272l-0.019,-0.27l-0.02,-0.268l-0.022,-0.264l-0.023,-0.261l-0.025,-0.26l-0.025,-0.257l-0.028,-0.253l-0.029,-0.251l-0.031,-0.247l-0.032,-0.245l-0.034,-0.242l-0.035,-0.238l-0.036,-0.235l-0.038,-0.232l-0.039,-0.229l-0.041,-0.225l-0.042,-0.222l-0.043,-0.218l-0.045,-0.214l-0.046,-0.21l-0.048,-0.207l-0.049,-0.204l-0.049,-0.199l-0.052,-0.195l-0.053,-0.192l-0.053,-0.186l-0.055,-0.183l-0.057,-0.179l-0.056,-0.174l-0.059,-0.17l-0.059,-0.166l-0.064,-0.169l-0.104,-0.274l-0.105,-0.286l-0.104,-0.287l-0.102,-0.291l-0.1,-0.293l-0.097,-0.293l-0.095,-0.297l-0.093,-0.297l-0.045,-0.152l-0.045,-0.15l-0.044,-0.151l-0.043,-0.152l-0.042,-0.152l-0.042,-0.152l-0.041,-0.153l-0.04,-0.153l-0.039,-0.153l-0.038,-0.154l-0.038,-0.155l-0.037,-0.155l-0.035,-0.155l-0.035,-0.156l-0.034,-0.156l-0.033,-0.155l-0.032,-0.158l-0.031,-0.156l-0.03,-0.157l-0.029,-0.158l-0.027,-0.157l-0.027,-0.159l-0.026,-0.16l-0.024,-0.156l-0.024,-0.16l-0.022,-0.16l-0.021,-0.159l-0.02,-0.16l-0.018,-0.16l-0.018,-0.16l-0.016,-0.162l-0.015,-0.16l-0.013,-0.161l-0.012,-0.161l-0.011,-0.161l-0.01,-0.162l-0.008,-0.161l-0.006,-0.162l-0.005,-0.162l-0.004,-0.162l-0.003,-0.163l0,-0.161l0,-0.164l0.003,-0.163l0.004,-0.161l0.005,-0.163l0.007,-0.162l0.01,-0.169l0.008,-0.124l0.014,-0.13l0.015,-0.127l0.019,-0.126l0.022,-0.129l0.024,-0.127l0.027,-0.126l0.028,-0.126l0.032,-0.128l0.033,-0.126l0.034,-0.125l0.038,-0.128l0.039,-0.128l0.04,-0.127l0.043,-0.128l0.044,-0.129l0.045,-0.128l0.048,-0.13l0.048,-0.13l0.05,-0.13l0.052,-0.132l0.053,-0.131l0.053,-0.132l0.056,-0.132l0.056,-0.133l0.058,-0.135l0.117,-0.265l0.121,-0.269l0.125,-0.271l0.128,-0.273l0.13,-0.273l0.132,-0.273l0.133,-0.274l0.135,-0.275l0.136,-0.275l0.272,-0.547l0.27,-0.545l0.133,-0.269l0.132,-0.268l0.13,-0.265l0.126,-0.262l0.123,-0.259l0.12,-0.255l0.116,-0.252l0.111,-0.246l0.107,-0.245l0.051,-0.116l0.049,-0.117l0.048,-0.116l0.047,-0.115l0.046,-0.114l0.043,-0.109l0.042,-0.109l0.04,-0.108l0.039,-0.105l0.036,-0.103l0.035,-0.1l0.033,-0.099l0.03,-0.096l0.029,-0.094l0.027,-0.089l0.024,-0.088l0.023,-0.087l0.02,-0.082l0.018,-0.078l0.017,-0.076l0.013,-0.071l0.012,-0.068l0.01,-0.063l0.007,-0.059l0.006,-0.058l0.004,-0.049l0.001,-0.015l-0.007,0l-0.619,-0.025l-0.657,-0.023l-0.689,-0.023l-0.719,-0.021l-0.75,-0.02l-0.78,-0.019l-0.809,-0.018l-0.838,-0.017l-0.866,-0.016l-0.894,-0.015l-0.922,-0.014l-0.948,-0.013l-0.974,-0.012l-1,-0.011l-1.026,-0.01l-1.049,-0.009l-1.074,-0.008l-1.098,-0.007l-1.121,-0.007l-1.144,-0.005l-1.165,-0.005l-1.188,-0.004l-1.208,-0.003l-1.23,-0.002l-1.249,-0.002l-1.269,-0.001l-2.595,0Z" style="fill:#fff;"/><path d="M180.296,242.718c20.529,185.241 26.41,238.308 28.094,253.509c0.629,5.673 1.764,11.279 3.392,16.749c2.098,7.053 5.165,14.956 8.307,14.626c3.832,-0.403 10.783,-14.689 12.025,-23.729c6.525,-47.494 21.741,-216.84 27.121,-261.23c0.313,-2.583 4.609,-3.282 5.158,-5.109c0.548,-1.827 -1.958,-4.058 -1.867,-5.854c0.09,-1.795 1.489,-3.364 2.41,-4.92c3.368,-5.692 13.035,-18.69 17.797,-29.23c4.874,-10.788 5.947,-28.009 3.545,-35.139c-0.907,-2.692 -1.593,-5.722 -1.441,-8.653c0.181,-3.49 6.188,-12.109 2.528,-12.282c-21.45,-1.016 -114.503,1.046 -136.615,0c-3.935,-0.186 5.022,7.759 5.022,12.282c0,5.116 -4.966,11.983 -5.022,18.416c-0.059,6.762 2.004,15.201 4.671,22.154c3.117,8.123 10.464,20.743 14.029,26.584c1.993,3.265 6.321,5.827 7.365,8.459c0.896,2.255 -1.668,5.118 -1.097,7.328c0.571,2.209 3.206,4.691 4.523,5.931" style="fill:none;stroke:#fff;stroke-width:1px;stroke-dasharray:20,10,0,0;"/><path d="M327.001,141.166l65.24,0" style="fill:none;stroke:#fff;stroke-width:1.5px;stroke-linejoin:round;stroke-miterlimit:1.5;"/><path d="M244.772,556.021l157.663,0" style="fill:none;stroke:#fff;stroke-width:1.5px;stroke-linejoin:round;stroke-miterlimit:1.5;"/><path d="M134.314,133.309l0,-83.945" style="fill:none;stroke:#fff;stroke-width:1.5px;stroke-linejoin:round;stroke-miterlimit:1.5;"/><path d="M151.363,135.397l0,-41.973" style="fill:none;stroke:#fff;stroke-width:1.5px;stroke-linejoin:round;stroke-miterlimit:1.5;"/><path d="M303.982,49.364l0,83.945" style="fill:none;stroke:#fff;stroke-width:1.5px;stroke-linejoin:round;stroke-miterlimit:1.5;"/><path d="M286.395,93.424l0,41.973" style="fill:none;stroke:#fff;stroke-width:1.5px;stroke-linejoin:round;stroke-miterlimit:1.5;"/><path d="M323.39,57.03l0.317,0.111l0.285,0.179l0.237,0.237l0.179,0.285l0.111,0.317l0.038,0.333l-0.038,0.334l-0.111,0.317l-0.179,0.285l-0.237,0.237l-0.285,0.179l-0.317,0.111l-0.333,0.037l-207.818,0l-0.334,-0.037l-0.317,-0.111l-0.284,-0.179l-0.238,-0.237l-0.179,-0.285l-0.11,-0.317l-0.038,-0.334l0.038,-0.333l0.11,-0.317l0.179,-0.285l0.238,-0.237l0.284,-0.179l0.317,-0.111l0.334,-0.038l207.818,0l0.333,0.038Z" style="fill:#fff;"/><path d="M369.911,128.454l0.286,0.127l0.254,0.185l0.21,0.233l0.157,0.271l0.096,0.298l0.033,0.312l0,168.743l-0.033,0.312l-0.096,0.298l-0.157,0.271l-0.21,0.233l-0.254,0.185l-0.286,0.127l-0.307,0.066l-0.314,0l-0.306,-0.066l-0.287,-0.127l-0.253,-0.185l-0.21,-0.233l-0.157,-0.271l-0.097,-0.298l-0.033,-0.312l0,-168.743l0.033,-0.312l0.097,-0.298l0.157,-0.271l0.21,-0.233l0.253,-0.185l0.287,-0.127l0.306,-0.065l0.314,0l0.307,0.065Z" style="fill:#fff;"/><path d="M369.911,391.387l0.286,0.128l0.254,0.184l0.21,0.233l0.156,0.272l0.097,0.298l0.033,0.312l0,177.863l-0.033,0.312l-0.097,0.298l-0.156,0.272l-0.21,0.233l-0.254,0.184l-0.286,0.128l-0.307,0.065l-0.314,0l-0.306,-0.065l-0.287,-0.128l-0.254,-0.184l-0.209,-0.233l-0.157,-0.272l-0.097,-0.298l-0.033,-0.312l0,-177.863l0.033,-0.312l0.097,-0.298l0.157,-0.272l0.209,-0.233l0.254,-0.184l0.287,-0.128l0.306,-0.065l0.314,0l0.307,0.065Z" style="fill:#fff;"/><g transform="matrix(2.62547,0,0,2.62547,-69399.6,-53186.8)"><text x="26551.8px" y="20394.6px" style="font-family:'BradleyHandITC', 'Bradley Hand ITC', cursive;font-size:12.95px;fill:none;">123mm</text><text x="26551.8px" y="20394.6px" style="font-family:'BradleyHandITC', 'Bradley Hand ITC', cursive;font-size:12.95px;fill:none;stroke:#fff;stroke-width:0.38px;stroke-linecap:butt;stroke-linejoin:round;stroke-miterlimit:1.41421;">123mm</text></g><g transform="matrix(2.62547,0,0,2.62547,-69553,-53445.5)"><text x="26551.8px" y="20394.6px" style="font-family:'BradleyHandITC', 'Bradley Hand ITC', cursive;font-size:12.95px;fill:none;">31,5mm</text><text x="26551.8px" y="20394.6px" style="font-family:'BradleyHandITC', 'Bradley Hand ITC', cursive;font-size:12.95px;fill:none;stroke:#fff;stroke-width:0.38px;stroke-linecap:butt;stroke-linejoin:round;stroke-miterlimit:1.41421;">31,5mm</text></g><g transform="matrix(2.62547,0,0,2.62547,-69540.9,-53503.5)"><text x="26551.8px" y="20394.6px" style="font-family:'BradleyHandITC', 'Bradley Hand ITC', cursive;font-size:12.95px;fill:none;">49mm</text><text x="26551.8px" y="20394.6px" style="font-family:'BradleyHandITC', 'Bradley Hand ITC', cursive;font-size:12.95px;fill:none;stroke:#fff;stroke-width:0.38px;stroke-linecap:butt;stroke-linejoin:round;stroke-miterlimit:1.41421;">49mm</text></g></g></svg>