<?xml version="1.0" encoding="UTF-8" standalone="no"?><!DOCTYPE svg PUBLIC "-//W3C//DTD SVG 1.1//EN" "http://www.w3.org/Graphics/SVG/1.1/DTD/svg11.dtd"><svg width="100%" height="100%" viewBox="0 0 814 570" version="1.1" xmlns="http://www.w3.org/2000/svg" xmlns:xlink="http://www.w3.org/1999/xlink" xml:space="preserve" style="fill-rule:evenodd;clip-rule:evenodd;stroke-linecap:round;stroke-linejoin:round;stroke-miterlimit:1.5;"><g id="second.-pattern"><path d="M491.108,16.003c247.389,8.053 260.482,199.478 282.544,251.966c116.26,276.6 -324.386,295.113 -568.061,284.129c-252.062,-11.362 -197.1,-365.552 -119.3,-395.095c195.776,-74.343 147.606,-149.372 404.817,-141Z" style="fill:none;stroke:#ead6b8;stroke-width:12px;"/><path d="M483.932,38.922c226.302,7.367 238.278,182.474 258.46,230.488c106.35,253.022 -296.735,269.957 -519.639,259.91c-230.576,-10.393 -180.3,-334.392 -109.131,-361.418c179.088,-68.005 135.024,-136.639 370.31,-128.98Z" style="fill:none;stroke:#ead6b8;stroke-width:3px;"/><path d="M494.948,3.736c258.677,8.421 272.367,208.579 295.435,263.462c121.566,289.219 -339.185,308.577 -593.978,297.092c-263.562,-11.88 -206.093,-382.23 -124.743,-413.122c204.709,-77.734 154.341,-156.186 423.286,-147.432Z" style="fill:none;stroke:#ead6b8;stroke-width:6px;"/></g></svg>